<svg width="1005" height="408" viewBox="0 0 1005 408" fill="none" xmlns="http://www.w3.org/2000/svg">
<rect x="648.484" y="0.484048" width="355.032" height="213.032" fill="url(#paint0_linear_16_2885)" stroke="url(#paint1_linear_16_2885)" stroke-width="0.968096"/>
<rect x="0.484048" y="0.484048" width="390.032" height="270.032" fill="url(#paint2_linear_16_2885)" stroke="url(#paint3_linear_16_2885)" stroke-width="0.968096"/>
<rect x="772.484" y="240.484" width="231.032" height="61.0319" fill="url(#paint4_linear_16_2885)" stroke="url(#paint5_linear_16_2885)" stroke-width="0.968096"/>
<rect x="190" y="33" width="645" height="374" rx="3.93548" fill="#0D0D0D" stroke="url(#paint6_linear_16_2885)"/>
<rect x="770" y="52" width="44" height="17" fill="#A9A9A9"/>
<rect x="434" y="97" width="121" height="8" fill="#494848"/>
<rect x="472" y="113" width="175" height="8" fill="#B91B23"/>
<rect x="521" y="161" width="159" height="8" fill="#B91B23"/>
<rect x="434" y="177" width="97" height="8" fill="#B91B23"/>
<rect x="473" y="214" width="150" height="8" fill="#494848"/>
<rect x="434" y="230" width="133" height="8" fill="#B91B23"/>
<rect x="434" y="251" width="39" height="8" fill="#B91B23"/>
<rect x="434" y="285" width="32" height="8" fill="#494848"/>
<rect x="434" y="300" width="65" height="8" fill="#B91B23"/>
<rect x="434" y="317" width="53" height="8" fill="#B91B23"/>
<rect x="465" y="333" width="95" height="8" fill="#B91B23"/>
<rect x="576" y="333" width="38" height="8" fill="#B91B23"/>
<rect x="434" y="349" width="169" height="8" fill="#494848"/>
<rect x="434" y="366" width="77" height="8" fill="#B91B23"/>
<rect x="647" y="215" width="30" height="8" fill="#494848"/>
<rect x="434" y="129" width="97" height="8" fill="#494848"/>
<rect x="434" y="145" width="170" height="8" fill="#494848"/>
<rect x="623" y="145" width="87" height="8" fill="#494848"/>
<rect x="714" y="52" width="44" height="17" fill="#B81B23"/>
<rect x="772.5" y="240.5" width="62" height="61" stroke="white"/>
<g filter="url(#filter0_d_16_2885)">
<circle cx="803.5" cy="269.5" r="10.5" fill="#B81B23"/>
</g>
<path d="M872.5 334.5H908" stroke="white" stroke-opacity="0.39"/>
<path d="M873 353H945" stroke="white" stroke-opacity="0.39"/>
<path d="M873 372H928" stroke="white" stroke-opacity="0.39"/>
<path d="M265.5 2V312.5" stroke="white"/>
<path d="M321.5 141.5C305.333 140.833 271.4 149.9 265 191.5" stroke="white"/>
<circle cx="333.5" cy="140.5" r="12" fill="#B81B23" stroke="white"/>
<circle cx="265" cy="339" r="10.5" fill="#B81B23" stroke="white"/>
<path d="M264 368V406" stroke="white"/>
<path d="M1004 370.5V406.5H969.5" stroke="white"/>
<path d="M59.5 104.5L101 82L144 104.5L101 127.5L59.5 104.5Z" stroke="white"/>
<path d="M60 188.5L101.5 166L144.5 188.5L101.5 211.5L60 188.5Z" stroke="white"/>
<path d="M101 126.5V211.5" stroke="white"/>
<path d="M60 104V189" stroke="white"/>
<path d="M144 105V190" stroke="white"/>
<defs>
<filter id="filter0_d_16_2885" x="778.8" y="244.8" width="49.4" height="49.4" filterUnits="userSpaceOnUse" color-interpolation-filters="sRGB">
<feFlood flood-opacity="0" result="BackgroundImageFix"/>
<feColorMatrix in="SourceAlpha" type="matrix" values="0 0 0 0 0 0 0 0 0 0 0 0 0 0 0 0 0 0 127 0" result="hardAlpha"/>
<feMorphology radius="2" operator="dilate" in="SourceAlpha" result="effect1_dropShadow_16_2885"/>
<feOffset/>
<feGaussianBlur stdDeviation="6.1"/>
<feComposite in2="hardAlpha" operator="out"/>
<feColorMatrix type="matrix" values="0 0 0 0 0.721569 0 0 0 0 0.105882 0 0 0 0 0.137255 0 0 0 1 0"/>
<feBlend mode="normal" in2="BackgroundImageFix" result="effect1_dropShadow_16_2885"/>
<feBlend mode="normal" in="SourceGraphic" in2="effect1_dropShadow_16_2885" result="shape"/>
</filter>
<linearGradient id="paint0_linear_16_2885" x1="648" y1="8.63975" x2="840.713" y2="316.285" gradientUnits="userSpaceOnUse">
<stop stop-color="#131416"/>
<stop offset="0.3" stop-color="#27282A" stop-opacity="0.7"/>
<stop offset="0.51" stop-color="#545456" stop-opacity="0.49"/>
<stop offset="0.71" stop-color="#27282A" stop-opacity="0.7"/>
<stop offset="1" stop-color="#91000B"/>
</linearGradient>
<linearGradient id="paint1_linear_16_2885" x1="648" y1="214" x2="838.958" y2="-96.763" gradientUnits="userSpaceOnUse">
<stop stop-color="#FF343F"/>
<stop offset="1" stop-color="#D62E36"/>
</linearGradient>
<linearGradient id="paint2_linear_16_2885" x1="-6.03421e-06" y1="10.941" x2="257.48" y2="367.436" gradientUnits="userSpaceOnUse">
<stop stop-color="#131416"/>
<stop offset="0.3" stop-color="#27282A" stop-opacity="0.7"/>
<stop offset="0.51" stop-color="#545456" stop-opacity="0.49"/>
<stop offset="0.71" stop-color="#27282A" stop-opacity="0.7"/>
<stop offset="1" stop-color="#91000B"/>
</linearGradient>
<linearGradient id="paint3_linear_16_2885" x1="-3.20608e-06" y1="271" x2="255.73" y2="-89.9471" gradientUnits="userSpaceOnUse">
<stop stop-color="#FF343F"/>
<stop offset="1" stop-color="#D62E36"/>
</linearGradient>
<linearGradient id="paint4_linear_16_2885" x1="772" y1="242.503" x2="804.074" y2="357.676" gradientUnits="userSpaceOnUse">
<stop stop-color="#131416"/>
<stop offset="0.3" stop-color="#27282A" stop-opacity="0.7"/>
<stop offset="0.51" stop-color="#545456" stop-opacity="0.49"/>
<stop offset="0.71" stop-color="#27282A" stop-opacity="0.7"/>
<stop offset="1" stop-color="#91000B"/>
</linearGradient>
<linearGradient id="paint5_linear_16_2885" x1="772" y1="302" x2="803.53" y2="186.583" gradientUnits="userSpaceOnUse">
<stop stop-color="#FF343F"/>
<stop offset="1" stop-color="#D62E36"/>
</linearGradient>
<linearGradient id="paint6_linear_16_2885" x1="177.966" y1="33" x2="611.481" y2="475.134" gradientUnits="userSpaceOnUse">
<stop stop-color="#272727"/>
<stop offset="1" stop-color="#8D8D8D"/>
</linearGradient>
</defs>
</svg>
