<svg width="236" height="235" viewBox="0 0 236 235" fill="none" xmlns="http://www.w3.org/2000/svg">
<path d="M181.869 131.549L151.837 149.898C149.183 151.519 146.004 152.045 142.97 151.365C139.936 150.685 137.284 148.853 135.576 146.255L119.65 122.02L123.048 132.238L116.628 195.613C116.628 199.966 89.3949 199.907 89.3949 195.59L110.875 106.559C116.524 104.564 122.593 104.066 128.49 105.115C141.974 110.381 145.173 131.529 145.173 131.529C160.722 117.458 166.319 112.392 166.631 112.115C170.848 108.807 186.011 128.278 181.869 131.549Z" fill="black"/>
<path d="M76.9458 56.7188L76.9458 56.7188L76.9532 56.7197C77.0092 56.7263 77.149 56.7776 77.3338 57.0973C77.5126 57.4064 77.6702 57.864 77.7979 58.4377C78.0087 59.3841 78.1164 60.543 78.1532 61.6226C76.8763 61.5452 75.5966 61.6904 74.3713 62.0504C74.7655 60.4771 75.2255 59.1581 75.7 58.2083C75.9889 57.6299 76.2674 57.2208 76.5151 56.9734C76.7703 56.7187 76.9088 56.714 76.9458 56.7188Z" fill="#87ED82" stroke="#87ED82" stroke-width="1.175"/>
<path d="M75.8886 75.0702C75.4836 75.9449 75.0929 76.4966 74.7702 76.754C74.6051 76.8826 74.5102 76.8995 74.4774 76.9008C74.4571 76.9016 74.4188 76.9 74.347 76.8385C74.1644 76.6821 73.9404 76.2842 73.7454 75.5771C73.4325 74.4431 73.2716 72.8141 73.2633 71.1028C74.3652 71.7544 75.5748 72.2064 76.8363 72.4368C76.5421 73.4649 76.2202 74.3543 75.8886 75.0702Z" fill="#87ED82" stroke="#87ED82" stroke-width="1.175"/>
<path d="M85.1157 70.8732C85.5512 70.0788 85.824 69.0735 85.9434 68.0999C86.0649 67.1096 86.0408 66.0459 85.8067 65.1452L93.6076 66.0932C93.8855 66.9289 94.0016 67.8111 93.9485 68.6923C93.8992 69.5098 93.7053 70.3106 93.3771 71.0579C92.3525 70.6551 91.2613 70.4424 90.1573 70.432C89.5295 70.3756 88.9759 70.4445 88.5774 70.8283C88.4201 70.9798 88.3101 71.162 88.2293 71.3525C87.4156 70.9887 86.5167 70.8445 85.6233 70.9384L85.1157 70.8732Z" fill="#87ED82" stroke="#87ED82" stroke-width="1.175"/>
<path d="M197.285 207.697L177.76 198.034L179.892 188.217L194.02 195.236L197.285 207.697Z" fill="black"/>
<path d="M190.799 182.862L182.002 178.51L183.491 171.624H187.845L190.799 182.862Z" fill="black"/>
<path d="M59.3846 207.697L39.859 198.034L41.9915 188.217L56.1192 195.236L59.3846 207.697Z" fill="black"/>
<path d="M52.8983 182.862L44.1018 178.51L45.5901 171.624H49.9439L52.8983 182.862Z" fill="black"/>
<path d="M146.461 177.776L144.195 188.427H137.687L118.294 178.819L119.738 164.536L146.461 177.776Z" fill="black"/>
<path d="M151.615 153.385L149.349 164.026L127.868 153.385H151.615Z" fill="black"/>
<path d="M99.2797 154.385L96.0588 167.803L81.2646 160.472L82.7752 153.385H97.2361L99.2797 154.385Z" fill="black"/>
<path d="M92.7935 181.263L91.083 188.383H75.3782L78.377 174.111L92.7935 181.263Z" fill="black"/>
<path d="M201.417 216.65H171.607V209.875H201.417V216.65Z" fill="black"/>
<path d="M63.5385 216.65H33.7281V209.875H63.5385V216.65Z" fill="black"/>
<path d="M97.7692 85.7896C97.6804 86.9902 97.5693 88.0343 97.5249 88.6329C102.082 88.1676 100.768 86.4127 97.7692 85.7896Z" fill="black"/>
<path d="M85.2187 86.4795C85.2409 87.0559 86.3738 87.679 88.2398 88.1443C88.3064 87.5668 88.5507 86.3906 88.7507 85.2344C86.2405 85.4133 85.1965 85.9008 85.2187 86.4795Z" fill="black"/>
<path d="M90.5945 73.5291C89.8614 76.3502 89.1284 76.66 88.7063 76.2379C88.5544 76.2835 88.3977 76.3139 88.2387 76.3279C90.1713 77.5719 89.105 78.6603 87.771 78.4148C89.5925 79.4811 88.7484 80.5473 87.5045 80.3486C86.7547 80.225 86.0372 79.9527 85.3942 79.5477C85.2659 79.9679 85.1024 80.3766 84.9055 80.7694C86.1811 81.506 87.5606 82.0456 88.9975 82.37C89.9561 80.7845 90.4916 78.9794 90.5524 77.1276C90.267 75.9433 90.2815 74.7064 90.5945 73.5291Z" fill="black"/>
<path d="M115.878 74.683C115.928 74.9695 115.957 75.2594 115.967 75.5505L116.966 74.1943L115.878 74.683Z" fill="black"/>
<path d="M130.512 89.7447C130.268 90.7875 130.09 91.4773 129.957 92.0759L134.177 88.855L130.512 89.7447Z" fill="black"/>
<path d="M112.23 198.123C108.609 198.762 104.931 199.015 101.257 198.878C100.789 201.677 98.9689 209.097 98.5246 211.271C96.8027 211.301 95.1252 211.822 93.689 212.772C92.2528 213.722 91.1176 215.063 90.4167 216.636H104.478C105.351 216.622 106.189 216.287 106.832 215.695C107.475 215.103 107.879 214.296 107.965 213.427C108.093 211.169 108.881 208.998 110.231 207.184C111.253 205.962 112.608 204.984 111.964 201.986C111.65 200.702 111.743 199.352 112.23 198.123Z" fill="black"/>
<path d="M200.684 107.67C194.198 111.668 185.445 114.934 181.558 115.601C180 115.877 178.548 116.576 177.36 117.622L176.56 118.421C172.895 114.023 168.541 110.647 166.586 112.179L166.384 112.356L174.136 105.203C174.754 104.645 175.548 104.323 176.38 104.292C184.648 104.007 196.664 105.094 200.684 107.67Z" fill="black"/>
<path d="M133.577 57.4069C133.568 56.9996 133.413 56.6093 133.14 56.3072C132.866 56.0051 132.493 55.8116 132.089 55.7619C132.353 55.4415 132.49 55.0353 132.473 54.6206C132.457 54.2058 132.289 53.8115 132.001 53.5127C131.713 53.2138 131.325 53.0313 130.911 52.9998C130.497 52.9683 130.086 53.09 129.757 53.3419C129.711 53.0302 129.584 52.7363 129.386 52.4908C129.189 52.2453 128.93 52.0571 128.635 51.9459C128.341 51.8346 128.022 51.8044 127.711 51.8583C127.401 51.9121 127.111 52.0482 126.871 52.2522C126.549 52.5244 126.335 52.9032 126.269 53.3196C125.942 53.0624 125.531 52.9349 125.116 52.9616C124.701 52.9882 124.31 53.1672 124.018 53.4642C123.726 53.7612 123.555 54.1553 123.535 54.5711C123.516 54.9868 123.651 55.395 123.914 55.7175C123.615 55.7558 123.331 55.8723 123.091 56.0551C122.852 56.238 122.664 56.4808 122.548 56.7592C122.392 56.5022 122.182 56.283 121.931 56.1176C121.68 55.9522 121.396 55.8447 121.098 55.8029C120.801 55.7611 120.498 55.7862 120.211 55.8761C119.925 55.9661 119.662 56.1188 119.441 56.3231C119.147 56.5969 118.941 56.9522 118.85 57.3438C118.644 57.0935 118.378 56.8991 118.077 56.7784C117.777 56.6577 117.45 56.6146 117.129 56.653C116.807 56.6914 116.5 56.8101 116.236 56.9983C115.972 57.1864 115.76 57.4379 115.618 57.7296C115.43 58.1207 115.379 58.5639 115.473 58.9876C115.069 58.8452 114.629 58.8418 114.223 58.9778C113.816 59.1137 113.467 59.3814 113.23 59.7383C112.993 60.0953 112.881 60.5211 112.914 60.9484C112.946 61.3757 113.12 61.78 113.408 62.0974C112.966 62.1444 112.554 62.3427 112.242 62.6587C111.93 62.9747 111.737 63.3888 111.696 63.8309C111.655 64.273 111.768 64.7158 112.016 65.0841C112.264 65.4524 112.632 65.7235 113.057 65.8515C112.834 65.9795 112.64 66.151 112.486 66.3558C112.331 66.5605 112.219 66.7944 112.157 67.0433C112.095 67.2922 112.083 67.5511 112.123 67.8045C112.164 68.058 112.254 68.3007 112.39 68.5183L112.546 67.8729C114.345 60.5215 117.877 64.8519 118.321 67.6286C118.432 68.1395 118.743 68.1839 119.388 67.4286C120.743 65.8515 122.517 68.302 119.855 70.4274C119.595 71.1524 119.503 71.9275 119.589 72.6932L119.655 73.715C119.9 73.6267 120.123 73.4882 120.31 73.3084C120.498 73.1285 120.645 72.9114 120.744 72.671C120.871 72.9783 121.076 73.2473 121.338 73.452C121.6 73.6567 121.911 73.79 122.24 73.8389C122.569 73.8879 122.905 73.8509 123.215 73.7314C123.526 73.612 123.8 73.4142 124.011 73.1574C124.295 72.8141 124.451 72.3832 124.453 71.938C124.805 72.1776 125.227 72.2942 125.652 72.2697C126.077 72.2451 126.482 72.0806 126.803 71.802C127.125 71.5233 127.346 71.1461 127.431 70.7289C127.516 70.3118 127.461 69.8782 127.275 69.4957C127.547 69.5335 127.825 69.5114 128.089 69.4308C128.352 69.3503 128.595 69.2133 128.8 69.0293C129.005 68.8453 129.168 68.6188 129.277 68.3656C129.385 68.1124 129.437 67.8385 129.429 67.5631C129.437 67.2308 129.349 66.9032 129.176 66.6196C129.003 66.336 128.751 66.1083 128.452 65.9637C128.798 65.8637 129.109 65.6698 129.352 65.4036C129.594 65.1374 129.758 64.8093 129.826 64.4556C129.892 64.1019 129.86 63.7367 129.731 63.4005C129.603 63.0643 129.384 62.7703 129.098 62.5511C129.406 62.2786 129.601 61.901 129.646 61.493C129.969 61.7464 130.374 61.8735 130.785 61.8504C131.196 61.8274 131.584 61.6558 131.878 61.3677C132.171 61.0796 132.35 60.6946 132.381 60.2845C132.411 59.8743 132.292 59.467 132.045 59.1384C132.47 59.0934 132.864 58.8908 133.147 58.5703C133.431 58.2499 133.584 57.8348 133.577 57.4069Z" fill="black"/>
<path d="M123.448 127.863L123.026 132.239L119.627 122.021L123.448 127.863Z" fill="black"/>
<path d="M122.026 99.1635C122.034 99.3889 121.954 99.6086 121.805 99.7776C121.656 99.9467 121.448 100.052 121.223 100.073C120.998 100.093 120.774 100.026 120.597 99.8859C120.42 99.7456 120.304 99.5426 120.273 99.319C120.265 99.0936 120.345 98.874 120.494 98.7049C120.643 98.5359 120.851 98.4302 121.076 98.4094C121.301 98.3895 121.525 98.4566 121.701 98.5969C121.878 98.7372 121.995 98.94 122.026 99.1635Z" fill="black"/>
<path d="M112.919 93.0991C112.923 93.2149 112.904 93.3303 112.863 93.4388C112.823 93.5473 112.761 93.6468 112.682 93.7315C112.603 93.8163 112.509 93.8846 112.403 93.9327C112.298 93.9807 112.184 94.0076 112.068 94.0116C111.952 94.0157 111.837 93.9969 111.728 93.9564C111.62 93.9158 111.521 93.8543 111.436 93.7754C111.351 93.6964 111.283 93.6015 111.235 93.4961C111.187 93.3907 111.16 93.2769 111.156 93.1611C111.147 92.9273 111.232 92.6998 111.392 92.5287C111.551 92.3576 111.772 92.2568 112.006 92.2486C112.24 92.2404 112.468 92.3254 112.639 92.4849C112.81 92.6444 112.911 92.8653 112.919 93.0991Z" fill="black"/>
<path d="M121.16 86.0341C121.168 86.2598 121.09 86.4801 120.941 86.6496C120.791 86.8191 120.583 86.9248 120.358 86.9449C120.133 86.965 119.908 86.898 119.731 86.7576C119.554 86.6173 119.438 86.4144 119.406 86.1907C119.398 85.965 119.477 85.7446 119.626 85.5752C119.775 85.4057 119.984 85.3 120.209 85.2799C120.434 85.2598 120.658 85.3268 120.835 85.4671C121.012 85.6075 121.128 85.8104 121.16 86.0341Z" fill="black"/>
<path d="M133.577 57.4069C133.568 56.9996 133.413 56.6093 133.139 56.3072C132.866 56.0051 132.493 55.8116 132.089 55.7619C132.353 55.4415 132.489 55.0353 132.473 54.6206C132.457 54.2058 132.289 53.8115 132.001 53.5127C131.713 53.2138 131.325 53.0313 130.911 52.9998C130.497 52.9683 130.086 53.09 129.756 53.3419C129.711 53.0302 129.584 52.7363 129.386 52.4908C129.189 52.2453 128.93 52.0571 128.635 51.9459C128.341 51.8346 128.022 51.8044 127.711 51.8583C127.401 51.9121 127.111 52.0482 126.871 52.2522C126.549 52.5244 126.335 52.9032 126.269 53.3196C125.942 53.0624 125.531 52.9349 125.116 52.9616C124.7 52.9882 124.309 53.1672 124.018 53.4642C123.726 53.7612 123.554 54.1553 123.535 54.5711C123.516 54.9868 123.651 55.395 123.914 55.7175C123.615 55.7558 123.331 55.8723 123.091 56.0551C122.851 56.238 122.664 56.4808 122.548 56.7592C122.392 56.5022 122.181 56.283 121.931 56.1176C121.68 55.9522 121.396 55.8447 121.098 55.8029C120.801 55.7611 120.498 55.7862 120.211 55.8761C119.924 55.9661 119.661 56.1188 119.441 56.3231C119.147 56.5969 118.941 56.9522 118.85 57.3438C118.644 57.0935 118.378 56.8991 118.077 56.7784C117.777 56.6577 117.45 56.6146 117.128 56.653C116.807 56.6914 116.5 56.8101 116.236 56.9983C115.972 57.1864 115.759 57.4379 115.618 57.7296C115.43 58.1207 115.379 58.5639 115.473 58.9876C115.069 58.8452 114.629 58.8418 114.223 58.9778C113.816 59.1137 113.467 59.3814 113.23 59.7383C112.993 60.0953 112.881 60.5211 112.914 60.9484C112.946 61.3757 113.12 61.78 113.407 62.0974C112.966 62.1444 112.554 62.3427 112.242 62.6587C111.93 62.9747 111.737 63.3888 111.696 63.8309C111.655 64.273 111.768 64.7158 112.016 65.0841C112.264 65.4524 112.631 65.7235 113.057 65.8515C112.834 65.9795 112.64 66.151 112.485 66.3558C112.331 66.5605 112.219 66.7944 112.157 67.0433C112.095 67.2922 112.083 67.5511 112.123 67.8045C112.163 68.058 112.254 68.3007 112.39 68.5183L112.546 67.8729C114.345 60.5215 117.877 64.8519 118.321 67.6286C118.432 68.1395 118.743 68.1839 119.387 67.4286C120.742 65.8515 122.517 68.302 119.855 70.4274C119.594 71.1524 119.503 71.9275 119.589 72.6932L119.655 73.715C119.9 73.6267 120.123 73.4882 120.31 73.3084C120.498 73.1285 120.645 72.9114 120.744 72.671C120.871 72.9783 121.076 73.2473 121.338 73.452C121.6 73.6567 121.911 73.79 122.24 73.8389C122.569 73.8879 122.905 73.8509 123.215 73.7314C123.526 73.612 123.8 73.4142 124.011 73.1574C124.295 72.8141 124.451 72.3832 124.453 71.938C124.805 72.1776 125.226 72.2942 125.651 72.2697C126.076 72.2451 126.481 72.0806 126.803 71.802C127.125 71.5233 127.346 71.1461 127.431 70.7289C127.516 70.3118 127.461 69.8782 127.274 69.4957C127.547 69.5335 127.825 69.5114 128.089 69.4308C128.352 69.3503 128.595 69.2133 128.8 69.0293C129.005 68.8453 129.168 68.6188 129.276 68.3656C129.385 68.1124 129.437 67.8385 129.429 67.5631C129.437 67.2308 129.349 66.9032 129.176 66.6196C129.002 66.336 128.751 66.1083 128.452 65.9637C128.798 65.8637 129.109 65.6698 129.352 65.4036C129.594 65.1374 129.758 64.8093 129.825 64.4556C129.892 64.1019 129.859 63.7367 129.731 63.4005C129.603 63.0643 129.384 62.7703 129.098 62.5511C129.406 62.2786 129.601 61.901 129.645 61.493C129.969 61.7464 130.374 61.8735 130.785 61.8504C131.196 61.8274 131.584 61.6558 131.877 61.3677C132.171 61.0796 132.35 60.6946 132.381 60.2845C132.411 59.8743 132.292 59.467 132.044 59.1384C132.47 59.0934 132.863 58.8908 133.147 58.5703C133.431 58.2499 133.584 57.8348 133.577 57.4069Z" stroke="black" stroke-width="1.175" stroke-linejoin="round"/>
<path d="M119.339 51.6033L119.405 57.2911" stroke="black" stroke-width="1.175" stroke-linecap="round" stroke-linejoin="round"/>
<path d="M139.886 56.8694L137.131 61.8218" stroke="black" stroke-width="1.175" stroke-linecap="round" stroke-linejoin="round"/>
<path d="M161.033 92.9099H155.346" stroke="black" stroke-width="1.175" stroke-linecap="round" stroke-linejoin="round"/>
<path d="M155.657 113.29L150.704 110.492" stroke="black" stroke-width="1.175" stroke-linecap="round" stroke-linejoin="round"/>
<path d="M99.3019 128.884L102.079 123.932" stroke="black" stroke-width="1.175" stroke-linecap="round" stroke-linejoin="round"/>
<path d="M84.1525 114.112L86.9514 112.425" stroke="black" stroke-width="1.175" stroke-linecap="round" stroke-linejoin="round"/>
<path d="M78.3103 92.9099H83.9747" stroke="black" stroke-width="1.175" stroke-linecap="round" stroke-linejoin="round"/>
<path d="M98.4355 57.4023L101.368 62.2659" stroke="black" stroke-width="1.175" stroke-linecap="round" stroke-linejoin="round"/>
<path d="M201.417 216.65H171.606V209.875H201.417V216.65Z" stroke="black" stroke-width="1.175" stroke-linecap="round" stroke-linejoin="round"/>
<path d="M197.285 207.697L177.76 198.034L179.892 188.217L194.02 195.236L197.285 207.697Z" stroke="black" stroke-width="1.175" stroke-linecap="round" stroke-linejoin="round"/>
<path d="M190.799 182.862L182.002 178.51L183.491 171.624H187.844L190.799 182.862Z" stroke="black" stroke-width="1.175" stroke-linecap="round" stroke-linejoin="round"/>
<path d="M194.02 195.236L179.892 188.217L182.002 178.51L190.799 182.862L194.02 195.236Z" stroke="black" stroke-width="1.175" stroke-linecap="round" stroke-linejoin="round"/>
<path d="M197.841 209.807H175.205L177.76 198.034L197.285 207.697L197.841 209.807Z" stroke="black" stroke-width="1.175" stroke-linecap="round" stroke-linejoin="round"/>
<path d="M63.5385 216.65H33.7281V209.875H63.5385V216.65Z" stroke="black" stroke-width="1.175" stroke-linecap="round" stroke-linejoin="round"/>
<path d="M59.3846 207.697L39.859 198.034L41.9915 188.217L56.1192 195.236L59.3846 207.697Z" stroke="black" stroke-width="1.175" stroke-linecap="round" stroke-linejoin="round"/>
<path d="M52.8983 182.862L44.1018 178.51L45.5901 171.624H49.9439L52.8983 182.862Z" stroke="black" stroke-width="1.175" stroke-linecap="round" stroke-linejoin="round"/>
<path d="M56.1192 195.236L41.9915 188.217L44.1017 178.51L52.8982 182.862L56.1192 195.236Z" stroke="black" stroke-width="1.175" stroke-linecap="round" stroke-linejoin="round"/>
<path d="M59.9399 209.807H37.3044L39.859 198.034L59.3845 207.697L59.9399 209.807Z" stroke="black" stroke-width="1.175" stroke-linecap="round" stroke-linejoin="round"/>
<path d="M82.7752 153.385L69.3805 216.65" stroke="black" stroke-width="1.175" stroke-linecap="round" stroke-linejoin="round"/>
<path d="M165.342 216.65L151.615 153.385L138.242 216.65" stroke="black" stroke-width="1.175" stroke-linecap="round" stroke-linejoin="round"/>
<path d="M91.0829 188.383H75.3781L82.7751 153.385H99.524" stroke="black" stroke-width="1.175" stroke-linecap="round" stroke-linejoin="round"/>
<path d="M120.871 153.385H151.614L144.195 188.427H117.339" stroke="black" stroke-width="1.175" stroke-linecap="round" stroke-linejoin="round"/>
<path d="M129.779 93.0654H148.882" stroke="black" stroke-width="1.175" stroke-linecap="round" stroke-linejoin="round"/>
<path d="M145.15 91.2319L148.882 93.0651L145.417 95.387" stroke="black" stroke-width="1.175" stroke-linecap="round" stroke-linejoin="round"/>
<path d="M81.9088 61.1785C86.2296 56.1321 91.5348 52.0205 97.4996 49.0954C103.464 46.1702 109.963 44.493 116.599 44.1665C123.234 43.8399 129.867 44.8708 136.09 47.1961C142.313 49.5214 147.996 53.0922 152.792 57.6899" stroke="black" stroke-width="1.175" stroke-linecap="round" stroke-linejoin="round"/>
<path d="M102.967 139.129C96.827 136.984 91.1758 133.637 86.3437 129.284C81.5116 124.931 77.5954 119.658 74.824 113.774C72.0529 107.89 70.4824 101.512 70.2044 95.0143C69.9264 88.5162 70.9464 82.0279 73.2047 75.9285" stroke="black" stroke-width="1.175" stroke-linecap="round" stroke-linejoin="round"/>
<path d="M131.556 140.192C128.446 141.02 125.261 141.534 122.048 141.724" stroke="black" stroke-width="1.175" stroke-linecap="round" stroke-linejoin="round"/>
<path d="M161.211 68.3313C165.455 75.6061 167.748 83.8537 167.869 92.2751C167.99 100.697 165.933 109.007 161.899 116.4" stroke="black" stroke-width="1.175" stroke-linecap="round" stroke-linejoin="round"/>
<path d="M88.2397 88.1444C88.373 86.9227 89.306 83.0587 89.1505 82.1702" stroke="black" stroke-width="1.175" stroke-linecap="round" stroke-linejoin="round"/>
<path d="M90.5499 77.1057C90.49 78.9576 89.9545 80.763 88.995 82.3481C87.5584 82.0236 86.1789 81.4844 84.9031 80.7487C85.104 80.3577 85.2676 79.9487 85.3918 79.527" stroke="black" stroke-width="1.175" stroke-linecap="round" stroke-linejoin="round"/>
<path d="M72.6903 70.0196C72.557 74.2179 73.2 77.3348 74.4007 77.4821C75.9101 77.6692 77.7327 73.0395 78.4658 67.1529C79.1988 61.2664 78.5546 56.335 77.0219 56.1362C75.8224 55.9796 74.4498 58.8463 73.5566 62.9558" fill="#87ED82"/>
<path d="M72.6903 70.0196C72.557 74.2179 73.2 77.3348 74.4007 77.4821C75.9101 77.6692 77.7327 73.0395 78.4658 67.1529C79.1988 61.2664 78.5546 56.335 77.0219 56.1362C75.8224 55.9796 74.4498 58.8463 73.5566 62.9558" stroke="#87ED82" stroke-width="1.175" stroke-linecap="round" stroke-linejoin="round"/>
<path d="M84.0857 71.3302C85.4407 69.9752 85.9072 66.1767 84.9298 64.4441" stroke="#87ED82" stroke-width="1.175" stroke-linecap="round" stroke-linejoin="round"/>
<path d="M93.6644 71.841C94.1812 70.8877 94.4828 69.8327 94.5481 68.7502C94.6133 67.6678 94.4406 66.5842 94.0421 65.5757" stroke="black" stroke-width="1.175" stroke-linecap="round" stroke-linejoin="round"/>
<path d="M78.7545 62.2671C74.5784 61.8451 70.9798 63.5766 70.6689 66.1989C70.3579 68.8213 73.4151 71.3431 77.5608 71.9709" stroke="black" stroke-width="1.175" stroke-linecap="round" stroke-linejoin="round"/>
<path d="M85.6407 71.53L84.0858 71.3301L75.1116 77.2377" fill="#87ED82"/>
<path d="M85.6407 71.53L84.0858 71.3301L75.1116 77.2377" stroke="#87ED82" stroke-width="1.175" stroke-linecap="round" stroke-linejoin="round"/>
<path d="M77.6473 56.5359L84.9333 64.4438L94.7739 65.6656C99.0833 66.1987 98.7278 72.7072 94.374 72.5739" fill="#87ED82"/>
<path d="M77.6473 56.5359L84.9333 64.4438L94.7739 65.6656C99.0833 66.1987 98.7278 72.7072 94.374 72.5739" stroke="#87ED82" stroke-width="1.175" stroke-linecap="round" stroke-linejoin="round"/>
<path d="M97.7693 85.8168C101.546 86.5721 102.701 89.1453 92.638 88.7279C85.6233 88.4356 82.1311 85.7057 88.7507 85.2393" stroke="black" stroke-width="1.175" stroke-linecap="round" stroke-linejoin="round"/>
<path d="M97.5226 88.6331C97.5892 87.5447 97.8955 84.9235 97.9446 82.7466C98.0265 79.0814 97.7739 78.1671 96.8339 76.417C95.9745 74.8038 94.9398 73.2904 93.7486 71.9041C93.1068 71.3196 91.4595 71.1851 90.1501 71.06C89.1049 70.9595 88.8886 71.3055 88.7284 71.8784C88.4759 73.0452 88.3718 74.2401 88.4174 75.4326C88.4525 76.4322 89.5725 77.6317 90.6165 73.5222C90.0834 75.9879 90.35 78.1204 92.2825 79.431" stroke="black" stroke-width="1.175" stroke-linecap="round" stroke-linejoin="round"/>
<path d="M85.4186 75.3286C84.5523 75.6396 84.5523 76.8379 85.4408 77.4611C86.151 77.9197 86.9429 78.2373 87.7732 78.3964C89.106 78.6595 90.1723 77.5523 88.2409 76.3083" stroke="black" stroke-width="1.175" stroke-linecap="round" stroke-linejoin="round"/>
<path d="M85.4409 77.4612C85.2461 77.5549 85.081 77.7007 84.964 77.8825C84.8469 78.0642 84.7826 78.2749 84.778 78.491C84.7734 78.7071 84.8287 78.9203 84.9379 79.1069C85.0471 79.2935 85.2058 79.4462 85.3965 79.5481C86.0395 79.9538 86.7561 80.2262 87.5067 80.3489C88.7507 80.55 89.6112 79.4814 87.7733 78.4152" stroke="black" stroke-width="1.175" stroke-linecap="round" stroke-linejoin="round"/>
<path d="M88.6173 72.2397C87.8557 71.7816 86.9944 71.5148 86.1072 71.4622C84.8855 71.4272 84.7709 73.0265 85.9739 73.507C86.748 73.8529 87.5733 74.0701 88.4174 74.1501" stroke="black" stroke-width="1.175" stroke-linecap="round" stroke-linejoin="round"/>
<path d="M85.574 73.2615C84.7077 73.6403 84.7065 74.8866 85.6629 75.5284C86.5609 76.1388 87.6514 76.3991 88.7283 76.2603" stroke="black" stroke-width="1.175" stroke-linecap="round" stroke-linejoin="round"/>
<path d="M85.2186 86.4795C85.1298 97.253 85.2303 103.783 85.3741 107.827C85.4063 109.341 85.8788 110.814 86.734 112.065C87.5892 113.315 88.7901 114.29 90.19 114.869C91.5899 115.449 93.1283 115.608 94.6173 115.328C96.1062 115.048 97.4814 114.34 98.5747 113.291C102.36 109.673 105.852 105.758 109.015 101.585" stroke="black" stroke-width="1.175" stroke-linecap="round" stroke-linejoin="round"/>
<path d="M100.487 87.5178C99.8117 91.4052 98.2311 101.737 97.6582 104.339" stroke="black" stroke-width="1.175" stroke-linecap="round" stroke-linejoin="round"/>
<path d="M99.4797 93.5868C95.5702 95.2084 87.3068 94.9196 85.1965 92.1838" stroke="black" stroke-width="1.175" stroke-linecap="round" stroke-linejoin="round"/>
<path d="M115.878 74.6833C116.251 74.543 116.614 74.3805 116.966 74.1946L115.975 75.5286" stroke="black" stroke-width="1.175" stroke-linecap="round" stroke-linejoin="round"/>
<path d="M112.386 68.5137C110.873 75.5869 114.409 75.1262 115.873 74.6878C116.061 75.598 116.008 76.5413 115.719 77.4247C115.431 78.3082 114.918 79.1012 114.229 79.7256C116.006 85.2345 118.628 84.6137 122.048 77.9497C120.493 77.2833 119.872 75.4162 119.649 73.7058" stroke="black" stroke-width="1.175" stroke-linecap="round" stroke-linejoin="round"/>
<path d="M99.7906 91.5874C103.9 85.4565 108.726 82.2087 111.986 81.0138C112.807 80.7289 113.568 80.2927 114.229 79.7278" stroke="black" stroke-width="1.175" stroke-linecap="round" stroke-linejoin="round"/>
<path d="M108.454 87.4348C107.051 90.3892 105.688 91.6518 109.009 101.581C109.499 103.047 110.098 104.714 110.831 106.608" stroke="black" stroke-width="1.175" stroke-linecap="round" stroke-linejoin="round"/>
<path d="M129.934 92.0551C130.068 91.4542 130.245 90.7691 130.49 89.7169L134.177 88.8494" stroke="black" stroke-width="1.175" stroke-linecap="round" stroke-linejoin="round"/>
<path d="M128.424 105.138C128.452 100.735 128.958 96.3485 129.934 92.0553C135.561 87.8125 128.648 92.4247 169.141 62.2882C171.743 60.3521 163.787 49.4278 161.166 51.337C161.166 51.337 128.868 75.9728 126.443 77.2378C124.488 78.2608 123.067 78.3707 122.045 77.9264" stroke="black" stroke-width="1.175" stroke-linecap="round" stroke-linejoin="round"/>
<path d="M176.827 54.6479C177.168 54.4024 177.418 54.0516 177.537 53.6483C177.666 52.713 175.622 51.6327 173.228 52.3623C171.942 52.7527 171.518 53.7395 173.579 54.0049" stroke="black" stroke-width="1.175" stroke-linecap="round" stroke-linejoin="round"/>
<path d="M177.03 52.7538C177.955 51.5332 176.089 50.0028 173.427 50.6903C172.169 51.0211 172.009 51.7939 173.706 52.2394" stroke="black" stroke-width="1.175" stroke-linecap="round" stroke-linejoin="round"/>
<path d="M169.518 60.0446C171.38 58.7684 173.385 57.7171 175.494 56.9125C178.767 55.4453 176.447 53.2181 173.206 54.1137C172.249 54.3791 172.606 55.6686 175.138 55.602" stroke="black" stroke-width="1.175" stroke-linecap="round" stroke-linejoin="round"/>
<path d="M163.387 51.6491C165.942 49.9164 173.065 44.9219 173.317 45.3358C173.641 45.8736 171.34 49.2231 171.34 49.2231C171.34 49.2231 171.295 52.8474 169.002 52.8883" stroke="black" stroke-width="1.175" stroke-linecap="round" stroke-linejoin="round"/>
<path d="M171.384 49.16C176.915 47.1386 182.14 47.5384 181.314 47.9383C179.767 48.6912 175.456 49.9655 173.427 50.6904" stroke="black" stroke-width="1.175" stroke-linecap="round" stroke-linejoin="round"/>
<path d="M174.183 56.5361C174.233 56.1867 174.165 55.8308 173.991 55.5237" stroke="black" stroke-width="1.175" stroke-linecap="round" stroke-linejoin="round"/>
<path d="M112.208 198.101C108.587 198.739 104.909 198.992 101.235 198.856C100.767 201.655 98.9465 209.075 98.5023 211.249H98.48C96.7591 211.288 95.085 211.816 93.6528 212.771C92.2205 213.726 91.0893 215.068 90.3909 216.642H104.478C105.351 216.627 106.189 216.293 106.832 215.701C107.475 215.109 107.878 214.302 107.965 213.432C108.093 211.175 108.881 209.004 110.231 207.189C111.253 205.968 112.586 205.012 111.941 202.015C111.639 200.713 111.732 199.35 112.208 198.101Z" stroke="black" stroke-width="1.175" stroke-linecap="round" stroke-linejoin="round"/>
<path d="M166.384 112.314L174.136 105.182C174.753 104.623 175.548 104.3 176.38 104.272C184.644 104.006 196.661 105.114 200.681 107.669C194.195 111.667 185.443 114.933 181.556 115.6C179.625 115.952 177.867 116.937 176.558 118.398" stroke="black" stroke-width="1.175" stroke-linecap="round" stroke-linejoin="round"/>
<path d="M7.38306 216.65H229.517" stroke="black" stroke-width="1.175" stroke-linecap="round" stroke-linejoin="round"/>
<path d="M78.377 174.111L92.7712 181.242" stroke="black" stroke-width="1.175" stroke-linecap="round" stroke-linejoin="round"/>
<path d="M118.294 178.819L137.687 188.427" stroke="black" stroke-width="1.175" stroke-linecap="round" stroke-linejoin="round"/>
<path d="M81.2646 160.472L96.0588 167.803" stroke="black" stroke-width="1.175" stroke-linecap="round" stroke-linejoin="round"/>
<path d="M119.738 164.536L146.461 177.776" stroke="black" stroke-width="1.175" stroke-linecap="round" stroke-linejoin="round"/>
<path d="M97.2361 153.385L99.3019 154.408" stroke="black" stroke-width="1.175" stroke-linecap="round" stroke-linejoin="round"/>
<path d="M127.868 153.385L149.349 164.026" stroke="black" stroke-width="1.175" stroke-linecap="round" stroke-linejoin="round"/>
<path d="M116.606 195.614L123.469 127.866L135.554 146.261C137.262 148.859 139.913 150.692 142.947 151.371C145.981 152.051 149.161 151.525 151.814 149.904L181.869 131.548C184.09 129.795 180.789 123.435 176.56 118.398C174.359 115.778 169.089 110.214 166.389 112.313L145.13 131.548C145.13 131.548 141.929 110.404 128.446 105.138C122.548 104.089 116.479 104.586 110.831 106.582L89.3503 195.614C89.3503 199.967 116.606 199.967 116.606 195.614Z" stroke="black" stroke-width="1.175" stroke-linecap="round" stroke-linejoin="round"/>
<path d="M123.026 132.239L119.627 122.021L123.469 127.865" stroke="black" stroke-width="1.175" stroke-linecap="round" stroke-linejoin="round"/>
<path d="M116.739 83.3921C115.318 89.6118 115.673 96.8967 117.361 104.961" stroke="black" stroke-width="1.175" stroke-linecap="round" stroke-linejoin="round"/>
<path d="M125.736 110.315C127.931 112.461 130.824 113.748 133.888 113.939" stroke="black" stroke-width="1.175" stroke-linecap="round" stroke-linejoin="round"/>
<path d="M90.772 189.683C90.772 192.414 117.206 192.414 117.206 189.683" stroke="black" stroke-width="1.175" stroke-linecap="round" stroke-linejoin="round"/>
<path d="M177.318 134.328C180.223 131.522 164.993 113.752 161.899 116.4" stroke="black" stroke-width="1.175" stroke-linecap="round" stroke-linejoin="round"/>
<path d="M71.6464 139.114H61.3616" stroke="black" stroke-width="1.175" stroke-linecap="round" stroke-linejoin="round"/>
<path d="M66.5045 144.256V133.972" stroke="black" stroke-width="1.175" stroke-linecap="round" stroke-linejoin="round"/>
<path d="M201.195 91.0323L198.329 90.6336L197.063 88.0334L195.797 90.6336L192.931 91.0323L194.997 93.0548L194.508 95.897L197.063 94.5431L199.618 95.897L199.129 93.0548L201.195 91.0323Z" stroke="black" stroke-width="1.175" stroke-linecap="round" stroke-linejoin="round"/>
<path d="M41.3473 55.491V57.4902" stroke="black" stroke-width="1.175" stroke-linecap="round" stroke-linejoin="round"/>
<path d="M39.4814 59.356H37.4822" stroke="black" stroke-width="1.175" stroke-linecap="round" stroke-linejoin="round"/>
<path d="M45.2123 59.356H43.2131" stroke="black" stroke-width="1.175" stroke-linecap="round" stroke-linejoin="round"/>
<path d="M41.3473 63.2001V61.2231" stroke="black" stroke-width="1.175" stroke-linecap="round" stroke-linejoin="round"/>
<path d="M43.2132 59.3557C42.7171 59.3557 42.2413 59.1586 41.8905 58.8078C41.5397 58.457 41.3426 57.9812 41.3426 57.4851C41.3426 57.9812 41.1456 58.457 40.7948 58.8078C40.444 59.1586 39.9682 59.3557 39.472 59.3557C39.9676 59.3576 40.4423 59.5552 40.7927 59.9056C41.1431 60.256 41.3408 60.7308 41.3426 61.2263C41.3445 60.7308 41.5422 60.256 41.8926 59.9056C42.243 59.5552 42.7177 59.3576 43.2132 59.3557Z" stroke="black" stroke-width="1.175" stroke-linecap="round" stroke-linejoin="round"/>
<path d="M136.398 20.3727L139.619 24.903L143.373 18.3279" stroke="black" stroke-width="1.175" stroke-linecap="round" stroke-linejoin="round"/>
</svg>
