<svg width="236" height="235" viewBox="0 0 236 235" fill="none" xmlns="http://www.w3.org/2000/svg">
<path d="M214.673 193.016L214.243 193.314L214.489 193.775L220.241 204.581C215.814 205.717 211.163 205.673 206.754 204.452L203.439 199.106L203.208 198.734L202.785 198.849C202.041 199.051 201.378 199.171 200.885 199.164C200.347 199.157 200.26 199.014 200.248 198.987C200.219 198.921 200.163 198.824 200.113 198.737C200.052 198.634 199.97 198.496 199.867 198.327C199.662 197.989 199.372 197.518 199.007 196.931C198.277 195.756 197.244 194.109 195.987 192.111C193.471 188.114 190.053 182.709 186.346 176.86C179.028 165.314 170.585 152.034 165.743 144.428L171.501 134.259L170.525 133.61C169.371 135.103 167.818 136.344 166.21 137.211C164.596 138.081 162.971 138.549 161.681 138.549C158.597 138.549 151.043 138.688 144.268 138.827C140.879 138.897 137.682 138.966 135.332 139.018C134.157 139.044 133.194 139.066 132.525 139.081L131.751 139.099L131.549 139.103L131.497 139.105L131.484 139.105L131.481 139.105L131.48 139.105C131.48 139.105 131.48 139.105 131.493 139.692L131.48 139.105L131.001 139.116L130.915 139.587L125.748 167.994L124.447 167.911L123.9 167.876L123.827 168.419C123.571 170.334 123.136 173.856 122.711 177.351C115.637 177.49 112.173 175.434 110.556 174.129L111.467 167.673L111.555 167.048L110.925 167.005L109.309 166.896L113.819 134.957C113.819 134.957 113.819 134.957 113.819 134.957C114.299 131.602 115.766 128.464 118.033 125.944C120.301 123.424 123.266 121.635 126.553 120.806C132.815 119.247 140.662 117.418 148.542 116.164C156.431 114.909 164.312 114.238 170.652 114.974L170.658 114.974C170.676 114.982 170.708 114.995 170.753 115.019C170.859 115.075 171.007 115.166 171.195 115.297C171.569 115.559 172.064 115.954 172.644 116.473C173.801 117.508 175.268 119.013 176.737 120.871C179.684 124.598 182.594 129.683 183.112 135.214L183.124 135.346L183.192 135.459L216.418 191.472C216.379 191.549 216.295 191.668 216.144 191.827C215.828 192.161 215.32 192.568 214.673 193.016ZM170.64 114.968C170.64 114.968 170.642 114.969 170.645 114.97C170.642 114.969 170.64 114.968 170.64 114.968ZM216.439 191.422C216.439 191.421 216.439 191.421 216.439 191.42L216.439 191.422Z" fill="#87ED82" stroke="#87ED82" stroke-width="1.175"/>
<path d="M39.4621 161.26C39.1759 161.262 38.8946 161.187 38.6467 161.043C38.3989 160.9 38.1932 160.694 38.0507 160.447C37.9082 160.198 37.834 159.917 37.8355 159.631C37.8369 159.344 37.914 159.064 38.0591 158.817L47.5887 142.312C47.7311 142.064 47.9365 141.858 48.1842 141.715C48.4318 141.571 48.713 141.495 48.9992 141.495C49.2854 141.495 49.5666 141.571 49.8142 141.715C50.0619 141.858 50.2674 142.064 50.4098 142.312L59.9393 158.817C60.0821 159.064 60.1575 159.344 60.1578 159.629C60.1583 159.915 60.0837 160.195 59.9416 160.443C59.7995 160.69 59.5949 160.896 59.3483 161.039C59.1016 161.183 58.8217 161.259 58.5364 161.26H39.4621Z" fill="black"/>
<path d="M200.758 76.9596L200.759 76.9597C203.768 78.0153 206.658 78.704 209.095 79.0039C210.417 79.1666 211.636 79.2189 212.679 79.1404L198.464 92.4364L198.464 92.4365C197.936 92.9306 197.281 93.2674 196.571 93.4094L196.571 93.4094C195.862 93.5514 195.127 93.4928 194.45 93.2402C193.773 92.9876 193.178 92.5509 192.736 91.9796L192.735 91.9791C192.292 91.4082 192.018 90.7246 191.941 90.005C191.941 90.0049 191.941 90.0048 191.941 90.0047L189.958 71.0696C190.031 71.1402 190.105 71.2107 190.182 71.2811C190.895 71.9354 191.8 72.6043 192.853 73.2632C194.959 74.5811 197.693 75.8816 200.758 76.9596Z" fill="#87ED82" stroke="#87ED82" stroke-width="1.175"/>
<path d="M53.3009 93.1986C53.3009 94.0465 53.0495 94.8753 52.5784 95.5804C52.1073 96.2854 51.4378 96.8349 50.6543 97.1594C49.871 97.4839 49.009 97.5687 48.1773 97.4033C47.3457 97.2379 46.5818 96.8296 45.9823 96.2301C45.3826 95.6305 44.9744 94.8666 44.809 94.035C44.6435 93.2034 44.7284 92.3414 45.0529 91.5579C45.3774 90.7745 45.9269 90.1049 46.6319 89.6339C47.337 89.1629 48.1659 88.9114 49.0137 88.9114C50.1506 88.912 51.2407 89.3638 52.0445 90.1677C52.8484 90.9716 53.3003 92.0617 53.3009 93.1986Z" fill="black"/>
<path d="M55.6555 104.128C55.6555 104.36 55.5864 104.588 55.4571 104.782C55.3277 104.975 55.1439 105.126 54.9288 105.215C54.7137 105.304 54.4769 105.328 54.2486 105.282C54.0201 105.237 53.8104 105.125 53.6457 104.96C53.4811 104.795 53.3689 104.586 53.3236 104.357C53.2781 104.129 53.3014 103.892 53.3906 103.677C53.4797 103.462 53.6305 103.278 53.8241 103.149C54.0177 103.019 54.2453 102.95 54.4782 102.95C54.6331 102.949 54.7867 102.979 54.9301 103.038C55.0734 103.096 55.2035 103.183 55.3131 103.293C55.4226 103.402 55.5094 103.532 55.5681 103.676C55.6269 103.819 55.6566 103.973 55.6555 104.128Z" fill="black"/>
<path d="M59.7207 112.347C59.7207 112.579 59.6516 112.807 59.5222 113.001C59.3929 113.194 59.209 113.345 58.9939 113.434C58.7788 113.523 58.542 113.547 58.3137 113.501C58.0854 113.456 57.8755 113.344 57.7109 113.179C57.5463 113.014 57.4342 112.805 57.3887 112.576C57.3433 112.348 57.3666 112.111 57.4557 111.896C57.5448 111.681 57.6957 111.497 57.8893 111.368C58.0829 111.238 58.3105 111.169 58.5434 111.169C58.6983 111.168 58.8518 111.198 58.9952 111.257C59.1385 111.315 59.2687 111.402 59.3783 111.512C59.4878 111.621 59.5745 111.751 59.6333 111.895C59.6921 112.038 59.7218 112.192 59.7207 112.347Z" fill="black"/>
<path d="M42.4165 104.128C42.4165 104.36 42.4856 104.588 42.6149 104.782C42.7444 104.975 42.9283 105.126 43.1434 105.215C43.3585 105.304 43.5951 105.328 43.8236 105.282C44.0519 105.237 44.2616 105.125 44.4264 104.96C44.591 104.795 44.7031 104.586 44.7486 104.357C44.7939 104.129 44.7707 103.892 44.6816 103.677C44.5924 103.462 44.4416 103.278 44.248 103.149C44.0544 103.019 43.8267 102.95 43.5938 102.95C43.4389 102.949 43.2854 102.979 43.1421 103.038C42.9988 103.096 42.8685 103.183 42.759 103.293C42.6494 103.402 42.5627 103.532 42.504 103.676C42.4452 103.819 42.4155 103.973 42.4165 104.128Z" fill="black"/>
<path d="M38.3516 112.347C38.3516 112.579 38.4206 112.807 38.55 113.001C38.6793 113.194 38.8632 113.345 39.0783 113.434C39.2934 113.523 39.5302 113.547 39.7585 113.501C39.987 113.456 40.1967 113.344 40.3613 113.179C40.526 113.014 40.6382 112.805 40.6835 112.576C40.729 112.348 40.7056 112.111 40.6165 111.896C40.5275 111.681 40.3765 111.497 40.1829 111.368C39.9893 111.238 39.7617 111.169 39.5289 111.169C39.374 111.168 39.2204 111.198 39.077 111.257C38.9337 111.315 38.8035 111.402 38.6939 111.512C38.5844 111.621 38.4977 111.751 38.4389 111.895C38.3801 112.038 38.3504 112.192 38.3516 112.347Z" fill="black"/>
<path d="M166.19 71.1186C166.489 70.7568 166.655 70.3025 166.657 69.8326C166.646 69.458 166.533 69.0935 166.333 68.7765C166.133 68.4595 165.853 68.2017 165.52 68.0296C165.188 67.8575 164.815 67.7774 164.441 67.7975C164.066 67.8177 163.704 67.9375 163.392 68.1444C163.596 67.733 163.658 67.2649 163.567 66.8144C163.475 66.3638 163.236 65.9568 162.887 65.6581C162.537 65.3594 162.098 65.186 161.638 65.1657C161.18 65.1452 160.726 65.2789 160.352 65.5454C160.49 65.2314 160.547 64.8873 160.518 64.5452C160.489 64.2033 160.373 63.8742 160.183 63.5884C159.993 63.3028 159.734 63.0697 159.429 62.9109C159.125 62.7521 158.784 62.6726 158.442 62.6799C158.081 62.6753 157.725 62.7651 157.409 62.9405C157.094 63.1157 156.83 63.3705 156.643 63.6795L154.666 69.0107C155.349 69.6863 156.101 70.2893 156.909 70.81C155.643 74.0531 156.731 74.5641 157.727 73.5867C159.598 71.743 161.57 74.2309 158.216 76.8965C158.517 79.5085 159.052 82.0883 159.816 84.6045C159.816 84.6045 159.171 77.2741 167.457 74.9861C167.721 74.9118 167.968 74.7848 168.182 74.6127C168.396 74.4406 168.572 74.227 168.702 73.9846C168.831 73.7424 168.91 73.4765 168.934 73.203C168.957 72.9295 168.925 72.6539 168.84 72.393C168.755 72.1322 168.617 71.8912 168.437 71.6847C168.255 71.4783 168.034 71.3106 167.787 71.1918C167.539 71.0729 167.27 71.0054 166.996 70.9932C166.722 70.981 166.448 71.0245 166.191 71.121L166.19 71.1186Z" fill="black"/>
<path d="M150.509 82.203C150.537 82.3725 150.59 82.5371 150.665 82.6917C151.087 83.6024 153.286 84.2466 155.285 84.5798C156.082 83.5759 156.714 82.4511 157.156 81.2478C154.017 82.825 150.977 83.869 150.509 82.203Z" fill="black"/>
<path d="M146.667 100.965C146.193 103.535 146.382 106.183 147.219 108.659L150.507 101.773C149.243 101.532 147.964 101.263 146.667 100.965Z" fill="black"/>
<path d="M222.9 215.883C211.86 215.905 202.997 216.039 188.936 216.039C192.735 212.484 200.021 206.82 206.396 204.976C211.209 206.355 216.313 206.355 221.127 204.976C222.394 208.47 222.995 212.169 222.9 215.883Z" fill="black"/>
<path d="M109.941 174.366C103.144 175.467 96.678 178.07 91.0148 181.986C98.4118 185.651 115.783 190.027 122.091 187.517C122.158 186.961 122.669 182.519 123.224 177.921C115.276 178.187 111.567 175.766 109.941 174.366Z" fill="black"/>
<path d="M135.18 47.5945L134.402 49.4382L122.718 45.2843C122.595 45.2406 122.482 45.1731 122.385 45.0857C122.289 44.9982 122.211 44.8926 122.154 44.7748C122.098 44.657 122.066 44.5294 122.06 44.3992C122.053 44.2689 122.073 44.1387 122.116 44.0158C122.159 43.8931 122.227 43.78 122.315 43.6833C122.402 43.5865 122.508 43.508 122.626 43.4521C122.744 43.3962 122.871 43.364 123.001 43.3575C123.131 43.3508 123.262 43.37 123.384 43.4137L135.18 47.5945Z" fill="black"/>
<path d="M163.48 57.6573L146.086 51.4819C145.953 51.8151 145.82 52.1483 145.664 52.526C146.575 52.9036 146.908 53.259 146.886 53.881L162.813 59.5454C163.063 59.6338 163.338 59.619 163.578 59.5045C163.817 59.3899 164.002 59.1848 164.09 58.9345C164.179 58.6841 164.164 58.4089 164.049 58.1693C163.934 57.9298 163.73 57.7456 163.48 57.6573Z" fill="black"/>
<path d="M52.2348 42.552C52.2348 43.1934 52.0447 43.8205 51.6883 44.3537C51.3319 44.8871 50.8254 45.3028 50.2328 45.5482C49.6402 45.7937 48.9882 45.8579 48.3591 45.7328C47.73 45.6077 47.1521 45.2988 46.6984 44.8452C46.2449 44.3917 45.936 43.8138 45.8108 43.1847C45.6857 42.5556 45.7499 41.9035 45.9954 41.3108C46.241 40.7182 46.6566 40.2118 47.1899 39.8554C47.7233 39.4991 48.3503 39.3088 48.9917 39.3088C49.8516 39.3098 50.6759 39.6517 51.284 40.2598C51.8919 40.8678 52.234 41.6921 52.2348 42.552Z" fill="black"/>
<path d="M197.644 36.6433C197.056 37.2901 196.339 37.8062 195.539 38.1583C194.74 38.5103 193.874 38.6904 193.001 38.6869C191.928 38.6866 190.873 38.4124 189.936 37.8903C188.999 37.3682 188.21 36.6155 187.645 35.7035C187.081 34.7914 186.758 33.7503 186.708 32.6787C186.657 31.607 186.882 30.5402 187.359 29.5795C185.84 29.1205 184.276 28.8299 182.694 28.7131C182.622 28.8229 182.522 28.9126 182.405 28.9739C182.29 29.0351 182.16 29.0661 182.028 29.0639C181.704 29.0625 181.382 29.1254 181.083 29.2487C180.783 29.3722 180.51 29.5537 180.281 29.783C180.052 30.0122 179.871 30.2846 179.747 30.5843C179.624 30.8841 179.561 31.2054 179.562 31.5296V33.2178C179.564 33.8763 179.829 34.5071 180.295 34.9715C181.45 36.1488 182.45 35.2824 182.805 36.2154C183.027 36.793 183.405 37.3039 182.916 37.7926C182.453 38.2586 182.193 38.8891 182.193 39.5462C182.193 40.2035 182.453 40.834 182.916 41.2999L184.116 42.4995C184.582 42.9618 185.212 43.2213 185.869 43.2213C186.527 43.2213 187.157 42.9618 187.623 42.4995C187.738 42.3872 187.884 42.3125 188.042 42.2852C188.2 42.2578 188.362 42.2792 188.508 42.3463C189.069 42.6012 189.708 42.697 189.708 43.3903C189.707 43.7143 189.77 44.0353 189.894 44.3349C190.016 44.6344 190.199 44.9065 190.428 45.1355C190.657 45.3644 190.929 45.5457 191.229 45.6691C191.528 45.7923 191.85 45.8551 192.173 45.8537H193.862C194.52 45.8522 195.151 45.5893 195.615 45.123C196.793 43.9457 195.926 42.9683 196.859 42.6129C197.415 42.4129 197.948 42.0131 198.436 42.5018C198.777 42.847 199.21 43.084 199.685 43.1828C200.16 43.2817 200.653 43.2379 201.102 43.0571C200.325 40.7372 199.154 38.5678 197.644 36.6433Z" fill="black"/>
<path d="M49.5247 156.44C49.5183 156.574 49.4606 156.701 49.3634 156.793C49.2661 156.887 49.1371 156.938 49.0027 156.938C48.8684 156.938 48.7392 156.887 48.6419 156.793C48.5448 156.701 48.487 156.574 48.4807 156.44C48.487 156.305 48.5448 156.179 48.6419 156.087C48.7392 155.993 48.8684 155.942 49.0027 155.942C49.1371 155.942 49.2661 155.993 49.3634 156.087C49.4606 156.179 49.5183 156.305 49.5247 156.44Z" fill="black"/>
<path d="M154.484 112.391C154.475 112.659 154.363 112.913 154.17 113.099C153.977 113.286 153.72 113.39 153.451 113.39C153.183 113.39 152.926 113.286 152.733 113.099C152.54 112.913 152.428 112.659 152.418 112.391C152.428 112.123 152.54 111.869 152.733 111.683C152.926 111.497 153.183 111.392 153.451 111.392C153.72 111.392 153.977 111.497 154.17 111.683C154.363 111.869 154.475 112.123 154.484 112.391Z" fill="black"/>
<path d="M164.168 100.729C164.159 100.997 164.046 101.251 163.854 101.437C163.661 101.624 163.403 101.728 163.135 101.728C162.867 101.728 162.61 101.624 162.417 101.437C162.224 101.251 162.112 100.997 162.102 100.729C162.112 100.461 162.224 100.207 162.417 100.021C162.61 99.8344 162.867 99.7302 163.135 99.7302C163.403 99.7302 163.661 99.8344 163.854 100.021C164.046 100.207 164.159 100.461 164.168 100.729Z" fill="black"/>
<path d="M151.462 97.397C151.453 97.6649 151.34 97.9189 151.148 98.1052C150.955 98.2916 150.697 98.3958 150.429 98.3958C150.161 98.3958 149.904 98.2916 149.711 98.1052C149.518 97.9189 149.406 97.6649 149.396 97.397C149.406 97.129 149.518 96.8751 149.711 96.6887C149.904 96.5024 150.161 96.3982 150.429 96.3982C150.697 96.3982 150.955 96.5024 151.148 96.6887C151.34 96.8751 151.453 97.129 151.462 97.397Z" fill="black"/>
<path d="M142.091 87.001C142.082 87.2689 141.97 87.5229 141.777 87.7092C141.584 87.8956 141.327 87.9998 141.058 87.9998C140.79 87.9998 140.533 87.8956 140.34 87.7092C140.147 87.5229 140.035 87.2689 140.026 87.001C140.035 86.733 140.147 86.4791 140.34 86.2927C140.533 86.1064 140.79 86.0022 141.058 86.0022C141.327 86.0022 141.584 86.1064 141.777 86.2927C141.97 86.4791 142.082 86.733 142.091 87.001Z" fill="black"/>
<path d="M125.184 85.6238C125.174 85.8917 125.062 86.1457 124.869 86.332C124.676 86.5184 124.419 86.6226 124.15 86.6226C123.882 86.6226 123.625 86.5184 123.432 86.332C123.239 86.1457 123.127 85.8917 123.118 85.6238C123.127 85.3558 123.239 85.1019 123.432 84.9155C123.625 84.7292 123.882 84.625 124.15 84.625C124.419 84.625 124.676 84.7292 124.869 84.9155C125.062 85.1019 125.174 85.3558 125.184 85.6238Z" fill="black"/>
<path d="M134.447 71.4517C134.437 71.7196 134.325 71.9736 134.132 72.1599C133.939 72.3463 133.682 72.4504 133.414 72.4504C133.145 72.4504 132.888 72.3463 132.695 72.1599C132.502 71.9736 132.39 71.7196 132.381 71.4517C132.39 71.1837 132.502 70.9298 132.695 70.7434C132.888 70.557 133.145 70.4529 133.414 70.4529C133.682 70.4529 133.939 70.557 134.132 70.7434C134.325 70.9298 134.437 71.1837 134.447 71.4517Z" fill="black"/>
<path d="M162 139.153C162 139.153 163.212 140.986 165.181 144L171 134C168.99 136.875 165.098 139.132 162 139.153Z" fill="#87ED82"/>
<path d="M135.18 47.5945L134.402 49.4382L122.718 45.2843C122.595 45.2406 122.482 45.1731 122.385 45.0857C122.289 44.9982 122.21 44.8926 122.154 44.7748C122.098 44.657 122.065 44.5294 122.06 44.3992C122.053 44.2689 122.072 44.1387 122.116 44.0158C122.159 43.8931 122.227 43.78 122.314 43.6833C122.402 43.5865 122.507 43.508 122.625 43.4521C122.744 43.3962 122.871 43.364 123.001 43.3575C123.131 43.3508 123.261 43.37 123.384 43.4137L135.18 47.5945Z" stroke="black" stroke-width="1.175"/>
<path d="M49.5246 156.44C49.5182 156.574 49.4604 156.701 49.3633 156.793C49.266 156.887 49.1369 156.938 49.0026 156.938C48.8683 156.938 48.7391 156.887 48.6418 156.793C48.5447 156.701 48.4869 156.574 48.4806 156.44C48.4869 156.305 48.5447 156.179 48.6418 156.087C48.7391 155.993 48.8683 155.942 49.0026 155.942C49.1369 155.942 49.266 155.993 49.3633 156.087C49.4604 156.179 49.5182 156.305 49.5246 156.44Z" stroke="black" stroke-width="1.175"/>
<path d="M163.479 57.657L146.086 51.4817C145.953 51.8149 145.82 52.1481 145.664 52.5257C146.575 52.9033 146.908 53.2588 146.886 53.8807L162.813 59.5451C163.063 59.6335 163.338 59.6188 163.578 59.5042C163.817 59.3897 164.002 59.1846 164.09 58.9343C164.178 58.6839 164.163 58.4086 164.049 58.1691C163.934 57.9295 163.73 57.7454 163.479 57.657Z" stroke="black" stroke-width="1.175"/>
<path d="M7.4082 216.039H229.542" stroke="black" stroke-width="1.175" stroke-linecap="round" stroke-linejoin="round"/>
<path d="M43.505 149.376C40.3203 147.537 37.6763 144.892 35.8396 141.706C34.0028 138.52 33.0381 134.906 33.0425 131.228V129.184" stroke="black" stroke-width="1.175" stroke-linecap="round" stroke-linejoin="round"/>
<path d="M110.789 152.197H56.1221" stroke="black" stroke-width="1.175" stroke-linecap="round" stroke-linejoin="round"/>
<path d="M169.988 152.197H129.204" stroke="black" stroke-width="1.175" stroke-linecap="round" stroke-linejoin="round"/>
<path d="M202.153 129.184V131.228C202.152 134.842 201.22 138.394 199.445 141.542C197.671 144.689 195.115 147.327 192.024 149.199" stroke="black" stroke-width="1.175" stroke-linecap="round" stroke-linejoin="round"/>
<path d="M146.597 106.171H116.831V98.4187H137.734" stroke="black" stroke-width="1.175" stroke-linecap="round" stroke-linejoin="round"/>
<path d="M123.118 91.4881H116.831V83.7578H119.43" stroke="black" stroke-width="1.175" stroke-linecap="round" stroke-linejoin="round"/>
<path d="M159.814 83.7578H190.702M163.124 91.4881H191.754" stroke="black" stroke-width="1.175" stroke-linecap="round" stroke-linejoin="round"/>
<path d="M208.654 83.7578H212.016V91.4881H200.317" stroke="black" stroke-width="1.175" stroke-linecap="round" stroke-linejoin="round"/>
<path d="M165.923 98.4187H212.016V106.171H167.656" stroke="black" stroke-width="1.175" stroke-linecap="round" stroke-linejoin="round"/>
<path d="M124.473 120.832H116.831V113.079H149.018" stroke="black" stroke-width="1.175" stroke-linecap="round" stroke-linejoin="round"/>
<path d="M169.966 113.079H212.016V120.832H177.518" stroke="black" stroke-width="1.175" stroke-linecap="round" stroke-linejoin="round"/>
<path d="M163.28 77.0049H190.002" stroke="black" stroke-width="1.175" stroke-linecap="round" stroke-linejoin="round"/>
<path d="M139.6 77.0049H151.373" stroke="black" stroke-width="1.175" stroke-linecap="round" stroke-linejoin="round"/>
<path d="M120.963 77.0049H105.903C103.358 77.0055 100.917 78.0166 99.1177 79.8162C97.3183 81.6157 96.307 84.0561 96.3064 86.6011V119.588C96.307 122.133 97.3183 124.573 99.1177 126.372C100.917 128.173 103.358 129.183 105.903 129.184H115.054" stroke="black" stroke-width="1.175" stroke-linecap="round" stroke-linejoin="round"/>
<path d="M215.325 77.8047C216.996 78.5881 218.407 79.8321 219.395 81.3903C220.383 82.9485 220.906 84.7563 220.901 86.6012V119.588C220.901 122.133 219.89 124.573 218.089 126.372C216.29 128.173 213.85 129.183 211.305 129.184H182.311" stroke="black" stroke-width="1.175" stroke-linecap="round" stroke-linejoin="round"/>
<path d="M153.72 54.1697H202.153" stroke="black" stroke-width="1.175" stroke-linecap="round" stroke-linejoin="round"/>
<path d="M33.0425 54.1697H132.625" stroke="black" stroke-width="1.175" stroke-linecap="round" stroke-linejoin="round"/>
<path d="M103.303 86.1569L107.102 91.4881L111.544 83.7578" stroke="black" stroke-width="1.175" stroke-linecap="round" stroke-linejoin="round"/>
<path d="M103.303 100.818L107.102 106.171L111.544 98.4187" stroke="black" stroke-width="1.175" stroke-linecap="round" stroke-linejoin="round"/>
<path d="M168.944 73.0289C168.94 73.4718 168.793 73.9015 168.525 74.2538C168.256 74.6062 167.881 74.8622 167.456 74.9837C159.204 77.3921 159.814 84.6021 159.814 84.6021C159.051 82.0859 158.516 79.5061 158.215 76.894C161.569 74.2284 159.597 71.7499 157.726 73.5842C156.729 74.564 155.638 74.0519 156.908 70.8075C156.1 70.2868 155.348 69.6839 154.664 69.0083L156.641 63.6771C156.828 63.3681 157.092 63.1133 157.408 62.9379C157.724 62.7627 158.079 62.6728 158.44 62.6775C158.784 62.6702 159.123 62.7497 159.428 62.9085C159.732 63.0672 159.992 63.3002 160.182 63.586C160.373 63.8716 160.488 64.2007 160.517 64.5428C160.547 64.8849 160.49 65.2288 160.351 65.543C160.725 65.2764 161.179 65.1428 161.638 65.1631C162.096 65.1836 162.536 65.357 162.885 65.6557C163.235 65.9544 163.475 66.3614 163.566 66.8118C163.657 67.2624 163.596 67.7305 163.391 68.1419C163.703 67.935 164.065 67.8153 164.439 67.7951C164.813 67.775 165.186 67.855 165.52 68.0271C165.852 68.1992 166.133 68.457 166.333 68.7741C166.533 69.091 166.644 69.4556 166.656 69.8302C166.654 70.2999 166.488 70.7544 166.188 71.1162C166.497 71.0099 166.827 70.978 167.15 71.0228C167.474 71.0677 167.783 71.1881 168.051 71.3743C168.32 71.5606 168.539 71.8075 168.695 72.0949C168.85 72.3824 168.936 72.7024 168.944 73.0289Z" stroke="black" stroke-width="1.175" stroke-linecap="round" stroke-linejoin="round"/>
<path d="M162.124 89.9084C159.77 86.0211 158.704 80.8676 158.215 76.8914C161.569 74.2258 159.592 71.7379 157.726 73.5816C156.727 74.559 155.638 74.0492 156.908 70.8049C156.109 70.2715 155.359 69.6694 154.664 69.0056C151.658 75.6626 150.511 79.0472 150.399 81.0055C150.268 83.3087 151.517 83.9482 155.286 84.5772C154.726 85.8106 155.093 86.6594 153.463 87.0078" stroke="black" stroke-width="1.175" stroke-linecap="round" stroke-linejoin="round"/>
<path d="M155.283 84.5798C156.08 83.5759 156.711 82.4511 157.153 81.2478C154.021 82.825 150.965 83.8608 150.499 82.1948" stroke="black" stroke-width="1.175" stroke-linecap="round" stroke-linejoin="round"/>
<path d="M149.996 115.345C148.934 112.854 147.915 110.828 147.247 108.812C146.368 106.288 146.163 103.577 146.655 100.95C144.358 100.432 142.02 99.7983 139.711 99.0629C134.568 97.4398 129.598 95.3134 124.873 92.7145C122.767 91.5519 121.126 89.7024 120.219 87.4749C119.315 85.2472 119.2 82.7765 119.897 80.475C122.196 72.5358 125.17 64.8073 128.782 57.373C131.514 57.5516 134.212 58.0825 136.808 58.9525C138.766 59.6213 140.63 60.5388 142.354 61.6824C139.635 67.8944 137.32 74.2754 135.424 80.7859C140.922 83.4917 146.725 85.5336 152.706 86.8689C153.793 87.1401 160.862 87.9328 162.458 90.423C167.763 98.7028 166.389 107.772 170.721 114.369" stroke="black" stroke-width="1.175" stroke-linecap="round" stroke-linejoin="round"/>
<path d="M129.315 139.758L131.489 139.712" stroke="black" stroke-width="1.175" stroke-linecap="round" stroke-linejoin="round"/>
<path d="M222.9 215.883C211.86 215.905 202.997 216.038 188.936 216.038C192.735 212.484 200.021 206.82 206.396 204.976C211.209 206.354 216.313 206.354 221.127 204.976C222.394 208.469 222.995 212.169 222.9 215.883Z" stroke="black" stroke-width="1.175" stroke-linecap="round" stroke-linejoin="round"/>
<path d="M206.396 204.954L202.953 199.423" stroke="black" stroke-width="1.175" stroke-linecap="round" stroke-linejoin="round"/>
<path d="M216.992 191.293L183.694 135.16C182.408 122.209 170.716 114.368 170.716 114.368C157.988 112.88 138.707 117.145 126.407 120.232C123.001 121.08 119.927 122.927 117.58 125.536C115.232 128.144 113.719 131.395 113.234 134.871L108.636 167.436L126.207 168.613L131.489 139.714C131.616 139.714 155.543 139.159 161.68 139.159C161.68 139.159 199.334 198.388 199.71 199.247C200.502 201.055 207.426 197.775 209.186 196.899C210.587 196.199 217.5 192.505 216.992 191.293Z" stroke="black" stroke-width="1.175" stroke-linecap="round" stroke-linejoin="round"/>
<path d="M214.992 193.492L221.101 204.954" stroke="black" stroke-width="1.175" stroke-linecap="round" stroke-linejoin="round"/>
<path d="M124.406 168.474C124.14 170.473 123.673 174.249 123.229 177.915" stroke="black" stroke-width="1.175" stroke-linecap="round" stroke-linejoin="round"/>
<path d="M109.924 174.367C103.135 175.47 96.6765 178.072 91.0195 181.985C98.4166 185.65 115.787 190.026 122.096 187.516C122.163 186.961 122.673 182.518 123.229 177.92C115.282 178.187 111.57 175.768 109.924 174.367Z" stroke="black" stroke-width="1.175" stroke-linecap="round" stroke-linejoin="round"/>
<path d="M109.924 174.368L110.9 167.591" stroke="black" stroke-width="1.175" stroke-linecap="round" stroke-linejoin="round"/>
<path d="M146.508 50.0602C147.486 49.2161 149.616 50.2589 148.974 51.8595C148.706 52.5259 148.506 53.0368 148.241 53.7301C149.752 54.3743 149.664 54.9074 149.059 56.8399C148.306 59.2612 148.215 59.5055 146.705 59.8165C143.988 60.3684 143.116 61.7772 142.736 62.951" stroke="black" stroke-width="1.175" stroke-linecap="round" stroke-linejoin="round"/>
<path d="M163.146 58.5903L188.958 67.7422" stroke="black" stroke-width="1.175" stroke-linecap="round" stroke-linejoin="round"/>
<path d="M203.73 68.5417C196.377 65.9697 189.802 65.6318 189.047 67.7865C187.952 70.8905 197.674 75.2268 200.972 76.3831C204.313 77.5522 214.523 80.233 215.655 77.1605C216.414 75.0058 211.06 71.1629 203.73 68.5417Z" stroke="black" stroke-width="1.175" stroke-linecap="round" stroke-linejoin="round"/>
<path d="M189.158 69.075L191.357 90.0666C191.445 90.8944 191.76 91.6816 192.271 92.3395C192.781 92.9974 193.465 93.5 194.245 93.7907C195.025 94.0815 195.87 94.1489 196.686 93.9855C197.503 93.822 198.257 93.4343 198.865 92.8655L214.614 78.1345" stroke="#87ED82" stroke-width="1.175" stroke-linecap="round" stroke-linejoin="round"/>
<path d="M52.2348 42.552C52.2348 43.1934 52.0447 43.8205 51.6883 44.3537C51.3319 44.8871 50.8254 45.3028 50.2328 45.5482C49.6402 45.7937 48.9882 45.8579 48.3591 45.7328C47.73 45.6077 47.1521 45.2988 46.6984 44.8452C46.2449 44.3917 45.936 43.8138 45.8108 43.1847C45.6857 42.5556 45.7499 41.9035 45.9954 41.3108C46.241 40.7182 46.6566 40.2118 47.1899 39.8554C47.7233 39.4991 48.3503 39.3088 48.9917 39.3088C49.8516 39.3098 50.6759 39.6517 51.284 40.2598C51.8919 40.8678 52.234 41.6921 52.2348 42.552Z" stroke="black" stroke-width="1.175" stroke-linecap="round" stroke-linejoin="round"/>
<path d="M62.0753 42.552C62.0753 43.1934 61.8851 43.8205 61.5287 44.3537C61.1724 44.8871 60.6659 45.3028 60.0733 45.5482C59.4806 45.7937 58.8286 45.8579 58.1995 45.7328C57.5704 45.6077 56.9925 45.2988 56.5389 44.8452C56.0854 44.3917 55.7765 43.8138 55.6513 43.1847C55.5262 42.5556 55.5904 41.9035 55.8359 41.3108C56.0814 40.7182 56.497 40.2118 57.0304 39.8554C57.5637 39.4991 58.1907 39.3088 58.8321 39.3088C59.692 39.3098 60.5164 39.6517 61.1244 40.2598C61.7324 40.8678 62.0743 41.6921 62.0753 42.552Z" stroke="black" stroke-width="1.175" stroke-linecap="round" stroke-linejoin="round"/>
<path d="M71.9157 42.552C71.9157 43.1934 71.7256 43.8203 71.3694 44.3535C71.013 44.8869 70.5067 45.3025 69.9143 45.548C69.3218 45.7936 68.6697 45.8579 68.0408 45.7329C67.4117 45.6081 66.8339 45.2994 66.3801 44.846C65.9265 44.3928 65.6174 43.8151 65.4921 43.1861C65.3666 42.5571 65.4306 41.9051 65.6756 41.3125C65.9208 40.7199 66.3361 40.2132 66.8691 39.8566C67.4021 39.4999 68.0289 39.3093 68.6702 39.3088C69.5305 39.3092 70.3555 39.6508 70.964 40.259C71.5724 40.867 71.9148 41.6918 71.9157 42.552Z" stroke="black" stroke-width="1.175" stroke-linecap="round" stroke-linejoin="round"/>
<path d="M61.8311 110.303C61.8311 112.838 61.0794 115.316 59.671 117.424C58.2627 119.532 56.2609 121.174 53.9189 122.144C51.5769 123.114 48.9998 123.368 46.5136 122.873C44.0272 122.379 41.7434 121.158 39.9509 119.366C38.1584 117.574 36.9377 115.289 36.4432 112.803C35.9486 110.317 36.2025 107.74 37.1725 105.398C38.1426 103.056 39.7855 101.054 41.8932 99.6457C44.001 98.2373 46.4791 97.4856 49.014 97.4856C50.6975 97.4843 52.3648 97.8151 53.9203 98.4588C55.4759 99.1024 56.8894 100.046 58.0798 101.237C59.2702 102.427 60.2143 103.841 60.858 105.396C61.5016 106.952 61.8324 108.619 61.8311 110.303Z" stroke="black" stroke-width="1.175" stroke-linecap="round" stroke-linejoin="round"/>
<path d="M53.301 93.1986C53.301 94.0465 53.0497 94.8753 52.5785 95.5804C52.1075 96.2854 51.4379 96.8349 50.6545 97.1594C49.8712 97.4839 49.0092 97.5687 48.1774 97.4033C47.3458 97.2379 46.5819 96.8296 45.9824 96.2301C45.3828 95.6305 44.9745 94.8666 44.8091 94.035C44.6436 93.2034 44.7285 92.3414 45.0531 91.5579C45.3775 90.7745 45.927 90.1049 46.632 89.6339C47.3371 89.1629 48.166 88.9114 49.0138 88.9114C50.1507 88.912 51.2408 89.3638 52.0447 90.1677C52.8486 90.9716 53.3004 92.0617 53.301 93.1986Z" stroke="black" stroke-width="1.175" stroke-linecap="round" stroke-linejoin="round"/>
<path d="M49.014 88.9115C48.4865 87.3172 47.502 85.9131 46.1828 84.8737C44.8637 83.8344 43.2682 83.2057 41.5947 83.0659" stroke="black" stroke-width="1.175" stroke-linecap="round" stroke-linejoin="round"/>
<path d="M49.0138 88.9115C49.5413 87.3172 50.5258 85.9131 51.8449 84.8737C53.1641 83.8344 54.7596 83.2057 56.4331 83.0659" stroke="black" stroke-width="1.175" stroke-linecap="round" stroke-linejoin="round"/>
<path d="M41.2614 100.08C41.2614 100.08 37.4185 92.9719 31.532 94.8191" stroke="black" stroke-width="1.175" stroke-linecap="round" stroke-linejoin="round"/>
<path d="M37.1521 105.416C37.1521 105.416 30.7547 100.485 26.1343 104.55" stroke="black" stroke-width="1.175" stroke-linecap="round" stroke-linejoin="round"/>
<path d="M36.3302 112.324C36.3302 112.324 28.4 110.858 26.1343 116.589" stroke="black" stroke-width="1.175" stroke-linecap="round" stroke-linejoin="round"/>
<path d="M56.7218 100.08C56.7218 100.08 60.5647 92.9719 66.4513 94.8191" stroke="black" stroke-width="1.175" stroke-linecap="round" stroke-linejoin="round"/>
<path d="M60.8373 105.416C60.8373 105.416 67.2347 100.485 71.8551 104.55" stroke="black" stroke-width="1.175" stroke-linecap="round" stroke-linejoin="round"/>
<path d="M61.6555 112.324C61.6555 112.324 69.5857 110.858 71.8515 116.589" stroke="black" stroke-width="1.175" stroke-linecap="round" stroke-linejoin="round"/>
<path d="M49.014 97.4856C49.014 107.037 49.9025 117.189 39.8621 119.277" stroke="black" stroke-width="1.175" stroke-linecap="round" stroke-linejoin="round"/>
<path d="M49.014 97.4856C49.014 107.037 48.1477 117.211 58.1881 119.299" stroke="black" stroke-width="1.175" stroke-linecap="round" stroke-linejoin="round"/>
<path d="M55.6555 104.128C55.6555 104.36 55.5864 104.588 55.4571 104.782C55.3277 104.975 55.1439 105.126 54.9288 105.215C54.7137 105.304 54.4769 105.328 54.2486 105.282C54.0201 105.237 53.8104 105.125 53.6457 104.96C53.4811 104.795 53.3689 104.586 53.3236 104.357C53.2781 104.129 53.3014 103.892 53.3906 103.677C53.4797 103.462 53.6305 103.278 53.8241 103.149C54.0177 103.019 54.2453 102.95 54.4782 102.95C54.6331 102.949 54.7867 102.979 54.9301 103.038C55.0734 103.096 55.2035 103.183 55.3131 103.293C55.4226 103.402 55.5094 103.532 55.5681 103.676C55.6269 103.819 55.6566 103.973 55.6555 104.128Z" stroke="black" stroke-width="1.175" stroke-linecap="round" stroke-linejoin="round"/>
<path d="M59.7207 112.347C59.7207 112.579 59.6516 112.807 59.5222 113.001C59.3929 113.194 59.209 113.345 58.9939 113.434C58.7788 113.523 58.542 113.547 58.3137 113.501C58.0854 113.456 57.8755 113.344 57.7109 113.179C57.5463 113.014 57.4342 112.805 57.3887 112.576C57.3433 112.348 57.3666 112.111 57.4557 111.896C57.5448 111.681 57.6957 111.497 57.8893 111.368C58.0829 111.238 58.3105 111.169 58.5434 111.169C58.6983 111.168 58.8518 111.198 58.9952 111.257C59.1385 111.315 59.2687 111.402 59.3783 111.512C59.4878 111.621 59.5745 111.751 59.6333 111.895C59.6921 112.038 59.7218 112.192 59.7207 112.347Z" stroke="black" stroke-width="1.175" stroke-linecap="round" stroke-linejoin="round"/>
<path d="M42.4165 104.128C42.4165 104.36 42.4856 104.588 42.6149 104.782C42.7444 104.975 42.9283 105.126 43.1434 105.215C43.3585 105.304 43.5951 105.328 43.8236 105.282C44.0519 105.237 44.2616 105.125 44.4264 104.96C44.591 104.795 44.7031 104.586 44.7486 104.357C44.7939 104.129 44.7707 103.892 44.6816 103.677C44.5924 103.462 44.4416 103.278 44.248 103.149C44.0544 103.019 43.8267 102.95 43.5938 102.95C43.4389 102.949 43.2854 102.979 43.1421 103.038C42.9988 103.096 42.8685 103.183 42.759 103.293C42.6494 103.402 42.5627 103.532 42.504 103.676C42.4452 103.819 42.4155 103.973 42.4165 104.128Z" stroke="black" stroke-width="1.175" stroke-linecap="round" stroke-linejoin="round"/>
<path d="M38.3516 112.347C38.3516 112.579 38.4206 112.807 38.55 113.001C38.6793 113.194 38.8632 113.345 39.0783 113.434C39.2934 113.523 39.5302 113.547 39.7585 113.501C39.987 113.456 40.1967 113.344 40.3613 113.179C40.526 113.014 40.6382 112.805 40.6835 112.576C40.729 112.348 40.7056 112.111 40.6165 111.896C40.5275 111.681 40.3765 111.497 40.1829 111.368C39.9893 111.238 39.7617 111.169 39.5289 111.169C39.374 111.168 39.2204 111.198 39.077 111.257C38.9337 111.315 38.8035 111.402 38.6939 111.512C38.5844 111.621 38.4977 111.751 38.4389 111.895C38.3801 112.038 38.3504 112.192 38.3516 112.347Z" stroke="black" stroke-width="1.175" stroke-linecap="round" stroke-linejoin="round"/>
<path d="M111.1 113.324L103.77 120.61" stroke="black" stroke-width="1.175" stroke-linecap="round" stroke-linejoin="round"/>
<path d="M111.078 120.632L103.77 113.302" stroke="black" stroke-width="1.175" stroke-linecap="round" stroke-linejoin="round"/>
<path d="M25.1567 63.7202C25.2313 64.1464 25.178 64.5852 25.0033 64.9809C24.8286 65.3767 24.5405 65.7119 24.1754 65.9439C23.8103 66.176 23.3845 66.2945 22.9521 66.2846C22.5195 66.2748 22.0996 66.1368 21.7455 65.8883C21.3914 65.6398 21.1189 65.2919 20.9626 64.8886C20.8061 64.4851 20.7728 64.0444 20.8669 63.6222C20.961 63.1999 21.1781 62.815 21.491 62.5162C21.8037 62.2173 22.1982 62.0179 22.6244 61.9432C23.1955 61.8453 23.7823 61.9771 24.2566 62.31C24.731 62.6429 25.0545 63.1498 25.1567 63.7202Z" stroke="black" stroke-width="1.175" stroke-linecap="round" stroke-linejoin="round"/>
<path d="M212.026 143.712V155.84" stroke="black" stroke-width="1.175" stroke-linecap="round" stroke-linejoin="round"/>
<path d="M218.08 149.765H205.974" stroke="black" stroke-width="1.175" stroke-linecap="round" stroke-linejoin="round"/>
<path d="M141.953 62.668L144.109 63.4326C141.987 68.5267 140.316 73.7965 139.111 79.1819L154.883 85.8014" stroke="black" stroke-width="1.175" stroke-linecap="round" stroke-linejoin="round"/>
<path d="M131.314 57.6408C131.362 57.5239 135.563 46.7679 135.602 46.6452C136.203 45.1335 138.652 46.0185 138.09 47.8891C138.168 47.6383 138.265 47.3933 138.378 47.1561C139.045 45.6234 141.577 46.5785 140.933 48.5111C140.888 48.628 140.777 48.9554 140.777 48.9554C140.894 48.6444 140.999 48.3556 141.128 48.0668C141.841 46.5131 144.451 47.5583 143.762 49.4908L143.66 49.7328C143.727 49.5551 143.816 49.3996 143.883 49.2441C144.616 47.8003 147.103 48.8934 146.393 50.6658C146.126 51.3322 145.925 51.8431 145.66 52.5364C146.815 53.0286 147.035 53.4565 146.807 54.4935C145.909 58.5738 145.001 58.4381 144.105 58.6229C141.95 59.0671 140.973 59.7779 140.462 60.5554" stroke="black" stroke-width="1.175" stroke-linecap="round" stroke-linejoin="round"/>
<path d="M207.262 197.801L168.855 137.736" stroke="#87ED82" stroke-width="1.175" stroke-linecap="round" stroke-linejoin="round"/>
<path d="M158.17 114.368C158.61 117.095 157.973 119.886 156.394 122.153C154.815 124.42 152.417 125.986 149.707 126.519L129.271 130.539C127.165 130.957 125.24 132.015 123.761 133.571C122.281 135.126 121.32 137.1 121.007 139.225L116.831 167.991" stroke="#87ED82" stroke-width="1.175" stroke-linecap="round" stroke-linejoin="round"/>
<path d="M48.9918 147.91V153.663" stroke="black" stroke-width="1.175" stroke-linecap="round" stroke-linejoin="round"/>
<path d="M171.232 133.538L165.057 144.445" stroke="#87ED82" stroke-width="1.175" stroke-linecap="round" stroke-linejoin="round"/>
<path d="M161.68 139.158C164.509 139.158 167.963 137.332 170.231 134.826C171.972 132.919 173.008 130.474 173.164 127.896" stroke="black" stroke-width="1.175" stroke-linecap="round" stroke-linejoin="round"/>
<path d="M197.666 36.6653C200.577 40.3644 202.158 44.9357 202.153 49.6426V68.0528" stroke="black" stroke-width="1.175" stroke-linecap="round" stroke-linejoin="round"/>
<path d="M187.381 29.6017C185.371 28.9911 183.284 28.6733 181.185 28.6582H54.0341C51.278 28.6566 48.5485 29.198 46.0016 30.2516C43.4548 31.3051 41.1407 32.8502 39.1911 34.7987C37.2417 36.747 35.6953 39.0604 34.6403 41.6066C33.5853 44.1529 33.0424 46.8821 33.0425 49.6382V77.005" stroke="black" stroke-width="1.175" stroke-linecap="round" stroke-linejoin="round"/>
<path d="M204.096 29.0895C203.707 29.0462 203.411 28.9995 203.252 28.568C203.032 27.9835 202.64 27.4925 203.135 26.9792C203.598 26.5155 203.859 25.8869 203.859 25.2314C203.859 24.5758 203.598 23.9472 203.135 23.4835L201.937 22.3144C201.708 22.0847 201.435 21.9025 201.135 21.7781C200.835 21.6538 200.514 21.5898 200.189 21.5898C199.864 21.5898 199.542 21.6538 199.243 21.7781C198.943 21.9025 198.67 22.0847 198.441 22.3144C197.952 22.8031 197.439 22.4114 196.877 22.1916C196.724 22.1338 196.591 22.0298 196.5 21.8942C196.408 21.7586 196.36 21.5978 196.363 21.434C196.365 21.1095 196.301 20.788 196.178 20.488C196.054 20.188 195.871 19.9155 195.642 19.686C195.413 19.4566 195.141 19.2747 194.84 19.151C194.54 19.0272 194.218 18.9639 193.894 18.9649H192.207C191.882 18.9639 191.561 19.0272 191.261 19.151C190.961 19.2747 190.689 19.4566 190.459 19.6861C190.23 19.9156 190.048 20.1881 189.925 20.4881C189.801 20.7881 189.738 21.1096 189.739 21.434C189.739 22.118 189.103 22.2162 188.541 22.4605C188.394 22.5253 188.231 22.5437 188.073 22.5131C187.917 22.4826 187.773 22.4047 187.66 22.2898C187.431 22.0601 187.159 21.878 186.858 21.7536C186.559 21.6293 186.238 21.5652 185.913 21.5652C185.588 21.5652 185.266 21.6293 184.967 21.7536C184.666 21.878 184.394 22.0601 184.165 22.2898L182.943 23.487C182.713 23.7164 182.532 23.9889 182.406 24.2888C182.283 24.5887 182.218 24.9102 182.218 25.2349C182.218 25.5595 182.283 25.881 182.406 26.1809C182.532 26.4808 182.713 26.7533 182.943 26.9827C183.432 27.4726 183.041 27.9858 182.82 28.5716C182.762 28.7248 182.659 28.8565 182.522 28.9484C182.387 29.0403 182.226 29.0878 182.063 29.0848C181.738 29.0839 181.416 29.1471 181.117 29.2709C180.816 29.3946 180.544 29.5765 180.315 29.8059C180.085 30.0354 179.903 30.3079 179.779 30.6079C179.655 30.9079 179.592 31.2294 179.594 31.554L179.618 33.241C179.617 33.5656 179.68 33.8871 179.804 34.1871C179.928 34.4871 180.109 34.7596 180.339 34.9891C180.569 35.2186 180.841 35.4004 181.141 35.5241C181.441 35.6479 181.762 35.7112 182.087 35.7102C182.772 35.7102 182.869 36.3451 183.114 36.9074C183.184 37.0569 183.206 37.2251 183.175 37.3876C183.144 37.5501 183.063 37.6987 182.943 37.8123C182.713 38.0417 182.532 38.3142 182.406 38.6141C182.283 38.914 182.218 39.2355 182.218 39.5602C182.218 39.8848 182.283 40.2063 182.406 40.5062C182.532 40.8061 182.713 41.0786 182.943 41.308L184.14 42.5052C184.369 42.7348 184.642 42.917 184.941 43.0413C185.242 43.1656 185.562 43.2296 185.887 43.2296C186.211 43.2296 186.532 43.1656 186.833 43.0413C187.132 42.917 187.404 42.7348 187.634 42.5052C188.122 42.0165 188.638 42.4046 189.201 42.6221C189.355 42.6803 189.485 42.7843 189.578 42.9198C189.669 43.0554 189.717 43.216 189.715 43.3797C189.713 43.7046 189.777 44.0266 189.901 44.3271C190.023 44.6276 190.206 44.9008 190.435 45.1309C190.664 45.3611 190.936 45.5437 191.237 45.6684C191.537 45.7929 191.859 45.8571 192.184 45.8571L193.894 45.8243C194.218 45.8253 194.54 45.762 194.84 45.6383C195.141 45.5145 195.413 45.3327 195.642 45.1032C195.871 44.8737 196.054 44.6012 196.178 44.3012C196.301 44.0012 196.365 43.6797 196.363 43.3551C196.363 42.6712 196.999 42.573 197.561 42.3286C197.71 42.2593 197.877 42.2385 198.04 42.2691C198.202 42.2998 198.351 42.3802 198.466 42.4993C198.695 42.7291 198.967 42.9112 199.268 43.0356C199.567 43.1599 199.888 43.224 200.213 43.224C200.538 43.224 200.86 43.1599 201.159 43.0356C201.46 42.9112 201.732 42.7291 201.961 42.4993L203.13 41.3022C203.593 40.8385 203.854 40.2098 203.854 39.5543C203.854 38.8988 203.593 38.2701 203.13 37.8065C202.64 37.3166 203.032 36.8045 203.247 36.2176C203.306 36.0646 203.41 35.9332 203.544 35.8413C203.68 35.7494 203.841 35.7017 204.005 35.7044C204.329 35.7053 204.65 35.6421 204.951 35.5183C205.251 35.3946 205.524 35.2128 205.753 34.9833C205.982 34.7538 206.164 34.4812 206.288 34.1812C206.412 33.8813 206.475 33.5597 206.474 33.2352V31.5505C206.474 30.912 206.226 30.2985 205.782 29.8394C205.339 29.3801 204.734 29.1113 204.096 29.0895Z" stroke="black" stroke-width="1.175" stroke-linecap="round" stroke-linejoin="round"/>
<path d="M193.034 38.6891C191.786 38.6879 190.568 38.3172 189.532 37.6236C188.495 36.9301 187.687 35.945 187.212 34.7927C186.735 33.6404 186.611 32.3726 186.854 31.1497C187.097 29.9267 187.698 28.8034 188.579 27.9215C189.461 27.0398 190.584 26.4392 191.807 26.1957C193.03 25.9522 194.299 26.0766 195.45 26.5532C196.603 27.0299 197.589 27.8374 198.282 28.8738C198.975 29.9101 199.346 31.1288 199.347 32.3758C199.351 33.2059 199.19 34.0284 198.874 34.796C198.558 35.5635 198.093 36.2609 197.506 36.8479C196.919 37.4348 196.222 37.8997 195.454 38.2157C194.687 38.5317 193.864 38.6926 193.034 38.6891Z" stroke="black" stroke-width="1.175" stroke-linecap="round" stroke-linejoin="round"/>
<path d="M74.3818 77.0049C76.9273 77.0058 79.3685 78.0169 81.1691 79.816C82.9698 81.6152 83.983 84.0555 83.9861 86.6011V119.588C83.9873 120.847 83.7403 122.096 83.2591 123.259C82.7779 124.423 82.0718 125.481 81.1815 126.372C80.2911 127.264 79.2339 127.971 78.0701 128.453C76.9064 128.936 75.6591 129.184 74.3993 129.184H23.602C21.0559 129.184 18.6141 128.173 16.8127 126.374C15.0113 124.574 13.9975 122.134 13.9941 119.588V86.6011C13.9929 85.3413 14.2399 84.0936 14.7212 82.9294C15.2024 81.7652 15.9084 80.7073 16.7988 79.816C17.689 78.9248 18.7463 78.2178 19.91 77.7355C21.0738 77.2531 22.3211 77.0049 23.581 77.0049H74.3818Z" stroke="black" stroke-width="1.175" stroke-linecap="round" stroke-linejoin="round"/>
<path d="M39.4621 161.26C39.1759 161.262 38.8946 161.187 38.6467 161.043C38.3989 160.9 38.1932 160.694 38.0507 160.447C37.9082 160.198 37.834 159.917 37.8355 159.631C37.8369 159.344 37.914 159.064 38.0591 158.817L47.5887 142.312C47.7311 142.064 47.9365 141.858 48.1842 141.715C48.4318 141.571 48.713 141.495 48.9992 141.495C49.2854 141.495 49.5666 141.571 49.8142 141.715C50.0619 141.858 50.2674 142.064 50.4098 142.312L59.9393 158.817C60.0821 159.064 60.1575 159.344 60.1578 159.629C60.1583 159.915 60.0837 160.195 59.9416 160.443C59.7995 160.69 59.5949 160.896 59.3483 161.039C59.1016 161.183 58.8217 161.259 58.5363 161.26H39.4621Z" stroke="black" stroke-width="1.175" stroke-linecap="round" stroke-linejoin="round"/>
<path d="M146.651 100.95C147.951 101.249 149.237 101.516 150.509 101.751L147.199 108.637" stroke="black" stroke-width="1.175" stroke-linecap="round" stroke-linejoin="round"/>
</svg>
