<svg width="236" height="235" viewBox="0 0 236 235" fill="none" xmlns="http://www.w3.org/2000/svg">
<path d="M56.4232 142.223L56.4232 142.223L64.6997 160.047C60.8696 159.673 55.8351 158.933 51.6804 154.399L51.6803 154.399C50.4455 153.053 49.386 152.093 48.5548 151.542C48.1446 151.27 47.7474 151.068 47.3845 150.992C47.0138 150.914 46.5482 150.95 46.2416 151.347C45.9816 151.683 45.9667 152.13 46.0134 152.514C46.0635 152.927 46.2042 153.422 46.4221 153.986C46.7512 154.839 47.2782 155.906 48.0177 157.181C46.9644 156.833 45.9274 156.436 44.9102 155.993L39.2094 143.748L48.5856 139.376L48.5872 139.375C49.2885 139.046 50.0478 138.858 50.8215 138.823C51.595 138.787 52.3683 138.906 53.0968 139.171L53.0975 139.171C53.8251 139.435 54.4936 139.841 55.0644 140.365L55.0644 140.365C55.6354 140.889 56.0971 141.52 56.4232 142.223Z" fill="#87ED82" stroke="#87ED82" stroke-width="1.175"/>
<path d="M55.7109 173.342C54.4435 172.97 53.1002 172.563 51.7581 172.143L56.6006 182.538C55.7874 179.545 55.4867 176.436 55.7109 173.342Z" fill="black"/>
<path d="M59.1329 185.005C58.47 185.287 57.7779 184.762 57.3558 184.116L59.2884 188.249L68.9068 183.76C66.1523 184.14 60.7545 184.804 59.1329 185.005Z" fill="black"/>
<path d="M36.8696 160.249C37.4376 160.431 38.1785 160.652 39.0123 160.878C37.7813 160.162 36.5861 159.385 35.4313 158.552C33.1211 156.773 33.7875 155.218 36.0533 156.418C36.2263 156.51 36.4473 156.614 36.7068 156.731L36.3246 155.909L36.3237 155.907L36.3169 155.893M36.8696 160.249C36.2657 159.857 35.6715 159.45 35.0874 159.028L35.0801 159.023L35.0729 159.017C34.4563 158.542 34.0073 158.06 33.7319 157.602C33.4696 157.166 33.3058 156.649 33.4717 156.174C33.6615 155.631 34.1724 155.415 34.667 155.408C35.1465 155.401 35.7099 155.573 36.3169 155.893M36.8696 160.249C37.4975 160.657 38.1357 161.049 38.7837 161.425M36.8696 160.249C36.5083 160.133 36.217 160.033 36.0161 159.957L36.0161 159.957L36.0075 159.954C35.3581 159.719 34.7712 159.628 34.2919 159.704C33.8023 159.781 33.3298 160.064 33.2049 160.618C33.0936 161.112 33.3165 161.606 33.6323 162.004C33.9624 162.421 34.469 162.835 35.1408 163.216L35.1481 163.22L35.1556 163.224C35.6482 163.484 36.1452 163.736 36.6462 163.979M36.3169 155.893C36.3207 155.895 36.3244 155.897 36.3282 155.899L36.3297 155.899C36.5293 156.006 36.8046 156.133 37.1465 156.283L32.7026 146.732L32.1703 146.981M36.3169 155.893L32.1703 146.981M32.1703 146.981L31.9225 146.448L20.9579 152.711C21.4816 152.141 22.1129 151.679 22.816 151.353L22.8173 151.352L32.1703 146.981ZM38.7837 161.425L19.4159 156.955C19.4511 157.729 19.6387 158.487 19.9683 159.189L19.9692 159.191L35.3409 192.247L35.341 192.247C35.6672 192.95 36.1289 193.581 36.6998 194.105C37.2707 194.628 37.9395 195.034 38.6675 195.299C39.3955 195.564 40.1687 195.682 40.9427 195.647C41.7168 195.612 42.4761 195.424 43.1771 195.095L43.1786 195.094L52.5549 190.721L42.6822 169.519C40.8426 168.791 38.945 168.03 37.1474 167.142M38.7837 161.425C37.4423 161.059 36.3385 160.708 35.8078 160.506C33.4087 159.639 32.92 161.284 35.4301 162.704C36.5647 163.304 37.7228 163.857 38.9013 164.364C38.4146 164.29 38.0062 164.217 37.6284 164.132C37.2721 164.048 36.9426 163.995 36.6462 163.979M38.7837 161.425L37.562 164.411C37.2552 164.27 36.95 164.126 36.6462 163.979M36.6462 163.979C36.4103 163.966 36.1955 163.975 36.0049 164.009C35.5927 164.083 35.068 164.336 35.0226 164.941C35.0036 165.194 35.0851 165.424 35.1907 165.611C35.2979 165.8 35.4494 165.979 35.6266 166.147C35.981 166.482 36.493 166.821 37.1474 167.142M37.1474 167.142C37.1477 167.142 37.1479 167.142 37.1482 167.142L37.4071 166.615L37.1469 167.142C37.1471 167.142 37.1473 167.142 37.1474 167.142ZM19.7636 154.679C20.0282 153.951 20.4341 153.282 20.9578 152.711L19.4159 156.955C19.3808 156.181 19.4991 155.407 19.7636 154.679Z" fill="#87ED82" stroke="#87ED82" stroke-width="1.175"/>
<path d="M112.136 16.7309L96.7859 23.1739L110.426 13.621L106.894 7.20132C106.778 6.9928 106.614 6.81507 106.415 6.68302C106.217 6.55095 105.989 6.46842 105.752 6.44232C105.515 6.41621 105.275 6.44731 105.053 6.53298C104.83 6.61866 104.631 6.75644 104.473 6.93476L86.0124 27.4833C85.8089 27.7141 85.6816 28.002 85.648 28.3079C85.6142 28.6137 85.6756 28.9225 85.8237 29.1921C85.9719 29.4618 86.1997 29.6792 86.4759 29.8145C86.7522 29.95 87.0635 29.9969 87.3674 29.949L114.624 25.3508C114.859 25.3126 115.08 25.2189 115.271 25.0775C115.462 24.936 115.615 24.7509 115.72 24.5378C115.824 24.3247 115.876 24.0896 115.871 23.8524C115.866 23.615 115.804 23.3824 115.691 23.1739L112.136 16.7309Z" fill="black"/>
<path d="M120.577 130.69C118.845 131.491 118.445 134.644 119.175 139.021C122.687 138.738 126.162 138.106 129.549 137.133C126.109 132.513 122.599 129.757 120.577 130.69Z" fill="black"/>
<path d="M138.283 154.526C135.106 157.044 131.374 158.767 127.397 159.553C131.574 166.239 136.017 170.282 138.483 169.127C140.948 167.988 140.726 162.013 138.283 154.526Z" fill="black"/>
<path d="M221.253 37.1904C215.766 41.9219 205.814 57.7168 203.97 63.4256C204.303 66.18 204.57 68.1348 204.747 69.8008C208.838 70.3475 212.989 70.2651 217.055 69.5565L217.01 67.735C221.764 52.2078 221.942 45.5427 221.253 37.1904Z" fill="black"/>
<path d="M155.32 18.1968C151.366 25.2828 147.235 41.5442 146.903 48.9202C148.08 50.8072 149.213 52.6731 150.301 54.518C153.438 51.7269 157 49.4544 160.854 47.7862C160.923 43.6533 161.474 36.2703 155.32 18.1968Z" fill="black"/>
<path d="M55.7109 173.342C55.3999 179.762 56.6672 184.916 58.6442 185.071C60.5148 185.227 62.3983 180.961 63.1535 175.186C60.6238 174.789 58.1334 174.172 55.7109 173.342Z" fill="black"/>
<path d="M110.226 196.312C108.816 196.95 107.545 197.861 106.486 198.991C105.427 200.121 104.602 201.449 104.056 202.897C103.51 204.347 103.256 205.889 103.306 207.437C103.356 208.984 103.711 210.507 104.35 211.917C104.989 213.327 105.899 214.598 107.029 215.657C108.159 216.716 109.487 217.542 110.936 218.086C112.385 218.632 113.927 218.887 115.475 218.837C117.023 218.787 118.546 218.431 119.956 217.793L110.226 196.312Z" fill="black"/>
<path d="M217.299 78.6206L217.366 81.8638C221.253 80.9062 221.164 79.5091 217.299 78.6206Z" fill="black"/>
<path d="M150.278 68.4235C150.775 69.2851 153.654 68.6012 157.342 66.913C156.698 65.6468 155.987 64.3409 155.254 62.9812C151.855 65.3569 149.775 67.5525 150.278 68.4235Z" fill="black"/>
<path d="M170.049 57.0059C169.716 56.4284 168.316 56.5383 166.339 57.1836L168.05 60.1158C169.605 58.7164 170.382 57.5835 170.049 57.0059Z" fill="black"/>
<path d="M113.025 151.505C112.441 153.364 111.667 155.158 110.715 156.858L113.091 157.992L113.025 151.505Z" fill="black"/>
<path d="M99.9178 132.957L98.8516 136.333L98.1407 133.89L99.9178 132.957Z" fill="black"/>
<path d="M197.306 80.2421C197.306 81.3083 200.505 82.1969 204.947 82.5301C205.014 80.7308 205.036 79.2425 205.058 77.9541C200.549 78.2651 197.306 79.1758 197.306 80.2421Z" fill="black"/>
<path d="M120.555 109.765C120.95 109.507 121.287 109.168 121.54 108.769C121.792 108.371 121.957 107.922 122.021 107.455C122.088 106.957 122.042 106.451 121.886 105.974C121.729 105.497 121.467 105.062 121.118 104.7C120.769 104.339 120.344 104.062 119.872 103.888C119.401 103.715 118.896 103.651 118.397 103.701C118.699 103.288 118.889 102.805 118.952 102.298C119.069 101.429 118.838 100.55 118.31 99.8511C117.782 99.1522 116.998 98.6903 116.131 98.5658C115.478 98.4746 114.812 98.583 114.221 98.8768C114.263 98.7392 114.293 98.5978 114.31 98.4547C114.408 97.7372 114.268 97.0073 113.912 96.3767C113.556 95.746 113.004 95.2491 112.339 94.9621C111.674 94.6749 110.934 94.6134 110.231 94.7868C109.527 94.9602 108.9 95.3591 108.445 95.9224C108.45 95.1229 108.165 94.349 107.642 93.7442C107.119 93.1395 106.394 92.7453 105.602 92.6348L105.38 92.5904C104.609 92.4835 103.825 92.6522 103.167 93.0667C102.508 93.4813 102.017 94.1149 101.78 94.8561C101.521 94.1679 101.039 93.5855 100.412 93.2013C99.7849 92.817 99.0475 92.6527 98.3163 92.7342C97.5853 92.8157 96.9021 93.1385 96.375 93.6514C95.8477 94.1644 95.5064 94.8384 95.405 95.567C95.3865 95.6621 95.3791 95.7589 95.3828 95.8557C94.8777 95.3681 94.2333 95.0499 93.539 94.945C93.1086 94.8837 92.6703 94.9082 92.2493 95.017C91.8283 95.1259 91.433 95.3168 91.0861 95.579C90.7392 95.8412 90.4476 96.1694 90.2282 96.5448C90.0086 96.9202 89.8656 97.3353 89.8072 97.7661C89.7496 98.2286 89.7885 98.698 89.9218 99.1445C89.6415 99.0093 89.3417 98.9194 89.0332 98.8779C88.3789 98.7872 87.7122 98.8947 87.1195 99.1865C86.5268 99.4783 86.0351 99.941 85.7079 100.515C85.3808 101.089 85.233 101.748 85.284 102.406C85.3348 103.065 85.582 103.693 85.9935 104.21C85.2151 104.116 84.4284 104.301 83.774 104.733C83.1196 105.165 82.64 105.816 82.4208 106.568C82.2017 107.321 82.2572 108.128 82.5776 108.843C82.8979 109.559 83.4622 110.138 84.1697 110.476C83.3917 110.58 82.6761 110.956 82.1502 111.539C81.6244 112.121 81.3225 112.872 81.2984 113.656C81.2745 114.441 81.5298 115.208 82.0191 115.822C82.5084 116.435 83.1997 116.855 83.9698 117.006C83.4104 117.377 82.9774 117.909 82.7283 118.532C82.4791 119.155 82.4258 119.839 82.5755 120.493C82.7251 121.147 83.0705 121.74 83.5657 122.193C84.0608 122.645 84.6822 122.936 85.347 123.026C85.6194 123.048 85.8931 123.048 86.1654 123.026C85.8872 123.449 85.7053 123.929 85.6323 124.429C85.5155 125.298 85.7464 126.177 86.2747 126.876C86.8031 127.574 87.5861 128.037 88.4534 128.161C89.1143 128.264 89.7906 128.155 90.3859 127.85C90.2226 128.461 90.2383 129.107 90.4313 129.71C90.6242 130.312 90.9863 130.846 91.4744 131.25C91.0563 129.131 91.0412 126.953 91.4299 124.829C92.9627 113.722 98.7604 119.476 99.8932 123.496C100.16 124.207 100.626 124.229 101.448 123.008C103.16 120.475 106.292 123.852 102.627 127.361C102.249 127.739 102.07 130.316 103.562 133.115C104.045 133.552 104.649 133.83 105.295 133.914C105.749 133.976 106.21 133.942 106.651 133.817C107.091 133.691 107.501 133.475 107.854 133.182C108.206 132.89 108.495 132.528 108.7 132.118C108.906 131.709 109.025 131.262 109.049 130.804C109.483 131.239 110.03 131.544 110.628 131.685C111.226 131.825 111.852 131.796 112.434 131.599C113.016 131.403 113.532 131.048 113.923 130.574C114.314 130.099 114.565 129.525 114.646 128.916C114.707 128.463 114.677 128.002 114.558 127.561C115.026 127.774 115.538 127.875 116.052 127.855C116.566 127.835 117.069 127.696 117.519 127.448C117.97 127.2 118.357 126.85 118.648 126.426C118.941 126.003 119.129 125.516 119.2 125.007C119.264 124.568 119.238 124.122 119.123 123.694C119.008 123.266 118.809 122.866 118.534 122.519C119.314 122.617 120.102 122.436 120.76 122.006C121.417 121.575 121.9 120.925 122.122 120.171C122.343 119.418 122.289 118.609 121.97 117.893C121.651 117.175 121.086 116.594 120.377 116.255C121.098 116.162 121.768 115.837 122.285 115.327C122.803 114.818 123.139 114.152 123.243 113.434C123.358 112.593 123.141 111.741 122.64 111.056C122.139 110.372 121.391 109.909 120.555 109.765Z" fill="black"/>
<path d="M221.12 99.6345C224.451 107.116 226.264 115.185 226.456 123.372C226.647 131.56 225.214 139.705 222.236 147.335C219.26 154.963 214.798 161.928 209.113 167.821C203.426 173.715 196.627 178.423 189.109 181.672" stroke="black" stroke-width="1.175" stroke-linecap="round" stroke-linejoin="round"/>
<path d="M173.981 63.6921C185.505 65.4471 196.295 70.4305 205.103 78.0654" stroke="black" stroke-width="1.175" stroke-linecap="round" stroke-linejoin="round"/>
<path d="M136.994 69.4677C142.37 66.7794 148.109 64.8937 154.032 63.8711" stroke="black" stroke-width="1.175" stroke-linecap="round" stroke-linejoin="round"/>
<path d="M100.162 174.053L124.865 228.567" stroke="black" stroke-width="1.175" stroke-linecap="round" stroke-linejoin="round"/>
<path d="M86.923 144.819L52.0691 67.957C50.1809 63.8651 52.8465 60.249 57.3114 60.8253L117.823 68.7333C121.341 69.1938 124.685 70.5347 127.545 72.6318C130.407 74.7288 132.693 77.5141 134.191 80.7297L202.655 228.521" stroke="black" stroke-width="1.175" stroke-linecap="round" stroke-linejoin="round"/>
<path d="M99.2011 137.736C91.4943 142.937 83.1097 147.054 74.2824 149.972C69.9531 150.594 65.5925 150.972 61.2209 151.105" stroke="black" stroke-width="1.175" stroke-linecap="round" stroke-linejoin="round"/>
<path d="M65.6415 160.703L56.9292 141.953C56.2007 140.396 54.8838 139.191 53.2678 138.604C51.6519 138.017 49.8688 138.095 48.3104 138.821L22.5686 150.839C21.0109 151.567 19.806 152.883 19.2185 154.499C18.631 156.116 18.709 157.899 19.4353 159.457L34.8082 192.513C35.5366 194.071 36.8534 195.276 38.4695 195.863C40.0855 196.45 41.8685 196.371 43.427 195.645L68.9069 183.76" fill="#87ED82"/>
<path d="M65.6415 160.703L56.9292 141.953C56.2007 140.396 54.8838 139.191 53.2678 138.604C51.6519 138.017 49.8688 138.095 48.3104 138.821L22.5686 150.839C21.0109 151.567 19.806 152.883 19.2185 154.499C18.631 156.116 18.709 157.899 19.4353 159.457L34.8082 192.513C35.5366 194.071 36.8534 195.276 38.4695 195.863C40.0855 196.45 41.8685 196.371 43.427 195.645L68.9069 183.76" stroke="#87ED82" stroke-width="1.175" stroke-linecap="round" stroke-linejoin="round"/>
<path d="M35.319 144.863C35.319 144.863 18.0089 143.271 10.9053 138.222C3.80172 133.172 9.70113 120.919 18.8355 127.425C28.116 134.03 35.319 144.863 35.319 144.863Z" stroke="black" stroke-width="1.175" stroke-linecap="round" stroke-linejoin="round"/>
<path d="M35.3003 144.863C35.3003 144.863 46.0633 131.225 47.2955 122.582C48.5278 113.939 35.5821 109.812 34.0143 120.89C32.4056 132.182 35.3003 144.863 35.3003 144.863Z" stroke="black" stroke-width="1.175" stroke-linecap="round" stroke-linejoin="round"/>
<path d="M98.8166 136.448L99.918 132.941C99.918 132.941 89.5466 139.982 91.4547 124.832C92.8237 113.959 98.515 119.22 99.8326 123.22C100.141 124.155 100.518 124.451 101.469 123.032C103.179 120.499 106.331 123.896 102.647 127.386C101.939 128.057 102.209 133.044 106.446 136.673C109.135 138.978 117.464 140.582 129.526 137.14" stroke="black" stroke-width="1.175" stroke-linecap="round" stroke-linejoin="round"/>
<path d="M98.1407 133.89C98.8345 136.883 99.8242 139.8 101.095 142.598" stroke="black" stroke-width="1.175" stroke-linecap="round" stroke-linejoin="round"/>
<path d="M104.717 134.845C102.028 143.442 94.1202 152.993 87.9226 160.769C78.8855 161.544 69.7909 161.335 60.799 160.146" stroke="black" stroke-width="1.175" stroke-linecap="round" stroke-linejoin="round"/>
<path d="M138.283 154.526C134.429 157.585 129.76 159.439 124.858 159.855C119.955 160.271 115.04 159.231 110.726 156.865C107.606 162.715 104.137 168.372 100.34 173.808C99.0851 175.699 97.2187 177.102 95.0531 177.783C83.3343 181.381 71.2869 183.807 59.0885 185.024" stroke="black" stroke-width="1.175" stroke-linecap="round" stroke-linejoin="round"/>
<path d="M127.397 159.548C131.574 166.234 136.012 170.267 138.483 169.122C146.125 165.576 128.342 127.108 120.577 130.69C118.845 131.491 118.445 134.644 119.175 139.021" stroke="black" stroke-width="1.175" stroke-linecap="round" stroke-linejoin="round"/>
<path d="M197.306 80.2422C197.528 87.0839 198.372 111.809 198.372 114.363C194.463 114.963 163.607 122.382 161.852 122.693" stroke="black" stroke-width="1.175" stroke-linecap="round" stroke-linejoin="round"/>
<path d="M174.426 149.728C221.276 133.244 220.25 134.022 221.191 121.161C221.788 112.964 220.813 89.461 220.236 80.2202" stroke="black" stroke-width="1.175" stroke-linecap="round" stroke-linejoin="round"/>
<path d="M150.278 68.4236C153.654 74.3768 167.113 96.6357 168.316 98.8793C167.03 99.8345 161.141 106.211 156.274 110.787" stroke="black" stroke-width="1.175" stroke-linecap="round" stroke-linejoin="round"/>
<path d="M185.688 117.14C194.863 102.944 193.082 99.4147 190.248 93.5036C186.577 85.8645 174.475 64.2252 169.988 56.9392" stroke="black" stroke-width="1.175" stroke-linecap="round" stroke-linejoin="round"/>
<path d="M155.32 18.1968C151.366 25.2828 147.235 41.5442 146.903 48.9202C148.08 50.8072 149.213 52.6731 150.301 54.518C153.45 51.742 157.01 49.4711 160.854 47.7862C160.873 45.7332 161.474 36.2703 155.32 18.1968Z" stroke="black" stroke-width="1.175" stroke-linecap="round" stroke-linejoin="round"/>
<path d="M51.9276 63.2584C53.1323 60.4411 55.2214 58.0927 57.879 56.5679C60.5367 55.0432 63.6184 54.4249 66.6586 54.8068L125.993 62.4482C128.564 62.7779 131.008 63.7539 133.099 65.2848C135.19 66.8157 136.859 68.8517 137.95 71.2026L210.834 228.525" stroke="black" stroke-width="1.175" stroke-linecap="round" stroke-linejoin="round"/>
<path d="M64.1777 70.2229C64.9961 72 64.7108 73.8881 63.5335 74.4435C62.3562 74.9988 60.7124 73.9992 59.8905 72.2221C59.0686 70.4451 59.3527 68.5476 60.5347 68.0016C61.7167 67.4556 63.3593 68.4459 64.1777 70.2229Z" stroke="black" stroke-width="1.175" stroke-linecap="round" stroke-linejoin="round"/>
<path d="M27.1667 79.6868L33.0977 92.5261" stroke="black" stroke-width="1.175" stroke-linecap="round" stroke-linejoin="round"/>
<path d="M36.5408 83.1301L23.7236 89.0833" stroke="black" stroke-width="1.175" stroke-linecap="round" stroke-linejoin="round"/>
<path d="M197.617 89.1499C205.119 91.6132 212.798 91.3712 220.699 89.1499" stroke="black" stroke-width="1.175" stroke-linecap="round" stroke-linejoin="round"/>
<path d="M154.825 76.1739C162.533 74.704 169.473 70.5547 174.416 64.4604" stroke="black" stroke-width="1.175" stroke-linecap="round" stroke-linejoin="round"/>
<path d="M112.136 16.7309L96.7857 23.1739L110.426 13.621L106.894 7.20132C106.778 6.9928 106.614 6.81507 106.415 6.68302C106.217 6.55095 105.989 6.46842 105.752 6.44232C105.515 6.41621 105.275 6.44731 105.053 6.53298C104.83 6.61866 104.631 6.75644 104.473 6.93476L86.0123 27.4833C85.8088 27.7141 85.6815 28.002 85.6478 28.3079C85.6141 28.6137 85.6754 28.9225 85.8236 29.1921C85.9718 29.4618 86.1995 29.6792 86.4758 29.8145C86.7521 29.95 87.0634 29.9969 87.3673 29.949L114.624 25.3508C114.859 25.3126 115.08 25.2189 115.271 25.0775C115.461 24.936 115.615 24.7509 115.72 24.5378C115.824 24.3247 115.876 24.0896 115.871 23.8524C115.866 23.615 115.804 23.3824 115.69 23.1739L112.136 16.7309Z" stroke="black" stroke-width="1.175" stroke-linecap="round" stroke-linejoin="round"/>
<path d="M205.436 188.559C216.144 194.313 218.388 177.896 229.094 183.649" stroke="black" stroke-width="1.175" stroke-linecap="round" stroke-linejoin="round"/>
<path d="M51.5581 158.77C47.2954 157.772 43.2117 156.124 39.4507 153.883C37.1849 152.639 36.335 153.89 38.5399 155.838C40.5818 157.569 42.8006 159.082 45.1595 160.348" stroke="black" stroke-width="1.175" stroke-linecap="round" stroke-linejoin="round"/>
<path d="M43.1335 159.191C40.7302 158.423 38.3783 157.503 36.0919 156.436C33.8074 155.231 33.1398 156.787 35.4699 158.569C38.2973 160.496 41.2677 162.205 44.3552 163.679" stroke="black" stroke-width="1.175" stroke-linecap="round" stroke-linejoin="round"/>
<path d="M40.9834 161.991C39.2403 161.587 37.5201 161.09 35.8299 160.503C33.4414 159.607 32.9445 161.274 35.4522 162.702C38.105 164.08 40.8693 165.232 43.7156 166.145" stroke="black" stroke-width="1.175" stroke-linecap="round" stroke-linejoin="round"/>
<path d="M63.1536 175.186C62.5317 175.386 51.6237 172.388 45.2041 169.899C42.632 168.899 39.943 167.895 37.4294 166.656C34.8994 165.407 35.049 164.158 37.496 164.723C38.3834 164.928 39.4286 165.056 41.139 165.279" stroke="black" stroke-width="1.175" stroke-linecap="round" stroke-linejoin="round"/>
<path d="M55.7109 173.342C55.3999 179.762 56.6672 184.911 58.6442 185.071C63.5908 185.472 65.5421 160.958 60.6212 160.103C57.0371 159.303 53.7687 157.463 51.225 154.815C46.3532 149.49 44.8263 150.639 49.4479 158.08" stroke="black" stroke-width="1.175" stroke-linecap="round" stroke-linejoin="round"/>
<path d="M110.226 196.334C108.136 197.277 106.366 198.81 105.134 200.744C103.902 202.678 103.261 204.93 103.29 207.223C103.319 209.516 104.017 211.751 105.298 213.653C106.579 215.555 108.387 217.043 110.501 217.932C112.615 218.822 114.942 219.075 117.198 218.661C119.454 218.247 121.54 217.183 123.2 215.601C124.859 214.018 126.021 211.986 126.542 209.752C127.065 207.519 126.922 205.182 126.136 203.028C125.577 201.508 124.712 200.12 123.594 198.949C122.476 197.778 121.129 196.849 119.636 196.222C118.144 195.594 116.539 195.279 114.92 195.299C113.301 195.318 111.703 195.671 110.226 196.334Z" stroke="black" stroke-width="1.175" stroke-linecap="round" stroke-linejoin="round"/>
<path d="M166.339 57.1835C168.316 56.5393 169.711 56.4306 170.049 57.0058C170.984 58.6005 164.195 63.0852 162.603 64.0615C160.498 65.3475 151.414 70.3934 150.278 68.4235C149.775 67.5525 151.855 65.358 155.254 62.9812" stroke="black" stroke-width="1.175" stroke-linecap="round" stroke-linejoin="round"/>
<path d="M160.853 47.7864C157.011 49.453 153.457 51.7176 150.322 54.496C152.788 58.6721 155.365 63.0306 157.343 66.8887C161.201 65.1208 164.802 62.8398 168.05 60.1078L160.853 47.7864Z" stroke="black" stroke-width="1.175" stroke-linecap="round" stroke-linejoin="round"/>
<path d="M221.253 37.1904C215.766 41.9219 205.814 57.7168 203.97 63.4256C204.303 66.1801 204.57 68.1348 204.747 69.8008C208.838 70.3475 212.989 70.2651 217.055 69.5565L217.01 67.735C221.764 52.2078 221.942 45.5427 221.253 37.1904Z" stroke="black" stroke-width="1.175" stroke-linecap="round" stroke-linejoin="round"/>
<path d="M217.055 69.5564C212.988 70.265 208.838 70.3474 204.747 69.8007C205.159 74.0315 205.225 78.2886 204.947 82.5302C209.099 82.8773 213.278 82.6456 217.366 81.8416C217.058 69.436 217.115 71.6561 217.055 69.5564Z" stroke="black" stroke-width="1.175" stroke-linecap="round" stroke-linejoin="round"/>
<path d="M193.951 57.0281C193.588 57.3071 193.151 57.4723 192.695 57.5029C192.239 57.5335 191.783 57.4281 191.387 57.2C190.99 56.9719 190.67 56.6313 190.468 56.2214C190.264 55.8115 190.188 55.3507 190.247 54.8972C190.307 54.4435 190.498 54.0177 190.799 53.6734C191.1 53.3291 191.497 53.0818 191.939 52.9627C192.379 52.8437 192.847 52.8583 193.281 53.0046C193.713 53.151 194.093 53.4226 194.373 53.785C194.743 54.2722 194.908 54.8861 194.829 55.4934C194.749 56.1007 194.434 56.6523 193.951 57.0281Z" stroke="black" stroke-width="1.175" stroke-linecap="round" stroke-linejoin="round"/>
<path d="M123.243 113.43C123.14 114.149 122.805 114.815 122.287 115.325C121.769 115.834 121.098 116.16 120.377 116.251C121.086 116.591 121.651 117.171 121.97 117.889C122.289 118.606 122.343 119.415 122.122 120.168C121.9 120.922 121.417 121.572 120.76 122.002C120.102 122.431 119.314 122.614 118.534 122.516C118.807 122.864 119.007 123.264 119.122 123.692C119.236 124.118 119.263 124.565 119.2 125.003C119.141 125.434 118.997 125.848 118.777 126.223C118.557 126.597 118.265 126.925 117.919 127.187C117.572 127.449 117.177 127.64 116.757 127.75C116.336 127.858 115.899 127.884 115.468 127.825C115.153 127.78 114.846 127.691 114.558 127.558C114.676 128 114.706 128.459 114.646 128.913C114.565 129.522 114.314 130.096 113.923 130.571C113.532 131.044 113.016 131.4 112.434 131.596C111.852 131.793 111.226 131.822 110.628 131.681C110.03 131.541 109.483 131.236 109.049 130.801C109.052 130.898 109.045 130.995 109.026 131.09C108.902 131.957 108.44 132.741 107.741 133.268C107.042 133.796 106.163 134.028 105.295 133.911C104.649 133.826 104.045 133.547 103.562 133.111C102.074 130.312 102.247 127.733 102.627 127.358C106.251 123.809 103.157 120.471 101.448 123.004C100.74 124.056 100.195 124.422 99.8243 123.264C98.5441 119.262 92.9475 113.931 91.4299 124.826C91.0431 126.95 91.058 129.128 91.4744 131.247C91.0383 130.889 90.7012 130.425 90.4951 129.9C90.289 129.375 90.2208 128.805 90.2971 128.247C90.3149 128.111 90.3446 127.978 90.3859 127.847C89.7893 128.147 89.1141 128.256 88.4534 128.158C87.5881 128.029 86.8079 127.566 86.2803 126.868C85.7528 126.17 85.5201 125.293 85.6323 124.426C85.7058 123.925 85.8877 123.446 86.1654 123.023C85.893 123.045 85.6193 123.045 85.347 123.023C84.6822 122.933 84.0608 122.642 83.5656 122.189C83.0705 121.737 82.725 121.143 82.5753 120.489C82.4258 119.836 82.4791 119.152 82.7281 118.529C82.9773 117.906 83.4104 117.374 83.9698 117.003C83.1997 116.852 82.5084 116.432 82.0191 115.818C81.5298 115.205 81.2745 114.437 81.2984 113.653C81.3224 112.868 81.6243 112.118 82.1501 111.536C82.676 110.953 83.3917 110.576 84.1697 110.472C83.4635 110.134 82.9005 109.555 82.5808 108.84C82.2613 108.125 82.2059 107.32 82.4245 106.568C82.6433 105.816 83.1218 105.166 83.775 104.734C84.4282 104.302 85.2135 104.115 85.9912 104.208C85.5796 103.691 85.3325 103.063 85.2816 102.404C85.2307 101.746 85.3783 101.087 85.7056 100.513C86.0327 99.9388 86.5244 99.476 87.1172 99.1843C87.7099 98.8925 88.3764 98.7851 89.0309 98.8758C89.3393 98.9172 89.6392 99.0072 89.9194 99.1424C89.7876 98.6959 89.7497 98.2269 89.8084 97.7651C89.8658 97.3339 90.0082 96.9181 90.2273 96.5422C90.4465 96.1664 90.7381 95.8377 91.0852 95.5753C91.4323 95.3129 91.828 95.122 92.2494 95.0136C92.6709 94.9052 93.1095 94.8816 93.5402 94.944C94.2353 95.046 94.8805 95.3647 95.3839 95.8548C95.4226 95.096 95.7213 94.3737 96.2299 93.8094C96.7385 93.245 97.4258 92.8728 98.1765 92.7556C98.9271 92.6383 99.6952 92.7829 100.352 93.1653C101.008 93.5478 101.513 94.1444 101.781 94.8552C102.963 91.2028 108.497 92.2036 108.445 95.9214C108.9 95.3581 109.527 94.9592 110.231 94.7859C110.934 94.6124 111.674 94.674 112.339 94.961C113.004 95.2481 113.556 95.745 113.912 96.3756C114.268 97.0064 114.408 97.7363 114.31 98.4538C114.293 98.5969 114.263 98.7381 114.221 98.8758C114.811 98.5806 115.478 98.4721 116.131 98.5648C117 98.689 117.784 99.1514 118.313 99.8513C118.842 100.551 119.073 101.432 118.956 102.301C118.892 102.808 118.701 103.291 118.4 103.704C118.667 103.68 118.935 103.687 119.2 103.725C120.065 103.854 120.845 104.318 121.374 105.016C121.901 105.714 122.134 106.591 122.021 107.458C121.957 107.926 121.792 108.374 121.54 108.773C121.287 109.172 120.95 109.511 120.555 109.769C121.391 109.91 122.139 110.371 122.641 111.055C123.142 111.738 123.359 112.59 123.243 113.43Z" stroke="black" stroke-width="1.175" stroke-linecap="round" stroke-linejoin="round"/>
<path d="M32.498 146.196L37.5627 157.081" stroke="black" stroke-width="1.175" stroke-linecap="round" stroke-linejoin="round"/>
<path d="M43.1381 169.055L53.3574 191.003" stroke="black" stroke-width="1.175" stroke-linecap="round" stroke-linejoin="round"/>
<path d="M38.4067 143.442L44.4488 156.415" stroke="black" stroke-width="1.175" stroke-linecap="round" stroke-linejoin="round"/>
<path d="M51.7581 172.143L56.6006 182.538" stroke="black" stroke-width="1.175" stroke-linecap="round" stroke-linejoin="round"/>
<path d="M57.3558 184.115L59.2662 188.248" stroke="black" stroke-width="1.175" stroke-linecap="round" stroke-linejoin="round"/>
<path d="M205.057 77.9541C203.104 78.0886 196.523 78.8064 197.378 80.5519C198.273 82.3676 206.965 82.6891 209.168 82.6832C217.96 82.661 224.297 80.2433 217.276 78.5983" stroke="black" stroke-width="1.175" stroke-linecap="round" stroke-linejoin="round"/>
<path d="M110.732 156.854C111.611 155.113 112.398 153.328 113.092 151.505V158.013" stroke="black" stroke-width="1.175" stroke-linecap="round" stroke-linejoin="round"/>
</svg>
