<svg width="21" height="21" viewBox="0 0 21 21" fill="none" xmlns="http://www.w3.org/2000/svg">
<path d="M7.61236 15.5673V16.5711C7.61241 16.964 7.53505 17.353 7.3847 17.7159C7.23435 18.0789 7.01397 18.4087 6.73613 18.6864L6.11708 19.3055H15.0888L14.4697 18.6864C14.1919 18.4087 13.9715 18.0789 13.8212 17.7159C13.6708 17.353 13.5935 16.964 13.5935 16.5711V15.5673M19.5746 3.60499V13.3243C19.5746 13.9192 19.3383 14.4897 18.9177 14.9103C18.4971 15.331 17.9266 15.5673 17.3317 15.5673H3.87415C3.27929 15.5673 2.70879 15.331 2.28816 14.9103C1.86753 14.4897 1.63123 13.9192 1.63123 13.3243V3.60499M19.5746 3.60499C19.5746 3.01013 19.3383 2.43963 18.9177 2.019C18.4971 1.59837 17.9266 1.36206 17.3317 1.36206H3.87415C3.27929 1.36206 2.70879 1.59837 2.28816 2.019C1.86753 2.43963 1.63123 3.01013 1.63123 3.60499M19.5746 3.60499V10.3338C19.5746 10.9286 19.3383 11.4991 18.9177 11.9198C18.4971 12.3404 17.9266 12.5767 17.3317 12.5767H3.87415C3.27929 12.5767 2.70879 12.3404 2.28816 11.9198C1.86753 11.4991 1.63123 10.9286 1.63123 10.3338V3.60499" stroke="#8BEE86" stroke-width="2" stroke-linecap="round" stroke-linejoin="round"/>
</svg>
