<svg width="24" height="20" viewBox="0 0 24 20" fill="none" xmlns="http://www.w3.org/2000/svg">
<path d="M4.38746 7.98294C4.11327 10.0819 3.94989 12.1938 3.898 14.31C6.76775 15.5087 9.51547 16.9809 12.1031 18.7061C14.6911 16.9808 17.4392 15.5087 20.3092 14.31C20.2573 12.1938 20.0939 10.0819 19.8198 7.98294M19.8198 7.98294C20.692 7.68986 21.5763 7.41871 22.4694 7.17149C19.2163 4.89094 15.7436 2.94072 12.1031 1.34985C8.4626 2.94106 4.98996 4.8916 1.73682 7.17249C2.62728 7.41834 3.51083 7.68859 4.38646 7.98294C7.04669 8.87732 9.62783 9.99167 12.1031 11.3144C14.5781 9.99166 17.1599 8.87731 19.8198 7.98294ZM6.86963 12.8207C7.06792 12.8207 7.25808 12.7419 7.39829 12.6017C7.5385 12.4615 7.61727 12.2713 7.61727 12.073C7.61727 11.8747 7.5385 11.6846 7.39829 11.5444C7.25808 11.4042 7.06792 11.3254 6.86963 11.3254C6.67134 11.3254 6.48118 11.4042 6.34097 11.5444C6.20076 11.6846 6.12199 11.8747 6.12199 12.073C6.12199 12.2713 6.20076 12.4615 6.34097 12.6017C6.48118 12.7419 6.67134 12.8207 6.86963 12.8207ZM6.86963 12.8207V9.15723C8.56103 8.10588 10.3081 7.14684 12.1031 6.28429M5.11815 17.798C5.67437 17.2431 6.11545 16.5838 6.41602 15.858C6.7166 15.1321 6.87076 14.354 6.86963 13.5683V12.073" stroke="#8BEE86" stroke-width="2" stroke-linecap="round" stroke-linejoin="round"/>
</svg>
