<svg width="23" height="21" viewBox="0 0 23 21" fill="none" xmlns="http://www.w3.org/2000/svg">
<path d="M14.3257 17.9357C15.176 18.1826 16.057 18.3074 16.9424 18.3065C18.3663 18.3086 19.7717 17.9839 21.0505 17.3575C21.0883 16.464 20.8338 15.5826 20.3255 14.8468C19.8173 14.1109 19.083 13.5609 18.234 13.2799C17.385 12.9989 16.4676 13.0024 15.6207 13.2897C14.7739 13.5771 14.0438 14.1327 13.5411 14.8724M14.3257 17.9357V17.9327C14.3257 16.8232 14.0406 15.7795 13.5411 14.8724M14.3257 17.9357V18.0414C12.4072 19.1968 10.2093 19.8056 7.96971 19.8018C5.64603 19.8018 3.47189 19.1588 1.61574 18.0414L1.61475 17.9327C1.61398 16.5216 2.08288 15.1504 2.94753 14.0353C3.81217 12.9201 5.02337 12.1245 6.39018 11.7737C7.75698 11.423 9.20164 11.5372 10.4964 12.0982C11.7912 12.6592 12.8624 13.6352 13.5411 14.8724M11.3351 5.22279C11.3351 6.11508 10.9806 6.97083 10.3497 7.60177C9.71874 8.23272 8.86299 8.58718 7.9707 8.58718C7.07841 8.58718 6.22267 8.23272 5.59172 7.60177C4.96077 6.97083 4.60631 6.11508 4.60631 5.22279C4.60631 4.3305 4.96077 3.47475 5.59172 2.84381C6.22267 2.21286 7.07841 1.8584 7.9707 1.8584C8.86299 1.8584 9.71874 2.21286 10.3497 2.84381C10.9806 3.47475 11.3351 4.3305 11.3351 5.22279ZM19.5592 7.46571C19.5592 8.15972 19.2835 8.8253 18.7927 9.31604C18.302 9.80677 17.6364 10.0825 16.9424 10.0825C16.2484 10.0825 15.5828 9.80677 15.0921 9.31604C14.6014 8.8253 14.3257 8.15972 14.3257 7.46571C14.3257 6.77171 14.6014 6.10613 15.0921 5.61539C15.5828 5.12466 16.2484 4.84897 16.9424 4.84897C17.6364 4.84897 18.302 5.12466 18.7927 5.61539C19.2835 6.10613 19.5592 6.77171 19.5592 7.46571Z" stroke="#8BEE86" stroke-width="2" stroke-linecap="round" stroke-linejoin="round"/>
</svg>
