<svg width="21" height="23" viewBox="0 0 21 23" fill="none" xmlns="http://www.w3.org/2000/svg">
<path d="M19.1418 6.84775L16.8989 5.53888M19.1418 6.84775V9.09068M19.1418 6.84775L16.8989 8.15663M1.19836 6.84775L3.44129 5.53888M1.19836 6.84775L3.44129 8.15663M1.19836 6.84775V9.09068M10.1701 12.0812L12.413 10.7724M10.1701 12.0812L7.92714 10.7724M10.1701 12.0812V14.3242M10.1701 21.053L12.413 19.7441M10.1701 21.053V18.81M10.1701 21.053L7.92714 19.7441M7.92714 2.92213L10.1701 1.61426L12.413 2.92313M19.1418 13.5765V15.8195L16.8989 17.1283M3.44129 17.1283L1.19836 15.8195V13.5765" stroke="#8BEE86" stroke-width="2" stroke-linecap="round" stroke-linejoin="round"/>
</svg>
