<svg width="401" height="399" viewBox="0 0 401 399" fill="none" xmlns="http://www.w3.org/2000/svg">
<path d="M327.703 140.649C328.976 137.758 337.291 118.478 334.26 106.8C333.84 105.176 333.183 102.651 331.025 100.563C326.713 96.3902 322.009 99.3768 318.564 96.3161C314.021 92.2809 319.761 84.9169 315.129 73.6725C314.017 70.9758 312.288 66.7771 308.142 64.5099C303.514 61.979 300.64 64.4598 296.052 62.4629C290.329 59.9712 291.214 54.5495 285.989 48.8444C280.484 42.8342 269.423 37.8442 260.888 41.9818C253.446 45.5897 250.747 54.7719 250.79 61.144C250.856 70.5594 256.942 78.5404 263.526 82.4012C272.989 87.9515 282.989 84.7011 284.114 88.4529C285.16 91.9452 276.536 94.9122 276.673 101.367C276.769 105.875 281.103 110.48 285.688 111.831C292.042 113.706 296.028 108.496 299.768 110.728C303.69 113.069 301.124 119.884 303.705 126.295C305.835 131.584 311.769 137.357 327.701 140.651L327.703 140.649Z" fill="black"/>
<path d="M328.054 138.639C327.821 138.639 327.616 138.471 327.579 138.233C323.282 111.903 307.856 92.4815 295.672 80.825C282.464 68.1876 270.129 61.7086 270.005 61.6432C269.769 61.5211 269.676 61.229 269.8 60.9914C269.922 60.756 270.214 60.6622 270.452 60.7865C270.576 60.8519 283.033 67.3941 296.339 80.1274C308.628 91.8864 324.189 111.485 328.529 138.078C328.573 138.342 328.394 138.588 328.13 138.632C328.104 138.636 328.078 138.639 328.052 138.639H328.054Z" fill="white"/>
<path d="M353.813 141.074C352.315 139.031 342.453 125.376 342.797 115.703C342.845 114.358 342.919 112.267 344.247 110.255C346.9 106.237 351.101 107.759 353.268 104.766C356.123 100.816 350.349 96.0459 352.025 86.4364C352.426 84.1322 353.052 80.5417 355.903 78.0456C359.088 75.2596 361.77 76.7027 365.016 74.3418C369.064 71.3966 367.431 67.3047 370.531 61.9289C373.797 56.2652 381.592 50.4359 388.996 52.193C395.451 53.7255 399.159 60.4486 400.231 65.4452C401.816 72.831 398.435 80.1362 393.951 84.3044C387.502 90.295 379.107 89.4862 378.878 92.6189C378.665 95.5357 385.935 96.362 386.949 101.441C387.657 104.988 385.063 109.346 381.708 111.203C377.056 113.776 373.029 110.386 370.49 112.786C367.826 115.302 371.017 120.194 370.11 125.663C369.363 130.174 365.715 135.726 353.813 141.074Z" fill="black"/>
<path d="M353.104 139.666C352.849 139.666 352.638 139.467 352.622 139.21C351.402 117.604 360.191 99.5317 367.782 88.1761C375.999 75.8809 384.629 68.5844 384.714 68.5125C384.919 68.3403 385.222 68.3686 385.394 68.5713C385.567 68.7763 385.538 69.0793 385.335 69.2515C385.25 69.3235 376.709 76.548 368.569 88.7363C361.068 99.9655 352.38 117.826 353.588 139.155C353.603 139.421 353.401 139.65 353.133 139.666C353.124 139.666 353.113 139.666 353.104 139.666Z" fill="white"/>
<path d="M327.703 140.649C343.443 108.943 342.239 94.7075 337.428 87.6159C335.991 85.4991 332.567 81.525 330.685 74.8324C328.246 66.1516 330.779 61.3338 330.827 54.227C330.919 40.3252 321.438 26.5737 310.531 19.6501C302.912 14.8148 288.079 9.17515 278.481 16.0531C274.422 18.9612 270.208 24.8929 271.727 29.3837C273.903 35.8104 286.401 32.9262 291.892 41.6898C294.89 46.4706 292.049 48.6898 295.276 53.7409C300.357 61.7001 309.773 59.895 311.366 65.4475C312.91 70.8256 304.388 73.919 305.258 80.7685C306.25 88.5838 317.61 90.1709 317.747 97.6613C317.828 102.122 313.819 102.479 313.354 107.635C312.79 113.909 318.418 116.806 323.313 126.4C326.057 131.781 327.069 136.799 327.707 140.649H327.703Z" fill="white"/>
<path d="M327.703 141.133C327.679 141.133 327.655 141.133 327.631 141.128C327.424 141.098 327.26 140.936 327.226 140.729C326.545 136.637 325.499 131.761 322.876 126.62C320.952 122.847 318.946 120.165 317.176 117.798C314.468 114.177 312.511 111.559 312.868 107.593C313.114 104.866 314.318 103.386 315.379 102.08C316.408 100.816 317.296 99.7235 317.259 97.6721C317.193 94.1122 314.388 91.9387 311.416 89.6367C308.403 87.3019 305.288 84.8886 304.774 80.8295C304.305 77.1322 306.424 74.466 308.294 72.1138C310.06 69.8924 311.586 67.974 310.897 65.5804C310.204 63.1693 307.869 62.2668 304.911 61.1244C301.661 59.8688 297.615 58.3057 294.866 54.0002C293.152 51.3166 293.08 49.3939 293.01 47.5343C292.945 45.8121 292.884 44.1859 291.482 41.947C288.688 37.4867 283.955 36.1329 279.78 34.9383C275.974 33.8483 272.379 32.8215 271.267 29.5384C269.593 24.592 274.31 18.4444 278.197 15.6605C288.188 8.50142 303.385 14.5422 310.788 19.2423C320.742 25.5599 331.409 39.2024 331.309 54.2291C331.293 56.6598 330.988 58.8354 330.694 60.9413C330.112 65.1095 329.56 69.0466 331.15 74.7015C332.715 80.2757 335.411 83.9926 337.023 86.2119C337.33 86.637 337.602 87.0119 337.827 87.3433C344.384 97.0094 341.212 114.517 328.135 140.862C328.052 141.028 327.884 141.13 327.703 141.13V141.133ZM289.407 13.3149C285.601 13.3149 281.901 14.1912 278.76 16.4432C274.539 19.469 270.825 25.2155 272.183 29.2267C273.131 32.028 276.336 32.9458 280.046 34.0074C284.389 35.25 289.309 36.6583 292.3 41.4303C293.839 43.885 293.909 45.7206 293.976 47.4929C294.044 49.3045 294.109 51.0158 295.681 53.477C298.26 57.5165 301.979 58.9532 305.262 60.2197C308.342 61.41 311.004 62.4368 311.828 65.31C312.652 68.1833 310.904 70.3829 309.053 72.7111C307.215 75.0219 305.317 77.4112 305.735 80.7052C306.199 84.3676 309.153 86.6566 312.011 88.8715C315.031 91.2106 318.155 93.6304 318.227 97.6525C318.27 100.057 317.182 101.393 316.132 102.686C315.109 103.944 314.052 105.243 313.832 107.676C313.507 111.273 315.371 113.767 317.952 117.218C319.657 119.496 321.778 122.334 323.74 126.18C326.114 130.834 327.223 135.262 327.928 139.105C340.116 114.177 343.179 96.9484 337.031 87.8839C336.811 87.5591 336.545 87.1929 336.244 86.7765C334.596 84.5028 331.836 80.7008 330.223 74.9587C328.579 69.1098 329.17 64.8871 329.741 60.804C330.031 58.7308 330.332 56.5857 330.347 54.2204C330.443 39.5599 320.01 26.2335 310.274 20.0532C305.439 16.9838 297.198 13.3127 289.409 13.3127L289.407 13.3149Z" fill="black"/>
<path d="M328.224 137.834C328.204 137.834 328.185 137.834 328.167 137.83C327.904 137.797 327.714 137.558 327.744 137.294C331.032 109.802 327.965 80.3107 319.539 58.4061C308.434 29.5364 290.447 20.4675 290.266 20.3782C290.026 20.2604 289.928 19.9727 290.044 19.7329C290.161 19.4931 290.449 19.3928 290.689 19.5105C290.872 19.5999 309.188 28.8082 320.439 58.0595C328.919 80.1058 332.009 109.767 328.704 137.409C328.675 137.653 328.466 137.834 328.224 137.834Z" fill="black"/>
<path d="M354.896 91.2477H328.35V133.721H354.896V91.2477Z" fill="white"/>
<path d="M354.894 134.202H328.348C328.082 134.202 327.866 133.987 327.866 133.721V91.2477C327.866 90.9817 328.082 90.7659 328.348 90.7659H354.894C355.16 90.7659 355.376 90.9817 355.376 91.2477V133.721C355.376 133.987 355.16 134.202 354.894 134.202ZM328.832 133.237H354.412V91.7294H328.832V133.237Z" fill="black"/>
<path d="M335.59 129.618C335.324 129.618 335.108 129.402 335.108 129.136V94.3869C335.108 94.121 335.324 93.9052 335.59 93.9052C335.856 93.9052 336.072 94.121 336.072 94.3869V129.136C336.072 129.402 335.856 129.618 335.59 129.618Z" fill="black"/>
<path d="M347.657 129.618C347.391 129.618 347.175 129.402 347.175 129.136V94.3869C347.175 94.121 347.391 93.9052 347.657 93.9052C347.923 93.9052 348.138 94.121 348.138 94.3869V129.136C348.138 129.402 347.923 129.618 347.657 129.618Z" fill="black"/>
<path d="M357.791 134.684H324.971V137.579H357.791V134.684Z" fill="white"/>
<path d="M357.791 138.063H324.971C324.705 138.063 324.49 137.847 324.49 137.581V134.686C324.49 134.42 324.705 134.205 324.971 134.205H357.791C358.057 134.205 358.273 134.42 358.273 134.686V137.581C358.273 137.847 358.057 138.063 357.791 138.063ZM325.455 137.097H357.309V135.166H325.455V137.097Z" fill="black"/>
<path d="M361.17 138.547H322.076V141.926H361.17V138.547Z" fill="white"/>
<path d="M361.17 142.408H322.076C321.81 142.408 321.594 142.192 321.594 141.926V138.547C321.594 138.281 321.81 138.065 322.076 138.065H361.17C361.436 138.065 361.652 138.281 361.652 138.547V141.926C361.652 142.192 361.436 142.408 361.17 142.408ZM322.558 141.442H360.686V139.029H322.558V141.442Z" fill="black"/>
<path d="M357.791 86.905H324.971V90.284H357.791V86.905Z" fill="white"/>
<path d="M357.791 90.7659H324.971C324.705 90.7659 324.49 90.5501 324.49 90.2841V86.9051C324.49 86.6392 324.705 86.4233 324.971 86.4233H357.791C358.057 86.4233 358.273 86.6392 358.273 86.9051V90.2841C358.273 90.5501 358.057 90.7659 357.791 90.7659ZM325.455 89.8002H357.309V87.3869H325.455V89.8002Z" fill="black"/>
<path d="M361.17 82.5603H322.076V85.9393H361.17V82.5603Z" fill="white"/>
<path d="M361.17 86.4212H322.076C321.81 86.4212 321.594 86.2054 321.594 85.9394V82.5604C321.594 82.2944 321.81 82.0786 322.076 82.0786H361.17C361.436 82.0786 361.652 82.2944 361.652 82.5604V85.9394C361.652 86.2054 361.436 86.4212 361.17 86.4212ZM322.558 85.4554H360.686V83.0422H322.558V85.4554Z" fill="black"/>
<path d="M330.611 34.1275C330.306 34.1275 329.998 34.025 329.743 33.8136C329.597 33.6915 326.127 30.7964 322.979 26.831C318.553 21.2589 317.032 16.4782 318.451 12.6218C319.244 10.4701 320.4 8.8373 321.887 7.77128C323.269 6.77938 324.867 6.33901 326.504 6.50033C329.789 6.82079 332.466 9.44333 333.013 12.8768C333.386 15.2203 332.983 17.093 331.812 18.4424C331.793 18.4642 330.105 20.3739 327.644 20.3739C327.225 20.3739 326.787 20.3194 326.329 20.1907C324.104 19.5651 322.541 17.5115 322.445 15.0765C322.414 14.3265 322.998 13.6943 323.748 13.6638C324.5 13.6333 325.13 14.2175 325.161 14.9675C325.211 16.2013 325.994 17.2739 327.066 17.5747C328.477 17.9715 329.687 16.742 329.772 16.6526C330.384 15.9376 330.572 14.8105 330.332 13.3063C329.979 11.0914 328.296 9.40628 326.24 9.20572C324.012 8.98772 322.102 10.5769 321.004 13.5635C318.817 19.5019 327.827 28.6862 331.483 31.7251C332.061 32.2047 332.139 33.0615 331.66 33.637C331.391 33.9596 331.003 34.1275 330.613 34.1275H330.611Z" fill="black"/>
<path d="M352.559 34.1276C352.169 34.1276 351.781 33.9597 351.513 33.6371C351.033 33.0594 351.114 32.2048 351.689 31.7252C355.345 28.6863 364.355 19.4998 362.169 13.5636C361.068 10.577 359.158 8.98998 356.932 9.2058C354.877 9.40636 353.194 11.0937 352.84 13.3064C352.601 14.8106 352.788 15.9376 353.401 16.6527C353.486 16.7421 354.696 17.9716 356.106 17.5748C357.179 17.274 357.961 16.2014 358.011 14.9675C358.042 14.2176 358.676 13.6356 359.424 13.6639C360.174 13.6944 360.756 14.3266 360.728 15.0765C360.63 17.5116 359.069 19.5652 356.843 20.1908C353.689 21.0759 351.382 18.4708 351.36 18.4446C350.19 17.0952 349.786 15.2226 350.159 12.8791C350.706 9.44561 353.383 6.82307 356.669 6.50261C358.308 6.34347 359.904 6.78164 361.286 7.77354C362.773 8.83956 363.928 10.4724 364.721 12.624C366.143 16.4783 364.619 21.259 360.194 26.8333C357.046 30.7987 353.575 33.6937 353.429 33.8158C353.176 34.0273 352.869 34.1297 352.561 34.1297L352.559 34.1276Z" fill="black"/>
<path d="M351.517 2.68519C351.517 1.48619 350.545 0.513916 349.346 0.513916H333.419C332.22 0.513916 331.247 1.48619 331.247 2.68519C331.247 3.88419 332.22 4.85648 333.419 4.85648H349.346C350.545 4.85648 351.517 3.88419 351.517 2.68519Z" fill="white"/>
<path d="M349.344 5.33832H333.416C331.954 5.33832 330.761 4.14804 330.761 2.68308C330.761 1.21812 331.951 0.027832 333.416 0.027832H349.344C350.806 0.027832 351.999 1.21812 351.999 2.68308C351.999 4.14804 350.809 5.33832 349.344 5.33832ZM333.419 0.995753C332.488 0.995753 331.729 1.75439 331.729 2.68525C331.729 3.61611 332.488 4.37475 333.419 4.37475H349.346C350.277 4.37475 351.035 3.61611 351.035 2.68525C351.035 1.75439 350.277 0.995753 349.346 0.995753H333.419Z" fill="black"/>
<path d="M366.845 41.1403C366.845 34.1141 360.202 28.0951 350.549 25.6993V3.88843H332.209V25.6993C323.04 28.0951 316.118 34.1141 316.118 41.1403C316.118 46.4965 326.185 82.0763 326.185 82.0763C326.185 84.4896 356.98 84.4896 356.98 82.0763C356.98 82.0763 366.845 46.4965 366.845 41.1403Z" fill="white"/>
<path d="M341.585 84.348C334.764 84.348 327.945 83.8727 326.301 82.9244C325.939 82.7151 325.741 82.4579 325.71 82.1592C325.13 80.1079 315.639 46.453 315.639 41.1404C315.639 34.2821 322.089 27.9601 331.729 25.3288V3.88852C331.729 3.62256 331.945 3.40674 332.211 3.40674H350.551C350.817 3.40674 351.033 3.62256 351.033 3.88852V25.3223C360.946 27.8925 367.326 34.0728 367.326 41.1382C367.326 46.4487 358.024 80.1122 357.46 82.1549C357.429 82.4557 357.231 82.713 356.869 82.9222C355.227 83.8705 348.406 84.3458 341.585 84.3458V84.348ZM326.667 82.011C327.204 82.5974 332.122 83.4062 341.587 83.4062C351.053 83.4062 355.969 82.5974 356.505 82.011C356.507 81.9892 356.511 81.9696 356.518 81.95C356.616 81.5946 366.363 46.3724 366.363 41.1425C366.363 34.4499 360.111 28.5727 350.436 26.1703C350.22 26.1158 350.07 25.924 350.07 25.7016V4.37466H332.695V25.7016C332.695 25.9218 332.547 26.1136 332.335 26.1681C322.926 28.6272 316.607 34.644 316.607 41.1404C316.607 46.3702 326.556 81.5903 326.656 81.9456C326.663 81.9674 326.667 81.9892 326.669 82.011H326.667Z" fill="black"/>
<path d="M247.538 331.135L8.6796 330.376C4.16046 330.376 0.352004 326.568 0.369444 322.068L1.65346 15.8198C1.6709 11.7061 4.89949 8.50369 9.03059 8.50369L248.41 7.76685C252.929 7.76685 257.426 12.3121 257.407 16.8138L256.123 323.062C256.105 327.176 251.669 331.135 247.538 331.135Z" fill="black"/>
<path d="M252.617 331.117H12.5514C8.03229 331.117 4.22383 327.289 4.24127 322.779L5.52529 15.9505C5.54273 11.8282 8.77131 8.71948 12.9024 8.71948H252.968C257.488 8.71948 261.296 12.4298 261.279 16.9424L259.995 323.83C259.977 327.952 256.748 331.12 252.617 331.12V331.117Z" fill="white"/>
<path d="M252.617 331.602H12.5513C10.2362 331.602 8.03436 330.671 6.3514 328.981C4.67062 327.292 3.74847 325.09 3.75937 322.777L5.0434 15.9484C5.06084 11.6233 8.51395 8.2356 12.9023 8.2356H252.968C255.288 8.2356 257.568 9.19043 259.225 10.856C260.869 12.5062 261.769 14.6688 261.76 16.9425L260.476 323.83C260.459 328.188 257.006 331.602 252.617 331.602ZM12.9023 9.19915C8.98919 9.19915 6.02439 12.1007 6.00913 15.9506L4.72512 322.779C4.7164 324.833 5.53825 326.792 7.03591 328.297C8.53575 329.803 10.4956 330.634 12.5513 330.634H252.617C256.467 330.634 259.495 327.643 259.513 323.823L260.797 16.936C260.805 14.9195 260.005 13.0011 258.543 11.5339C257.064 10.0494 255.033 9.19915 252.968 9.19915H12.9023Z" fill="black"/>
<path d="M96.4442 331.601H64.1082C63.8423 331.601 63.6265 331.386 63.6265 331.12C63.6265 330.854 63.8423 330.638 64.1082 330.638H96.4442C96.7101 330.638 96.926 330.854 96.926 331.12C96.926 331.386 96.7101 331.601 96.4442 331.601Z" fill="black"/>
<path d="M105.969 34.0554H28.2538C25.7577 34.0554 23.6148 32.0171 23.4665 29.521L23.4273 28.891C23.2791 26.3949 25.1822 24.4023 27.6761 24.4023H105.391C107.887 24.4023 110.03 26.3883 110.178 28.8822L110.217 29.5384C110.366 32.0345 108.463 34.0532 105.969 34.0532V34.0554Z" fill="black"/>
<path d="M245.576 61.5669H20.6695C17.4705 61.5669 14.8772 64.1602 14.8772 67.3591V314.95C14.8772 318.149 17.4705 320.743 20.6695 320.743H245.576C248.775 320.743 251.368 318.149 251.368 314.95V67.3591C251.368 64.1602 248.775 61.5669 245.576 61.5669Z" fill="white"/>
<path d="M245.578 321.225H20.6695C17.2099 321.225 14.3955 318.41 14.3955 314.951V67.3571C14.3955 63.8974 17.2099 61.083 20.6695 61.083H245.578C249.038 61.083 251.852 63.8974 251.852 67.3571V314.948C251.852 318.408 249.038 321.222 245.578 321.222V321.225ZM20.6695 62.0487C17.7418 62.0487 15.3612 64.4293 15.3612 67.3571V314.948C15.3612 317.876 17.7418 320.257 20.6695 320.257H245.578C248.506 320.257 250.886 317.876 250.886 314.948V67.3571C250.886 64.4293 248.506 62.0487 245.578 62.0487H20.6695Z" fill="black"/>
<path d="M242.199 89.9658C242.199 79.613 233.806 71.22 223.453 71.22H42.7944C32.4416 71.22 24.0486 79.613 24.0486 89.9658V291.378C24.0486 301.731 32.4416 310.124 42.7944 310.124H223.453C233.806 310.124 242.199 301.731 242.199 291.378V89.9658ZM227.238 280.766C227.238 288.182 221.225 294.197 213.807 294.197H52.9227C45.5063 294.197 39.4917 288.184 39.4917 280.766V102.023C39.4917 94.607 45.5041 88.5924 52.9227 88.5924H213.807C221.223 88.5924 227.238 94.6048 227.238 102.023V280.766Z" fill="white"/>
<path d="M223.453 310.606H42.7945C32.191 310.606 23.5647 301.98 23.5647 291.376V89.9637C23.5647 79.3601 32.191 70.7339 42.7945 70.7339H223.453C234.057 70.7339 242.683 79.3601 242.683 89.9637V291.376C242.683 301.98 234.057 310.606 223.453 310.606ZM42.7945 71.7018C32.7229 71.7018 24.5304 79.8942 24.5304 89.9658V291.378C24.5304 301.45 32.7229 309.642 42.7945 309.642H223.453C233.525 309.642 241.717 301.45 241.717 291.378V89.9658C241.717 79.8942 233.525 71.7018 223.453 71.7018H42.7945ZM213.809 294.679H52.9249C45.2535 294.679 39.0122 288.437 39.0122 280.766V102.023C39.0122 94.352 45.2535 88.1107 52.9249 88.1107H213.809C221.48 88.1107 227.722 94.352 227.722 102.023V280.766C227.722 288.437 221.48 294.679 213.809 294.679ZM52.9228 89.0764C45.7833 89.0764 39.9757 94.8839 39.9757 102.023V280.766C39.9757 287.906 45.7833 293.713 52.9228 293.713H213.807C220.946 293.713 226.754 287.906 226.754 280.766V102.023C226.754 94.8839 220.946 89.0764 213.807 89.0764H52.9228Z" fill="black"/>
<path d="M192.617 158.906C174.911 158.906 160.506 144.501 160.506 126.795C160.506 109.089 174.911 94.6836 192.617 94.6836C210.323 94.6836 224.728 109.089 224.728 126.795C224.728 144.501 210.323 158.906 192.617 158.906ZM192.617 95.6472C175.443 95.6472 161.469 109.619 161.469 126.795C161.469 143.971 175.441 157.943 192.617 157.943C209.793 157.943 223.765 143.971 223.765 126.795C223.765 109.619 209.793 95.6472 192.617 95.6472Z" fill="black"/>
<path d="M192.676 152.076C178.637 152.076 167.213 140.653 167.213 126.614C167.213 112.575 178.637 101.152 192.676 101.152C206.715 101.152 218.138 112.575 218.138 126.614C218.138 140.653 206.717 152.076 192.676 152.076ZM192.676 102.117C179.168 102.117 168.179 113.107 168.179 126.614C168.179 140.121 179.168 151.111 192.676 151.111C206.183 151.111 217.172 140.121 217.172 126.614C217.172 113.107 206.183 102.117 192.676 102.117Z" fill="black"/>
<path d="M56.7856 114.502C52.9226 114.502 49.7791 111.358 49.7791 107.495C49.7791 103.632 52.9226 100.489 56.7856 100.489C60.6485 100.489 63.7921 103.632 63.7921 107.495C63.7921 111.358 60.6485 114.502 56.7856 114.502ZM56.7856 101.455C53.4545 101.455 50.7448 104.164 50.7448 107.495C50.7448 110.826 53.4545 113.536 56.7856 113.536C60.1166 113.536 62.8263 110.826 62.8263 107.495C62.8263 104.164 60.1166 101.455 56.7856 101.455Z" fill="black"/>
<path d="M56.3888 133.522C52.5259 133.522 49.3823 130.379 49.3823 126.516C49.3823 122.653 52.5259 119.509 56.3888 119.509C60.2518 119.509 63.3954 122.653 63.3954 126.516C63.3954 130.379 60.2518 133.522 56.3888 133.522ZM56.3888 120.475C53.0578 120.475 50.3481 123.185 50.3481 126.516C50.3481 129.847 53.0578 132.557 56.3888 132.557C59.7199 132.557 62.4296 129.847 62.4296 126.516C62.4296 123.185 59.7199 120.475 56.3888 120.475Z" fill="black"/>
<path d="M55.0917 151.257C51.2288 151.257 48.0852 148.113 48.0852 144.25C48.0852 140.387 51.2288 137.244 55.0917 137.244C58.9547 137.244 62.0983 140.387 62.0983 144.25C62.0983 148.113 58.9547 151.257 55.0917 151.257ZM55.0917 138.209C51.7607 138.209 49.051 140.919 49.051 144.25C49.051 147.581 51.7607 150.291 55.0917 150.291C58.4228 150.291 61.1325 147.581 61.1325 144.25C61.1325 140.919 58.4228 138.209 55.0917 138.209Z" fill="black"/>
<path d="M120.817 107.175H72.5536C72.2876 107.175 72.0718 106.959 72.0718 106.693V95.5926C72.0718 95.3267 72.2876 95.1108 72.5536 95.1108H120.817C121.083 95.1108 121.298 95.3267 121.298 95.5926V106.693C121.298 106.959 121.083 107.175 120.817 107.175ZM73.0353 106.209H120.333V96.0744H73.0353V106.209Z" fill="black"/>
<path d="M209.388 294.692C209.159 294.692 208.956 294.528 208.913 294.295C204.827 271.588 196.692 257.1 184.734 251.229C175.779 246.832 167.608 248.727 159.706 250.56C151.703 252.415 143.428 254.336 134.747 249.359C125.735 244.194 122.665 235.363 119.417 226.015C115.964 216.081 112.393 205.809 101.63 197.747C97.6803 194.789 92.4352 193.228 87.3645 191.72C85.6118 191.199 83.955 190.706 82.3549 190.159C74.8579 187.595 67.2279 185.077 59.6742 182.677C59.4191 182.596 59.2796 182.324 59.3603 182.071C59.4409 181.816 59.7134 181.676 59.9663 181.757C67.5243 184.159 75.1631 186.68 82.6666 189.245C84.2471 189.786 85.893 190.277 87.637 190.795C92.7906 192.328 98.1185 193.913 102.208 196.976C113.208 205.214 116.991 216.096 120.328 225.699C123.518 234.873 126.528 243.538 135.226 248.522C143.58 253.309 151.306 251.517 159.488 249.621C167.554 247.75 175.894 245.816 185.159 250.364C197.409 256.378 205.719 271.102 209.863 294.127C209.911 294.389 209.737 294.64 209.473 294.688C209.445 294.692 209.416 294.696 209.388 294.696V294.692Z" fill="black"/>
<path d="M190.337 297.291C190.095 297.291 189.886 297.107 189.857 296.861C188.198 282.055 183.498 272.415 175.883 268.209C168.598 264.185 160.809 266.492 152.562 268.933C146.453 270.743 140.136 272.611 134.017 271.682C125.837 270.439 117.841 265.657 111.499 258.214C106.431 252.267 102.254 244.521 98.7333 234.539C98.3605 233.486 98.0008 232.422 97.6411 231.361C96.0824 226.763 94.4692 222.006 91.8488 217.923C86.1351 209.02 75.6907 204.497 67.9342 202.269C59.3298 199.799 48.6543 196.732 39.3959 197.1C39.1343 197.111 38.9054 196.904 38.8945 196.638C38.8836 196.372 39.0907 196.147 39.3566 196.136C48.7699 195.764 59.5282 198.853 68.174 201.336C76.1158 203.616 86.7847 208.248 92.6598 217.404C95.3434 221.588 96.9762 226.399 98.5545 231.051C98.9142 232.111 99.2717 233.168 99.6423 234.219C103.124 244.088 107.242 251.731 112.234 257.588C118.425 264.852 126.212 269.52 134.163 270.727C140.068 271.625 146.281 269.786 152.289 268.009C160.364 265.62 168.713 263.147 176.352 267.366C184.257 271.732 189.123 281.619 190.819 296.754C190.849 297.02 190.657 297.258 190.394 297.288C190.376 297.288 190.357 297.291 190.339 297.291H190.337Z" fill="black"/>
<path d="M206.883 186.876C191.61 186.876 176.982 182.215 164.576 173.395C152.44 164.766 143.329 152.85 138.228 138.931C138.137 138.68 138.265 138.403 138.516 138.312C138.767 138.22 139.044 138.349 139.135 138.6C149.505 166.898 176.729 185.912 206.881 185.912C215.195 185.912 223.346 184.51 231.105 181.744C231.358 181.655 231.633 181.785 231.722 182.036C231.811 182.287 231.68 182.564 231.43 182.653C223.567 185.457 215.307 186.878 206.881 186.878L206.883 186.876Z" fill="black"/>
<path d="M135.798 130.041C135.58 130.041 135.381 129.891 135.329 129.668C134.051 124.223 133.79 119.379 133.79 113.78C133.79 104.916 135.359 96.2532 138.453 88.0324C138.547 87.7839 138.826 87.6574 139.074 87.7512C139.323 87.8449 139.449 88.1239 139.355 88.3725C136.301 96.4842 134.753 105.032 134.753 113.78C134.753 119.311 135.011 124.094 136.268 129.448C136.329 129.707 136.168 129.967 135.909 130.028C135.872 130.037 135.835 130.041 135.798 130.041Z" fill="black"/>
<path d="M208.83 177.037C182.38 177.037 158.659 161.285 148.396 136.906C148.293 136.659 148.409 136.378 148.653 136.274C148.899 136.169 149.183 136.284 149.285 136.531C159.396 160.55 182.77 176.072 208.83 176.072C216.274 176.072 223.571 174.816 230.519 172.34C230.769 172.25 231.046 172.381 231.135 172.632C231.225 172.882 231.094 173.159 230.843 173.249C223.793 175.762 216.386 177.037 208.832 177.037H208.83Z" fill="black"/>
<path d="M145.363 126.348C145.143 126.348 144.943 126.196 144.893 125.971C143.829 121.249 143.288 116.379 143.288 111.494C143.288 103.545 144.694 95.778 147.469 88.4074C147.563 88.1589 147.842 88.0324 148.091 88.1262C148.339 88.2199 148.466 88.499 148.372 88.7475C145.638 96.0112 144.252 103.663 144.252 111.494C144.252 116.307 144.784 121.107 145.832 125.76C145.891 126.019 145.728 126.278 145.468 126.337C145.433 126.346 145.396 126.348 145.361 126.348H145.363Z" fill="black"/>
<path d="M72.8785 184.205C63.3257 184.205 53.6553 181.722 43.1586 178.74C42.9013 178.668 42.7531 178.4 42.8272 178.145C42.8991 177.888 43.1673 177.739 43.4223 177.814C56.4609 181.517 68.2089 184.447 79.9679 182.745C84.208 182.13 87.2076 180.981 89.4116 179.124C94.5324 174.81 94.9379 167.108 95.2954 160.312L95.3238 159.796C95.7445 151.902 98.6679 145.874 104.015 141.883C114.926 133.738 131.974 136.662 138.797 138.299C139.057 138.36 139.216 138.621 139.155 138.881C139.092 139.14 138.832 139.299 138.573 139.238C131.882 137.634 115.177 134.759 104.593 142.659C99.4854 146.472 96.6906 152.255 96.2873 159.85L96.259 160.367C95.8906 167.358 95.472 175.283 90.0329 179.865C87.6851 181.842 84.5306 183.063 80.1052 183.702C77.6963 184.051 75.2918 184.21 72.8785 184.21V184.205Z" fill="black"/>
<path d="M70.3757 168.245C59.297 168.245 48.2793 163.391 38.7963 158.496C38.5586 158.374 38.4671 158.082 38.5892 157.847C38.7113 157.609 39.0034 157.518 39.2388 157.64C49.6439 163.009 61.9021 168.333 73.9509 167.101C75.7582 166.916 78.0646 166.547 79.8806 165.324C82.9282 163.275 83.979 159.386 84.3234 156.487C84.4934 155.048 84.5501 153.563 84.6046 152.127C84.6809 150.066 84.7616 147.939 85.1779 145.868C89.3788 125.009 119.136 126.808 136.502 129.736C136.765 129.779 136.942 130.03 136.896 130.292C136.853 130.555 136.602 130.732 136.34 130.688C119.319 127.817 90.1636 125.997 86.1219 146.06C85.7208 148.054 85.6423 150.143 85.566 152.164C85.5115 153.62 85.4548 155.124 85.2804 156.6C84.912 159.702 83.7697 163.87 80.419 166.124C78.4243 167.467 75.9674 167.864 74.0469 168.06C72.8217 168.184 71.5965 168.245 70.3714 168.245H70.3757Z" fill="black"/>
<path d="M225.066 244.245H189.833C189.567 244.245 189.351 244.029 189.351 243.763V192.602C189.351 192.337 189.567 192.121 189.833 192.121H225.066C225.332 192.121 225.548 192.337 225.548 192.602V243.763C225.548 244.029 225.332 244.245 225.066 244.245ZM190.317 243.279H224.584V193.084H190.317V243.279Z" fill="black"/>
<path d="M225.203 244.454C225.049 244.454 224.898 244.38 224.805 244.245L189.58 192.847C189.43 192.627 189.486 192.326 189.704 192.175C189.925 192.025 190.225 192.082 190.376 192.302L225.6 243.7C225.751 243.92 225.694 244.221 225.476 244.371C225.393 244.428 225.297 244.456 225.203 244.456V244.454Z" fill="black"/>
<path d="M189.979 244.454C189.885 244.454 189.789 244.426 189.707 244.369C189.486 244.218 189.43 243.918 189.582 243.697L224.807 192.3C224.957 192.079 225.258 192.023 225.478 192.173C225.698 192.324 225.755 192.624 225.603 192.845L190.378 244.242C190.284 244.38 190.134 244.452 189.979 244.452V244.454Z" fill="black"/>
<path d="M166.677 289.382C161.753 289.382 157.748 285.377 157.748 280.452C157.748 275.528 161.753 271.523 166.677 271.523C171.602 271.523 175.607 275.528 175.607 280.452C175.607 285.377 171.602 289.382 166.677 289.382ZM166.677 272.487C162.287 272.487 158.714 276.06 158.714 280.45C158.714 284.841 162.287 288.414 166.677 288.414C171.068 288.414 174.641 284.841 174.641 280.45C174.641 276.06 171.068 272.487 166.677 272.487Z" fill="black"/>
<path d="M216.817 270.812C211.895 270.812 207.888 266.808 207.888 261.883C207.888 256.958 211.893 252.954 216.817 252.954C221.742 252.954 225.747 256.958 225.747 261.883C225.747 266.808 221.742 270.812 216.817 270.812ZM216.817 253.919C212.427 253.919 208.854 257.493 208.854 261.883C208.854 266.274 212.427 269.847 216.817 269.847C221.208 269.847 224.781 266.274 224.781 261.883C224.781 257.493 221.208 253.919 216.817 253.919Z" fill="black"/>
<path d="M77.899 230.794C72.9744 230.794 68.9697 226.789 68.9697 221.865C68.9697 216.94 72.9744 212.935 77.899 212.935C82.8236 212.935 86.8283 216.94 86.8283 221.865C86.8283 226.789 82.8236 230.794 77.899 230.794ZM77.899 213.901C73.5085 213.901 69.9355 217.474 69.9355 221.865C69.9355 226.255 73.5085 229.828 77.899 229.828C82.2895 229.828 85.8625 226.255 85.8625 221.865C85.8625 217.474 82.2895 213.901 77.899 213.901Z" fill="white"/>
<path d="M160.004 241.297C153.732 241.297 147.866 239.664 142.449 236.401C133.092 230.764 124.799 220.064 117.8 204.599C113.749 193.638 108.075 188.092 98.8073 186.028C97.907 185.827 97.2552 185.138 97.1113 184.234C96.9652 183.32 97.3882 182.424 98.1904 181.947C105.988 177.306 107.174 168.832 108.676 158.102L108.75 157.581C109.507 152.19 113.056 147.658 118.013 145.757C122.508 144.034 127.775 143.803 132.85 145.111C133.005 145.151 133.131 145.266 133.184 145.417C140.23 165.124 154.373 179.276 176.42 188.685C177.106 188.977 177.54 189.647 177.527 190.388L176.679 237.498C176.675 237.694 176.555 237.866 176.372 237.938C170.66 240.177 165.193 241.297 160.002 241.297H160.004ZM126.306 145.24C123.529 145.24 120.821 145.715 118.36 146.659C113.729 148.434 110.414 152.672 109.707 157.716L109.633 158.237C108.157 168.788 106.88 177.899 98.6853 182.777C98.1272 183.109 98.0007 183.669 98.0661 184.081C98.149 184.596 98.5043 184.97 99.0188 185.086C108.646 187.231 114.529 192.958 118.693 204.235C125.597 219.486 133.761 230.042 142.948 235.575C152.499 241.33 163.525 241.862 175.722 237.157L176.566 190.37C176.572 190.024 176.367 189.71 176.045 189.572C153.826 180.092 139.536 165.832 132.366 145.983C130.354 145.486 128.311 145.238 126.308 145.238L126.306 145.24Z" fill="black"/>
<path d="M145.795 42.261H26.8237C24.4916 42.261 22.6011 44.1515 22.6011 46.4837V47.6914C22.6011 50.0235 24.4916 51.914 26.8237 51.914H145.795C148.127 51.914 150.018 50.0235 150.018 47.6914V46.4837C150.018 44.1515 148.127 42.261 145.795 42.261Z" fill="black"/>
<path d="M94.792 368.997L94.7222 383.965L84.2168 383.289L85.2981 368.954L94.792 368.997Z" fill="white"/>
<path d="M94.7222 384.447C94.7222 384.447 94.7026 384.447 94.6917 384.447L84.1863 383.771C84.0577 383.762 83.9378 383.703 83.8527 383.605C83.7677 383.507 83.7263 383.381 83.735 383.252L84.8141 368.917C84.8338 368.666 85.043 368.47 85.2959 368.47L94.7898 368.513C94.9184 368.513 95.0405 368.566 95.1299 368.657C95.2193 368.749 95.2694 368.871 95.2694 368.999L95.2018 383.967C95.2018 384.1 95.1452 384.227 95.0492 384.318C94.9599 384.401 94.8421 384.449 94.7201 384.449L94.7222 384.447ZM84.7356 382.838L94.2426 383.448L94.3058 369.475L85.745 369.435L84.7356 382.836V382.838Z" fill="black"/>
<path d="M94.452 380.017L93.8176 380.627C92.6077 381.792 90.8157 382.112 89.2788 381.441L85.3548 379.727C84.7095 379.707 84.1144 380.078 83.8506 380.671C82.9786 382.622 81.1823 387.191 81.2608 391.582C81.2826 392.781 82.2396 393.751 83.4277 393.788L100.988 394.344H101.022C102.782 394.401 104.425 394.241 106.287 394.058L109.483 393.607C110.187 393.509 110.876 393.304 111.497 392.962C112.42 392.454 112.79 391.466 112.635 390.551C112.389 389.09 111.358 388.488 108.044 387.139C102.956 385.068 97.5301 381.242 95.6815 380.322C95.2978 380.133 94.8792 380.026 94.452 380.013V380.017Z" fill="white"/>
<path d="M101.742 394.843C101.498 394.843 101.254 394.839 101.007 394.832L83.4102 394.274C81.9583 394.228 80.8007 393.051 80.7746 391.593C80.6961 387.054 82.5905 382.306 83.408 380.475C83.7546 379.701 84.5264 379.217 85.37 379.245C85.4311 379.245 85.4921 379.261 85.5488 379.285L89.4728 380.998C90.8375 381.593 92.4114 381.312 93.484 380.279L94.1184 379.668C94.2121 379.579 94.3385 379.531 94.4693 379.533C94.9686 379.548 95.4503 379.67 95.8994 379.893C96.4967 380.189 97.4254 380.763 98.6026 381.486C101.206 383.091 104.77 385.286 108.232 386.694C111.541 388.042 112.821 388.717 113.117 390.472C113.32 391.669 112.777 392.814 111.737 393.387C111.098 393.738 110.366 393.973 109.557 394.089L106.361 394.54C104.785 394.695 103.301 394.843 101.748 394.843H101.742ZM85.2523 380.211C84.8338 380.228 84.461 380.481 84.2887 380.869C83.4974 382.642 81.664 387.231 81.7403 391.575C81.7578 392.517 82.5033 393.278 83.4407 393.309L101.001 393.864C102.795 393.921 104.469 393.755 106.239 393.581L109.415 393.132C110.109 393.034 110.73 392.835 111.264 392.541C111.94 392.168 112.291 391.421 112.16 390.634C111.964 389.476 111.242 388.964 107.863 387.588C104.327 386.149 100.576 383.836 98.0925 382.308C96.9371 381.598 96.0259 381.035 95.4678 380.758C95.204 380.627 94.9228 380.545 94.6328 380.512L94.1511 380.974C92.7973 382.278 90.8069 382.633 89.0847 381.881L85.2523 380.209V380.211Z" fill="black"/>
<path d="M97.6194 386.598C97.5191 386.598 97.4167 386.566 97.3295 386.5C97.1158 386.339 97.0744 386.036 97.2357 385.825L99.322 383.067C99.4833 382.853 99.7842 382.812 99.9978 382.973C100.211 383.134 100.253 383.437 100.092 383.649L98.0053 386.407C97.9115 386.533 97.7655 386.598 97.6194 386.598Z" fill="black"/>
<path d="M101.064 388.798C100.97 388.798 100.876 388.772 100.793 388.715C100.573 388.565 100.517 388.266 100.665 388.044L102.801 384.9C102.952 384.68 103.252 384.623 103.473 384.772C103.693 384.922 103.749 385.221 103.601 385.443L101.465 388.587C101.371 388.724 101.219 388.798 101.066 388.798H101.064Z" fill="black"/>
<path d="M100.007 391.663C96.3659 391.663 84.5154 391.015 83.9813 390.987C83.7154 390.971 83.5104 390.745 83.5257 390.479C83.541 390.213 83.7742 390.01 84.0336 390.023C84.1732 390.032 97.9573 390.784 100.571 390.69C103.185 390.597 108.031 389.995 108.079 389.988C108.341 389.956 108.585 390.143 108.618 390.407C108.65 390.671 108.463 390.913 108.199 390.945C107.998 390.969 103.261 391.558 100.606 391.654C100.445 391.66 100.244 391.663 100.007 391.663Z" fill="black"/>
<path d="M43.4507 369.069L38.8967 380.512L30.689 378.151L35.5983 365.766L43.4507 369.069Z" fill="white"/>
<path d="M38.8967 380.996C38.8531 380.996 38.8074 380.989 38.7638 380.976L30.5561 378.615C30.4253 378.578 30.3163 378.487 30.2552 378.365C30.1942 378.243 30.1898 378.101 30.24 377.974L35.1493 365.59C35.1973 365.47 35.291 365.372 35.4109 365.322C35.5308 365.272 35.666 365.272 35.7859 365.322L43.6382 368.624C43.8802 368.727 43.9958 369.004 43.8998 369.248L39.3436 380.691C39.2695 380.878 39.0886 380.996 38.8946 380.996H38.8967ZM31.3321 377.835L38.609 379.928L42.8273 369.331L35.8644 366.403L31.3321 377.835Z" fill="black"/>
<path d="M39.6532 377.728L31.4673 375.136C30.8874 374.953 30.253 375.136 29.8628 375.603C28.5788 377.137 25.7927 380.796 24.7529 384.772C24.4695 385.857 25.0929 386.978 26.1633 387.316L37.7936 390.998C40.3486 391.807 42.9842 392.336 45.6525 392.578C45.6525 392.578 54.1436 393.477 54.3464 390.745C54.6886 386.165 48.7002 386.032 47.9219 385.238C44.9462 382.195 41.831 379.352 40.6865 378.321C40.3878 378.051 40.0347 377.85 39.651 377.73L39.6532 377.728Z" fill="white"/>
<path d="M48.6217 393.208C47.1349 393.208 45.8901 393.086 45.6045 393.056C42.9122 392.814 40.233 392.275 37.6497 391.456L26.0194 387.774C24.6984 387.355 23.9397 385.982 24.2885 384.648C25.3654 380.532 28.2888 376.732 29.4944 375.291C30.0132 374.672 30.8438 374.432 31.6155 374.674L39.8014 377.266C40.2548 377.41 40.6625 377.643 41.0135 377.959C42.2081 379.034 45.3037 381.861 48.2707 384.896C48.395 385.014 49.0119 385.197 49.5068 385.341C51.4666 385.916 55.1137 386.989 54.8303 390.775C54.7932 391.268 54.5622 391.698 54.1436 392.046C53.0166 392.988 50.6055 393.204 48.6217 393.204V393.208ZM31.0116 375.548C30.7152 375.548 30.4296 375.677 30.2334 375.912C29.0693 377.305 26.2483 380.965 25.2194 384.894C25.0014 385.731 25.4788 386.592 26.3072 386.856L37.9375 390.538C40.4554 391.336 43.0649 391.859 45.6961 392.097C47.4009 392.275 52.1162 392.485 53.5223 391.31C53.7381 391.129 53.8493 390.937 53.8646 390.708C54.0891 387.7 51.1657 386.841 49.2299 386.272C48.408 386.03 47.8652 385.871 47.5753 385.574C44.6279 382.559 41.5497 379.747 40.3616 378.679C40.1131 378.454 39.8254 378.291 39.5027 378.188L31.3168 375.596C31.2144 375.563 31.1097 375.548 31.0051 375.548H31.0116Z" fill="black"/>
<path d="M40.6277 384.802C40.486 384.802 40.3443 384.739 40.2506 384.619C40.0849 384.41 40.1198 384.107 40.3291 383.941L43.8105 381.173C44.0176 381.007 44.3228 381.042 44.4885 381.251C44.6542 381.46 44.6193 381.763 44.41 381.929L40.9286 384.698C40.8392 384.768 40.7345 384.802 40.6277 384.802Z" fill="black"/>
<path d="M43.8365 387.126C43.6926 387.126 43.5509 387.063 43.4572 386.941C43.2937 386.732 43.3308 386.429 43.54 386.263L46.3849 384.037C46.5942 383.874 46.8972 383.911 47.0629 384.12C47.2264 384.329 47.1894 384.632 46.9801 384.798L44.1352 387.024C44.048 387.094 43.9412 387.126 43.8387 387.126H43.8365Z" fill="black"/>
<path d="M50.2392 390.411C48.2707 390.411 44.5254 390.13 42.8904 389.832C40.9372 389.476 27.8942 384.569 27.3405 384.36C27.092 384.266 26.9655 383.987 27.0593 383.738C27.153 383.49 27.4321 383.363 27.6806 383.457C32.348 385.214 41.5694 388.611 43.0627 388.883C45.0486 389.245 49.5917 389.524 50.9455 389.428C51.2158 389.409 51.4426 389.609 51.4622 389.875C51.4818 390.141 51.2812 390.372 51.0153 390.392C50.8104 390.407 50.5444 390.414 50.2392 390.414V390.411Z" fill="black"/>
<path d="M102.841 252.605L87.0813 251.445C87.8531 246.161 87.4083 247.048 87.4083 247.048L62.2555 244.957C62.2555 244.957 56.5265 256.422 54.5993 268.501C52.7594 280.038 36.307 352.708 33.3313 365.64C33.1351 366.495 33.534 367.371 34.3101 367.781C36.2656 368.814 40.0784 370.613 43.4007 370.903C44.2879 370.979 45.1403 370.558 45.5938 369.793C49.2671 363.58 67.0995 332.617 76.807 301.186C81.2913 322.463 84.57 357.02 82.7628 371.022C82.6211 372.128 83.3863 373.137 84.4893 373.292C87.2536 373.68 92.2371 374.207 95.6466 373.571C96.2744 373.453 96.778 372.993 96.9328 372.374C99.1825 363.467 116.006 293.864 102.843 252.607L102.841 252.605Z" fill="white"/>
<path d="M91.8031 374.347C89.0694 374.347 86.2223 374.022 84.4173 373.767C83.0635 373.577 82.1043 372.317 82.2787 370.959C84.0925 356.903 80.8159 323.64 76.7045 303.109C66.8465 334.047 49.4479 364.212 46.0035 370.039C45.4563 370.964 44.4383 371.478 43.3526 371.384C39.954 371.088 36.0823 369.268 34.0789 368.208C33.1132 367.698 32.6118 366.599 32.8559 365.533C36.1761 351.106 52.3037 279.798 54.1175 268.427C56.0337 256.415 61.7606 244.859 61.8194 244.744C61.9088 244.567 62.0963 244.463 62.2903 244.478L87.26 246.553C87.3712 246.505 87.4955 246.496 87.6154 246.534C88.0383 246.667 88.2388 246.73 87.6306 251.003L102.873 252.123C103.069 252.138 103.237 252.269 103.298 252.459C116.548 293.992 99.3961 364.581 97.3948 372.492C97.1943 373.283 96.5403 373.891 95.7293 374.044C94.5521 374.264 93.1918 374.349 91.8031 374.349V374.347ZM76.8026 300.702C76.8026 300.702 76.8178 300.702 76.8244 300.702C77.0445 300.713 77.2298 300.87 77.2734 301.086C81.5746 321.491 85.1149 356.512 83.2357 371.083C83.1267 371.921 83.7175 372.695 84.5503 372.812C87.2164 373.187 92.1934 373.721 95.5527 373.093C96.0018 373.008 96.3506 372.688 96.4618 372.254C98.45 364.389 115.463 294.382 102.479 253.063L87.0442 251.927C86.9112 251.916 86.787 251.853 86.7041 251.748C86.6213 251.643 86.5842 251.508 86.6038 251.375C86.9505 249.001 87.0377 247.957 87.0507 247.504L62.541 245.468C61.6472 247.331 56.7967 257.774 55.0723 268.578C53.2542 279.973 37.12 351.315 33.7977 365.749C33.6495 366.388 33.9525 367.048 34.5302 367.353C36.4704 368.378 40.2069 370.14 43.4377 370.421C44.1505 370.482 44.8176 370.148 45.1729 369.547C48.674 363.626 66.6285 332.493 76.3404 301.042C76.4036 300.84 76.5911 300.702 76.8004 300.702H76.8026Z" fill="black"/>
<path d="M77.3061 307.883C77.0663 307.883 76.8592 307.704 76.8287 307.462C76.8178 307.375 75.6558 298.555 71.9694 289.939C68.44 281.682 69.0897 271.032 69.0962 270.925C69.1136 270.66 69.3447 270.459 69.6085 270.476C69.8745 270.494 70.075 270.723 70.0576 270.989C70.051 271.093 69.4167 281.518 72.8545 289.56C76.5932 298.304 77.7704 307.251 77.7835 307.34C77.8184 307.604 77.6309 307.846 77.3671 307.881C77.3453 307.883 77.3257 307.885 77.3039 307.885L77.3061 307.883Z" fill="black"/>
<path d="M125.377 181.134C125.377 181.134 134.167 179.614 140.306 179.278C146.445 178.943 156.39 158.372 156.595 155.889C156.595 155.889 156.758 155.379 156.566 154.78C155.973 152.927 154.574 149.02 155.553 146.964C157.192 143.522 160.266 144.028 160.266 144.028C160.266 144.028 161.114 140.956 163.113 141.656C164.648 142.194 166.337 143.701 166.644 146.5C167.063 150.315 167.126 154.025 163.531 156.96C162.834 157.529 162.343 158.313 162.16 159.194C161.018 164.655 156.706 183.42 150.489 188.007C143.19 193.394 123.544 199.86 123.544 199.86L125.379 181.134H125.377Z" fill="white"/>
<path d="M123.542 200.344C123.433 200.344 123.326 200.307 123.241 200.237C123.114 200.134 123.047 199.975 123.062 199.814L124.897 181.088C124.919 180.872 125.081 180.695 125.296 180.658C125.384 180.643 134.184 179.13 140.282 178.797C146.006 178.483 155.904 158.416 156.117 155.85C156.119 155.813 156.128 155.778 156.139 155.743C156.139 155.743 156.25 155.362 156.111 154.928L155.971 154.498C155.282 152.381 154.129 148.839 155.121 146.759C156.525 143.812 158.956 143.518 159.928 143.526C160.15 142.931 160.68 141.789 161.607 141.305C162.128 141.032 162.69 140.998 163.276 141.202C164.076 141.481 166.714 142.687 167.126 146.448C167.543 150.258 167.634 154.237 163.837 157.334C163.22 157.838 162.79 158.536 162.633 159.294C161.454 164.94 157.109 183.723 150.776 188.397C143.499 193.767 124.501 200.054 123.696 200.32C123.646 200.335 123.596 200.344 123.546 200.344H123.542ZM125.822 181.548L124.095 199.166C127.666 197.954 143.824 192.326 150.201 187.621C156.259 183.15 160.525 164.659 161.687 159.098C161.892 158.124 162.437 157.232 163.226 156.589C166.649 153.794 166.57 150.247 166.165 146.554C165.814 143.354 163.619 142.347 162.954 142.114C162.625 141.998 162.33 142.013 162.051 142.159C161.314 142.545 160.848 143.733 160.73 144.159C160.665 144.396 160.429 144.547 160.187 144.507C160.078 144.49 157.445 144.121 155.989 147.176C155.162 148.909 156.283 152.351 156.885 154.202L157.024 154.636C157.225 155.263 157.116 155.804 157.068 155.983C156.728 158.897 146.813 179.407 140.33 179.762C134.991 180.054 127.535 181.264 125.82 181.55L125.822 181.548Z" fill="black"/>
<path d="M146.338 168.847L140.899 162.346L144.195 159.885C144.376 159.75 144.587 159.658 144.812 159.619L145.217 159.549C145.727 159.46 146.152 159.105 146.323 158.623C146.416 158.361 146.586 158.132 146.811 157.962L171.301 139.653C171.504 139.502 171.724 139.378 171.959 139.284L179.149 136.413L175.114 142.622C174.894 142.96 174.63 143.269 174.329 143.54L151.718 163.979C151.524 164.154 151.289 164.273 151.034 164.324L150.97 164.337C150.48 164.435 150.074 164.781 149.904 165.246L149.819 165.481C149.741 165.697 149.61 165.889 149.438 166.044L146.34 168.845L146.338 168.847Z" fill="white"/>
<path d="M146.338 169.331C146.327 169.331 146.316 169.331 146.305 169.331C146.174 169.322 146.052 169.259 145.969 169.159L140.53 162.658C140.445 162.556 140.406 162.425 140.421 162.292C140.436 162.161 140.506 162.041 140.611 161.96L143.907 159.499C144.149 159.318 144.432 159.196 144.731 159.144L145.137 159.074C145.477 159.015 145.758 158.78 145.871 158.462C145.998 158.108 146.222 157.803 146.525 157.576L171.015 139.267C171.251 139.09 171.508 138.946 171.783 138.837L178.972 135.966C179.169 135.888 179.391 135.947 179.524 136.108C179.657 136.271 179.67 136.5 179.554 136.677L175.521 142.885C175.279 143.258 174.987 143.6 174.656 143.899L152.045 164.339C151.788 164.572 151.472 164.731 151.129 164.799L151.066 164.812C150.741 164.877 150.471 165.106 150.358 165.411L150.273 165.647C150.168 165.935 149.991 166.196 149.763 166.403L146.665 169.205C146.575 169.285 146.46 169.329 146.342 169.329L146.338 169.331ZM141.596 162.429L146.388 168.154L149.113 165.69C149.226 165.588 149.313 165.459 149.364 165.32L149.449 165.084C149.675 164.465 150.22 163.999 150.874 163.868L150.938 163.855C151.108 163.82 151.265 163.742 151.393 163.626L174.004 143.186C174.272 142.942 174.51 142.665 174.706 142.362L177.911 137.429L172.134 139.735C171.937 139.814 171.754 139.916 171.586 140.043L147.096 158.353C146.946 158.464 146.835 158.614 146.774 158.786C146.543 159.432 145.978 159.907 145.296 160.027L144.89 160.097C144.742 160.123 144.6 160.184 144.48 160.273L141.592 162.429H141.596Z" fill="black"/>
<path d="M135.407 166.691L140.995 162.235L146.386 168.836L140.798 173.292C139.774 174.107 138.289 173.968 137.483 172.978L135.017 169.959C134.208 168.969 134.385 167.506 135.407 166.689V166.691Z" fill="black"/>
<path d="M139.285 174.304C138.464 174.304 137.655 173.955 137.108 173.283L134.642 170.264C134.175 169.693 133.962 168.973 134.04 168.237C134.121 167.478 134.5 166.796 135.104 166.312L140.692 161.856C140.899 161.69 141.199 161.723 141.367 161.928L146.758 168.529C146.839 168.629 146.878 168.758 146.865 168.886C146.852 169.015 146.787 169.133 146.687 169.213L141.099 173.669C140.563 174.096 139.922 174.304 139.288 174.304H139.285ZM140.923 162.911L135.708 167.068C135.305 167.389 135.054 167.84 135.002 168.341C134.952 168.819 135.089 169.285 135.39 169.656L137.855 172.675C138.496 173.458 139.68 173.567 140.497 172.915L145.703 168.764L140.923 162.911Z" fill="black"/>
<path d="M148.803 163.231C148.666 163.231 148.529 163.173 148.433 163.059L147.016 161.374C146.843 161.169 146.87 160.866 147.075 160.694C147.279 160.522 147.582 160.548 147.755 160.753L149.172 162.438C149.344 162.643 149.318 162.946 149.113 163.118C149.021 163.194 148.912 163.231 148.803 163.231Z" fill="black"/>
<path d="M139.29 171.363C139.146 171.363 139.002 171.297 138.906 171.173C138.745 170.962 138.784 170.659 138.996 170.497L142.1 168.117C142.311 167.956 142.614 167.995 142.776 168.206C142.937 168.418 142.898 168.721 142.686 168.882L139.582 171.263C139.495 171.33 139.39 171.363 139.288 171.363H139.29Z" fill="white"/>
<path d="M152.546 165.054C155.298 160.158 156.895 155.547 156.597 155.889C156.597 155.889 156.564 151.669 158.748 148.525C160.087 146.598 160.259 139.349 164.063 142.064C164.883 142.648 165.441 142.997 166.045 144.082C166.376 144.675 166.961 146.199 167.048 146.984C167.466 150.803 167.124 154.034 163.518 156.97C162.823 157.535 162.341 158.32 162.158 159.196C162.04 159.759 161.452 162.425 161.269 163.238L152.546 165.056V165.054Z" fill="white"/>
<path d="M156.595 155.889C156.595 155.889 157.454 151.246 158.746 148.525C159.754 146.406 160.257 139.349 164.061 142.064C164.881 142.648 165.439 142.997 166.043 144.082C166.374 144.675 166.958 146.199 167.046 146.984C167.464 150.803 167.122 154.034 163.516 156.97C162.821 157.535 162.339 158.32 162.156 159.196C162.049 159.706 156.579 156.059 156.593 155.891L156.595 155.889Z" fill="white"/>
<path d="M152.4 165.83C152.32 165.83 152.239 165.81 152.165 165.769C151.932 165.638 151.849 165.344 151.98 165.113C154.369 160.862 155.899 156.794 156.122 155.983C156.117 155.954 156.113 155.924 156.113 155.896C156.113 155.717 156.104 151.483 158.352 148.253C158.698 147.753 158.982 146.761 159.283 145.713C159.86 143.69 160.46 141.597 161.907 141.089C162.627 140.836 163.449 141.032 164.345 141.673L164.508 141.789C165.26 142.321 165.853 142.742 166.47 143.849C166.832 144.499 167.438 146.081 167.532 146.934C167.979 151.01 167.519 154.341 163.828 157.348C163.218 157.845 162.795 158.538 162.636 159.296C162.518 159.863 161.822 163.044 161.644 163.835C161.585 164.095 161.328 164.258 161.066 164.199C160.807 164.14 160.643 163.883 160.702 163.622C160.881 162.832 161.574 159.661 161.692 159.098C161.897 158.121 162.439 157.234 163.22 156.598C166.584 153.857 166.998 150.908 166.573 147.038C166.496 146.347 165.938 144.876 165.629 144.32C165.119 143.404 164.654 143.075 163.952 142.578L163.787 142.46C163.161 142.013 162.638 141.859 162.228 142.002C161.251 142.345 160.676 144.361 160.214 145.981C159.891 147.11 159.586 148.176 159.148 148.806C157.347 151.396 157.116 154.797 157.085 155.675C157.196 155.948 157.024 156.613 155.993 159.076C155.459 160.354 154.336 162.896 152.823 165.588C152.734 165.745 152.571 165.834 152.403 165.834L152.4 165.83Z" fill="black"/>
<path d="M51.3465 190.92C47.95 194.538 31.5564 211.486 33.0846 246.845C33.1042 247.286 33.0999 247.728 32.9015 248.121C31.9031 250.102 28.8925 256.614 30.4381 260.366C32.2257 264.704 37.7891 273.98 37.752 260.006C37.752 259.675 38.188 259.55 38.3602 259.834C39.0338 260.932 40.0846 262.434 40.6558 262.16C41.9899 261.515 39.4371 254.31 39.98 250.004C44.449 214.464 60.4022 207.089 64.8014 203.727C64.8014 203.727 51.7193 190.527 51.3487 190.922L51.3465 190.92Z" fill="white"/>
<path d="M35.7574 267.904C33.0542 267.904 30.024 260.627 29.9935 260.551C28.413 256.712 31.199 250.429 32.4721 247.905C32.6226 247.608 32.6182 247.229 32.6029 246.867C31.9119 230.855 34.517 208.118 50.8561 190.739L50.9956 190.59C51.085 190.494 51.2332 190.431 51.364 190.429C51.606 190.429 52.2774 190.407 65.1416 203.387C65.2397 203.485 65.2899 203.622 65.2811 203.76C65.2724 203.899 65.2027 204.026 65.0937 204.111C64.6577 204.444 64.1192 204.811 63.4935 205.236C57.8016 209.107 44.4687 218.174 40.4575 250.065C40.2046 252.077 40.6537 254.763 41.0504 257.133C41.5518 260.128 41.881 262.105 40.8673 262.596C40.1784 262.929 39.3806 262.312 38.2361 260.54C38.199 265.251 37.4992 267.586 36.043 267.876C35.9492 267.895 35.8533 267.904 35.7574 267.904ZM51.4556 191.51C35.4369 208.632 32.8842 231.032 33.5665 246.826C33.5861 247.294 33.5861 247.835 33.3332 248.341C32.3871 250.218 29.4158 256.616 30.8851 260.185C32.2781 263.566 34.6565 267.167 35.8533 266.93C36.189 266.862 37.2878 266.164 37.2703 260.008C37.2703 259.64 37.5058 259.326 37.8589 259.226C38.2121 259.125 38.5783 259.269 38.7723 259.581C39.8078 261.27 40.3267 261.621 40.4727 261.693C40.7627 261.27 40.3637 258.883 40.0978 257.29C39.6901 254.855 39.2301 252.095 39.5005 249.943C43.5662 217.62 57.1497 208.381 62.9507 204.436C63.3627 204.157 63.7377 203.901 64.0625 203.668C59.6567 199.234 52.9314 192.605 51.4556 191.51Z" fill="black"/>
<path d="M58.508 212.419C58.981 211.948 59.4083 211.577 59.7724 211.292C60.3436 210.84 61.1894 211.178 61.3049 211.896C62.0636 216.589 63.8686 229.523 57.9259 252.328C55.5519 261.436 102.601 265.397 104.643 254.741C105.746 248.99 103.73 251.044 104.31 238.291C104.689 229.926 106.248 223.234 111.077 213.574C111.09 213.548 111.1 213.522 111.111 213.493C111.325 212.942 113.926 206.624 122.737 203.35C122.938 203.276 123.108 203.141 123.221 202.958C124.266 201.264 129.583 192.055 129.781 179.967C129.787 179.544 129.513 179.167 129.109 179.041C126.469 178.208 116.666 175.269 109.819 175.287C101.842 175.309 105.197 176.606 99.3416 175.561C98.5306 175.418 95.9473 173.994 95.3609 173.684C91.7377 171.784 85.0473 176.429 77.7617 174.711C76.9072 174.511 76.0199 174.618 75.2264 174.986C73.2731 175.888 69.3491 177.5 65.3488 177.955C59.9577 178.572 48.7045 183.808 42.6964 196.341C42.4588 196.838 54.1262 209.155 57.1237 212.393C57.4921 212.792 58.1178 212.798 58.5036 212.417L58.508 212.419Z" fill="black"/>
<path d="M87.0333 166.155C85.6621 167.288 83.0287 168.623 81.0776 167.513C79.6235 166.687 78.8889 164.699 79.0524 162.471C78.3591 162.492 77.4544 162.399 76.8375 161.795C75.887 160.866 76.1552 159.257 76.2467 158.196C76.674 153.297 73.8618 152.401 74.7272 149.105C75.4074 146.515 77.5416 145.059 77.9406 144.786C79.9549 143.413 81.2476 143.954 84.5525 143.263C90.1159 142.101 90.4102 139.744 94.029 139.914C94.2382 139.925 99.1585 140.226 100.658 143.712C101.877 146.546 100.12 149.829 98.3911 151.512C96.1501 153.692 94.6808 152.484 92.4528 154.296C88.5397 157.474 91.1056 162.785 87.0355 166.15L87.0333 166.155Z" fill="black"/>
<path d="M98.3019 156.868C97.2163 155.83 96.0652 153.779 95.7121 152.318C94.4171 146.988 89.5775 146.005 89.0761 151.189C88.9432 152.569 83.8921 152.244 84.4175 153.727C85.7909 157.594 85.8759 156.576 83.5978 157.86C83.3471 157.858 83.0964 157.899 82.8566 157.997C81.699 158.468 81.2194 159.983 81.7884 161.385C82.1328 162.235 82.7868 162.841 83.5041 163.085L83.2032 169.069C83.0899 171.313 81.6314 173.266 79.5125 174.009L77.4502 174.733C77.4502 174.733 86.5626 181.358 96.4663 175.088L95.2194 174.452C93.0219 173.331 91.6573 171.053 91.7052 168.588L91.7532 167.417C92.3941 167.506 93.0176 167.496 93.6018 167.356C96.3159 166.713 97.3601 163.676 97.0985 159.82L98.2779 158.747C98.8295 158.246 98.8404 157.382 98.2997 156.868H98.3019Z" fill="white"/>
<path d="M87.4847 178.249C81.566 178.249 77.23 175.171 77.1667 175.123C77.0207 175.019 76.9466 174.84 76.9727 174.663C76.9989 174.487 77.121 174.339 77.291 174.277L79.3533 173.554C81.2957 172.871 82.6189 171.101 82.7236 169.045L83.0091 163.401C82.2767 163.046 81.6815 162.394 81.3458 161.568C80.6787 159.924 81.276 158.121 82.68 157.553C82.9285 157.452 83.1944 157.393 83.4735 157.382C83.8441 157.178 84.1471 157.036 84.3956 156.918C84.6201 156.814 84.873 156.694 84.921 156.633C84.9406 156.51 84.727 155.948 84.4828 155.294C84.3411 154.915 84.1667 154.455 83.9662 153.89C83.8615 153.596 83.8811 153.306 84.0207 153.051C84.376 152.408 85.3832 152.179 86.5516 151.915C87.2056 151.767 88.5681 151.457 88.5987 151.143C88.821 148.848 89.9001 147.409 91.485 147.296C93.1985 147.174 95.361 148.822 96.1829 152.205C96.5208 153.596 97.6457 155.571 98.6376 156.519C98.9907 156.857 99.1913 157.33 99.1847 157.818C99.1782 158.307 98.9689 158.775 98.607 159.105L97.5977 160.022C97.8353 164.345 96.427 167.184 93.7173 167.827C93.2486 167.938 92.7472 167.977 92.2175 167.949L92.1891 168.609C92.1477 170.864 93.423 172.993 95.4417 174.025L96.6886 174.661C96.8434 174.74 96.9437 174.894 96.9524 175.069C96.9611 175.241 96.8739 175.407 96.7279 175.498C93.4819 177.554 90.3056 178.252 87.4869 178.252L87.4847 178.249ZM78.5576 174.857C80.9011 176.2 87.925 179.424 95.4744 175.123L95.0013 174.881C92.6556 173.685 91.1732 171.21 91.2234 168.577L91.2713 167.395C91.2779 167.26 91.3389 167.131 91.4436 167.044C91.5482 166.957 91.6833 166.918 91.8207 166.937C92.4267 167.022 92.987 167.005 93.4906 166.885C95.7447 166.351 96.8848 163.787 96.6167 159.852C96.6058 159.706 96.6647 159.562 96.7737 159.462L97.953 158.39C98.1187 158.239 98.2125 158.03 98.2146 157.805C98.2168 157.581 98.1296 157.372 97.9661 157.215C96.8238 156.125 95.627 154.023 95.2389 152.43C94.5501 149.598 92.83 148.163 91.5482 148.255C90.4713 148.331 89.7257 149.445 89.5535 151.233C89.4554 152.24 88.0842 152.552 86.7587 152.852C86.1701 152.985 84.945 153.262 84.8578 153.517C84.8578 153.517 84.8578 153.533 84.8687 153.563C85.0671 154.121 85.2371 154.575 85.3788 154.95C86.0393 156.709 86.1963 157.127 84.7989 157.786C84.5417 157.906 84.2234 158.058 83.8332 158.276C83.7591 158.318 83.6762 158.339 83.5912 158.339C83.3841 158.337 83.2053 158.372 83.0353 158.442C82.1262 158.813 81.7644 160.049 82.2331 161.2C82.5099 161.882 83.0418 162.416 83.6566 162.623C83.8615 162.693 83.9945 162.889 83.9836 163.105L83.6828 169.089C83.5585 171.539 81.9845 173.647 79.6694 174.461L78.5554 174.853L78.5576 174.857Z" fill="black"/>
<path d="M91.7531 167.901C91.7204 167.901 91.6877 167.897 91.655 167.89C87.7877 167.097 86.1854 164.029 86.1178 163.898C85.9979 163.661 86.0916 163.371 86.3293 163.249C86.5669 163.127 86.8568 163.223 86.9789 163.458C87.0029 163.504 88.4635 166.246 91.8512 166.942C92.1128 166.996 92.2807 167.251 92.2262 167.511C92.1782 167.74 91.9776 167.897 91.7531 167.897V167.901Z" fill="black"/>
<path d="M209.139 34.5394C208.873 34.5394 208.657 34.3236 208.657 34.0576V30.1969C208.657 29.9309 208.873 29.7151 209.139 29.7151C209.405 29.7151 209.621 29.9309 209.621 30.1969V34.0576C209.621 34.3236 209.405 34.5394 209.139 34.5394Z" fill="black"/>
<path d="M209.139 43.2267C208.873 43.2267 208.657 43.0109 208.657 42.7449V38.8841C208.657 38.6182 208.873 38.4023 209.139 38.4023C209.405 38.4023 209.621 38.6182 209.621 38.8841V42.7449C209.621 43.0109 209.405 43.2267 209.139 43.2267Z" fill="black"/>
<path d="M206.484 37.1926H202.623C202.357 37.1926 202.141 36.9767 202.141 36.7108C202.141 36.4448 202.357 36.229 202.623 36.229H206.484C206.75 36.229 206.966 36.4448 206.966 36.7108C206.966 36.9767 206.75 37.1926 206.484 37.1926Z" fill="black"/>
<path d="M215.171 37.1926H211.31C211.044 37.1926 210.829 36.9767 210.829 36.7108C210.829 36.4448 211.044 36.229 211.31 36.229H215.171C215.437 36.229 215.653 36.4448 215.653 36.7108C215.653 36.9767 215.437 37.1926 215.171 37.1926Z" fill="black"/>
<path d="M159.505 392.519C158.964 392.519 158.422 392.419 157.903 392.216C156.771 391.776 155.88 390.913 155.394 389.784C154.399 387.479 155.431 384.778 157.691 383.765C158.781 383.276 159.991 383.244 161.103 383.677C162.234 384.118 163.126 384.981 163.612 386.11C164.606 388.414 163.575 391.115 161.314 392.129C160.735 392.389 160.12 392.519 159.505 392.519ZM159.503 384.34C159.021 384.34 158.541 384.442 158.088 384.645C156.305 385.445 155.494 387.58 156.281 389.402C156.665 390.291 157.364 390.972 158.254 391.316C159.124 391.654 160.07 391.63 160.922 391.246C162.705 390.446 163.516 388.312 162.729 386.49C162.346 385.6 161.646 384.92 160.756 384.575C160.351 384.419 159.926 384.338 159.505 384.338L159.503 384.34Z" fill="black"/>
<path d="M361.395 306.71C361.395 306.71 347.194 275.584 355.341 235.232C355.341 235.232 377.35 253.675 369.415 306.71H361.395Z" fill="black"/>
<path d="M364.868 303.948C364.868 303.948 364.85 303.948 364.842 303.948C364.576 303.933 364.371 303.706 364.386 303.44C365.474 283.548 356.501 241.079 356.411 240.654C356.357 240.392 356.523 240.137 356.782 240.081C357.039 240.024 357.299 240.192 357.355 240.451C357.447 240.879 366.444 283.471 365.349 303.493C365.336 303.75 365.123 303.948 364.868 303.948Z" fill="white"/>
<path d="M375.683 259.625C375.683 259.625 357.386 292.505 368.393 306.985H374.279C374.279 306.985 386.044 281.145 375.683 259.625Z" fill="white"/>
<path d="M374.279 307.469H368.393C368.242 307.469 368.101 307.399 368.009 307.279C356.939 292.717 374.508 260.745 375.262 259.391C375.349 259.234 375.521 259.141 375.698 259.143C375.879 259.147 376.04 259.254 376.119 259.415C386.458 280.89 374.839 306.924 374.719 307.186C374.641 307.358 374.468 307.469 374.279 307.469ZM368.633 306.503H373.96C375.164 303.68 384.533 280.396 375.65 260.704C372.931 265.896 359.193 293.63 368.63 306.503H368.633Z" fill="black"/>
<path d="M370.904 306.985C370.647 306.985 370.431 306.78 370.422 306.521C369.893 292.867 375.153 259.74 375.207 259.406C375.249 259.143 375.497 258.964 375.759 259.005C376.023 259.047 376.201 259.295 376.16 259.559C376.108 259.89 370.86 292.924 371.388 306.484C371.399 306.75 371.192 306.974 370.924 306.985C370.917 306.985 370.911 306.985 370.904 306.985Z" fill="black"/>
<path d="M340.75 269.703C340.75 269.703 356.337 275.131 361.979 306.503H355.849C355.849 306.503 343.055 289.214 340.75 269.703Z" fill="white"/>
<path d="M361.979 306.987H355.849C355.696 306.987 355.552 306.915 355.461 306.791C355.332 306.617 342.564 289.172 340.271 269.759C340.251 269.594 340.319 269.43 340.447 269.325C340.578 269.221 340.75 269.19 340.907 269.247C341.555 269.472 356.823 275.129 362.452 306.418C362.478 306.56 362.439 306.704 362.348 306.813C362.256 306.922 362.121 306.985 361.977 306.985L361.979 306.987ZM356.095 306.021H361.399C356.507 279.667 344.454 272.053 341.335 270.494C343.715 288.215 354.715 304.09 356.093 306.021H356.095Z" fill="black"/>
<path d="M358.629 306.272C358.397 306.272 358.193 306.104 358.153 305.869C355.836 291.869 345.806 277.758 345.706 277.618C345.551 277.402 345.599 277.099 345.817 276.945C346.035 276.79 346.336 276.84 346.49 277.056C346.593 277.197 356.752 291.487 359.106 305.712C359.15 305.976 358.971 306.224 358.709 306.268C358.683 306.272 358.657 306.274 358.631 306.274L358.629 306.272Z" fill="black"/>
<path d="M387.978 248.227C387.978 248.227 398.599 224.947 392.506 194.767C392.506 194.767 376.044 208.56 381.978 248.227H387.976H387.978Z" fill="black"/>
<path d="M385.379 246.283C385.124 246.283 384.913 246.084 384.897 245.827C384.078 230.837 390.812 198.966 390.879 198.645C390.936 198.384 391.191 198.218 391.453 198.275C391.714 198.329 391.88 198.587 391.823 198.848C391.756 199.166 385.05 230.914 385.861 245.775C385.876 246.041 385.671 246.267 385.405 246.283C385.396 246.283 385.388 246.283 385.379 246.283Z" fill="white"/>
<path d="M376.147 201.227C376.147 201.227 394.444 234.108 383.437 248.587H377.551C377.551 248.587 365.785 222.748 376.147 201.227Z" fill="white"/>
<path d="M383.439 249.071H377.553C377.363 249.071 377.191 248.96 377.113 248.788C376.995 248.528 365.373 222.493 375.713 201.017C375.792 200.856 375.953 200.749 376.134 200.745C376.319 200.738 376.483 200.834 376.57 200.993C377.322 202.347 394.893 234.319 383.823 248.881C383.731 249.001 383.589 249.071 383.439 249.071ZM377.867 248.105H383.195C392.634 235.235 378.896 207.501 376.175 202.306C367.29 222.006 376.661 245.282 377.867 248.105Z" fill="black"/>
<path d="M380.928 248.502C380.928 248.502 380.915 248.502 380.908 248.502C380.642 248.491 380.435 248.267 380.444 248.001C380.971 234.441 375.724 201.41 375.672 201.076C375.63 200.812 375.809 200.566 376.073 200.522C376.337 200.481 376.583 200.66 376.624 200.924C376.677 201.257 381.939 234.382 381.41 248.038C381.399 248.297 381.185 248.502 380.928 248.502Z" fill="black"/>
<path d="M222.309 248.705C222.416 243.067 221.69 234.339 216.795 225.638C206.606 207.525 184.337 200.204 182.14 203.119C180.542 205.238 188.667 213.943 203.628 229.972C211.178 238.06 217.746 244.425 222.309 248.705Z" fill="#87ED82"/>
<path d="M224.639 248.875C223.948 237.541 224.866 228.3 225.834 221.993C229.494 198.096 238.502 185.853 240.538 183.187C242.033 181.225 249.325 171.666 252.465 173.131C255.163 174.391 253.594 183.246 251.172 196.4C248.924 208.604 247.802 214.706 245.484 220.443C242.907 226.822 237.257 238.023 224.641 248.877L224.639 248.875Z" fill="#87ED82"/>
<path d="M222.383 251.255C219.377 248.382 211.627 241.812 201.272 242.158C196.458 242.32 190.448 243.998 190.409 245.803C190.357 248.206 200.884 250.44 207.217 251.207C213.517 251.97 218.801 251.663 222.383 251.255Z" fill="#87ED82"/>
<path d="M227.384 256.378C228.764 258.554 230.73 261.44 233.331 264.652C234.589 266.206 238.31 270.764 242.637 274.477C249.376 280.256 260.725 286.676 263.068 284.226C265.316 281.874 259.892 270.688 251.246 265.072C248.392 263.219 245.445 262.138 240.311 260.257C235.066 258.334 230.573 257.128 227.384 256.378Z" fill="#87ED82"/>
<path d="M230.275 366.883C230.275 366.883 230.261 366.883 230.255 366.883C229.989 366.872 229.782 366.647 229.793 366.381C231.397 325.866 224.099 256.653 224.025 255.96C223.996 255.694 224.188 255.456 224.454 255.428C224.722 255.4 224.958 255.591 224.986 255.857C225.06 256.553 232.365 325.835 230.759 366.42C230.748 366.68 230.534 366.885 230.277 366.885L230.275 366.883Z" fill="black"/>
<path d="M228.818 208.634C228.775 208.634 228.731 208.628 228.685 208.617C228.428 208.545 228.28 208.277 228.354 208.022C232.163 194.621 237.379 186.527 240.152 182.895C246.141 175.045 250.35 171.613 252.665 172.693C255.51 174.02 254.39 181.415 252.203 193.435C252.155 193.697 251.907 193.871 251.643 193.823C251.381 193.775 251.207 193.525 251.255 193.263C252.761 184.983 254.636 174.676 252.26 173.569C251.608 173.264 248.859 173.076 240.922 183.479C238.19 187.059 233.05 195.04 229.285 208.288C229.224 208.499 229.032 208.639 228.821 208.639L228.818 208.634Z" fill="black"/>
<path d="M202.815 229.586C202.687 229.586 202.558 229.534 202.462 229.434C186.422 212.246 179.982 205.179 181.752 202.831C182.103 202.365 182.768 202.096 183.725 202.033C188.571 201.713 200.712 206.463 209.992 215.887C210.179 216.077 210.177 216.382 209.987 216.569C209.798 216.757 209.493 216.755 209.305 216.565C199.914 207.03 187.895 202.726 183.79 202.997C183.154 203.038 182.694 203.191 182.526 203.413C181.174 205.207 190.88 215.608 203.171 228.777C203.352 228.971 203.343 229.279 203.147 229.46C203.053 229.547 202.935 229.591 202.817 229.591L202.815 229.586Z" fill="#87ED82"/>
<path d="M226.671 370.484C226.416 370.484 226.204 370.286 226.189 370.028C226.146 369.224 221.659 289.227 209.66 265.21C209.54 264.972 209.639 264.682 209.876 264.562C210.116 264.442 210.404 264.54 210.524 264.778C222.612 288.974 227.109 369.169 227.153 369.976C227.168 370.242 226.963 370.469 226.697 370.484C226.688 370.484 226.68 370.484 226.671 370.484Z" fill="black"/>
<path d="M208.93 272.554C209.841 273.524 213.922 278.082 213.905 285.126C213.887 292.067 209.896 298.662 208.252 298.261C206.87 297.923 206.31 292.442 208.93 272.554Z" fill="#87ED82"/>
<path d="M207.476 266.98C203.304 271.965 196.654 278.721 186.971 284.311C176.261 290.495 161.801 295.274 160.12 292.453C158.744 290.142 166.206 283.192 170.011 280.101C175.589 275.567 187.298 267.95 207.476 266.98Z" fill="#87ED82"/>
<path d="M206.371 262.801C202.264 257.972 195.427 251.327 185.301 246.845C163.734 237.299 138.963 242.749 138.566 246.869C138.355 249.082 145.333 249.126 164.811 258.09C177.778 264.056 182.938 267.834 191.73 267.385C198.023 267.065 203.072 264.734 206.369 262.798L206.371 262.801Z" fill="#87ED82"/>
<path d="M210.439 262.358C215.538 257.303 224.319 250.126 236.915 246.693C244.833 244.534 257.405 242.997 258.667 246.296C260.021 249.834 248.432 259.14 235.98 262.641C225.361 265.628 215.911 263.886 210.439 262.358Z" fill="#87ED82"/>
<path d="M223.992 264.765C219.518 264.765 214.947 264.117 210.308 262.822C210.142 262.777 210.014 262.646 209.97 262.48C209.926 262.314 209.974 262.138 210.096 262.016C217.953 254.224 226.932 248.912 236.786 246.226C243.132 244.497 257.564 242.069 259.116 246.124C259.384 246.823 259.266 247.682 258.769 248.674C256.537 253.115 246.683 260.134 236.108 263.108C232.171 264.215 228.123 264.769 223.99 264.769L223.992 264.765ZM211.378 262.112C219.843 264.34 228.073 264.361 235.849 262.175C245.883 259.354 255.772 252.489 257.908 248.238C258.274 247.51 258.381 246.897 258.216 246.468C257.224 243.876 246.018 244.711 237.041 247.157C227.6 249.729 218.969 254.761 211.376 262.112H211.378Z" fill="white"/>
<path d="M178.037 378.648C180.76 376.516 184.091 374.785 186.633 373.359C197.263 367.401 209.39 364.094 221.583 363.992C231.931 363.905 242.277 366.126 251.726 370.331C257.173 372.758 276.283 380.887 267.378 388.735C259.399 395.768 238.554 397.202 228.493 395.336C215.001 392.833 201.302 385.576 188.292 389.943C184.821 391.107 181.414 393.102 177.773 392.707C172.936 392.184 171.97 387.473 173.762 383.579C174.612 381.728 176.184 380.093 178.037 378.644V378.648Z" fill="black"/>
<path d="M287.316 254.218C287.316 254.218 285.677 273.424 288.629 293.129C289.882 301.496 293.414 311.628 293.928 315.642C294.835 322.716 292.84 331.601 295.923 345.024C299.005 358.446 301.076 372.47 301.438 379.363C301.8 386.254 311.612 384.689 311.612 384.689C311.612 384.689 309.234 352.237 310.322 338.996C310.895 332.031 310.542 318.79 310.725 307.148C310.891 296.66 312.487 259.709 311.8 257.303C310.348 252.225 287.316 254.22 287.316 254.22V254.218Z" fill="white"/>
<path d="M309.317 385.327C307.416 385.327 304.782 385.018 302.969 383.553C301.726 382.548 301.048 381.146 300.956 379.387C300.608 372.749 298.604 358.849 295.452 345.13C293.459 336.452 293.575 329.572 293.669 324.043C293.721 320.906 293.769 318.197 293.449 315.703C293.233 314.013 292.452 311.155 291.552 307.848C290.357 303.464 288.871 298.008 288.151 293.201C285.223 273.668 286.817 254.371 286.834 254.179C286.854 253.945 287.039 253.76 287.275 253.738C289.673 253.531 310.749 251.861 312.264 257.17C312.711 258.737 312.295 272.574 311.7 290.498C311.464 297.596 311.261 303.726 311.207 307.155C311.139 311.432 311.144 315.914 311.15 320.248C311.159 327.634 311.165 334.612 310.804 339.033C309.731 352.085 312.07 384.327 312.094 384.65C312.112 384.9 311.937 385.123 311.689 385.162C311.595 385.177 310.631 385.325 309.317 385.325V385.327ZM287.765 254.665C287.554 257.542 286.431 275.203 289.106 293.057C289.819 297.807 291.297 303.233 292.485 307.593C293.396 310.937 294.183 313.823 294.408 315.581C294.737 318.146 294.689 320.887 294.637 324.061C294.543 329.537 294.427 336.352 296.396 344.915C299.559 358.688 301.571 372.655 301.922 379.337C302.001 380.811 302.557 381.975 303.577 382.801C305.84 384.634 309.788 384.403 311.102 384.266C310.819 380.263 308.837 351.226 309.844 338.957C310.204 334.575 310.198 327.616 310.189 320.25C310.184 315.912 310.178 311.426 310.245 307.142C310.3 303.704 310.503 297.569 310.738 290.467C311.179 277.18 311.78 258.981 311.338 257.436C310.261 253.664 294.342 254.133 287.767 254.667L287.765 254.665Z" fill="black"/>
<path d="M299.173 250.42C299.173 250.42 302.624 263.936 303.544 279.179C304.307 291.827 304.122 317.782 303.893 320.972C303.413 327.627 305.857 332.412 309.127 334.634C312.395 336.855 331.35 354.079 334.751 360.432C338.152 366.784 340.604 379.169 340.604 379.169C340.604 379.169 347.288 376.361 347.386 369.998C347.484 363.634 337.443 336.724 328.217 330.333C323.094 326.784 320.836 326.053 320.352 323.52C319.931 321.314 325.658 298.023 326.221 282.684C326.303 280.408 327.005 269.853 324.176 262.751C320.448 253.392 299.173 250.42 299.173 250.42Z" fill="white"/>
<path d="M340.604 379.653C340.526 379.653 340.447 379.633 340.377 379.596C340.249 379.529 340.159 379.407 340.131 379.265C340.107 379.141 337.655 366.876 334.326 360.661C330.912 354.284 311.981 337.156 308.855 335.033C304.998 332.412 302.964 327.143 303.411 320.937C303.623 318.007 303.849 292.22 303.062 279.207C302.155 264.189 298.739 250.673 298.705 250.54C298.665 250.383 298.705 250.22 298.814 250.1C298.92 249.98 299.082 249.921 299.241 249.943C300.122 250.065 320.836 253.063 324.625 262.572C327.295 269.277 326.868 278.941 326.726 282.118L326.702 282.7C326.351 292.309 323.947 305.199 322.355 313.73C321.459 318.537 320.685 322.687 320.825 323.426C321.15 325.131 322.416 325.949 325.189 327.741C326.142 328.355 327.219 329.053 328.492 329.934C337.761 336.356 347.968 363.584 347.87 370.002C347.768 376.605 341.077 379.492 340.792 379.612C340.733 379.638 340.667 379.649 340.604 379.649V379.653ZM299.814 251.011C300.527 254 303.232 266.003 304.026 279.151C304.78 291.638 304.625 317.529 304.375 321.007C303.952 326.864 305.831 331.811 309.397 334.235C312.554 336.38 331.708 353.726 335.176 360.205C338.178 365.814 340.406 375.86 340.951 378.463C342.49 377.647 346.828 374.92 346.902 369.991C347 363.698 337.012 337.014 327.941 330.729C326.68 329.857 325.61 329.164 324.664 328.554C321.745 326.668 320.28 325.72 319.877 323.61C319.709 322.731 320.254 319.725 321.405 313.553C322.99 305.051 325.386 292.204 325.737 282.665L325.761 282.074C325.898 278.95 326.321 269.441 323.724 262.927C320.52 254.883 303.507 251.626 299.812 251.009L299.814 251.011Z" fill="black"/>
<path d="M306.402 381.475C306.186 380.76 305.761 379.919 304.924 379.302C303.638 378.351 301.879 378.354 300.523 379.204C297.17 381.31 289.965 386.319 284.377 392.552C282.407 394.749 282.98 397.721 286.895 398.268C292.808 399.092 302.733 397.749 312.024 391.15C313.09 390.394 313.507 389.142 313.642 387.841C313.803 386.278 313.263 382.456 312.918 381.166C312.914 381.153 312.912 381.142 312.907 381.129C312.434 379.457 310.115 379.276 309.312 380.817L308.872 381.661C308.329 382.701 306.762 382.62 306.406 381.502C306.404 381.493 306.402 381.484 306.4 381.478L306.402 381.475Z" fill="white"/>
<path d="M290.285 398.97C289.041 398.97 287.881 398.889 286.83 398.743C284.846 398.466 283.479 397.568 282.985 396.214C282.522 394.954 282.91 393.463 284.018 392.227C290.161 385.373 298.007 380.211 300.265 378.794C301.811 377.822 303.797 377.87 305.21 378.914C305.986 379.487 306.557 380.324 306.862 381.338L306.4 381.478L306.866 381.355C306.967 381.672 307.231 381.879 307.573 381.907C307.865 381.933 308.244 381.822 308.445 381.438L308.885 380.595C309.352 379.699 310.311 379.189 311.322 379.291C312.319 379.393 313.103 380.048 313.372 380.998C313.731 382.345 314.296 386.221 314.122 387.891C313.943 389.607 313.35 390.801 312.303 391.543C304.554 397.047 296.381 398.972 290.283 398.972L290.285 398.97ZM302.683 379.06C302.029 379.06 301.366 379.243 300.78 379.611C298.548 381.013 290.798 386.112 284.737 392.872C283.872 393.838 283.556 394.965 283.891 395.883C284.258 396.886 285.35 397.562 286.963 397.788C292.976 398.625 302.644 397.219 311.745 390.756C312.552 390.185 313.014 389.214 313.162 387.791C313.317 386.306 312.781 382.52 312.452 381.29C312.282 380.691 311.826 380.313 311.224 380.252C310.732 380.2 310.084 380.383 309.742 381.042L309.302 381.885C308.955 382.55 308.244 382.936 307.49 382.871C306.757 382.807 306.167 382.339 305.949 381.65C305.949 381.65 305.94 381.621 305.94 381.619C305.691 380.797 305.255 380.15 304.639 379.694C304.072 379.276 303.383 379.066 302.683 379.066V379.06Z" fill="black"/>
<path d="M290.754 396.395C286.808 396.395 285.45 394.804 285.348 394.675C285.182 394.468 285.215 394.163 285.424 393.997C285.631 393.832 285.932 393.864 286.1 394.069C286.163 394.143 290.861 399.29 309.175 388.916C309.406 388.785 309.7 388.866 309.833 389.099C309.964 389.33 309.883 389.626 309.65 389.757C300.377 395.011 294.438 396.397 290.756 396.397L290.754 396.395Z" fill="black"/>
<path d="M294.576 390.531C294.423 390.531 294.275 390.459 294.181 390.326L291.395 386.376C291.242 386.158 291.293 385.857 291.511 385.702C291.729 385.55 292.029 385.6 292.184 385.818L294.97 389.768C295.123 389.986 295.073 390.287 294.855 390.442C294.77 390.501 294.674 390.529 294.578 390.529L294.576 390.531Z" fill="black"/>
<path d="M297.774 388.547C297.628 388.547 297.484 388.482 297.388 388.356L294.286 384.259C294.124 384.048 294.166 383.745 294.38 383.584C294.593 383.422 294.894 383.464 295.055 383.677L298.157 387.773C298.319 387.985 298.277 388.288 298.064 388.449C297.977 388.515 297.874 388.547 297.772 388.547H297.774Z" fill="black"/>
<path d="M336.142 371.539C335.3 376.778 333.759 387.348 335.915 395.613C336.493 397.83 340.606 398.647 342.723 396.313C347.135 391.445 353.335 382.864 353.732 370.826C353.763 369.887 353.344 368.984 352.605 368.404C351.737 367.722 350.331 366.791 348.232 365.871C347.188 365.413 345.969 365.934 345.575 367.007L344.127 370.939L343.77 370.146C343.233 368.951 341.949 368.278 340.663 368.515C339.97 368.642 339.202 368.783 338.509 368.91C337.214 369.148 336.351 370.24 336.142 371.541V371.539Z" fill="white"/>
<path d="M339.412 398.198C338.993 398.198 338.57 398.148 338.154 398.046C336.748 397.701 335.738 396.836 335.449 395.733C333.173 387.006 334.982 375.714 335.664 371.46C335.917 369.88 337.001 368.692 338.42 368.43L340.574 368.036C341.984 367.776 343.384 368.446 344.075 369.677L345.121 366.837C345.354 366.2 345.847 365.683 346.473 365.417C347.105 365.149 347.798 365.152 348.426 365.426C350.624 366.39 352.075 367.369 352.904 368.023C353.761 368.696 354.251 369.751 354.216 370.841C353.909 380.148 350.164 388.826 343.083 396.637C342.174 397.64 340.816 398.2 339.412 398.2V398.198ZM336.619 371.615C335.946 375.812 334.158 386.958 336.384 395.491C336.58 396.245 337.328 396.851 338.385 397.11C339.503 397.385 341.219 397.256 342.368 395.99C349.292 388.353 352.954 379.882 353.253 370.811C353.279 370.026 352.926 369.27 352.309 368.783C351.522 368.164 350.144 367.236 348.04 366.313C347.659 366.146 347.236 366.143 346.852 366.309C346.466 366.473 346.174 366.78 346.028 367.175L344.581 371.107C344.513 371.29 344.341 371.417 344.145 371.423C343.942 371.43 343.767 371.319 343.687 371.14L343.329 370.346C342.882 369.352 341.818 368.794 340.75 368.993L338.596 369.387C337.567 369.577 336.809 370.431 336.619 371.62V371.615Z" fill="black"/>
<path d="M339.761 395.011C339.634 395.011 339.51 394.963 339.414 394.865C339.229 394.673 339.233 394.368 339.423 394.183C349.039 384.833 350.495 371.36 350.508 371.225C350.534 370.959 350.767 370.765 351.035 370.793C351.301 370.82 351.493 371.057 351.467 371.321C351.454 371.46 349.959 385.282 340.094 394.874C340 394.965 339.878 395.011 339.758 395.011H339.761Z" fill="black"/>
<path d="M335.741 379.38C335.486 379.38 335.272 379.18 335.259 378.92C335.246 378.655 335.451 378.428 335.717 378.415L340.864 378.166C341.121 378.155 341.356 378.358 341.369 378.624C341.382 378.89 341.178 379.117 340.912 379.13L335.765 379.378C335.765 379.378 335.749 379.378 335.741 379.378V379.38Z" fill="black"/>
<path d="M335.673 383.791C335.433 383.791 335.226 383.612 335.196 383.37C335.161 383.106 335.348 382.864 335.612 382.829L340.567 382.195C340.829 382.162 341.073 382.347 341.108 382.611C341.143 382.875 340.955 383.117 340.691 383.152L335.736 383.786C335.714 383.788 335.695 383.791 335.675 383.791H335.673Z" fill="black"/>
<path d="M292.601 146.343C288.692 145.582 284.016 148.787 284.142 154.688C284.245 159.51 289.176 161.232 291.354 163.922C298.399 172.623 290.715 181.232 296.128 189.821C301.283 198.002 297.575 197.725 308.53 205.859C317.269 212.347 334.304 212.77 344.513 202.275C354.22 192.295 357.179 176.68 348.228 168.581C340.181 161.3 333.807 168.936 325.178 162.048C316.672 155.255 319.439 149.271 314.054 146.332C306.692 142.316 303.675 148.499 292.598 146.343H292.601Z" fill="black"/>
<path d="M327.592 182.315C332.324 184.763 334.393 190.747 332.824 195.84C329.301 207.27 323.399 227.31 323.611 232.629C323.912 240.196 335.041 277.4 335.943 290.014C336.846 302.627 336.798 302.418 336.798 302.418C336.798 302.418 314.239 308.092 302.809 301.156C291.38 294.219 277.844 294.849 277.844 294.849C277.844 294.849 275.926 263.588 281.5 253.124C295.192 227.426 290.222 208.667 289.921 202.992C289.62 197.318 288.116 193.849 289.019 189.751C289.921 185.653 294.257 181.199 298.266 179.169C308.105 174.184 319.925 178.352 327.589 182.317L327.592 182.315Z" fill="white"/>
<path d="M318.819 305.11C313.051 305.11 307.015 304.273 302.561 301.57C291.395 294.794 278.003 295.326 277.87 295.333C277.613 295.348 277.382 295.143 277.367 294.879C277.288 293.598 275.503 263.361 281.079 252.897C292.858 230.792 290.769 214.073 289.766 206.038C289.609 204.787 289.487 203.799 289.446 203.019C289.333 200.873 289.038 199.012 288.781 197.368C288.349 194.63 287.979 192.267 288.554 189.646C289.535 185.191 294.181 180.7 298.055 178.738C307.941 173.73 319.696 177.685 327.818 181.886C332.645 184.382 334.997 190.442 333.288 195.982C329.765 207.411 323.888 227.367 324.095 232.61C324.23 236.017 326.676 245.856 329.266 256.272C332.39 268.841 335.932 283.086 336.425 289.977C336.861 296.078 337.077 299.178 337.181 300.757C337.273 302.137 337.169 302.849 336.87 302.893C336.331 303.03 327.906 305.108 318.819 305.108V305.11ZM278.646 294.356C281.777 294.356 293.25 294.79 303.06 300.744C313.376 307.005 333.279 302.738 336.294 302.041C336.244 301.201 336.067 298.533 335.459 290.049C334.973 283.24 331.441 269.038 328.326 256.507C325.612 245.587 323.266 236.157 323.127 232.649C322.913 227.262 328.821 207.185 332.361 195.698C333.907 190.682 331.714 184.99 327.369 182.742C319.447 178.644 308.006 174.774 298.486 179.597C294.759 181.485 290.377 185.838 289.492 189.854C288.953 192.297 289.313 194.578 289.729 197.218C289.991 198.883 290.29 200.771 290.405 202.966C290.444 203.712 290.566 204.686 290.721 205.918C291.737 214.052 293.852 230.975 281.929 253.35C276.848 262.888 278.097 290.437 278.304 294.356C278.404 294.356 278.52 294.356 278.648 294.356H278.646Z" fill="black"/>
<path d="M255.057 248.182L256.825 235.095L218.84 229.961L218.062 235.721L255.057 248.182Z" fill="white"/>
<path d="M255.057 248.663C255.004 248.663 254.952 248.655 254.902 248.637L217.907 236.176C217.687 236.102 217.552 235.884 217.582 235.653L218.361 229.896C218.396 229.632 218.64 229.447 218.903 229.482L256.888 234.615C257.014 234.633 257.13 234.7 257.206 234.801C257.285 234.903 257.317 235.032 257.3 235.158L255.532 248.245C255.512 248.386 255.432 248.515 255.307 248.589C255.229 248.637 255.142 248.661 255.052 248.661L255.057 248.663ZM218.594 235.389L254.656 247.536L256.282 235.507L219.254 230.504L218.594 235.389Z" fill="black"/>
<path d="M255.449 198.072C247.838 203.973 246.452 214.93 252.353 222.54C258.257 230.151 269.211 231.537 276.821 225.636C284.434 219.733 285.818 208.778 279.917 201.168C274.016 193.557 263.059 192.171 255.449 198.072ZM273.933 221.91C268.378 226.218 260.384 225.207 256.077 219.652C251.769 214.097 252.78 206.103 258.335 201.796C263.89 197.488 271.884 198.499 276.191 204.054C280.499 209.609 279.488 217.603 273.933 221.91Z" fill="white"/>
<path d="M266.155 229.769C260.799 229.769 255.499 227.387 251.972 222.837C245.916 215.028 247.344 203.747 255.152 197.691C258.935 194.756 263.635 193.472 268.383 194.072C273.133 194.673 277.364 197.087 280.296 200.869C286.352 208.678 284.927 219.959 277.116 226.015C273.857 228.544 269.989 229.767 266.153 229.767L266.155 229.769ZM266.1 194.894C262.359 194.894 258.747 196.125 255.743 198.454C248.355 204.183 247.003 214.856 252.735 222.246C258.464 229.634 269.137 230.986 276.527 225.255C283.915 219.525 285.267 208.852 279.536 201.462C276.76 197.882 272.756 195.598 268.263 195.031C267.539 194.939 266.818 194.894 266.1 194.894ZM266.161 225.065C265.603 225.065 265.041 225.03 264.476 224.958C260.975 224.516 257.858 222.737 255.695 219.948C251.233 214.193 252.283 205.879 258.039 201.416C260.827 199.254 264.289 198.308 267.79 198.75C271.291 199.193 274.408 200.972 276.571 203.76C278.733 206.548 279.68 210.012 279.237 213.511C278.794 217.012 277.016 220.129 274.227 222.292C271.888 224.106 269.074 225.065 266.159 225.065H266.161ZM266.111 199.607C263.41 199.607 260.801 200.496 258.634 202.177C253.299 206.315 252.325 214.021 256.46 219.355C258.464 221.939 261.354 223.589 264.6 223.999C267.844 224.409 271.055 223.532 273.639 221.527C276.224 219.523 277.872 216.633 278.282 213.387C278.692 210.143 277.816 206.932 275.81 204.348C273.807 201.765 270.916 200.115 267.67 199.705C267.149 199.64 266.626 199.607 266.109 199.607H266.111Z" fill="black"/>
<path d="M250.806 198.257L229.555 214.736L249.816 252.585L282.08 227.565L250.806 198.257Z" fill="white"/>
<path d="M249.816 253.067C249.783 253.067 249.748 253.063 249.716 253.056C249.576 253.026 249.458 252.936 249.391 252.812L229.13 214.963C229.019 214.756 229.073 214.498 229.261 214.355L250.511 197.876C250.699 197.73 250.965 197.743 251.137 197.904L282.411 227.214C282.514 227.31 282.57 227.448 282.564 227.589C282.557 227.731 282.49 227.862 282.376 227.949L250.112 252.967C250.027 253.032 249.923 253.067 249.816 253.067ZM230.172 214.869L249.971 251.855L281.334 227.533L250.773 198.892L230.17 214.869H230.172Z" fill="black"/>
<path d="M218.572 236.03L219.891 230.183L214.598 226.059L211.659 237.41L218.572 236.03Z" fill="white"/>
<path d="M211.659 237.894C211.528 237.894 211.4 237.84 211.308 237.744C211.195 237.624 211.149 237.452 211.191 237.29L214.129 225.939C214.171 225.782 214.288 225.656 214.441 225.603C214.596 225.551 214.766 225.579 214.892 225.68L220.185 229.804C220.333 229.92 220.401 230.109 220.36 230.29L219.041 236.137C218.999 236.322 218.851 236.466 218.664 236.503L211.751 237.883C211.72 237.89 211.688 237.892 211.657 237.892L211.659 237.894ZM214.881 226.892L212.32 236.787L218.171 235.618L219.352 230.375L214.881 226.889V226.892Z" fill="black"/>
<path d="M272.407 204.161C270.077 203.705 270.949 201.621 272.22 201.189C276.226 199.825 278.801 200.023 281.363 201.032C284.077 202.101 290.072 208.95 299.151 216.327C299.151 216.327 307.514 207.008 311.296 197.551C315.078 188.094 317.348 184.879 320.753 183.553C324.158 182.23 337.02 186.389 328.13 201.523C320.225 214.98 311.689 224.35 304.283 230.526C302.781 231.779 300.597 231.76 299.116 230.48C294.615 226.591 288.005 217.417 283.069 210.505C283.069 210.505 273.979 213.594 272.01 208.702C270.936 206.031 272.405 204.159 272.405 204.159L272.407 204.161Z" fill="white"/>
<path d="M301.728 231.941C300.686 231.941 299.646 231.576 298.802 230.848C294.525 227.155 288.604 219.083 282.882 211.074C281.134 211.605 273.475 213.633 271.563 208.885C270.75 206.866 271.265 205.264 271.672 204.449C270.665 204.039 270.495 203.293 270.471 202.953C270.41 202.048 271.123 201.052 272.063 200.732C275.819 199.454 278.563 199.411 281.539 200.583C283.08 201.192 285.509 203.454 288.868 206.585C291.635 209.164 295.059 212.355 299.095 215.658C300.625 213.888 307.546 205.626 310.849 197.372C314.607 187.974 316.973 184.508 320.581 183.104C322.521 182.35 327.007 183.209 329.617 186.276C331.786 188.822 333.36 193.579 328.549 201.767C319.835 216.6 310.712 225.795 304.595 230.896C303.76 231.592 302.744 231.938 301.728 231.938V231.941ZM283.072 210.025C283.224 210.025 283.372 210.097 283.464 210.228C287.992 216.565 294.833 226.144 299.435 230.118C300.74 231.245 302.65 231.263 303.976 230.157C310.034 225.104 319.07 215.994 327.716 201.281C332.239 193.581 330.846 189.213 328.882 186.904C326.58 184.199 322.573 183.368 320.929 184.007C317.618 185.295 315.386 188.63 311.745 197.732C307.974 207.16 299.594 216.556 299.511 216.65C299.339 216.842 299.047 216.864 298.848 216.702C294.63 213.275 291.072 209.957 288.212 207.291C285.053 204.346 282.559 202.02 281.188 201.482C278.446 200.402 275.893 200.448 272.376 201.645C271.853 201.824 271.404 202.415 271.437 202.888C271.47 203.383 272.034 203.596 272.501 203.688C272.666 203.72 272.802 203.836 272.86 203.993C272.919 204.15 272.891 204.326 272.789 204.457C272.732 204.531 271.511 206.166 272.462 208.525C274.238 212.942 282.83 210.079 282.917 210.051C282.967 210.034 283.019 210.025 283.072 210.025Z" fill="black"/>
<path d="M314.559 178.783C314.559 178.783 311.183 165.363 311.13 163.752C311.13 163.752 312.471 163.135 312.508 161.123C312.576 157.293 308.682 158.98 308.682 158.98L308.305 159.05C306.101 159.456 303.83 159.218 301.756 158.368L297.405 156.58C297.405 156.58 296.387 158.159 297.298 161.361C297.732 162.887 297.538 164.624 297.165 166.432C297.067 166.909 297.375 167.376 297.85 167.474L299.025 167.72C299.563 169.189 300.071 170.072 301.048 171.051C301.314 171.319 301.676 171.476 302.053 171.476C302.565 171.476 303.359 171.411 304.263 171.088L305.249 178.116L300.411 180.275C300.411 180.275 300.416 182.71 305.898 184.565C309.29 185.712 313.914 185.064 316.552 183.952C318.128 183.287 318.791 181.563 317.363 180.623L314.559 178.783Z" fill="white"/>
<path d="M310.036 185.655C308.543 185.655 307.056 185.465 305.746 185.023C300.002 183.08 299.93 180.39 299.93 180.277C299.93 180.085 300.041 179.913 300.215 179.834L304.721 177.824L303.864 171.718C303.128 171.914 302.491 171.96 302.051 171.96C301.554 171.96 301.063 171.753 300.706 171.393C299.77 170.456 299.219 169.584 298.665 168.141L297.75 167.949C297.015 167.794 296.54 167.073 296.692 166.336C297.006 164.805 297.27 163.033 296.834 161.494C295.875 158.119 296.954 156.391 297 156.319C297.126 156.122 297.372 156.044 297.588 156.133L301.94 157.921C303.93 158.738 306.099 158.965 308.218 158.575L308.545 158.514C308.887 158.376 310.701 157.712 311.928 158.531C312.656 159.017 313.014 159.894 312.992 161.13C312.962 162.817 312.111 163.661 311.641 164.001C311.902 165.993 314.069 174.833 314.985 178.478L317.631 180.216C318.344 180.684 318.697 181.36 318.627 182.121C318.542 183.054 317.803 183.946 316.744 184.393C314.976 185.138 312.495 185.65 310.038 185.65L310.036 185.655ZM300.967 180.556C301.196 181.192 302.144 182.786 306.055 184.107C309.258 185.19 313.757 184.606 316.367 183.508C317.091 183.202 317.614 182.612 317.666 182.038C317.703 181.644 317.507 181.295 317.101 181.029L314.298 179.189C314.198 179.124 314.124 179.021 314.095 178.903C313.958 178.354 310.705 165.414 310.653 163.772C310.646 163.578 310.758 163.399 310.934 163.319C310.973 163.299 312 162.78 312.031 161.119C312.046 160.232 311.832 159.632 311.396 159.34C310.651 158.841 309.328 159.235 308.881 159.427C308.848 159.443 308.813 159.453 308.776 159.46L308.399 159.53C306.099 159.953 303.742 159.708 301.58 158.819L297.662 157.208C297.455 157.808 297.178 159.148 297.771 161.234C298.264 162.972 297.985 164.888 297.647 166.534C297.604 166.75 297.743 166.961 297.959 167.007L299.134 167.253C299.297 167.288 299.43 167.404 299.487 167.559C300.025 169.026 300.507 169.821 301.397 170.713C301.575 170.894 301.817 170.997 302.062 170.997C302.552 170.997 303.269 170.935 304.109 170.637C304.244 170.589 304.396 170.604 304.521 170.678C304.645 170.752 304.728 170.881 304.75 171.025L305.735 178.053C305.765 178.267 305.65 178.474 305.454 178.561L300.974 180.56L300.967 180.556Z" fill="black"/>
<path d="M304.266 171.572C304.074 171.572 303.895 171.459 303.819 171.271C303.718 171.025 303.838 170.744 304.085 170.643L304.92 170.305C305.168 170.205 305.447 170.325 305.547 170.571C305.648 170.818 305.528 171.099 305.281 171.199L304.446 171.537C304.388 171.561 304.327 171.572 304.266 171.572Z" fill="black"/>
</svg>
