<svg width="310" height="324" viewBox="0 0 310 324" fill="none" xmlns="http://www.w3.org/2000/svg">
<path d="M71.4811 169.804C68.4434 176.085 65.2173 187.256 62.8765 187.832C60.5357 188.405 55.5831 174.815 49.0922 170.042C42.6013 165.268 28.3347 160.606 19.3271 183.161C11.9315 201.679 11.2011 248.726 49.9845 270.821C129.475 316.106 146.983 206.134 103.027 174.656C83.2027 160.46 74.5189 163.524 71.4811 169.806V169.804ZM80.0594 204.8C83.6938 210.14 84.1831 216.229 81.1559 218.405C78.1269 220.578 72.7255 218.012 69.0911 212.672C65.4567 207.332 64.9674 201.241 67.9963 199.067C71.0253 196.894 76.4267 199.46 80.0594 204.8Z" fill="white"/>
<path d="M84.5473 281.997C74.1053 281.997 62.4523 278.366 49.7944 271.155C28.2749 258.897 20.0627 239.687 16.9633 225.731C12.9928 207.857 15.5624 191.549 18.9697 183.015C22.708 173.653 27.7029 168.021 33.8153 166.273C40.8413 164.265 47.0013 168.021 49.3245 169.728C52.8832 172.345 55.9473 177.497 58.4096 181.636C60.0869 184.456 61.9841 187.643 62.7867 187.455C64.1208 187.128 66.1518 181.907 67.9435 177.303C68.6563 175.471 69.3937 173.576 70.1224 171.874C70.2069 171.677 70.4339 171.585 70.631 171.67C70.8281 171.754 70.9179 171.981 70.8352 172.178C70.1118 173.868 69.3761 175.758 68.6669 177.585C66.1976 183.931 64.5819 187.812 62.9733 188.207C61.6761 188.529 60.2875 186.309 57.7461 182.032C55.3208 177.953 52.3006 172.875 48.8686 170.351C46.6387 168.711 40.7269 165.103 34.0318 167.018C28.1622 168.695 23.3381 174.174 19.6931 183.301C11.7731 203.133 12.5862 249.064 50.1816 270.481C78.8221 286.798 103.01 284.297 116.546 263.624C124.401 251.628 127.75 234.273 125.508 217.195C123.169 199.383 115.154 184.181 103.518 175.489C103.348 175.36 103.312 175.117 103.439 174.947C103.568 174.776 103.811 174.739 103.981 174.869C115.784 183.685 123.908 199.076 126.275 217.095C128.54 234.35 125.145 251.904 117.194 264.05C110.893 273.672 101.987 279.686 91.4413 281.441C89.2096 281.812 86.9093 281.997 84.5509 281.997H84.5473Z" fill="black"/>
<path d="M50.0406 191.24C52.2085 187.156 50.756 182.141 46.7963 180.039C42.8366 177.937 37.8692 179.544 35.7013 183.629C33.5333 187.713 34.9858 192.728 38.9455 194.829C42.9052 196.931 47.8726 195.324 50.0406 191.24Z" fill="#87ED82"/>
<path d="M32.6766 220.501C31.3583 220.501 30.0278 220.191 28.794 219.535C24.651 217.336 23.1233 212.076 25.3884 207.809C26.4849 205.745 28.2942 204.217 30.4871 203.508C32.6836 202.799 34.9998 202.994 37.0079 204.059C39.0161 205.125 40.4769 206.933 41.1193 209.149C41.7599 211.361 41.51 213.718 40.4153 215.782C38.826 218.776 35.7847 220.497 32.6801 220.497L32.6766 220.501ZM33.1148 203.865C32.3158 203.865 31.5115 203.992 30.7212 204.247C28.7219 204.895 27.0692 206.289 26.0695 208.175C24.0051 212.065 25.3902 216.854 29.1548 218.853C32.9212 220.851 37.6627 219.313 39.7271 215.425C40.7286 213.538 40.9574 211.389 40.3731 209.371C39.7887 207.357 38.4652 205.715 36.6419 204.749C35.5401 204.164 34.3363 203.869 33.1148 203.869V203.865Z" fill="black"/>
<path d="M39.2625 247.277C37.9161 247.277 36.5891 246.952 35.3747 246.306C33.3665 245.239 31.9057 243.432 31.2633 241.214C30.6227 239.002 30.8726 236.645 31.9673 234.581C34.2307 230.314 39.4438 228.634 43.5868 230.83C47.7299 233.028 49.2576 238.289 46.9924 242.555C45.896 244.62 44.0867 246.147 41.8937 246.857C41.026 247.137 40.139 247.276 39.2608 247.276L39.2625 247.277ZM39.7025 230.642C36.876 230.642 34.1022 232.213 32.652 234.947C31.6505 236.833 31.4217 238.982 32.006 241.001C32.5904 243.015 33.9139 244.657 35.7372 245.623C37.5588 246.589 39.662 246.767 41.6561 246.121C43.6555 245.475 45.3081 244.079 46.3078 242.194C48.3723 238.307 46.9872 233.516 43.2225 231.517C42.1032 230.922 40.8958 230.642 39.7008 230.642H39.7025Z" fill="black"/>
<path d="M58.0223 264.642C56.6759 264.642 55.3489 264.314 54.1345 263.67C52.1263 262.603 50.6655 260.796 50.0231 258.58C49.3825 256.368 49.6324 254.011 50.7271 251.947C52.9922 247.68 58.2036 246 62.3466 248.196C66.4897 250.394 68.0173 255.655 65.7522 259.921C64.6557 261.986 62.8465 263.513 60.6535 264.223C59.7858 264.502 58.9005 264.643 58.0205 264.643L58.0223 264.642ZM58.4623 248.004C55.6357 248.004 52.862 249.576 51.4117 252.309C50.4103 254.196 50.1815 256.345 50.7658 258.364C51.3501 260.377 52.6737 262.019 54.497 262.985C56.3186 263.953 58.4218 264.129 60.4159 263.485C62.4153 262.838 64.0679 261.444 65.0676 259.557C67.1321 255.669 65.7469 250.878 61.9823 248.879C60.8629 248.284 59.6573 248.004 58.4605 248.004H58.4623Z" fill="white"/>
<path d="M33.847 143.835L41.5188 134.616L95.359 184.516L101.815 194.697C101.815 194.697 91.1667 190.068 90.7143 189.715L33.8452 143.835H33.847Z" fill="white"/>
<path d="M101.815 195.084C101.764 195.084 101.711 195.074 101.66 195.053C99.8734 194.277 90.9431 190.385 90.475 190.021L33.6023 144.136C33.5214 144.071 33.4703 143.976 33.4598 143.872C33.4492 143.768 33.4809 143.666 33.5478 143.587L41.2196 134.368C41.2882 134.287 41.3868 134.236 41.4924 134.229C41.598 134.224 41.7018 134.259 41.781 134.331L95.6212 184.231C95.6458 184.253 95.667 184.278 95.6845 184.308L102.14 194.49C102.232 194.634 102.218 194.819 102.107 194.949C102.031 195.037 101.924 195.084 101.813 195.084H101.815ZM34.3961 143.78L90.959 189.414C91.3391 189.672 96.6913 192.04 100.813 193.838L95.0615 184.766L41.5575 135.178L34.3978 143.78H34.3961Z" fill="black"/>
<path d="M33.8469 143.835L41.5188 134.616L53.4428 145.665L46.5524 154.085L33.8469 143.835Z" fill="white"/>
<path d="M46.5523 154.472C46.4661 154.472 46.3816 154.444 46.3095 154.386L33.604 144.134C33.5231 144.069 33.472 143.974 33.4615 143.87C33.4509 143.766 33.4826 143.664 33.5495 143.585L41.2213 134.366C41.29 134.285 41.3885 134.234 41.4941 134.227C41.5997 134.222 41.7035 134.257 41.7827 134.329L53.7067 145.38C53.8563 145.519 53.8722 145.752 53.7437 145.91L46.8533 154.33C46.7759 154.423 46.665 154.472 46.5541 154.472H46.5523ZM34.396 143.78L46.4978 153.543L52.913 145.702L41.5557 135.176L34.396 143.779V143.78Z" fill="black"/>
<path d="M17.8062 138.472C24.4538 143.942 29.8147 145.231 33.8997 143.941H33.905L41.5926 134.602C41.5926 134.602 41.5944 134.586 41.5962 134.577C42.0995 130.262 39.801 125.181 33.0848 119.654C23.1144 111.449 1.47168 109.337 1.47168 109.337C1.47168 109.337 7.83408 130.269 17.8062 138.474V138.472Z" fill="#87ED82"/>
<path d="M69.8664 1.35305L31.6345 11.9126L89.7659 222.383L127.998 211.824L69.8664 1.35305Z" fill="white"/>
<path d="M89.7728 222.764C89.6038 222.764 89.4472 222.651 89.3997 222.481L31.2616 12.0111C31.2334 11.9125 31.2475 11.8069 31.2986 11.7172C31.3496 11.6274 31.4323 11.5623 31.5326 11.5341L69.7651 0.974114C69.971 0.917794 70.184 1.03747 70.2421 1.24339L128.38 211.711C128.408 211.81 128.394 211.915 128.343 212.005C128.292 212.095 128.209 212.16 128.109 212.188L89.8766 222.748C89.8414 222.757 89.808 222.762 89.7728 222.762V222.764ZM32.1117 12.1783L90.0438 221.9L127.53 211.546L69.5962 1.8242L32.1099 12.1783H32.1117Z" fill="black"/>
<path d="M113.622 193.242C113.45 193.242 113.292 193.126 113.248 192.95C113.195 192.742 113.321 192.533 113.529 192.48L121.785 190.396C121.993 190.345 122.202 190.47 122.255 190.676C122.308 190.883 122.181 191.093 121.974 191.146L113.717 193.23C113.686 193.238 113.654 193.242 113.622 193.242Z" fill="black"/>
<path d="M112.068 187.992C111.892 187.992 111.732 187.87 111.692 187.691C111.644 187.483 111.774 187.275 111.982 187.226L120.386 185.297C120.594 185.25 120.801 185.38 120.851 185.588C120.898 185.795 120.768 186.003 120.56 186.052L112.156 187.981C112.126 187.988 112.098 187.992 112.07 187.992H112.068Z" fill="black"/>
<path d="M110.808 183.053C110.636 183.053 110.477 182.937 110.433 182.761C110.381 182.553 110.507 182.344 110.715 182.291L118.971 180.206C119.179 180.154 119.388 180.279 119.441 180.485C119.494 180.693 119.367 180.902 119.159 180.955L110.903 183.041C110.872 183.05 110.84 183.053 110.808 183.053Z" fill="black"/>
<path d="M107.668 179.023C107.492 179.023 107.334 178.903 107.292 178.724C107.242 178.516 107.371 178.306 107.58 178.257L117.384 175.941C117.591 175.893 117.801 176.02 117.85 176.23C117.899 176.437 117.771 176.647 117.561 176.696L107.758 179.012C107.728 179.019 107.698 179.023 107.668 179.023Z" fill="black"/>
<path d="M104.173 159.033C104.001 159.033 103.842 158.917 103.798 158.741C103.745 158.533 103.872 158.323 104.08 158.271L112.336 156.187C112.544 156.136 112.753 156.261 112.806 156.467C112.859 156.674 112.732 156.884 112.524 156.937L104.268 159.02C104.236 159.029 104.205 159.033 104.173 159.033Z" fill="black"/>
<path d="M100.069 155.272C99.8944 155.272 99.736 155.152 99.692 154.974C99.6427 154.766 99.7695 154.557 99.9789 154.508L110.748 151.926C110.958 151.877 111.165 152.005 111.215 152.213C111.264 152.42 111.137 152.63 110.928 152.679L100.158 155.261C100.129 155.268 100.097 155.272 100.067 155.272H100.069Z" fill="black"/>
<path d="M107.807 173.697C107.635 173.697 107.476 173.581 107.432 173.405C107.38 173.197 107.506 172.988 107.714 172.935L115.97 170.849C116.178 170.798 116.387 170.923 116.44 171.129C116.493 171.337 116.366 171.546 116.158 171.599L107.902 173.685C107.871 173.693 107.839 173.697 107.807 173.697Z" fill="black"/>
<path d="M106.253 168.447C106.077 168.447 105.917 168.325 105.877 168.146C105.829 167.938 105.959 167.731 106.167 167.681L114.571 165.752C114.779 165.705 114.986 165.835 115.036 166.043C115.085 166.25 114.953 166.458 114.745 166.507L106.341 168.436C106.311 168.443 106.283 168.447 106.255 168.447H106.253Z" fill="black"/>
<path d="M105.38 163.401C105.208 163.401 105.049 163.285 105.005 163.109C104.953 162.901 105.079 162.692 105.287 162.639L113.543 160.553C113.751 160.502 113.96 160.627 114.013 160.833C114.066 161.041 113.939 161.25 113.731 161.303L105.475 163.389C105.444 163.397 105.412 163.401 105.38 163.401Z" fill="black"/>
<path d="M101.614 150.143C101.438 150.143 101.278 150.022 101.237 149.842C101.19 149.634 101.32 149.427 101.528 149.377L109.932 147.448C110.139 147.401 110.347 147.531 110.396 147.739C110.444 147.946 110.314 148.154 110.106 148.203L101.702 150.132C101.672 150.139 101.644 150.143 101.616 150.143H101.614Z" fill="black"/>
<path d="M100.354 145.204C100.181 145.204 100.023 145.088 99.979 144.912C99.9262 144.705 100.053 144.495 100.261 144.442L108.517 142.357C108.724 142.306 108.934 142.431 108.987 142.637C109.04 142.844 108.913 143.054 108.705 143.107L100.449 145.192C100.417 145.201 100.386 145.204 100.354 145.204Z" fill="black"/>
<path d="M98.7998 139.954C98.6238 139.954 98.4636 139.833 98.4231 139.653C98.3756 139.446 98.5058 139.238 98.7135 139.189L107.118 137.26C107.325 137.212 107.533 137.342 107.582 137.55C107.631 137.758 107.499 137.966 107.292 138.015L98.8878 139.944C98.8578 139.951 98.8297 139.954 98.8015 139.954H98.7998Z" fill="black"/>
<path d="M97.538 135.014C97.3655 135.014 97.2071 134.898 97.1631 134.722C97.1103 134.514 97.237 134.305 97.4447 134.252L105.701 132.166C105.909 132.115 106.118 132.24 106.171 132.446C106.224 132.654 106.097 132.863 105.889 132.916L97.633 135.002C97.6013 135.01 97.5697 135.014 97.538 135.014Z" fill="black"/>
<path d="M94.3999 130.985C94.2239 130.985 94.0655 130.866 94.0232 130.686C93.9739 130.479 94.1024 130.269 94.3119 130.22L104.115 127.904C104.323 127.856 104.532 127.983 104.581 128.192C104.631 128.4 104.502 128.609 104.293 128.659L94.4896 130.975C94.4597 130.982 94.4298 130.985 94.3999 130.985Z" fill="black"/>
<path d="M90.9027 110.995C90.7303 110.995 90.5718 110.879 90.5278 110.703C90.475 110.495 90.6018 110.286 90.8095 110.233L99.0656 108.148C99.2733 108.097 99.4827 108.222 99.5355 108.427C99.5883 108.635 99.4616 108.845 99.2539 108.897L90.9978 110.983C90.9661 110.992 90.9344 110.995 90.9027 110.995Z" fill="black"/>
<path d="M86.7984 107.232C86.6242 107.232 86.464 107.113 86.4218 106.935C86.3725 106.727 86.4992 106.518 86.7086 106.469L97.4781 103.885C97.6875 103.836 97.8952 103.962 97.9445 104.172C97.9938 104.379 97.867 104.589 97.6576 104.638L86.8882 107.222C86.8582 107.229 86.8266 107.232 86.7966 107.232H86.7984Z" fill="black"/>
<path d="M94.539 125.658C94.3665 125.658 94.2081 125.542 94.1641 125.366C94.1113 125.158 94.238 124.949 94.4457 124.896L102.702 122.812C102.908 122.761 103.119 122.886 103.172 123.092C103.225 123.299 103.098 123.509 102.89 123.562L94.634 125.646C94.6023 125.654 94.5706 125.658 94.539 125.658Z" fill="black"/>
<path d="M92.9848 120.41C92.8088 120.41 92.6487 120.288 92.6082 120.109C92.5607 119.901 92.6909 119.693 92.8986 119.644L101.303 117.715C101.51 117.667 101.718 117.798 101.767 118.005C101.816 118.213 101.684 118.421 101.477 118.47L93.0728 120.399C93.0429 120.406 93.0147 120.41 92.9866 120.41H92.9848Z" fill="black"/>
<path d="M92.11 115.362C91.9375 115.362 91.7791 115.246 91.7351 115.07C91.6823 114.862 91.8091 114.653 92.0167 114.6L100.273 112.514C100.481 112.463 100.69 112.588 100.743 112.794C100.796 113.002 100.669 113.211 100.461 113.264L92.2051 115.35C92.1734 115.358 92.1417 115.362 92.11 115.362Z" fill="black"/>
<path d="M88.3437 102.106C88.1677 102.106 88.0075 101.984 87.9671 101.805C87.9195 101.597 88.0498 101.389 88.2575 101.34L96.6615 99.411C96.8709 99.3635 97.0768 99.4938 97.1261 99.7014C97.1736 99.9091 97.0434 100.117 96.8357 100.166L88.4317 102.095C88.4018 102.102 88.3736 102.106 88.3455 102.106H88.3437Z" fill="black"/>
<path d="M87.0836 97.1652C86.9112 97.1652 86.7528 97.049 86.7088 96.873C86.656 96.6654 86.7827 96.4559 86.9904 96.4031L95.2465 94.3193C95.4542 94.2682 95.6636 94.3932 95.7164 94.5991C95.7692 94.8068 95.6425 95.0162 95.4348 95.069L87.1787 97.1529C87.147 97.1617 87.1153 97.1652 87.0836 97.1652Z" fill="black"/>
<path d="M85.5295 91.9151C85.3535 91.9151 85.1933 91.7937 85.1528 91.6141C85.1053 91.4065 85.2356 91.1988 85.4432 91.1495L93.8472 89.2205C94.0549 89.1713 94.2626 89.3033 94.3119 89.5109C94.3612 89.7186 94.2292 89.9263 94.0215 89.9756L85.6175 91.9045C85.5876 91.9116 85.5594 91.9151 85.5312 91.9151H85.5295Z" fill="black"/>
<path d="M84.2694 86.9766C84.0969 86.9766 83.9385 86.8605 83.8945 86.6845C83.8417 86.4768 83.9685 86.2674 84.1762 86.2146L92.4323 84.129C92.64 84.0779 92.8494 84.2029 92.9022 84.4088C92.955 84.6165 92.8283 84.8259 92.6206 84.8787L84.3645 86.9643C84.3328 86.9731 84.3011 86.9766 84.2694 86.9766Z" fill="black"/>
<path d="M81.1296 82.9462C80.9536 82.9462 80.7952 82.8265 80.753 82.647C80.7037 82.4393 80.8322 82.2299 81.0416 82.1806L90.8448 79.8645C91.0525 79.8169 91.2619 79.9437 91.3112 80.1531C91.3605 80.3608 91.232 80.5702 91.0225 80.6195L81.2193 82.9357C81.1894 82.9427 81.1595 82.9462 81.1296 82.9462Z" fill="black"/>
<path d="M77.6342 62.9561C77.4617 62.9561 77.3033 62.8399 77.2593 62.6639C77.2065 62.4562 77.3332 62.2468 77.5409 62.194L85.7971 60.1102C86.0047 60.0591 86.2142 60.1841 86.267 60.39C86.3198 60.5977 86.1931 60.8071 85.9854 60.8599L77.7292 62.9438C77.6975 62.9526 77.6659 62.9561 77.6342 62.9561Z" fill="black"/>
<path d="M73.5298 59.195C73.3556 59.195 73.1972 59.0753 73.1532 58.8975C73.1039 58.6899 73.2306 58.4804 73.4401 58.4311L84.2095 55.8475C84.419 55.7999 84.6266 55.9249 84.6759 56.1343C84.7252 56.342 84.5985 56.5515 84.389 56.6007L73.6196 59.1844C73.5897 59.1915 73.558 59.195 73.5281 59.195H73.5298Z" fill="black"/>
<path d="M81.2685 77.6204C81.096 77.6204 80.9376 77.5043 80.8936 77.3283C80.8408 77.1206 80.9675 76.9112 81.1752 76.8584L89.4313 74.7728C89.6373 74.7217 89.8485 74.8467 89.9013 75.0526C89.9541 75.2603 89.8273 75.4697 89.6197 75.5225L81.3635 77.6081C81.3318 77.6169 81.3001 77.6204 81.2685 77.6204Z" fill="black"/>
<path d="M79.7145 72.3704C79.5385 72.3704 79.3784 72.2489 79.3379 72.0694C79.2904 71.8617 79.4206 71.654 79.6283 71.6048L88.0323 69.6758C88.24 69.6283 88.4494 69.7585 88.497 69.9662C88.5445 70.1739 88.4142 70.3816 88.2065 70.4308L79.8025 72.3598C79.7726 72.3668 79.7445 72.3704 79.7163 72.3704H79.7145Z" fill="black"/>
<path d="M78.8397 67.3244C78.6673 67.3244 78.5089 67.2083 78.4649 67.0323C78.4121 66.8246 78.5388 66.6151 78.7465 66.5623L87.0026 64.4767C87.2103 64.4257 87.4197 64.5507 87.4725 64.7566C87.5253 64.9643 87.3986 65.1737 87.1909 65.2265L78.9348 67.3121C78.9031 67.3209 78.8714 67.3244 78.8397 67.3244Z" fill="black"/>
<path d="M75.0749 54.0663C74.8989 54.0663 74.7387 53.9448 74.6983 53.7653C74.6507 53.5576 74.781 53.35 74.9887 53.3007L83.3927 51.3717C83.6003 51.3242 83.808 51.4544 83.8573 51.6621C83.9066 51.8698 83.7746 52.0775 83.5669 52.1268L75.1629 54.0557C75.133 54.0628 75.1048 54.0663 75.0767 54.0663H75.0749Z" fill="black"/>
<path d="M73.8131 49.1278C73.6407 49.1278 73.4823 49.0116 73.4383 48.8356C73.3855 48.6279 73.5122 48.4185 73.7198 48.3657L81.976 46.2801C82.1837 46.229 82.3931 46.354 82.4459 46.5599C82.4987 46.7676 82.372 46.977 82.1643 47.0298L73.9082 49.1154C73.8765 49.1242 73.8448 49.1278 73.8131 49.1278Z" fill="black"/>
<path d="M72.259 43.8777C72.083 43.8777 71.9228 43.7562 71.8823 43.5767C71.8348 43.369 71.9651 43.1614 72.1727 43.1121L80.5767 41.1831C80.7844 41.1356 80.9921 41.2658 81.0414 41.4735C81.0889 41.6812 80.9587 41.8889 80.751 41.9382L72.347 43.8671C72.3171 43.8742 72.2889 43.8777 72.2607 43.8777H72.259Z" fill="black"/>
<path d="M70.9989 38.9373C70.8264 38.9373 70.668 38.8212 70.624 38.6452C70.5712 38.4375 70.698 38.2281 70.9056 38.1753L79.1618 36.0897C79.3695 36.0386 79.5789 36.1636 79.6317 36.3695C79.6845 36.5772 79.5578 36.7866 79.3501 36.8394L71.094 38.925C71.0623 38.9338 71.0306 38.9373 70.9989 38.9373Z" fill="black"/>
<path d="M67.8591 34.9087C67.6831 34.9087 67.5247 34.7891 67.4824 34.6095C67.4332 34.4019 67.5616 34.1924 67.7711 34.1431L77.5743 31.827C77.782 31.7795 77.9914 31.9062 78.0407 32.1156C78.09 32.3233 77.9615 32.5327 77.7521 32.582L67.9488 34.8982C67.9189 34.9052 67.889 34.9087 67.8591 34.9087Z" fill="black"/>
<path d="M64.3637 14.9187C64.1912 14.9187 64.0328 14.8025 63.9888 14.6265C63.936 14.4188 64.0627 14.2094 64.2704 14.1566L72.5266 12.071C72.7342 12.0199 72.9437 12.1449 72.9965 12.3508C73.0493 12.5585 72.9225 12.7679 72.7149 12.8207L64.4587 14.9063C64.427 14.9151 64.3953 14.9187 64.3637 14.9187Z" fill="black"/>
<path d="M60.2593 11.1557C60.0851 11.1557 59.9267 11.0361 59.8827 10.8583C59.8334 10.6506 59.9601 10.4412 60.1696 10.3919L70.939 7.80823C71.1485 7.75895 71.3561 7.88567 71.4054 8.09511C71.4547 8.30279 71.328 8.51223 71.1185 8.56151L60.3491 11.1452C60.3192 11.1522 60.2875 11.1557 60.2576 11.1557H60.2593Z" fill="black"/>
<path d="M67.9979 29.583C67.8255 29.583 67.6671 29.4668 67.6231 29.2908C67.5703 29.0831 67.697 28.8737 67.9047 28.8209L76.1608 26.7353C76.3667 26.6842 76.5779 26.8092 76.6307 27.0151C76.6835 27.2228 76.5568 27.4322 76.3491 27.485L68.093 29.5706C68.0613 29.5794 68.0296 29.583 67.9979 29.583Z" fill="black"/>
<path d="M66.444 24.3329C66.268 24.3329 66.1079 24.2114 66.0674 24.0319C66.0199 23.8242 66.1501 23.6166 66.3578 23.5673L74.7618 21.6383C74.9712 21.5908 75.1772 21.721 75.2264 21.9287C75.2757 22.1364 75.1437 22.3441 74.936 22.3934L66.532 24.3223C66.5021 24.3294 66.474 24.3329 66.4458 24.3329H66.444Z" fill="black"/>
<path d="M65.5709 19.2852C65.3985 19.2852 65.2401 19.169 65.1961 18.993C65.1433 18.7853 65.27 18.5759 65.4777 18.5231L73.7338 16.4393C73.9415 16.3882 74.1509 16.5132 74.2037 16.7191C74.2565 16.9268 74.1298 17.1362 73.9221 17.189L65.666 19.2729C65.6343 19.2817 65.6026 19.2852 65.5709 19.2852Z" fill="black"/>
<path d="M37.3757 79.4402L24.5999 88.9759L114.33 208.707C115.284 209.979 117.389 210.18 119.476 209.147C121.977 207.91 124.177 206.268 126.074 204.222C127.657 202.515 128.06 200.444 127.106 199.171L37.3757 79.4402Z" fill="white"/>
<path d="M116.866 210.192C115.673 210.192 114.642 209.766 114.022 208.939L24.292 89.2082C24.2304 89.1254 24.204 89.0234 24.2181 88.9213C24.2321 88.8192 24.2867 88.7277 24.3694 88.6661L37.1453 79.1304C37.316 79.0019 37.5589 79.0371 37.6873 79.2079L127.417 198.939C128.493 200.373 128.058 202.654 126.36 204.486C124.439 206.556 122.181 208.242 119.651 209.494C118.704 209.962 117.743 210.192 116.866 210.192ZM25.1421 89.0533L114.64 208.475C115.488 209.606 117.407 209.74 119.306 208.8C121.754 207.589 123.934 205.961 125.791 203.96C127.231 202.408 127.644 200.535 126.796 199.404L37.2966 79.9822L25.1421 89.0533Z" fill="black"/>
<path d="M100.465 182.956C100.347 182.956 100.231 182.904 100.155 182.801L62.2288 132.196C62.1003 132.025 62.1355 131.783 62.3062 131.654C62.477 131.526 62.7198 131.561 62.8483 131.732L100.775 182.337C100.903 182.508 100.868 182.75 100.697 182.879C100.627 182.932 100.546 182.956 100.465 182.956Z" fill="black"/>
<path d="M53.8651 120.779C53.7472 120.779 53.631 120.726 53.5553 120.624L37.094 98.6593C36.9656 98.4886 37.0008 98.2457 37.1715 98.1172C37.3422 97.9888 37.5851 98.0239 37.7135 98.1947L54.1748 120.159C54.3033 120.33 54.2681 120.573 54.0974 120.702C54.027 120.754 53.946 120.779 53.8651 120.779Z" fill="black"/>
<path d="M116.183 194.247C116.065 194.247 115.949 194.194 115.874 194.092L52.8128 109.948C52.6843 109.777 52.7195 109.534 52.8902 109.406C53.0609 109.277 53.3038 109.313 53.4323 109.483L116.493 193.627C116.622 193.798 116.586 194.041 116.416 194.169C116.345 194.222 116.264 194.247 116.183 194.247Z" fill="black"/>
<path d="M16.3295 57.5704L16.3436 57.5845C15.4566 58.6792 13.906 59.9623 12.7356 60.8352C11.5652 61.71 10.8383 62.1253 9.53418 62.6656L24.5875 88.96C29.878 87.1595 34.1372 83.981 37.3633 79.4244L16.3295 57.5704Z" fill="white"/>
<path d="M24.5875 89.3472C24.452 89.3472 24.3217 89.2751 24.2513 89.1519L9.19807 62.8575C9.14351 62.7607 9.13119 62.6445 9.16815 62.5407C9.20335 62.4351 9.28431 62.3506 9.38639 62.3083C10.6589 61.7803 11.3576 61.3808 12.5033 60.5255C13.2144 59.9957 14.9497 58.6493 15.9688 57.4296C15.9881 57.3803 16.0181 57.3328 16.0603 57.2923C16.2134 57.1445 16.4581 57.148 16.6077 57.3011L16.6218 57.3152C16.6218 57.3152 16.627 57.3205 16.6288 57.324L37.6432 79.1568C37.7717 79.2906 37.7875 79.4965 37.6801 79.6496C34.4224 84.252 30.0594 87.508 24.7125 89.3279C24.672 89.3419 24.6297 89.349 24.5875 89.349V89.3472ZM10.0869 62.8504L24.7635 88.4883C29.7144 86.7407 33.78 83.7047 36.86 79.4613L16.3595 58.1618C15.2753 59.3762 13.6544 60.6328 12.9662 61.1467C11.9014 61.9423 11.1746 62.377 10.0869 62.8522V62.8504Z" fill="black"/>
<path d="M13.2602 60.5536C14.4306 59.6806 15.4567 58.6792 16.3437 57.5844L3.48868 44.2278C2.357 43.0521 -0.480122 45.1694 0.329478 46.5844L9.53604 62.6656C10.8384 62.1252 12.0898 61.4265 13.2602 60.5536Z" fill="black"/>
<path d="M102.49 4.28821H102.188C101.893 4.28821 101.654 4.52697 101.654 4.82149V10.1648C101.654 10.4594 101.893 10.6981 102.188 10.6981H102.49C102.785 10.6981 103.024 10.4594 103.024 10.1648V4.82149C103.024 4.52697 102.785 4.28821 102.49 4.28821Z" fill="black"/>
<path d="M95.3853 128.778C95.0737 129.38 94.9083 130.049 94.9013 130.727L94.7957 143.027L120.113 141.836L119.05 129.394C118.992 128.706 118.767 128.044 118.397 127.469L117.994 126.841C117.195 125.596 117.107 124.003 117.762 122.659L117.846 122.483C118.188 121.784 118.332 121.003 118.265 120.226L110.509 29.4175C110.405 28.2102 110.148 27.0239 109.74 25.8905L109.657 25.6599C105.22 26.077 100.781 26.1017 96.3445 26.4308L96.0857 27.3654C95.8851 28.0922 95.7795 28.8438 95.7742 29.597L95.0597 121.024C95.0526 121.865 95.292 122.685 95.7461 123.379C96.5821 124.658 96.6613 126.314 95.9485 127.687L95.3835 128.778H95.3853Z" fill="white"/>
<path d="M94.7957 143.414C94.6954 143.414 94.5986 143.376 94.5264 143.307C94.449 143.233 94.4067 143.131 94.4085 143.025L94.5141 130.725C94.5211 129.987 94.7024 129.254 95.0403 128.601L95.6053 127.509C96.253 126.258 96.1826 124.757 95.4223 123.592C94.9242 122.831 94.6655 121.941 94.6725 121.02L95.3871 29.5935C95.3923 28.805 95.5032 28.0218 95.7127 27.2615L95.9714 26.327C96.0154 26.1686 96.1527 26.0559 96.3163 26.0436C98.2541 25.901 100.222 25.813 102.124 25.7303C104.583 25.6212 107.126 25.5103 109.622 25.2745C109.798 25.2516 109.963 25.3625 110.023 25.5297L110.106 25.7602C110.525 26.9254 110.791 28.145 110.896 29.3858L118.653 120.195C118.725 121.041 118.566 121.891 118.195 122.653L118.11 122.828C117.517 124.047 117.598 125.505 118.322 126.631L118.725 127.259C119.126 127.886 119.372 128.613 119.437 129.361L120.501 141.802C120.509 141.908 120.476 142.012 120.405 142.091C120.337 142.17 120.238 142.218 120.133 142.223L94.8151 143.414C94.8151 143.414 94.8027 143.414 94.7975 143.414H94.7957ZM96.6472 26.7969L96.4624 27.4674C96.2706 28.1609 96.1703 28.879 96.165 29.5988L95.4504 121.026C95.4451 121.793 95.6599 122.534 96.0735 123.166C96.9869 124.565 97.0731 126.364 96.297 127.863L95.732 128.954C95.4487 129.5 95.2973 130.112 95.292 130.728L95.1899 142.619L119.696 141.466L118.668 129.426C118.616 128.803 118.41 128.198 118.075 127.677L117.672 127.048C116.805 125.695 116.706 123.949 117.417 122.488L117.503 122.314C117.813 121.677 117.945 120.967 117.885 120.26L110.129 29.451C110.03 28.2946 109.786 27.1594 109.4 26.0735C106.982 26.2918 104.534 26.3991 102.165 26.5047C100.357 26.5839 98.4899 26.6666 96.6507 26.7969H96.6472Z" fill="black"/>
<path d="M95.2058 163.959L94.7078 142.596L120.173 141.704L120.671 163.067C120.763 166.981 117.743 170.261 113.927 170.395L102.281 170.804C98.4654 170.937 95.2974 167.873 95.2058 163.959Z" fill="white"/>
<path d="M102.038 171.194C100.213 171.194 98.4847 170.506 97.1418 169.241C95.6898 167.871 94.8643 165.999 94.8168 163.968L94.3187 142.605C94.3134 142.392 94.4807 142.216 94.6919 142.209L120.157 141.317C120.259 141.304 120.361 141.35 120.437 141.422C120.513 141.493 120.557 141.591 120.559 141.695L121.057 163.058C121.153 167.176 117.959 170.642 113.939 170.783L102.293 171.191C102.209 171.194 102.123 171.196 102.038 171.196V171.194ZM95.5912 163.948C95.6335 165.77 96.3727 167.449 97.6733 168.676C98.9247 169.857 100.558 170.475 102.265 170.415L113.911 170.006C117.51 169.88 120.368 166.77 120.282 163.074L119.793 142.102L95.1002 142.967L95.5895 163.948H95.5912Z" fill="black"/>
<path d="M100.973 125.566C100.764 125.566 100.591 125.399 100.586 125.188C100.581 124.973 100.75 124.797 100.964 124.792L113.026 124.502C113.228 124.498 113.416 124.665 113.422 124.88C113.427 125.095 113.258 125.271 113.043 125.276L100.982 125.566H100.973Z" fill="white"/>
<path d="M101.579 164.617C101.368 164.617 101.195 164.448 101.192 164.237L100.926 147.887C100.922 147.672 101.093 147.496 101.306 147.492C101.503 147.492 101.697 147.66 101.7 147.872L101.966 164.223C101.97 164.438 101.799 164.614 101.586 164.617H101.579Z" fill="white"/>
<path d="M101.587 7.49493L96.3462 26.4308C100.783 26.1034 105.222 26.0788 109.659 25.6599L103.136 7.49316H101.586L101.587 7.49493Z" fill="black"/>
<path d="M165.967 55.5342H133.516C125.934 55.5342 119.786 61.6819 119.786 69.2639V78.2734H127.738V72.7716C127.738 66.895 132.101 62.1324 137.483 62.1324H160.518C165.9 62.1324 170.263 66.895 170.263 72.7716V78.2734H179.693V69.2639C179.693 61.6819 173.545 55.5342 165.963 55.5342H165.967Z" fill="black"/>
<path d="M222.41 291.006H72.7885C66.9945 291.006 62.3411 285.839 62.4977 279.577L67.167 92.7635C67.4064 83.1732 75.2753 75.5384 84.8691 75.5876L212.019 76.2388C222.042 76.2899 230.22 84.2785 230.509 94.2982L235.726 276.159C235.958 284.283 229.93 291.008 222.411 291.008L222.41 291.006Z" fill="white"/>
<path d="M222.41 291.394H72.7885C70.0359 291.394 67.4223 290.269 65.43 288.226C63.2388 285.98 62.0297 282.824 62.1124 279.568L66.7817 92.7547C67.0245 83.0571 75.0906 75.2004 84.7812 75.2004C84.8129 75.2004 84.8428 75.2004 84.8727 75.2004L212.022 75.8516C222.311 75.9044 230.602 84.0022 230.896 94.2876L236.113 276.147C236.233 280.343 234.687 284.41 231.871 287.309C229.312 289.943 225.953 291.394 222.411 291.394H222.41ZM84.7794 75.9748C75.5042 75.9748 67.7866 83.4918 67.5543 92.774L62.885 279.587C62.8093 282.636 63.9375 285.587 65.9844 287.685C67.8306 289.577 70.2471 290.621 72.7885 290.621H222.41C225.74 290.621 228.901 289.253 231.314 286.77C233.985 284.021 235.451 280.158 235.337 276.17L230.12 94.3105C229.837 84.4457 221.885 76.6771 212.015 76.6278L84.8657 75.9766C84.8375 75.9766 84.8058 75.9766 84.7777 75.9766L84.7794 75.9748Z" fill="black"/>
<path d="M85.5029 74.6671H214.094C215.776 74.6671 217.14 76.0329 217.14 77.7137V140.611C217.14 151.516 208.286 160.37 197.381 160.37H102.598C90.9607 160.37 81.5112 150.923 81.5112 139.284V78.657C81.5112 76.4553 83.2994 74.6671 85.5011 74.6671H85.5029Z" fill="black"/>
<path d="M101.799 200.739H196.55C202.534 200.739 207.392 205.597 207.392 211.581V290.607H94.0547V208.482C94.0547 204.208 97.5236 200.738 101.799 200.738V200.739Z" fill="black"/>
<path d="M106.76 206.502H190.756C196.74 206.502 201.598 211.359 201.598 217.343V290.793H99.0161V214.246C99.0161 209.972 102.485 206.502 106.76 206.502Z" fill="white"/>
<path d="M201.598 291.181H99.0161C98.8014 291.181 98.6289 291.008 98.6289 290.793V214.246C98.6289 209.763 102.276 206.115 106.76 206.115H190.756C196.948 206.115 201.985 211.152 201.985 217.343V290.793C201.985 291.008 201.811 291.181 201.598 291.181ZM99.4033 290.406H201.211V217.343C201.211 211.578 196.52 206.889 190.756 206.889H106.76C102.703 206.889 99.4033 210.189 99.4033 214.246V290.406Z" fill="black"/>
<path d="M250.753 274.76C250.535 279.104 246.589 282.481 241.893 282.326L239.975 282.263C228.376 282.263 218.972 273.561 218.972 262.829V208.278C218.972 203.758 222.931 200.095 227.815 200.095H240.818C244.57 200.095 247.754 202.672 248.222 206.116C251.231 228.247 251.941 251.174 250.753 274.762V274.76Z" fill="white"/>
<path d="M242.197 282.719C242.092 282.719 241.986 282.719 241.879 282.713L239.96 282.65C228.179 282.65 218.585 273.758 218.585 262.829V208.276C218.585 203.55 222.726 199.706 227.815 199.706H240.818C244.765 199.706 248.113 202.438 248.606 206.062C251.508 227.404 252.361 250.523 251.14 274.779C250.916 279.216 246.937 282.719 242.199 282.719H242.197ZM227.815 200.481C223.152 200.481 219.36 203.978 219.36 208.276V262.829C219.36 273.331 228.607 281.876 239.974 281.876L241.907 281.939C246.356 282.078 250.16 278.857 250.367 274.74C251.585 250.532 250.735 227.462 247.84 206.167C247.398 202.925 244.382 200.481 240.819 200.481H227.816H227.815Z" fill="black"/>
<path d="M250.175 222.201H219.907C217.482 222.201 215.63 220.483 216.01 218.584L219.467 201.304C219.817 199.557 221.732 198.276 223.966 198.297L245.482 198.503C248.472 198.531 251.003 200.261 251.476 202.602L254.611 218.076C255.049 220.239 252.94 222.201 250.174 222.201H250.175Z" fill="black"/>
<path d="M49.6147 277.379C49.833 281.722 53.7789 285.1 58.4746 284.945L60.393 284.881C71.9914 284.881 81.395 276.18 81.395 265.448V210.896C81.395 206.377 77.4368 202.714 72.5528 202.714H59.5499C55.7976 202.714 52.6138 205.291 52.1456 208.735C49.136 230.865 48.4267 253.793 49.6147 277.38V277.379Z" fill="white"/>
<path d="M58.1702 285.337C53.4305 285.337 49.4511 281.835 49.2294 277.398C48.0079 253.142 48.8615 230.022 51.7638 208.681C52.2566 205.057 55.6041 202.325 59.5518 202.325H72.5546C77.6446 202.325 81.7841 206.169 81.7841 210.895V265.448C81.7841 276.377 72.1886 285.269 60.3948 285.269L58.4887 285.332C58.3831 285.336 58.2758 285.337 58.1702 285.337ZM59.55 203.1C55.9878 203.1 52.9711 205.544 52.5294 208.786C49.6342 230.08 48.7823 253.152 50.002 277.359C50.2097 281.476 54.006 284.691 58.4623 284.558L60.3807 284.494C71.7609 284.494 81.0079 275.95 81.0079 265.448V210.895C81.0079 206.597 77.2151 203.1 72.5529 203.1H59.55Z" fill="black"/>
<path d="M50.192 224.82H80.4605C82.8858 224.82 84.7373 223.102 84.3571 221.203L80.9005 203.923C80.5502 202.176 78.6354 200.894 76.4019 200.915L54.8859 201.121C51.8957 201.15 49.3648 202.88 48.8914 205.22L45.7568 220.694C45.3186 222.857 47.427 224.82 50.1938 224.82H50.192Z" fill="#87ED82"/>
<path d="M248.868 38.0748H160.879C157.638 38.0748 155.012 40.7008 155.012 43.9409C155.012 47.1811 157.638 49.807 160.879 49.807H248.868C252.108 49.807 254.734 47.1811 254.734 43.9409C254.734 40.7008 252.108 38.0748 248.868 38.0748Z" fill="white"/>
<path d="M248.868 50.1942H160.879C157.431 50.1942 154.625 47.3887 154.625 43.9409C154.625 40.4931 157.431 37.6876 160.879 37.6876H248.868C252.316 37.6876 255.121 40.4931 255.121 43.9409C255.121 47.3887 252.316 50.1942 248.868 50.1942ZM160.88 38.462C157.858 38.462 155.401 40.9207 155.401 43.9409C155.401 46.9611 157.86 49.4198 160.88 49.4198H248.87C251.892 49.4198 254.349 46.9611 254.349 43.9409C254.349 40.9207 251.89 38.462 248.87 38.462H160.88Z" fill="black"/>
<path d="M190.644 19.3889H142.047C139.039 19.3889 136.599 21.8283 136.599 24.8361C136.599 27.844 139.039 30.2833 142.047 30.2833H190.644C193.652 30.2833 196.091 27.844 196.091 24.8361C196.091 21.8283 193.652 19.3889 190.644 19.3889Z" fill="white"/>
<path d="M190.644 30.6705H142.047C138.829 30.6705 136.212 28.0534 136.212 24.8361C136.212 21.6188 138.829 19.0017 142.047 19.0017H190.644C193.861 19.0017 196.478 21.6188 196.478 24.8361C196.478 28.0534 193.861 30.6705 190.644 30.6705ZM142.047 19.7761C139.257 19.7761 136.987 22.0465 136.987 24.8361C136.987 27.6257 139.257 29.8961 142.047 29.8961H190.644C193.433 29.8961 195.704 27.6257 195.704 24.8361C195.704 22.0465 193.433 19.7761 190.644 19.7761H142.047Z" fill="black"/>
<path d="M212.48 26.5441C213.431 23.69 211.888 20.6053 209.034 19.6542C206.18 18.7031 203.095 20.2458 202.144 23.0999C201.193 25.954 202.736 29.0387 205.59 29.9898C208.444 30.9409 211.529 29.3982 212.48 26.5441Z" fill="white"/>
<path d="M207.332 30.6705C204.115 30.6705 201.498 28.0534 201.498 24.8361C201.498 21.6188 204.115 19.0017 207.332 19.0017C210.549 19.0017 213.166 21.6188 213.166 24.8361C213.166 28.0534 210.549 30.6705 207.332 30.6705ZM207.332 19.7761C204.542 19.7761 202.272 22.0465 202.272 24.8361C202.272 27.6257 204.542 29.8961 207.332 29.8961C210.122 29.8961 212.392 27.6257 212.392 24.8361C212.392 22.0465 210.122 19.7761 207.332 19.7761Z" fill="black"/>
<path d="M276.509 71.4093L275.761 68.676L272.67 68.8168C272.383 68.2149 272.052 67.6446 271.677 67.1096L273.314 64.4872L271.301 62.4949L268.694 64.1633C268.152 63.7902 267.578 63.4646 266.982 63.1865L267.089 60.0925L264.349 59.3744L262.927 62.12C262.277 62.0689 261.617 62.0742 260.954 62.1341L259.5 59.4008L256.769 60.1488L256.909 63.2411C256.307 63.528 255.737 63.8589 255.204 64.2355L252.583 62.5987L250.591 64.6139L252.258 67.2222C251.886 67.7661 251.559 68.3381 251.281 68.9347L248.189 68.8273L247.47 71.5694L250.214 72.9915C250.163 73.6427 250.169 74.3027 250.228 74.9662L247.497 76.42L248.245 79.1533L251.335 79.0125C251.622 79.6144 251.953 80.1846 252.328 80.7197L250.691 83.3421L252.705 85.3344L255.311 83.6659C255.853 84.039 256.427 84.3646 257.024 84.6427L256.916 87.7368L259.657 88.4549L261.079 85.7093C261.728 85.7603 262.388 85.755 263.052 85.6952L264.505 88.4285L267.237 87.6805L267.096 84.5881C267.698 84.3013 268.268 83.9704 268.802 83.5937L271.422 85.2305L273.415 83.2153L271.748 80.607C272.119 80.0632 272.447 79.4912 272.725 78.8928L275.817 79.0001L276.535 76.2581L273.791 74.836C273.842 74.1848 273.837 73.5248 273.777 72.8613L276.509 71.4075V71.4093ZM263.928 80.952C260.044 82.0168 256.035 79.7288 254.97 75.841C253.907 71.9549 256.193 67.9403 260.077 66.8773C263.962 65.8125 267.971 68.1005 269.036 71.9883C270.099 75.8744 267.813 79.8889 263.928 80.952Z" fill="black"/>
<path d="M114.04 315.924C106.734 315.924 99.3734 315.291 92.0026 314.025C91.7914 313.988 91.6506 313.789 91.6875 313.578C91.7245 313.367 91.9234 313.226 92.1346 313.261C107.161 315.843 122.155 315.776 136.698 313.063C136.907 313.026 137.11 313.163 137.15 313.372C137.189 313.582 137.052 313.784 136.84 313.825C129.339 315.224 121.72 315.924 114.04 315.924Z" fill="black"/>
<path d="M85.26 312.679C85.2318 312.679 85.2037 312.675 85.1738 312.67C83.1885 312.223 81.1733 311.721 79.1845 311.179C78.9786 311.123 78.8571 310.91 78.9134 310.704C78.9698 310.498 79.181 310.377 79.3886 310.433C81.3651 310.972 83.3698 311.471 85.3445 311.915C85.5522 311.963 85.6842 312.168 85.6366 312.378C85.5962 312.557 85.436 312.681 85.26 312.681V312.679Z" fill="black"/>
<path d="M113.17 309.822C98.784 309.822 84.3942 307.138 70.2561 301.804C70.0555 301.728 69.9552 301.505 70.0308 301.306C70.1065 301.105 70.33 301.005 70.5289 301.08C88.187 307.742 106.234 310.245 124.172 308.522C124.388 308.502 124.573 308.657 124.594 308.87C124.615 309.083 124.459 309.271 124.246 309.293C120.557 309.648 116.863 309.824 113.168 309.824L113.17 309.822Z" fill="black"/>
<path d="M294.843 74.5103C294.771 74.5103 294.699 74.491 294.635 74.4487C294.456 74.3326 294.403 74.0932 294.517 73.9137C301.77 62.5652 304.808 54.3794 297.553 48.6348C297.386 48.5028 297.358 48.2582 297.49 48.091C297.624 47.9238 297.866 47.8956 298.034 48.0276C305.721 54.1137 302.448 62.9436 295.17 74.3308C295.096 74.447 294.971 74.5103 294.843 74.5103Z" fill="black"/>
<path d="M289.918 81.89C289.843 81.89 289.767 81.8689 289.7 81.8231C289.524 81.7017 289.478 81.4623 289.6 81.2846C290.526 79.9294 291.611 78.3366 292.645 76.7807C292.762 76.603 293.004 76.5555 293.181 76.6734C293.359 76.7913 293.408 77.0324 293.289 77.2102C292.252 78.7678 291.164 80.3659 290.239 81.7211C290.163 81.8302 290.042 81.89 289.918 81.89Z" fill="black"/>
<path d="M297.919 36.6052C297.833 36.6052 297.745 36.5771 297.673 36.5172C295.274 34.5443 292.447 32.5731 289.267 30.66C289.084 30.5491 289.024 30.3115 289.135 30.1284C289.246 29.9454 289.484 29.8856 289.667 29.9964C292.879 31.9289 295.737 33.923 298.164 35.9188C298.329 36.0544 298.352 36.299 298.217 36.4644C298.141 36.5577 298.03 36.6052 297.918 36.6052H297.919Z" fill="black"/>
<path d="M298.373 80.0825C298.284 80.0825 298.192 80.0509 298.118 79.9875C297.956 79.8467 297.94 79.6021 298.081 79.4419C312.175 63.2992 312.698 50.2259 299.727 38.3019C299.57 38.1576 299.56 37.9112 299.704 37.7545C299.848 37.5961 300.095 37.5873 300.251 37.7317C307.144 44.0677 310.255 50.6747 309.764 57.9294C309.305 64.7195 305.674 71.9232 298.664 79.9505C298.586 80.0385 298.479 80.0825 298.372 80.0825H298.373Z" fill="black"/>
<path d="M240.974 16.9443C240.877 16.9443 240.781 16.9091 240.707 16.837C240.552 16.6891 240.547 16.4445 240.694 16.2896L242.12 14.8024C242.268 14.6475 242.514 14.6422 242.667 14.7901C242.822 14.9379 242.827 15.1826 242.68 15.3374L241.254 16.8246C241.178 16.9038 241.076 16.9443 240.974 16.9443Z" fill="black"/>
<path d="M235.988 22.1487C235.892 22.1487 235.795 22.1135 235.721 22.0413C235.566 21.8935 235.561 21.6488 235.709 21.4939L237.134 20.0067C237.282 19.8519 237.528 19.8466 237.681 19.9944C237.836 20.1423 237.842 20.3869 237.694 20.5418L236.268 22.029C236.193 22.1082 236.09 22.1487 235.988 22.1487Z" fill="black"/>
<path d="M237.386 17.0236C237.287 17.0236 237.189 16.9866 237.115 16.9127L235.668 15.4889C235.515 15.3393 235.513 15.0929 235.663 14.9415C235.812 14.7884 236.059 14.7866 236.21 14.9362L237.657 16.3601C237.81 16.5097 237.812 16.756 237.662 16.9074C237.586 16.9848 237.486 17.0236 237.386 17.0236Z" fill="black"/>
<path d="M242.449 22.0061C242.351 22.0061 242.252 21.9692 242.178 21.8952L240.731 20.4714C240.578 20.3218 240.577 20.0754 240.728 19.924C240.878 19.7709 241.124 19.7692 241.275 19.9188L242.722 21.3426C242.875 21.4922 242.877 21.7386 242.726 21.89C242.65 21.9674 242.55 22.0061 242.449 22.0061Z" fill="black"/>
<path d="M161.292 302.434H295.876C299.577 302.434 302.58 299.438 302.578 295.744L302.569 108.556C302.472 103.543 300.052 100.668 295.874 100.668H161.29C157.964 100.668 155.127 103.088 154.595 106.379L154.588 295.742C154.588 299.437 157.589 302.432 161.29 302.432L161.292 302.434Z" fill="black"/>
<path d="M155.727 302.608H290.328C294.031 302.608 297.032 299.607 297.032 295.904L297.023 108.338C296.927 103.315 294.507 100.458 290.327 100.458H155.722C152.394 100.458 149.558 102.887 149.025 106.187L149.02 295.906C149.02 299.609 152.021 302.61 155.724 302.61L155.727 302.608Z" fill="white"/>
<path d="M290.328 302.995H155.727C153.833 302.995 152.052 302.258 150.713 300.919C149.373 299.579 148.636 297.798 148.636 295.904L148.641 106.185C148.641 106.164 148.641 106.145 148.647 106.124C149.213 102.616 152.189 100.069 155.725 100.069H290.33C294.73 100.069 297.312 103.081 297.414 108.329L297.423 295.903C297.423 297.796 296.685 299.578 295.346 300.917C294.007 302.256 292.226 302.994 290.332 302.994L290.328 302.995ZM149.414 106.217L149.409 295.904C149.409 297.592 150.065 299.178 151.258 300.371C152.452 301.565 154.037 302.221 155.725 302.221H290.327C292.014 302.221 293.6 301.565 294.793 300.371C295.987 299.178 296.643 297.592 296.643 295.904L296.634 108.338C296.541 103.508 294.301 100.845 290.325 100.845H155.72C152.577 100.845 149.928 103.103 149.41 106.219L149.414 106.217Z" fill="black"/>
<path d="M255.121 94.5692H194.715C192.49 94.5692 190.686 96.3729 190.686 98.5979V110.906C190.686 113.13 192.49 114.934 194.715 114.934H255.121C257.346 114.934 259.15 113.13 259.15 110.906V98.5979C259.15 96.3729 257.346 94.5692 255.121 94.5692Z" fill="white"/>
<path d="M255.121 115.32H194.715C192.279 115.32 190.299 113.338 190.299 110.904V98.5979C190.299 96.162 192.281 94.182 194.715 94.182H255.121C257.557 94.182 259.537 96.1638 259.537 98.5979V110.904C259.537 113.34 257.555 115.32 255.121 115.32ZM194.715 94.9564C192.707 94.9564 191.073 96.5897 191.073 98.5979V110.904C191.073 112.912 192.707 114.545 194.715 114.545H255.121C257.13 114.545 258.763 112.912 258.763 110.904V98.5979C258.763 96.5897 257.13 94.9564 255.121 94.9564H194.715Z" fill="black"/>
<path d="M224.885 78.0745C218.411 78.0745 213.188 83.3228 213.188 89.7961V107.364C213.188 108.943 214.467 110.224 216.048 110.224H233.722C235.3 110.224 236.582 108.945 236.582 107.364V89.7961C236.582 83.3228 231.36 78.0745 224.885 78.0745ZM225.538 94.1292C222.422 94.5217 219.804 91.9028 220.196 88.7876C220.464 86.665 222.178 84.9508 224.3 84.685C227.416 84.2925 230.034 86.9114 229.642 90.0266C229.374 92.1492 227.66 93.8634 225.538 94.1309V94.1292Z" fill="white"/>
<path d="M233.722 110.612H216.048C214.258 110.612 212.801 109.154 212.801 107.364V89.7961C212.801 83.1186 218.221 77.6873 224.885 77.6873C231.548 77.6873 236.969 83.1186 236.969 89.7961V107.364C236.969 109.154 235.513 110.612 233.722 110.612ZM224.885 78.4616C218.649 78.4616 213.575 83.5463 213.575 89.7961V107.364C213.575 108.728 214.684 109.837 216.048 109.837H233.722C235.086 109.837 236.194 108.728 236.194 107.364V89.7961C236.194 83.5463 231.122 78.4616 224.885 78.4616ZM224.92 94.5551C223.554 94.5551 222.253 94.0236 221.277 93.0468C220.143 91.9133 219.608 90.3417 219.811 88.7383C220.099 86.4538 221.967 84.5865 224.251 84.2996C225.854 84.0972 227.426 84.6322 228.56 85.7656C229.693 86.8991 230.228 88.469 230.026 90.0741C229.739 92.3586 227.871 94.226 225.587 94.5146C225.363 94.5428 225.142 94.5569 224.922 94.5569L224.92 94.5551ZM224.915 85.0317C224.726 85.0317 224.538 85.0441 224.348 85.0669C222.408 85.3116 220.824 86.8956 220.58 88.8351C220.407 90.2008 220.861 91.5349 221.824 92.4994C222.787 93.4639 224.123 93.9162 225.488 93.7455C227.428 93.5009 229.012 91.9169 229.257 89.9773C229.429 88.6116 228.975 87.2775 228.012 86.313C227.183 85.4841 226.078 85.0317 224.915 85.0317Z" fill="black"/>
<path d="M276.211 136.892H266.839C264.676 136.892 262.918 135.132 262.918 132.971V123.599C262.918 121.436 264.678 119.677 266.839 119.677H276.211C278.375 119.677 280.133 121.437 280.133 123.599V132.971C280.133 135.134 278.373 136.892 276.211 136.892ZM266.841 120.452C265.106 120.452 263.694 121.863 263.694 123.599V132.971C263.694 134.706 265.106 136.118 266.841 136.118H276.213C277.949 136.118 279.36 134.706 279.36 132.971V123.599C279.36 121.863 277.949 120.452 276.213 120.452H266.841Z" fill="black"/>
<path d="M270.296 133.192C270.236 133.192 270.175 133.187 270.113 133.175C269.758 133.108 269.467 132.853 269.356 132.511L267.39 127.384C267.313 127.185 267.413 126.96 267.614 126.884C267.813 126.809 268.038 126.907 268.114 127.108L270.087 132.254C270.129 132.381 270.221 132.409 270.257 132.416C270.293 132.423 270.379 132.43 270.451 132.356L275.884 123.685C275.997 123.504 276.236 123.449 276.417 123.562C276.599 123.674 276.653 123.914 276.541 124.095L271.092 132.793C271.083 132.807 271.072 132.821 271.062 132.833C270.872 133.064 270.59 133.194 270.298 133.194L270.296 133.192Z" fill="black"/>
<path d="M276.211 161.646H266.839C264.676 161.646 262.918 159.888 262.918 157.725V148.353C262.918 146.19 264.678 144.432 266.839 144.432H276.211C278.375 144.432 280.133 146.192 280.133 148.353V157.725C280.133 159.888 278.373 161.646 276.211 161.646ZM266.841 145.206C265.106 145.206 263.694 146.618 263.694 148.353V157.725C263.694 159.46 265.106 160.872 266.841 160.872H276.213C277.949 160.872 279.36 159.46 279.36 157.725V148.353C279.36 146.618 277.949 145.206 276.213 145.206H266.841Z" fill="black"/>
<path d="M270.296 157.945C270.236 157.945 270.175 157.94 270.113 157.927C269.758 157.861 269.467 157.607 269.356 157.264L267.39 152.137C267.313 151.936 267.413 151.713 267.614 151.637C267.813 151.56 268.038 151.66 268.114 151.861L270.087 157.007C270.129 157.134 270.221 157.162 270.257 157.169C270.293 157.176 270.379 157.183 270.451 157.109L275.884 148.437C275.997 148.256 276.236 148.202 276.417 148.314C276.599 148.427 276.653 148.666 276.541 148.848L271.092 157.545C271.083 157.56 271.072 157.574 271.062 157.586C270.872 157.817 270.59 157.947 270.298 157.947L270.296 157.945Z" fill="black"/>
<path d="M263.305 179.479C263.091 179.479 262.918 179.306 262.918 179.091V172.134C262.918 170.508 264.242 169.184 265.868 169.184H277.183C278.809 169.184 280.133 170.508 280.133 172.134V178.995C280.133 179.209 279.959 179.382 279.746 179.382C279.533 179.382 279.358 179.209 279.358 178.995V172.134C279.358 170.936 278.382 169.959 277.183 169.959H265.868C264.668 169.959 263.693 170.936 263.693 172.134V179.091C263.693 179.306 263.518 179.479 263.305 179.479Z" fill="black"/>
<path d="M230.74 131.63H166.442C164.907 131.63 163.659 130.382 163.659 128.847C163.659 127.312 164.907 126.064 166.442 126.064H230.74C232.275 126.064 233.523 127.312 233.523 128.847C233.523 130.382 232.275 131.63 230.74 131.63ZM166.442 126.837C165.335 126.837 164.434 127.738 164.434 128.845C164.434 129.952 165.335 130.853 166.442 130.853H230.74C231.847 130.853 232.748 129.952 232.748 128.845C232.748 127.738 231.847 126.837 230.74 126.837H166.442Z" fill="black"/>
<path d="M190.649 156.384H166.442C164.907 156.384 163.659 155.136 163.659 153.601C163.659 152.067 164.907 150.819 166.442 150.819H190.649C192.184 150.819 193.432 152.067 193.432 153.601C193.432 155.136 192.184 156.384 190.649 156.384ZM166.442 151.591C165.335 151.591 164.434 152.493 164.434 153.6C164.434 154.707 165.335 155.608 166.442 155.608H190.649C191.756 155.608 192.657 154.707 192.657 153.6C192.657 152.493 191.756 151.591 190.649 151.591H166.442Z" fill="black"/>
<path d="M244.062 156.384H203.986C202.452 156.384 201.204 155.136 201.204 153.601C201.204 152.067 202.452 150.819 203.986 150.819H244.062C245.596 150.819 246.844 152.067 246.844 153.601C246.844 155.136 245.596 156.384 244.062 156.384ZM203.986 151.591C202.879 151.591 201.978 152.493 201.978 153.6C201.978 154.707 202.879 155.608 203.986 155.608H244.062C245.169 155.608 246.07 154.707 246.07 153.6C246.07 152.493 245.169 151.591 244.062 151.591H203.986Z" fill="black"/>
<path d="M209.683 181.137H166.442C164.907 181.137 163.659 179.889 163.659 178.354C163.659 176.819 164.907 175.572 166.442 175.572H209.683C211.218 175.572 212.466 176.819 212.466 178.354C212.466 179.889 211.218 181.137 209.683 181.137ZM166.442 176.346C165.335 176.346 164.434 177.247 164.434 178.354C164.434 179.461 165.335 180.362 166.442 180.362H209.683C210.79 180.362 211.692 179.461 211.692 178.354C211.692 177.247 210.79 176.346 209.683 176.346H166.442Z" fill="black"/>
<path d="M219.339 205.921H166.442C164.907 205.921 163.659 204.673 163.659 203.138C163.659 201.604 164.907 200.356 166.442 200.356H219.339C220.874 200.356 222.121 201.604 222.121 203.138C222.121 204.673 220.874 205.921 219.339 205.921ZM166.442 201.128C165.335 201.128 164.434 202.03 164.434 203.137C164.434 204.244 165.335 205.145 166.442 205.145H219.339C220.446 205.145 221.347 204.244 221.347 203.137C221.347 202.03 220.446 201.128 219.339 201.128H166.442Z" fill="black"/>
<path d="M213.897 230.739H197.158C195.623 230.739 194.375 229.491 194.375 227.956C194.375 226.421 195.623 225.174 197.158 225.174H213.897C215.432 225.174 216.679 226.421 216.679 227.956C216.679 229.491 215.432 230.739 213.897 230.739ZM197.158 225.948C196.051 225.948 195.149 226.849 195.149 227.956C195.149 229.063 196.051 229.964 197.158 229.964H213.897C215.004 229.964 215.905 229.063 215.905 227.956C215.905 226.849 215.004 225.948 213.897 225.948H197.158Z" fill="black"/>
<path d="M261.008 307.918L261.417 314.419C261.438 314.599 261.316 314.764 261.158 314.773L257.986 314.969C257.849 314.977 257.731 314.866 257.712 314.713L256.665 308.629L261.006 307.916L261.008 307.918Z" fill="white"/>
<path d="M257.969 315.358C257.643 315.358 257.37 315.108 257.328 314.761L256.284 308.694C256.267 308.592 256.291 308.488 256.351 308.404C256.411 308.319 256.503 308.263 256.605 308.247L260.947 307.534C261.056 307.513 261.165 307.545 261.251 307.614C261.337 307.682 261.39 307.782 261.397 307.892L261.805 314.393C261.827 314.573 261.767 314.773 261.64 314.925C261.522 315.065 261.36 315.148 261.182 315.159L258.011 315.354C257.997 315.354 257.983 315.354 257.97 315.354L257.969 315.358ZM257.113 308.949L258.081 314.576L261.043 314.393L260.651 308.369L257.115 308.949H257.113Z" fill="black"/>
<path d="M261.917 312.765C262.128 313.52 262.571 315.646 262.758 316.926C262.874 317.728 262.367 318.489 261.591 318.698C259.396 319.291 254.15 319.266 249.783 319.458C249.484 319.472 248.933 319.326 248.688 318.601C247.858 316.142 252.448 315.382 256.985 312.883C257.075 312.834 257.182 312.839 257.265 312.897C257.318 312.934 257.383 312.98 257.462 313.029C258.251 313.531 259.563 313.532 260.364 313.05L261.269 312.506C261.517 312.357 261.837 312.485 261.917 312.765Z" fill="white"/>
<path d="M249.744 319.847C249.25 319.847 248.6 319.557 248.32 318.726C247.627 316.676 249.927 315.68 252.84 314.418C254.058 313.89 255.438 313.293 256.798 312.543C257.018 312.422 257.289 312.438 257.492 312.582C257.538 312.615 257.599 312.656 257.671 312.703C258.335 313.126 259.479 313.133 260.167 312.719L261.073 312.175C261.297 312.042 261.561 312.021 261.802 312.116C262.043 312.212 262.223 312.411 262.293 312.663C262.513 313.451 262.958 315.592 263.143 316.871C263.288 317.864 262.664 318.811 261.695 319.073C260.017 319.527 256.735 319.624 253.259 319.728C252.094 319.763 250.918 319.798 249.802 319.847C249.785 319.847 249.765 319.847 249.748 319.847H249.744ZM257.105 313.258C255.734 314.008 254.361 314.602 253.146 315.127C250.235 316.387 248.609 317.165 249.053 318.476C249.252 319.064 249.683 319.078 249.764 319.071C250.885 319.022 252.062 318.987 253.231 318.951C256.51 318.853 259.9 318.753 261.489 318.323C262.082 318.163 262.462 317.586 262.374 316.98C262.196 315.759 261.756 313.629 261.543 312.869C261.538 312.851 261.528 312.839 261.512 312.834C261.491 312.825 261.473 312.834 261.468 312.837L260.561 313.381C259.636 313.937 258.15 313.927 257.251 313.355C257.196 313.319 257.145 313.286 257.101 313.256L257.105 313.258Z" fill="black"/>
<path d="M262.89 317.505C262.893 317.528 262.897 317.542 262.899 317.549C263.015 318.351 262.253 318.844 261.524 319.187C259.361 320.203 250.63 319.62 250.292 319.597C250.285 319.597 250.279 319.597 250.272 319.597C250.163 319.597 249.054 319.597 248.736 318.909C248.695 318.823 248.673 318.703 248.657 318.591C248.632 318.406 248.644 318.219 248.685 318.038C248.718 317.89 248.864 317.797 249.009 317.836C250.63 318.251 254.414 318.388 258.196 317.971C260.709 317.695 261.802 317.146 262.385 316.797C262.543 316.702 262.747 316.794 262.782 316.977C262.812 317.13 262.849 317.315 262.886 317.505H262.89Z" fill="white"/>
<path d="M255.772 320.176C253.21 320.176 250.751 320.018 250.267 319.985C250.036 319.979 248.799 319.96 248.387 319.073C248.336 318.962 248.299 318.821 248.276 318.643C248.247 318.42 248.259 318.189 248.312 317.955C248.35 317.783 248.46 317.63 248.609 317.536C248.76 317.443 248.938 317.417 249.109 317.461C250.596 317.841 254.273 318.015 258.157 317.586C260.528 317.325 261.594 316.82 262.189 316.465C262.371 316.355 262.596 316.341 262.789 316.428C262.985 316.514 263.126 316.692 263.166 316.901L263.27 317.429L263.282 317.496C263.458 318.707 262.173 319.311 261.689 319.538C260.621 320.039 258.152 320.176 255.772 320.176ZM250.271 319.21C250.281 319.21 250.304 319.21 250.313 319.21C253.41 319.423 259.697 319.617 261.359 318.837C262.223 318.431 262.578 318.052 262.513 317.605L262.888 317.505L262.508 317.58L262.436 317.216C261.755 317.6 260.581 318.098 258.238 318.357C254.368 318.782 250.667 318.619 249.04 318.242C249.026 318.346 249.026 318.446 249.04 318.541C249.06 318.684 249.083 318.739 249.086 318.747C249.262 319.124 249.945 319.219 250.265 319.21H250.269H250.271Z" fill="black"/>
<path d="M256.672 315.255C256.591 315.255 256.508 315.229 256.438 315.176L255.112 314.168C254.942 314.037 254.91 313.795 255.038 313.626C255.167 313.457 255.41 313.421 255.581 313.552L256.906 314.56C257.077 314.69 257.108 314.933 256.98 315.102C256.904 315.203 256.788 315.255 256.672 315.255Z" fill="black"/>
<path d="M254.912 315.977C254.831 315.977 254.75 315.952 254.679 315.9L253.52 315.03C253.349 314.902 253.314 314.659 253.442 314.488C253.571 314.317 253.814 314.282 253.984 314.411L255.144 315.28C255.315 315.408 255.35 315.651 255.222 315.822C255.146 315.924 255.03 315.977 254.912 315.977Z" fill="black"/>
<path d="M270.243 248.953C270.243 248.953 272.76 253.99 273.606 259.296C274.395 264.237 277.294 284.579 284.356 300.894C285.157 302.744 284.233 304.669 282.264 305.097C281.475 305.267 281.146 304.988 280.463 304.657C280.111 304.486 279.529 303.981 279.529 303.981C279.529 303.981 267.024 293.53 261.925 266.109C258.646 248.472 259.192 249.871 259.192 249.871L270.243 248.953Z" fill="black"/>
<path d="M266.734 251.257C266.734 251.257 268.201 260.827 265.426 267.91C262.756 274.719 261.05 301.413 262.047 309.125C262.11 309.611 261.772 310.055 261.288 310.122C260.074 310.292 257.884 310.525 256.386 310.243C256.11 310.192 255.89 309.99 255.822 309.717C254.832 305.804 246.633 270.434 252.414 252.307L266.735 251.253L266.734 251.257Z" fill="black"/>
<path d="M264.027 276.196C263.819 276.196 263.647 276.03 263.639 275.821C263.634 275.664 263.541 271.949 265.076 268.378C265.6 267.156 265.674 265.944 265.623 264.386C265.616 264.173 265.783 263.994 265.998 263.987C266.216 263.966 266.39 264.147 266.397 264.36C266.452 265.979 266.367 267.332 265.788 268.682C264.322 272.097 264.414 275.759 264.416 275.796C264.423 276.009 264.254 276.189 264.041 276.196H264.028H264.027Z" fill="white"/>
<path d="M258.113 266.336C257.729 266.336 257.346 266.257 256.985 266.097L254.359 264.921C253.419 264.501 252.835 263.564 252.866 262.536L253.032 257.367C253.041 257.089 253.166 256.824 253.377 256.64C253.588 256.457 253.866 256.368 254.146 256.398C257.245 256.727 260.156 256.42 261.615 256.209C261.915 256.164 262.216 256.257 262.441 256.463C262.664 256.667 262.784 256.957 262.768 257.262L262.478 262.674C262.437 263.439 262.057 264.135 261.436 264.585L259.736 265.815C259.257 266.16 258.687 266.338 258.113 266.338V266.336ZM254.039 257.165C253.963 257.165 253.912 257.2 253.885 257.223C253.857 257.248 253.81 257.302 253.806 257.39L253.641 262.559C253.618 263.272 254.025 263.922 254.676 264.214L257.302 265.389C257.948 265.68 258.708 265.601 259.282 265.185L260.982 263.955C261.411 263.644 261.675 263.161 261.703 262.63L261.994 257.218C261.999 257.121 261.948 257.061 261.918 257.033C261.888 257.005 261.823 256.963 261.726 256.973C260.23 257.19 257.247 257.503 254.063 257.165C254.054 257.165 254.046 257.165 254.037 257.165H254.039Z" fill="white"/>
<path d="M271.371 265.115C271.213 265.115 271.054 265.078 270.906 265.004L268.015 263.534C267.705 263.376 267.497 263.077 267.46 262.732L266.807 256.711C266.749 256.165 267.128 255.672 267.668 255.588L271.19 255.042C271.401 255.011 271.598 255.155 271.632 255.366C271.665 255.577 271.519 255.774 271.308 255.808L267.786 256.354C267.654 256.375 267.561 256.494 267.577 256.628L268.229 262.649C268.238 262.734 268.289 262.806 268.365 262.844L271.257 264.314C271.339 264.356 271.438 264.349 271.514 264.295L273.253 263.068C273.427 262.945 273.67 262.987 273.793 263.161C273.916 263.335 273.874 263.578 273.7 263.702L271.961 264.928C271.785 265.053 271.577 265.117 271.369 265.117L271.371 265.115Z" fill="white"/>
<path d="M282.278 308.194C281.893 306.267 281.725 305.871 280.8 304.384C280.111 303.279 281.783 301.614 282.634 301.485C284.054 301.193 283.827 301.642 285.45 303.724L286.72 305.287C286.72 305.287 282.614 309.879 282.276 308.193L282.278 308.194Z" fill="white"/>
<path d="M282.651 308.948C282.582 308.948 282.517 308.939 282.456 308.923C282.289 308.877 281.991 308.731 281.9 308.268C281.562 306.582 281.458 306.14 280.785 305.019C280.676 304.836 280.736 304.599 280.919 304.488C281.102 304.379 281.34 304.439 281.451 304.622C282.185 305.848 282.317 306.397 282.66 308.117C282.67 308.173 282.685 308.193 282.685 308.193C283.051 308.281 284.679 306.945 286.213 305.275L285.217 304.06C284.744 303.453 284.452 302.981 284.193 302.55C284.082 302.367 284.142 302.129 284.327 302.019C284.51 301.908 284.747 301.967 284.858 302.151C285.105 302.562 285.383 303.009 285.823 303.574L287.023 305.039C287.144 305.187 287.139 305.399 287.012 305.542C286.069 306.596 283.836 308.944 282.653 308.944L282.651 308.948Z" fill="black"/>
<path d="M282.054 307.471L283.698 304.991C284.466 303.835 286.095 303.662 287.088 304.632L288.969 306.211C288.969 306.211 289.328 307.297 289.214 307.997C289.064 308.909 288.772 310.209 288.204 311.498C287.331 313.48 284.913 317.462 284.054 318.862C283.874 319.156 283.422 319.446 283.109 319.305C282.735 319.138 282.35 318.837 281.975 318.487C281.398 317.945 281.591 315.41 281.797 313.647C281.929 312.515 281.831 309.629 281.783 308.439C281.769 308.096 281.864 307.758 282.054 307.471Z" fill="white"/>
<path d="M283.288 319.729C283.174 319.729 283.059 319.708 282.95 319.659C282.575 319.492 282.169 319.2 281.711 318.77C281.361 318.443 280.951 317.55 281.414 313.603C281.544 312.498 281.445 309.636 281.396 308.457C281.379 308.029 281.495 307.615 281.731 307.26L283.374 304.78C283.804 304.132 284.494 303.713 285.266 303.632C286.039 303.55 286.801 303.815 287.357 304.359L289.216 305.919C289.27 305.964 289.313 306.026 289.334 306.093C289.374 306.213 289.719 307.291 289.594 308.062C289.448 308.96 289.149 310.313 288.558 311.656C287.688 313.627 285.349 317.496 284.383 319.068C284.184 319.391 283.737 319.733 283.288 319.733V319.729ZM285.541 304.387C285.478 304.387 285.413 304.391 285.349 304.398C284.807 304.454 284.323 304.748 284.02 305.204L282.377 307.684C282.23 307.904 282.16 308.159 282.171 308.421C282.22 309.618 282.318 312.529 282.183 313.691C281.734 317.514 282.151 318.121 282.241 318.203C282.63 318.57 282.975 318.819 283.267 318.95C283.337 318.98 283.605 318.851 283.725 318.658C284.682 317.1 287.002 313.268 287.85 311.339C288.408 310.07 288.693 308.787 288.832 307.932C288.904 307.485 288.735 306.774 288.633 306.433L286.838 304.926C286.476 304.572 286.016 304.386 285.541 304.386V304.387Z" fill="black"/>
<path d="M281.857 310.685C281.687 310.685 281.532 310.572 281.484 310.4C281.428 310.194 281.549 309.981 281.755 309.924L283.524 309.439C283.732 309.382 283.943 309.504 283.999 309.71C284.056 309.916 283.934 310.129 283.728 310.185L281.959 310.671C281.924 310.679 281.891 310.685 281.857 310.685Z" fill="black"/>
<path d="M281.989 312.263C281.819 312.263 281.664 312.151 281.616 311.978C281.56 311.772 281.681 311.559 281.887 311.503L283.656 311.017C283.864 310.961 284.075 311.082 284.131 311.288C284.188 311.494 284.066 311.707 283.86 311.764L282.092 312.249C282.056 312.258 282.023 312.263 281.989 312.263Z" fill="black"/>
<path d="M283.794 319.434C283.614 319.434 283.442 319.406 283.287 319.351C282.759 319.17 281.437 318.775 281.585 316.882C281.738 314.918 283.23 313.918 284.322 312.63C285.154 311.646 285.07 307.534 285.332 306.728C285.8 305.285 287.908 305.067 288.97 306.211C289.638 306.932 289.718 308.501 289.653 309.655C289.531 311.815 288.26 316.113 286.657 318.189C285.874 319.201 284.666 319.435 283.795 319.435L283.794 319.434Z" fill="white"/>
<path d="M283.793 319.821C283.572 319.821 283.359 319.786 283.16 319.717L283.114 319.701C282.544 319.508 281.032 318.99 281.197 316.85C281.326 315.201 282.301 314.194 283.244 313.219C283.508 312.946 283.781 312.665 284.026 312.376C284.494 311.823 284.647 309.771 284.749 308.413C284.819 307.462 284.865 306.91 284.964 306.605C285.205 305.864 285.816 305.334 286.639 305.153C287.588 304.945 288.614 305.253 289.255 305.943C290.031 306.781 290.11 308.434 290.041 309.671C289.923 311.769 288.665 316.22 286.965 318.42C286.025 319.634 284.577 319.816 283.797 319.816L283.793 319.821ZM287.239 305.866C287.093 305.866 286.949 305.882 286.805 305.913C286.256 306.035 285.853 306.375 285.699 306.848C285.626 307.079 285.574 307.756 285.52 308.474C285.365 310.547 285.2 312.19 284.615 312.879C284.355 313.187 284.073 313.48 283.8 313.761C282.913 314.676 282.077 315.541 281.97 316.912C281.859 318.334 282.632 318.719 283.364 318.969L283.413 318.985C283.531 319.025 283.66 319.047 283.795 319.047C284.434 319.047 285.615 318.904 286.351 317.952C287.961 315.868 289.154 311.632 289.267 309.632C289.353 308.115 289.14 306.964 288.686 306.475C288.325 306.086 287.789 305.868 287.241 305.868L287.239 305.866Z" fill="black"/>
<path d="M283.793 319.821C283.258 319.821 282.769 319.613 282.452 319.249C282.167 318.922 282.044 318.494 282.106 318.043C282.396 315.94 283.529 314.852 284.728 313.703C285.583 312.883 285.828 309.736 285.934 308.393C285.979 307.818 286 307.555 286.039 307.411C286.226 306.728 287.058 306.118 287.935 306.021C288.751 305.933 289.441 306.301 289.828 307.033C289.929 307.221 289.857 307.457 289.667 307.555C289.478 307.656 289.244 307.584 289.144 307.394C288.843 306.825 288.366 306.749 288.019 306.79C287.424 306.855 286.877 307.279 286.785 307.614C286.764 307.698 286.734 308.082 286.704 308.451C286.525 310.766 286.249 313.314 285.263 314.259C284.116 315.359 283.125 316.31 282.871 318.147C282.84 318.374 282.896 318.578 283.033 318.737C283.202 318.93 283.478 319.043 283.79 319.043C283.978 319.043 284.167 319.031 284.348 319.008C284.559 318.985 284.754 319.129 284.781 319.342C284.809 319.555 284.658 319.749 284.446 319.775C284.232 319.803 284.01 319.817 283.788 319.817L283.793 319.821Z" fill="black"/>
<path d="M272.723 209.286C272.723 209.286 274.627 203.478 274.722 201.574C274.817 199.669 272.913 190.911 272.151 188.055C272.151 188.055 272.864 182.708 268.789 181.768C268.506 181.703 268.323 181.48 268.219 181.207C267.881 180.315 267.751 179.714 267.424 178.637C267.153 177.741 265.848 178.122 265.956 179.153C265.996 179.542 266.401 182.814 266.566 184.134C266.588 184.308 266.505 184.549 266.39 184.681C266.119 184.994 265.834 185.646 266.397 186.812C267.267 188.615 267.64 188.092 268.571 189.583C269.504 191.075 269.789 196.434 269.852 199.294C269.914 202.154 268.733 204.578 268.112 205.636C267.49 206.692 272.719 209.286 272.719 209.286H272.723Z" fill="white"/>
<path d="M272.723 209.673C272.663 209.673 272.605 209.659 272.55 209.633C271.809 209.267 268.098 207.369 267.714 206.086C267.626 205.792 267.702 205.572 267.779 205.44C268.307 204.543 269.529 202.149 269.467 199.305C269.384 195.519 269.02 191.031 268.245 189.79C267.86 189.173 267.594 188.942 267.313 188.697C266.947 188.381 266.568 188.051 266.051 186.981C265.378 185.589 265.792 184.785 266.098 184.429C266.148 184.371 266.19 184.238 266.183 184.183C266.012 182.819 265.613 179.584 265.57 179.195C265.488 178.407 266.005 177.882 266.558 177.77C267.116 177.657 267.624 177.968 267.793 178.525C267.901 178.878 267.987 179.181 268.066 179.461C268.228 180.033 268.358 180.485 268.58 181.07C268.65 181.254 268.749 181.362 268.876 181.39C272.955 182.332 272.612 187.325 272.542 188.023C273.263 190.758 275.206 199.59 275.106 201.591C275.009 203.525 273.166 209.164 273.087 209.404C273.052 209.511 272.973 209.597 272.869 209.64C272.821 209.661 272.77 209.67 272.719 209.67L272.723 209.673ZM266.788 178.523C266.762 178.523 266.737 178.526 266.714 178.532C266.51 178.572 266.308 178.773 266.345 179.116C266.383 179.493 266.788 182.763 266.954 184.088C266.989 184.364 266.878 184.715 266.686 184.936C266.366 185.308 266.387 185.899 266.748 186.647C267.195 187.573 267.483 187.823 267.82 188.113C268.117 188.372 268.455 188.664 268.902 189.38C269.953 191.063 270.189 196.871 270.241 199.289C270.308 202.332 269.009 204.881 268.448 205.835C268.402 206.253 270.284 207.598 272.492 208.739C272.931 207.366 274.258 203.094 274.335 201.558C274.427 199.74 272.566 191.114 271.778 188.157C271.765 188.108 271.762 188.057 271.769 188.006C271.795 187.802 272.383 182.995 268.705 182.148C268.321 182.06 268.022 181.775 267.86 181.348C267.626 180.732 267.487 180.242 267.327 179.677C267.249 179.403 267.163 179.104 267.057 178.753C267.003 178.572 266.892 178.525 266.79 178.525L266.788 178.523Z" fill="black"/>
<path d="M269.724 203.202C269.013 203.047 268.288 203.411 267.943 204.052C267.244 205.356 262.261 210.782 261.522 211.368C260.602 212.097 257.965 216.498 252.282 216.379C251.948 216.372 251.622 216.488 251.365 216.701C250.71 217.241 249.183 218.306 246.532 219.107C244.924 219.592 243.649 221.124 243.501 224.626C243.325 228.788 238.999 236.934 240.26 240.051C242.454 245.477 245.965 243.949 249.285 242.851C249.285 242.851 249.512 242.851 249.317 247.731C249.016 255.194 248.832 255.51 259.16 254.824C266.918 254.308 274.015 253.21 274.089 251.579C274.143 250.384 272.075 243.898 271.642 236.105C271.209 228.311 272.573 216.405 273.439 213.376C274.213 210.664 273.203 203.958 269.722 203.202H269.724Z" fill="white"/>
<path d="M253.984 255.456C251.865 255.456 250.573 255.204 249.799 254.449C248.702 253.379 248.778 251.496 248.917 248.075L248.931 247.715C249.038 245.026 249.016 243.859 248.982 243.361L248.88 243.395C245.71 244.463 242.116 245.674 239.902 240.197C239.117 238.255 240.247 234.818 241.442 231.18C242.231 228.781 243.046 226.302 243.116 224.61C243.253 221.335 244.366 219.358 246.421 218.735C248.991 217.957 250.468 216.938 251.121 216.402C251.453 216.129 251.872 215.99 252.293 215.991C256.775 216.085 259.245 213.304 260.568 211.808C260.873 211.465 261.093 211.217 261.283 211.065C261.992 210.504 266.938 205.111 267.601 203.87C268.032 203.066 268.939 202.637 269.805 202.823C270.887 203.059 271.808 203.802 272.543 205.032C274.011 207.485 274.39 211.456 273.81 213.483C272.962 216.454 271.595 228.31 272.028 236.085C272.314 241.258 273.342 245.919 273.955 248.701C274.291 250.229 274.495 251.149 274.474 251.598C274.375 253.752 266.105 254.752 259.183 255.211C257.052 255.352 255.345 255.458 253.981 255.458L253.984 255.456ZM249.287 242.464C249.392 242.464 249.498 242.509 249.57 242.585C249.7 242.721 249.897 242.927 249.704 247.745L249.69 248.104C249.559 251.304 249.489 253.066 250.337 253.895C251.321 254.854 253.651 254.801 259.134 254.437C270.588 253.677 273.671 252.223 273.701 251.561C273.717 251.214 273.488 250.18 273.2 248.867C272.582 246.059 271.545 241.362 271.255 236.126C270.818 228.276 272.207 216.28 273.068 213.269C273.603 211.398 273.209 207.647 271.882 205.428C271.26 204.39 270.507 203.767 269.643 203.578C269.111 203.462 268.553 203.731 268.286 204.233C267.561 205.588 262.59 211.014 261.765 211.669C261.628 211.778 261.406 212.028 261.149 212.318C259.841 213.795 257.126 216.854 252.277 216.762C252.039 216.748 251.803 216.84 251.613 216.996C250.916 217.572 249.346 218.658 246.647 219.475C244.941 219.99 244.014 221.729 243.89 224.64C243.815 226.439 243.021 228.859 242.178 231.42C241.078 234.765 239.943 238.226 240.62 239.905C242.562 244.704 245.51 243.711 248.634 242.659L249.165 242.481C249.204 242.469 249.246 242.462 249.287 242.462V242.464Z" fill="black"/>
<path d="M248.693 243.787C248.533 243.787 248.384 243.689 248.329 243.529C248.259 243.328 248.363 243.11 248.56 243.036C248.613 243.015 251.342 241.827 250.886 234.208C250.874 233.995 251.036 233.812 251.249 233.797C251.458 233.783 251.645 233.947 251.659 234.16C252.157 242.485 248.957 243.713 248.822 243.763C248.78 243.778 248.736 243.785 248.693 243.785V243.787Z" fill="black"/>
<path d="M258.669 200.035C258.865 200.713 259.241 202.373 259.648 202.895C260.648 204.18 261.522 208.288 259.944 211.102C259.046 212.702 258.958 213.982 259.028 214.738C259.074 215.238 258.838 215.721 258.418 215.997L258.4 216.009C257.386 216.674 256.226 217.086 255.019 217.204L254.667 217.239C254.097 217.296 253.553 216.989 253.303 216.474C252.543 214.907 250.888 211.669 249.822 210.847C248.4 209.751 240.27 200.567 245.684 197.71C255.084 192.751 258.064 197.934 258.671 200.037L258.669 200.035Z" fill="white"/>
<path d="M254.535 217.632C253.87 217.632 253.25 217.25 252.955 216.643C251.55 213.749 250.29 211.697 249.584 211.153C248.604 210.398 243.116 204.481 243.473 200.335C243.586 199.016 244.269 198.017 245.501 197.367C249.545 195.234 252.884 194.699 255.426 195.78C257.983 196.867 258.84 199.231 259.041 199.93C259.079 200.064 259.125 200.234 259.176 200.428C259.363 201.128 259.674 202.3 259.952 202.66C261.012 204.02 261.941 208.332 260.28 211.292C259.442 212.787 259.345 213.973 259.412 214.705C259.47 215.347 259.171 215.967 258.629 216.322C257.55 217.032 256.321 217.466 255.056 217.591L254.702 217.627C254.646 217.632 254.588 217.635 254.532 217.635L254.535 217.632ZM252.601 196.008C250.697 196.008 248.442 196.691 245.864 198.052C244.866 198.578 244.336 199.347 244.246 200.4C243.936 203.997 248.817 209.583 250.058 210.539C251.165 211.393 252.784 214.517 253.652 216.303C253.831 216.671 254.222 216.891 254.63 216.852L254.984 216.817C256.123 216.704 257.231 216.312 258.189 215.684C258.509 215.474 258.676 215.129 258.643 214.772C258.567 213.931 258.671 212.579 259.607 210.91C261.088 208.27 260.267 204.317 259.343 203.131C258.997 202.686 258.713 201.69 258.43 200.623C258.381 200.437 258.337 200.269 258.298 200.141C258.12 199.525 257.365 197.443 255.123 196.489C254.366 196.167 253.525 196.007 252.601 196.007V196.008Z" fill="black"/>
<path d="M258.398 206.998H258.388C257.305 206.971 256.606 205.722 256.476 204.502C256.362 203.437 256.687 202.681 257.323 202.526C258.02 202.355 258.467 203.154 258.516 203.246C258.616 203.434 258.544 203.668 258.356 203.77C258.168 203.87 257.934 203.8 257.833 203.612C257.728 203.418 257.56 203.272 257.506 203.279C257.326 203.323 257.175 203.772 257.245 204.421C257.339 205.296 257.8 206.211 258.407 206.225C258.622 206.23 258.791 206.408 258.784 206.621C258.778 206.832 258.606 207 258.396 207L258.398 206.998Z" fill="black"/>
<path d="M260.721 201.105C260.721 201.105 260.422 193.541 255.447 192.538C250.471 191.535 244.5 193.177 242.879 195.384C241.256 197.591 242.667 201.274 242.667 201.274C242.667 201.274 240.74 204.764 243.289 206.357C245.837 207.95 248.38 212.063 251.034 210.711C253.688 209.36 255.133 207.816 255.017 205.111C254.864 201.524 260.721 201.105 260.721 201.105Z" fill="black"/>
<path d="M153.008 299.359L151.33 311.125L147.043 311.142L146.841 299.569L153.008 299.359Z" fill="white"/>
<path d="M147.043 311.53C146.832 311.53 146.659 311.361 146.656 311.15L146.453 299.578C146.45 299.366 146.617 299.19 146.827 299.183L152.994 298.974C153.113 298.963 153.219 299.016 153.295 299.102C153.37 299.187 153.405 299.303 153.39 299.416L151.714 311.183C151.688 311.373 151.524 311.516 151.332 311.516L147.045 311.531L147.043 311.53ZM147.235 299.944L147.423 310.754L150.994 310.739L152.559 299.762L147.235 299.944Z" fill="black"/>
<path d="M151.475 322.375C149.792 322.554 147.288 322.626 143.938 322.333C142.742 322.227 141.897 321.118 142.09 319.932C142.61 316.737 144.062 311.105 146.348 308.52L147.478 310.13L148.148 308.467C148.256 308.288 151.098 308.168 151.158 308.506L151.33 310.13L152.944 308.323L152.856 314.259C152.846 314.914 152.909 315.569 153.041 316.211L153.465 318.263C153.72 319.499 153.405 320.807 152.541 321.727C152.203 322.088 151.828 322.338 151.476 322.375H151.475Z" fill="white"/>
<path d="M148.221 322.919C147.015 322.919 145.581 322.864 143.905 322.718C143.224 322.658 142.617 322.327 142.196 321.785C141.775 321.245 141.598 320.546 141.709 319.869C141.846 319.029 143.127 311.575 146.059 308.263C146.138 308.175 146.255 308.131 146.371 308.133C146.489 308.14 146.598 308.2 146.666 308.297L147.386 309.323L147.791 308.319C147.798 308.3 147.809 308.282 147.817 308.265C148.118 307.763 150.665 307.927 150.915 307.973C151.068 308.001 151.477 308.077 151.54 308.436L151.623 309.219L152.654 308.062C152.761 307.941 152.934 307.902 153.083 307.96C153.235 308.018 153.332 308.165 153.33 308.326L153.242 314.263C153.233 314.889 153.291 315.518 153.418 316.132L153.842 318.184C154.131 319.58 153.749 321.002 152.821 321.991C152.392 322.449 151.941 322.714 151.515 322.76C150.725 322.845 149.63 322.919 148.219 322.919H148.221ZM146.323 309.159C144.243 311.866 142.932 317.17 142.472 319.994C142.397 320.46 142.518 320.939 142.807 321.31C143.094 321.68 143.509 321.905 143.972 321.945C147.546 322.259 150.003 322.142 151.434 321.989C151.667 321.965 151.966 321.771 152.258 321.461C153.013 320.657 153.323 319.49 153.085 318.341L152.661 316.289C152.524 315.62 152.459 314.935 152.469 314.252L152.541 309.354L151.619 310.387C151.517 310.502 151.357 310.544 151.211 310.498C151.065 310.451 150.961 310.322 150.945 310.171L150.794 308.738C150.326 308.642 148.91 308.673 148.446 308.766L147.839 310.275C147.786 310.407 147.664 310.498 147.524 310.514C147.379 310.532 147.244 310.468 147.163 310.352L146.325 309.159H146.323Z" fill="black"/>
<path d="M148.411 320.819C147.231 320.819 145.769 320.729 144.113 320.437C143.901 320.4 143.761 320.199 143.798 319.988C143.835 319.777 144.033 319.638 144.246 319.673C148.374 320.4 151.327 319.821 151.357 319.816C151.566 319.777 151.77 319.909 151.813 320.119C151.855 320.328 151.719 320.532 151.51 320.574C151.433 320.59 150.278 320.817 148.411 320.817V320.819Z" fill="black"/>
<path d="M149.78 316.308H145.89C145.676 316.308 145.503 316.136 145.503 315.921C145.503 315.706 145.676 315.534 145.89 315.534H149.78C149.993 315.534 150.167 315.706 150.167 315.921C150.167 316.136 149.993 316.308 149.78 316.308Z" fill="black"/>
<path d="M183.785 300.41L185.295 314.124L191.063 315.331L190.712 299.25L183.785 300.41Z" fill="white"/>
<path d="M191.062 315.718C191.036 315.718 191.01 315.715 190.983 315.71L185.214 314.502C185.05 314.467 184.927 314.332 184.908 314.166L183.399 300.452C183.377 300.248 183.517 300.061 183.72 300.028L190.645 298.87C190.756 298.851 190.869 298.882 190.957 298.953C191.045 299.023 191.094 299.13 191.098 299.243L191.45 315.324C191.451 315.442 191.4 315.555 191.311 315.63C191.24 315.689 191.152 315.72 191.062 315.72V315.718ZM185.649 313.802L190.665 314.853L190.334 299.706L184.209 300.73L185.647 313.802H185.649Z" fill="black"/>
<path d="M182.854 320.664C182.727 318.26 182.724 313.835 184.188 311.702L188.803 313.346V312.36C188.803 312.044 189.03 311.781 189.318 311.764L191.891 311.616C192.852 311.561 193.808 311.76 194.686 312.191C197.273 313.464 205.146 316.727 206.237 320.395C206.559 321.477 205.713 322.56 204.584 322.591C201.994 322.665 195.765 322.746 184.587 322.364C183.656 322.333 182.903 321.595 182.854 320.664Z" fill="white"/>
<path d="M199.417 323.04C195.983 323.04 191.131 322.975 184.575 322.75C183.435 322.711 182.528 321.822 182.468 320.683C182.338 318.2 182.345 313.703 183.869 311.482C183.97 311.338 184.154 311.278 184.318 311.336L188.415 312.795V312.359C188.415 311.836 188.803 311.405 189.295 311.376L191.869 311.229C192.886 311.169 193.921 311.382 194.857 311.843C195.165 311.994 195.549 312.174 195.987 312.38C199.345 313.955 205.598 316.887 206.609 320.284C206.792 320.896 206.677 321.551 206.295 322.079C205.901 322.623 205.266 322.959 204.597 322.978C203.486 323.01 201.791 323.042 199.419 323.042L199.417 323.04ZM184.35 312.17C183.113 314.289 183.121 318.351 183.241 320.643C183.28 321.379 183.864 321.951 184.6 321.977C195.667 322.355 201.864 322.281 204.572 322.202C205.003 322.19 205.412 321.973 205.665 321.623C205.905 321.292 205.977 320.884 205.864 320.504C204.952 317.441 198.674 314.497 195.656 313.08C195.213 312.872 194.825 312.689 194.514 312.536C193.697 312.135 192.796 311.95 191.913 312.001L189.339 312.149C189.258 312.154 189.188 312.249 189.188 312.359V313.344C189.188 313.471 189.126 313.589 189.024 313.661C188.92 313.733 188.79 313.751 188.671 313.708L184.348 312.168L184.35 312.17Z" fill="black"/>
<path d="M197.634 320.761C194.361 320.761 189.934 320.617 185.101 320.057C184.888 320.032 184.737 319.84 184.762 319.627C184.786 319.415 184.982 319.261 185.191 319.288C195.015 320.426 203.138 319.833 203.219 319.828C203.434 319.812 203.618 319.972 203.634 320.185C203.65 320.398 203.49 320.585 203.277 320.601C203.235 320.604 201.068 320.763 197.634 320.763V320.761Z" fill="black"/>
<path d="M196.203 316.836C196.126 316.836 196.047 316.811 195.978 316.764L191.536 313.57C191.362 313.445 191.323 313.203 191.448 313.029C191.573 312.857 191.814 312.816 191.988 312.941L196.431 316.136C196.605 316.261 196.643 316.502 196.519 316.676C196.443 316.782 196.325 316.838 196.203 316.838V316.836Z" fill="black"/>
<path d="M185.585 204.587C185.585 204.587 193.854 268.151 192.092 306.012L189.512 306.271C188.125 306.41 186.729 306.443 185.337 306.375L182.891 306.251C182.891 306.251 173.03 241.901 168.107 232.349C168.107 232.349 154.717 290.334 154.201 304.189C154.201 304.189 148.249 304.787 145.876 303.934C144.602 290.561 144.234 269.881 144.171 261.192C143.988 236.321 146.366 225.026 147.668 219.666C148.865 214.746 150.148 210.747 151.086 208.042L154.217 199.111L185.587 204.59L185.585 204.587Z" fill="black"/>
<path d="M168.249 233.666C168.227 233.666 168.204 233.664 168.181 233.66C167.97 233.623 167.831 233.421 167.868 233.212L168.635 228.935C169.054 227.405 170.252 226.282 171.769 225.969L173.056 225.703C173.265 225.661 173.47 225.795 173.514 226.004C173.558 226.214 173.422 226.418 173.213 226.462L171.926 226.728C170.694 226.981 169.723 227.893 169.388 229.107L168.628 233.349C168.594 233.535 168.431 233.667 168.248 233.667L168.249 233.666Z" fill="white"/>
<path d="M151.281 226.363C151.095 226.363 150.931 226.23 150.899 226.039C150.864 225.828 151.007 225.629 151.218 225.594C158.378 224.401 159.816 218.802 159.83 218.746C159.881 218.538 160.088 218.41 160.298 218.461C160.505 218.512 160.634 218.721 160.583 218.929C160.569 218.991 159.006 225.082 151.346 226.358C151.325 226.362 151.304 226.363 151.283 226.363H151.281Z" fill="white"/>
<path d="M185.957 221.342C185.906 221.342 185.853 221.331 185.802 221.31C181.309 219.358 181.418 215.094 181.419 215.05C181.428 214.837 181.597 214.654 181.821 214.679C182.034 214.687 182.201 214.867 182.194 215.08C182.189 215.245 182.122 218.867 186.11 220.599C186.305 220.684 186.397 220.913 186.31 221.108C186.247 221.254 186.105 221.34 185.955 221.34L185.957 221.342Z" fill="white"/>
<path d="M146.774 209.928C146.022 212.5 144.843 216.057 146.149 217.764C148.522 220.867 150.489 220.369 153.416 219.302C159.272 217.167 168.615 213.795 171.343 215.669L171.465 209.927H146.774V209.928Z" fill="black"/>
<path d="M180.353 154.865C185.216 154.842 189.66 157.591 191.788 161.937C194.253 166.97 197.733 180.14 197.868 185.894C198.106 195.949 189.297 196.515 189.037 196.529C189.033 196.529 189.031 196.533 189.031 196.537C189.06 196.827 190.087 207.753 190.17 209.693C190.32 213.239 183.741 218.774 176.183 216.048C168.665 213.336 148.125 207.929 146.04 212.531C146.036 212.538 146.028 212.535 146.029 212.528L154.646 180.561C154.646 180.561 154.645 180.554 154.641 180.554L147.568 180.895C147.568 180.895 147.566 180.895 147.564 180.895L141.804 177.564C141.804 177.564 141.8 177.56 141.8 177.557L143.259 171.096C146.029 160.057 153.444 154.992 163.012 154.948L180.355 154.867L180.353 154.865Z" fill="white"/>
<path d="M180.275 217.153C178.862 217.153 177.433 216.909 176.05 216.409C166.648 213.015 148.175 208.747 146.39 212.688C146.307 212.871 146.087 212.964 145.897 212.896C145.709 212.827 145.602 212.619 145.653 212.426L154.134 180.962L147.583 181.279C147.508 181.284 147.432 181.263 147.367 181.226L141.606 177.895C141.46 177.81 141.383 177.636 141.418 177.472L142.877 171.008C145.529 160.444 152.677 154.605 163.006 154.557L180.349 154.476H180.409C185.365 154.476 189.962 157.331 192.133 161.764C194.542 166.683 198.113 179.986 198.252 185.882C198.472 195.171 191.258 196.651 189.449 196.874C189.633 198.844 190.478 207.908 190.552 209.671C190.622 211.354 189.38 213.346 187.307 214.867C185.254 216.374 182.79 217.151 180.274 217.151L180.275 217.153ZM151.45 210.351C153.495 210.351 156.06 210.622 159.138 211.162C165.379 212.26 172.415 214.274 176.312 215.68C179.915 216.979 183.853 216.444 186.851 214.244C188.69 212.894 189.839 211.113 189.781 209.705C189.7 207.785 188.688 197.028 188.644 196.57C188.625 196.361 188.783 196.165 188.993 196.142C189.369 196.121 197.708 195.551 197.479 185.901C197.342 180.088 193.817 166.962 191.439 162.106C189.389 157.92 185.038 155.229 180.355 155.252L163.012 155.333C153.069 155.379 146.188 161.011 143.632 171.189L142.236 177.368L147.659 180.503L154.618 180.167C154.748 180.162 154.875 180.221 154.952 180.325C155.026 180.424 155.049 180.556 155.014 180.672L146.779 211.22C147.773 210.641 149.333 210.351 151.45 210.351Z" fill="black"/>
<path d="M157.67 179.526C156.348 179.281 156.709 177.749 152.064 177.472C138.66 176.673 145.156 169.867 152.835 171.164C155.38 171.594 156.382 173.241 157.339 173.658C165.373 177.164 160.306 180.014 157.67 179.526Z" fill="white"/>
<path d="M158.305 179.968C158.061 179.968 157.823 179.949 157.599 179.906C157.061 179.806 156.749 179.535 156.418 179.248C155.831 178.736 155.026 178.035 152.041 177.858C147.55 177.59 144.804 176.634 144.1 175.093C143.794 174.42 143.914 173.674 144.438 172.991C145.654 171.407 149.153 170.151 152.9 170.781C154.729 171.09 155.809 171.995 156.598 172.655C156.939 172.942 157.235 173.188 157.494 173.301C161.806 175.182 162.322 176.851 161.994 177.921C161.607 179.185 159.829 179.968 158.305 179.968ZM157.74 179.146C159.007 179.38 160.94 178.72 161.253 177.696C161.581 176.627 160.097 175.285 157.184 174.014C156.825 173.857 156.489 173.576 156.102 173.252C155.341 172.615 154.393 171.821 152.772 171.546C149.31 170.96 146.13 172.062 145.052 173.465C144.702 173.922 144.618 174.362 144.806 174.772C145.072 175.353 146.311 176.742 152.089 177.085C155.336 177.279 156.257 178.079 156.929 178.664C157.219 178.917 157.411 179.083 157.742 179.144L157.74 179.146Z" fill="black"/>
<path d="M174.545 156.747C174.992 156.365 174.756 155.632 174.17 155.562L173.262 155.453C172.285 155.335 171.47 154.686 171.153 153.788L169.655 142.732L166.584 143.83L162.52 141.82L162.883 153.635C162.853 154.664 162.183 155.574 161.188 155.93L160 156.354C159.375 156.578 159.345 157.424 159.951 157.688C162.369 158.742 172.197 158.749 174.541 156.745L174.545 156.747Z" fill="white"/>
<path d="M165.914 158.779C163.277 158.779 160.849 158.501 159.801 158.045C159.379 157.861 159.117 157.449 159.133 156.996C159.148 156.542 159.439 156.148 159.875 155.991L161.063 155.567C161.912 155.263 162.477 154.501 162.501 153.626L162.139 141.834C162.135 141.698 162.202 141.57 162.316 141.496C162.431 141.422 162.575 141.413 162.697 141.475L166.613 143.411L169.529 142.369C169.64 142.33 169.761 142.343 169.86 142.402C169.96 142.464 170.027 142.566 170.043 142.682L171.535 153.698C171.815 154.448 172.493 154.974 173.311 155.073L174.219 155.182C174.65 155.235 174.995 155.525 175.122 155.94C175.245 156.347 175.122 156.771 174.8 157.046C173.352 158.285 169.448 158.785 165.917 158.785L165.914 158.779ZM162.929 142.454L163.272 153.624C163.239 154.844 162.471 155.884 161.32 156.296L160.132 156.72C159.926 156.794 159.905 156.97 159.903 157.023C159.902 157.074 159.91 157.25 160.109 157.336C162.322 158.301 172.049 158.373 174.293 156.454C174.416 156.349 174.393 156.215 174.378 156.162C174.364 156.118 174.305 155.972 174.124 155.949L173.216 155.84C172.09 155.705 171.16 154.969 170.789 153.918C170.78 153.894 170.773 153.867 170.77 153.841L169.337 143.258L166.716 144.194C166.618 144.229 166.509 144.222 166.414 144.177L162.929 142.454Z" fill="black"/>
<path d="M171.018 133.94C176.25 135.868 175.351 139.252 175.351 139.252C175.286 140.183 175.249 141.889 175.421 142.506C175.564 143.017 176.4 143.976 176.44 144.259C176.481 144.543 176.029 145.123 175.122 145.331C175.122 145.331 174.779 149.856 173.593 150.597C172.407 151.338 167.839 149.916 167.839 149.916L167.07 149.608C164.596 148.615 163.082 146.551 162.362 143.997C162.362 143.997 159.031 129.525 171.02 133.939L171.018 133.94Z" fill="white"/>
<path d="M172.459 151.197C170.756 151.197 168.32 150.474 167.721 150.287L166.924 149.969C164.502 148.997 162.795 146.97 161.987 144.104C161.913 143.788 160.338 136.753 163.594 133.886C165.236 132.439 167.778 132.335 171.152 133.578C176.317 135.479 175.823 138.87 175.735 139.307C175.657 140.426 175.659 141.92 175.795 142.404C175.854 142.615 176.134 143.025 176.34 143.325C176.638 143.759 176.796 143.997 176.824 144.208C176.893 144.69 176.377 145.338 175.485 145.634C175.377 146.813 174.973 150.194 173.797 150.928C173.485 151.121 173.012 151.199 172.459 151.199V151.197ZM167.023 133.49C165.819 133.49 164.844 133.815 164.106 134.465C161.197 137.026 162.721 143.842 162.737 143.911C163.473 146.519 165.022 148.371 167.213 149.249L167.982 149.557C169.654 150.076 172.632 150.74 173.387 150.27C174.091 149.83 174.599 147.1 174.737 145.301C174.749 145.132 174.871 144.991 175.036 144.953C175.714 144.798 176.006 144.432 176.051 144.307C176 144.198 175.83 143.946 175.701 143.759C175.427 143.36 175.143 142.946 175.05 142.61C174.839 141.857 174.918 139.91 174.966 139.224C174.966 139.199 174.971 139.176 174.978 139.152C175.01 139.029 175.696 136.072 170.886 134.303C169.413 133.761 168.124 133.49 167.024 133.49H167.023Z" fill="black"/>
<path d="M169.295 131.489C170.671 131.825 172.016 132.684 172.725 132.759C173.871 132.883 174.698 131.411 176.146 131.945C177.419 132.414 178.135 133.497 178.317 134.718C178.346 134.922 178.355 135.137 178.336 135.368C178.067 138.457 176.134 139.111 175.351 139.252C175.351 139.252 170.808 138.831 169.921 139.046C169.092 139.247 167.811 140.537 167.426 142.371C167.376 142.607 167.169 142.781 166.928 142.798C166.642 142.82 166.387 142.624 166.338 142.346C166.187 141.466 165.771 139.706 164.877 139.653C163.835 139.593 162.506 141.653 163.87 142.945C164.289 143.342 164.15 144.066 163.613 144.282C163.166 144.462 162.609 144.472 162.003 143.983C162.003 143.983 159.314 139.268 160.597 135.289C161.88 131.309 167.466 131.042 169.297 131.489H169.295Z" fill="black"/>
<path d="M176.601 144.309C176.497 144.309 176.393 144.266 176.317 144.185C176.171 144.029 176.182 143.784 176.338 143.638C176.576 143.418 176.835 142.842 176.875 142.054C176.901 141.559 176.831 141.075 176.683 140.729C176.565 140.449 176.421 140.319 176.333 140.313C176.331 140.313 176.329 140.313 176.328 140.313C176.15 140.313 175.819 140.72 175.677 141.473C175.636 141.683 175.432 141.82 175.224 141.781C175.015 141.741 174.876 141.538 174.916 141.329C175.129 140.208 175.696 139.509 176.373 139.541C176.801 139.562 177.165 139.877 177.398 140.428C177.591 140.885 177.681 141.478 177.649 142.096C177.602 143.008 177.31 143.796 176.865 144.208C176.791 144.277 176.696 144.312 176.601 144.312V144.309Z" fill="black"/>
<path d="M173.031 144.609C173.01 144.609 172.989 144.609 172.966 144.609C172.466 144.583 172.024 144.268 171.724 143.722C171.454 143.235 171.326 142.607 171.359 141.954C171.433 140.514 172.248 139.421 173.232 139.477C173.732 139.504 174.173 139.819 174.474 140.364C174.744 140.852 174.872 141.48 174.839 142.133C174.767 143.539 173.978 144.611 173.031 144.611V144.609ZM172.134 141.992C172.107 142.496 172.206 142.99 172.403 143.348C172.5 143.524 172.707 143.819 173.007 143.835C173.45 143.856 174.012 143.149 174.066 142.091C174.092 141.588 173.994 141.093 173.797 140.736C173.7 140.56 173.492 140.264 173.193 140.248C172.739 140.236 172.188 140.935 172.134 141.992Z" fill="black"/>
<path d="M171.908 141.399C171.896 141.399 171.885 141.399 171.873 141.399L166.88 140.952C166.667 140.933 166.51 140.745 166.53 140.532C166.549 140.319 166.732 140.16 166.95 140.18L171.943 140.627C172.156 140.646 172.313 140.834 172.294 141.047C172.276 141.25 172.107 141.399 171.908 141.399Z" fill="black"/>
<path d="M163.95 162.845C163.95 162.845 165.895 165.895 167.644 165.356C168.564 165.073 169.462 162.065 169.828 161.96C171.002 161.618 173.237 161.06 174.61 158.608C175.891 156.319 175.613 155.095 175.282 154.532C175.129 154.274 175.133 153.951 175.302 153.703C175.546 153.341 175.784 152.793 175.538 152.23C175.451 152.033 175.458 151.806 175.545 151.607C175.87 150.849 176.474 149.103 175.302 148.76C174.985 148.666 174.64 148.784 174.448 149.052C174.075 149.566 173.299 150.532 172.338 151.144C170.979 152.008 170.166 152.6 169.483 152.989C168.899 153.323 168.591 150.405 167.185 149.309C165.939 148.335 165.513 148.828 165.388 149.286C165.263 149.743 166.035 149.925 166.475 152.098C166.991 154.643 166.452 156.785 166.296 157.931C166.113 159.274 163.95 162.847 163.95 162.847V162.845Z" fill="white"/>
<path d="M167.223 165.805C165.402 165.805 163.701 163.174 163.624 163.051C163.545 162.927 163.543 162.769 163.619 162.642C164.208 161.667 165.769 158.911 165.912 157.875C165.938 157.686 165.974 157.471 166.014 157.232C166.213 156.039 166.514 154.235 166.097 152.172C165.845 150.931 165.495 150.4 165.263 150.05C165.087 149.782 164.919 149.53 165.014 149.18C165.122 148.789 165.358 148.515 165.681 148.406C166.143 148.251 166.715 148.446 167.424 148.999C168.265 149.655 168.733 150.852 169.076 151.727C169.187 152.012 169.333 152.382 169.439 152.563C169.777 152.362 170.159 152.109 170.625 151.799C171.046 151.519 171.537 151.194 172.132 150.815C173.036 150.24 173.776 149.319 174.136 148.823C174.427 148.422 174.941 148.246 175.414 148.386C175.789 148.497 176.072 148.733 176.231 149.069C176.588 149.83 176.25 150.951 175.904 151.759C175.858 151.866 175.854 151.98 175.896 152.074C176.148 152.649 176.055 153.288 175.627 153.92C175.544 154.041 175.543 154.201 175.622 154.335C176.05 155.062 176.28 156.426 174.955 158.797C173.559 161.289 171.303 161.94 170.09 162.289L170.015 162.31C169.909 162.452 169.703 162.896 169.55 163.228C168.952 164.517 168.439 165.52 167.765 165.726C167.586 165.78 167.408 165.807 167.228 165.807L167.223 165.805ZM164.407 162.832C165.009 163.697 166.421 165.328 167.531 164.985C167.929 164.862 168.522 163.587 168.841 162.901C169.263 161.991 169.425 161.673 169.721 161.586L169.87 161.544C171.053 161.203 173.035 160.632 174.274 158.418C175.481 156.262 175.215 155.18 174.95 154.728C174.721 154.339 174.733 153.851 174.981 153.485C175.258 153.079 175.324 152.709 175.184 152.385C175.057 152.096 175.059 151.759 175.189 151.454C175.578 150.548 175.705 149.779 175.527 149.4C175.464 149.265 175.356 149.178 175.192 149.131C175.032 149.083 174.858 149.143 174.76 149.279C174.367 149.821 173.556 150.826 172.544 151.47C171.954 151.845 171.468 152.169 171.051 152.445C170.502 152.809 170.069 153.098 169.673 153.323C169.525 153.406 169.36 153.423 169.205 153.369C168.834 153.237 168.652 152.776 168.353 152.012C168.043 151.222 167.619 150.138 166.945 149.611C166.408 149.192 166.067 149.097 165.924 149.141C165.831 149.173 165.782 149.307 165.761 149.384C165.768 149.412 165.845 149.529 165.907 149.622C166.155 149.999 166.572 150.63 166.854 152.019C167.301 154.223 166.984 156.111 166.776 157.361C166.737 157.591 166.702 157.799 166.678 157.98C166.51 159.207 164.882 162.028 164.407 162.832Z" fill="black"/>
<path d="M170.356 164.193L164.469 160.442C164.469 160.442 156.51 173.311 150.482 177.678C147.548 179.804 141.855 177.305 141.855 177.305C141.855 177.305 136.39 198.309 146.938 201.311C164.511 206.313 170.354 164.195 170.354 164.195L170.356 164.193Z" fill="white"/>
<path d="M149.778 202.109C148.814 202.109 147.83 201.966 146.832 201.683C136.043 198.612 141.253 178.079 141.48 177.206C141.534 176.999 141.744 176.876 141.951 176.93C142.159 176.985 142.282 177.196 142.228 177.402C142.173 177.608 136.978 198.073 147.043 200.938C149.84 201.736 152.511 201.322 154.981 199.712C165.363 192.943 169.513 167.183 169.934 164.383L164.587 160.976C163.268 163.068 156.257 173.968 150.707 177.99C150.535 178.116 150.292 178.076 150.167 177.903C150.042 177.731 150.081 177.488 150.253 177.363C156.151 173.09 164.059 160.365 164.138 160.236C164.192 160.148 164.28 160.085 164.381 160.062C164.483 160.039 164.588 160.057 164.675 160.113L170.562 163.866C170.69 163.947 170.757 164.096 170.738 164.246C170.576 165.418 166.625 193.045 155.405 200.361C153.62 201.524 151.737 202.109 149.778 202.109Z" fill="black"/>
<path d="M188.072 197.168C181.441 197.168 172.153 192.043 165.4 187.013C165.229 186.885 165.192 186.644 165.321 186.471C165.449 186.299 165.69 186.263 165.863 186.392C172.609 191.417 182.778 197.036 189.234 196.334C189.449 196.308 189.637 196.464 189.66 196.677C189.683 196.89 189.529 197.08 189.317 197.105C188.913 197.149 188.498 197.17 188.07 197.17L188.072 197.168Z" fill="black"/>
<path d="M179.161 180.983C175.439 180.983 168.637 177.798 168.32 177.648C168.126 177.557 168.043 177.326 168.135 177.133C168.226 176.939 168.457 176.856 168.651 176.948C168.733 176.986 177.004 180.862 180.029 180.119C185.057 178.887 183.901 172.6 183.85 172.333C183.81 172.124 183.947 171.919 184.156 171.879C184.366 171.837 184.57 171.976 184.61 172.185C184.624 172.257 185.958 179.465 180.214 180.873C179.904 180.948 179.55 180.983 179.163 180.983H179.161Z" fill="black"/>
</svg>
