<svg width="235" height="235" viewBox="0 0 235 235" fill="none" xmlns="http://www.w3.org/2000/svg">
<path d="M166.813 124.409L136.913 132.405C128.92 134.851 120.486 135.503 112.212 134.316C109.784 140.298 108.381 147.781 111.368 153.53V153.552C107.871 161.784 103.578 169.655 98.551 177.052C86.3423 175.349 74.2391 172.961 62.2987 169.899C57.987 176.087 55.996 179.988 57.1008 190.336C70.2289 194.556 80.9802 197.733 93.553 200.554C97.5584 201.456 101.738 201.194 105.6 199.798C109.461 198.402 112.842 195.93 115.344 192.675C121.875 183.937 127.883 174.821 133.337 165.375L121.592 161.25C131.82 164.038 144.943 158.89 153.31 154.619V154.641L146.53 183.051C151.831 187.339 159.916 188.959 166.455 187.871L181.227 139.352C181.842 137.327 181.906 135.174 181.411 133.116C180.915 131.058 179.879 129.169 178.41 127.646C176.94 126.122 175.09 125.019 173.052 124.45C171.013 123.881 168.859 123.866 166.813 124.409Z" fill="black"/>
<path d="M177.9 92.6179L162.564 8.24852L168.92 16.0239L182.691 91.7518L177.9 92.6179Z" fill="#87ED82" stroke="#87ED82"/>
<path d="M171.391 93.8171L157.598 18.0887L160.824 8.55824L176.161 92.9516L171.391 93.8171Z" fill="#87ED82" stroke="#87ED82"/>
<path d="M98.3732 139.491C98.3066 138.825 97.2626 138.114 94.8413 137.803L95.2856 141.246C97.1293 141.024 98.4434 140.269 98.3732 139.491Z" fill="black"/>
<path d="M86.1325 138.07C83.0927 138.537 81.8768 139.312 81.8464 140.024C81.809 140.868 83.468 141.624 85.756 141.535C85.9489 141.368 86.095 141.154 86.1781 140.913C86.2837 139.967 86.2676 139.012 86.1325 138.07Z" fill="black"/>
<path d="M60.144 173.011C57.671 172.05 55.1413 171.242 52.5692 170.59C45.7275 174.522 36.2015 178.731 26.5574 187.05C26.3686 187.207 26.2297 187.415 26.1575 187.65C32.071 187.894 37.9938 187.731 43.8838 187.161C48.0377 186.828 52.6359 186.117 56.7898 186.739C56.681 181.568 57.2633 177.848 60.144 173.011Z" fill="black"/>
<path d="M163.592 201.443C163.241 197.178 162.503 192.425 163.214 188.232C158.439 188.389 153.707 187.294 149.486 185.056C148.586 187.428 147.807 189.845 147.154 192.297C151.285 199.25 155.55 209.091 164.079 219.396C164.326 213.408 164.162 207.409 163.592 201.443Z" fill="black"/>
<path d="M124.318 67.0535C124.148 66.6429 123.843 66.3027 123.453 66.0892C123.063 65.8757 122.612 65.8017 122.174 65.8794C121.736 65.9571 121.338 66.1819 121.045 66.5165C120.753 66.8512 120.583 67.2757 120.564 67.7199C120.52 67.7199 120.498 67.7421 120.453 67.7421C120.266 67.3192 119.936 66.9759 119.521 66.7723C119.105 66.5687 118.632 66.518 118.183 66.6291C117.734 66.7404 117.338 67.0072 117.067 67.382C116.795 67.7569 116.665 68.2158 116.699 68.6774C116.677 68.6774 116.655 68.6996 116.633 68.6996C116.411 68.2453 116.022 67.8943 115.548 67.7204C115.073 67.5465 114.55 67.5632 114.087 67.767C113.625 67.9707 113.259 68.3457 113.067 68.8132C112.875 69.2807 112.872 69.8044 113.057 70.2744C112.854 69.9052 112.536 69.6123 112.151 69.4399C111.766 69.2676 111.336 69.2253 110.925 69.3193C110.614 69.3953 110.326 69.5452 110.086 69.7564C109.845 69.9675 109.659 70.2336 109.544 70.5321C109.428 70.8305 109.386 71.1525 109.422 71.4705C109.457 71.7886 109.569 72.0934 109.748 72.359C111.058 74.8247 117.767 87.975 116.256 92.7018C118.167 88.3924 117.191 82.3725 116.789 82.0393C112.88 78.7962 115.767 75.1754 117.656 77.5967C118.566 78.7518 118.988 78.7073 119.233 77.9743C120.01 74.198 124.697 68.6891 127.183 76.2639C123.995 65.9802 124.501 67.6018 124.318 67.0535Z" fill="black"/>
<path d="M107.947 115.612C106.031 116.287 104.173 117.119 102.394 118.1L106.77 113.146C107.206 113.946 107.6 114.769 107.947 115.612Z" fill="black"/>
<path d="M137.624 129.362L127.406 113.391L137.802 125.364C137.888 126.699 137.829 128.04 137.624 129.362Z" fill="black"/>
<path d="M135.758 161.149C134.959 162.552 134.159 163.948 133.315 165.37L120.52 160.883C125.074 162.504 130.672 162.238 135.758 161.149Z" fill="black"/>
<path d="M179.208 116.323L183.317 115.568L182.118 108.992C180.918 109.259 179.497 109.46 178.026 109.77L179.208 116.323Z" fill="black"/>
<path d="M179.674 95.6644L179.163 92.9099L175.054 93.6652L175.565 96.4196C176.307 96.2863 179.237 95.7544 179.674 95.6644Z" fill="black"/>
<path d="M199.066 215.483C199.105 215.789 199.26 216.067 199.5 216.261C199.739 216.455 200.044 216.548 200.351 216.523C200.657 216.497 200.942 216.353 201.146 216.122C201.35 215.892 201.456 215.591 201.443 215.283L201.266 213.413C201.239 213.098 201.088 212.806 200.847 212.602C200.605 212.398 200.292 212.298 199.977 212.324C199.662 212.351 199.37 212.501 199.166 212.743C198.962 212.985 198.862 213.297 198.889 213.613L199.066 215.483Z" fill="black"/>
<path d="M155.884 213.462C149.907 219.395 143.143 224.478 135.781 228.567C120.431 223.347 106.435 213.462 94.6414 200.778" stroke="black" stroke-width="1.175" stroke-linecap="round" stroke-linejoin="round"/>
<path d="M165.702 64.3436C149.866 58.2008 134.447 51.0329 119.542 42.8855C98.7484 58.2843 77.0597 72.4368 54.5906 85.2686L57.5005 118.411C59.3955 137.513 65.1946 156.021 74.5382 172.789" stroke="black" stroke-width="1.175" stroke-linecap="round" stroke-linejoin="round"/>
<path d="M163.725 204.865C185.694 177.965 196.667 139.425 193.78 106.46L190.87 73.34C186.934 72.0616 183.017 70.7287 179.119 69.3416" stroke="black" stroke-width="1.175" stroke-linecap="round" stroke-linejoin="round"/>
<path d="M112.19 96.6418C119.076 94.265 117.349 82.5293 116.788 82.0477C112.921 78.732 115.759 75.1884 117.654 77.605C118.317 78.4514 119.016 78.9752 119.244 77.9195C120.132 73.81 125.615 67.7107 127.806 78.7156C130.8 93.7553 119.898 87.4455 119.898 87.4455" stroke="black" stroke-width="1.175" stroke-linecap="round" stroke-linejoin="round"/>
<path d="M85.756 141.535C83.468 141.624 81.809 140.868 81.8464 140.025C81.9318 138.1 88.9161 137.734 90.816 137.676C92.6609 137.62 98.2539 137.649 98.3732 139.492C98.3732 139.749 98.1592 140.895 95.2855 141.245" stroke="black" stroke-width="1.175" stroke-linecap="round" stroke-linejoin="round"/>
<path d="M95.3299 141.913C95.7309 144.619 95.946 147.35 95.9741 150.087C95.7075 151.576 91.9991 159.059 89.6877 162.305C88.2193 164.369 86.2236 164.971 87.9773 160.816C88.981 158.322 89.8123 155.761 90.4652 153.153C92.289 146.222 87.1764 144.756 85.1562 147.577C82.2579 151.626 80.0459 152.819 81.0245 149.732C81.6231 147.844 81.9352 146.711 82.3573 145.267C82.6846 144.155 84.8674 142.502 85.7267 141.578C85.9196 141.402 86.0669 141.181 86.1558 140.935C86.2493 139.99 86.2353 139.036 86.1114 138.092C88.9865 137.665 91.9022 137.583 94.7968 137.848C94.7968 137.848 94.9429 138.864 95.3299 141.913Z" stroke="black" stroke-width="1.175" stroke-linecap="round" stroke-linejoin="round"/>
<path d="M89.4879 156.549C88.0296 158.298 86.358 159.858 84.5121 161.192C82.2229 162.768 81.3157 161.572 83.8901 158.726C85.6934 156.733 87.2864 154.56 88.6437 152.24" stroke="black" stroke-width="1.175" stroke-linecap="round" stroke-linejoin="round"/>
<path d="M86.869 150.998C87.9446 151.895 89.15 152.622 90.4454 153.153" stroke="black" stroke-width="1.175" stroke-linecap="round" stroke-linejoin="round"/>
<path d="M86.6002 155.33C84.8486 156.386 82.9762 157.227 81.0234 157.835C78.4923 158.594 78.6852 157.049 81.3344 155.658C83.4537 154.433 85.4347 152.982 87.2432 151.332" stroke="black" stroke-width="1.175" stroke-linecap="round" stroke-linejoin="round"/>
<path d="M83.9122 154.019C82.5473 154.376 81.1464 154.577 79.7361 154.619C77.8258 154.544 77.205 153.513 80.0249 152.842C82.2496 152.325 84.3798 151.463 86.3382 150.287C86.4348 148.878 86.8365 147.506 87.5155 146.267" stroke="black" stroke-width="1.175" stroke-linecap="round" stroke-linejoin="round"/>
<path d="M102.394 118.1L106.77 113.146C107.213 113.943 107.612 114.762 107.967 115.602" stroke="black" stroke-width="1.175" stroke-linecap="round" stroke-linejoin="round"/>
<path d="M137.624 129.362L127.406 113.413L137.802 125.386" stroke="black" stroke-width="1.175" stroke-linecap="round" stroke-linejoin="round"/>
<path d="M98.3732 139.492C97.9956 134.627 97.4379 123.254 97.4846 120.677C100.407 119.282 104.57 116.674 107.967 115.606C110.168 120.893 111.3 127.937 112.19 134.338C120.464 135.536 128.9 134.884 136.891 132.428C137.657 130.164 137.967 127.77 137.802 125.386C137.685 125.103 143.036 132.409 150.73 127.585L176.809 111.547C175.498 105.416 172.521 99.6851 167.501 96.9973L146.043 111.728C136.891 97.8227 136.89 92.1303 122.03 94.3083C111.322 95.8808 100.201 100.758 89.7766 107.859C82.0054 113.151 81.8266 116.055 81.5799 123.808C81.3534 129.214 81.4498 134.629 81.8686 140.023" stroke="black" stroke-width="1.175" stroke-linecap="round" stroke-linejoin="round"/>
<path d="M159.682 151.065C159.682 151.065 157.194 152.664 153.307 154.641" stroke="black" stroke-width="1.175" stroke-linecap="round" stroke-linejoin="round"/>
<path d="M135.738 161.283C129.67 172.213 122.849 182.709 115.324 192.693C112.823 195.949 109.442 198.421 105.581 199.819C101.719 201.216 97.5391 201.479 93.533 200.578C80.9614 197.75 70.2089 194.581 57.0808 190.338C56.7301 185.978 56.3794 181.836 58.1097 177.188C59.1491 174.579 60.5447 172.127 62.2565 169.902C74.1969 172.964 86.3001 175.352 98.5088 177.054C103.595 169.663 107.87 161.746 111.259 153.438" stroke="black" stroke-width="1.175" stroke-linecap="round" stroke-linejoin="round"/>
<path d="M123.251 88.6592C123.006 90.7192 122.589 92.5173 124.186 94.0652" stroke="black" stroke-width="1.175" stroke-linecap="round" stroke-linejoin="round"/>
<path d="M26.1575 187.648C25.4911 187.603 24.7803 187.586 24.1139 187.537C23.934 187.524 23.7594 187.47 23.6034 187.379C23.4473 187.289 23.3137 187.164 23.2128 187.015C23.1118 186.865 23.0461 186.695 23.0205 186.517C22.995 186.338 23.0102 186.156 23.0652 185.984C23.1388 185.755 23.2791 185.553 23.4697 185.404C27.9606 181.892 32.7384 178.764 37.7529 176.051C42.178 173.638 46.1495 171.764 49.3483 169.876C50.4367 170.098 51.503 170.298 52.5692 170.587" stroke="black" stroke-width="1.175" stroke-linecap="round" stroke-linejoin="round"/>
<path d="M60.144 173.011C57.2796 177.82 56.6787 181.537 56.7898 186.739C52.6359 186.117 48.0377 186.827 43.8838 187.161C37.9938 187.73 32.071 187.892 26.1575 187.648C26.2297 187.413 26.3686 187.205 26.5574 187.048C36.2073 178.727 45.731 174.52 52.5692 170.588C55.1393 171.247 57.6686 172.056 60.144 173.011Z" stroke="black" stroke-width="1.175" stroke-linecap="round" stroke-linejoin="round"/>
<path d="M164.079 219.392C164.036 219.986 164.012 220.6 163.947 221.192C163.928 221.432 163.837 221.661 163.686 221.849C163.536 222.036 163.332 222.174 163.102 222.245C162.871 222.314 162.624 222.312 162.394 222.24C162.165 222.166 161.963 222.026 161.815 221.837C153.914 211.764 150.064 202.355 146.287 195.958C146.532 194.714 146.843 193.514 147.154 192.293" stroke="black" stroke-width="1.175" stroke-linecap="round" stroke-linejoin="round"/>
<path d="M162.979 194.509C162.823 192.414 162.895 190.308 163.192 188.228C158.417 188.384 153.684 187.289 149.464 185.051C148.567 187.562 147.827 189.68 147.154 192.293C151.285 199.245 155.549 209.085 164.079 219.392C164.653 209.134 163.23 198.988 162.979 194.509Z" stroke="black" stroke-width="1.175" stroke-linecap="round" stroke-linejoin="round"/>
<path d="M164.902 95.5091L189.359 91.0442" stroke="black" stroke-width="1.175" stroke-linecap="round" stroke-linejoin="round"/>
<path d="M28.4232 149.065L33.399 154.907L37.775 145.422" stroke="black" stroke-width="1.175" stroke-linecap="round" stroke-linejoin="round"/>
<path d="M206.863 214.906L206.219 207.464L192.98 208.619L193.624 216.061C193.69 216.938 193.929 217.794 194.327 218.579C194.726 219.363 195.276 220.061 195.946 220.631C196.617 221.201 197.393 221.633 198.232 221.9C199.07 222.168 199.953 222.267 200.829 222.191C201.706 222.114 202.559 221.864 203.338 221.455C204.117 221.046 204.807 220.487 205.369 219.809C205.93 219.131 206.351 218.349 206.608 217.507C206.864 216.666 206.951 215.781 206.863 214.906Z" stroke="black" stroke-width="1.175" stroke-linecap="round" stroke-linejoin="round"/>
<path d="M192.98 208.619L192.558 203.866C192.43 202.123 192.992 200.4 194.123 199.069C195.256 197.739 196.867 196.909 198.607 196.757C200.348 196.605 202.078 197.144 203.424 198.258C204.77 199.372 205.622 200.972 205.797 202.711" stroke="black" stroke-width="1.175" stroke-linecap="round" stroke-linejoin="round"/>
<path d="M199.066 215.483C199.105 215.789 199.26 216.067 199.5 216.261C199.739 216.455 200.044 216.548 200.351 216.523C200.657 216.497 200.942 216.353 201.146 216.122C201.35 215.892 201.456 215.591 201.443 215.283L201.266 213.413C201.239 213.098 201.088 212.806 200.847 212.602C200.605 212.398 200.292 212.298 199.977 212.324C199.662 212.351 199.37 212.501 199.166 212.743C198.962 212.985 198.862 213.297 198.889 213.613L199.066 215.483Z" stroke="black" stroke-width="1.175" stroke-linecap="round" stroke-linejoin="round"/>
<path d="M68.8294 47.9058C68.8877 48.4455 68.8378 48.9914 68.6825 49.5116C68.5272 50.0318 68.2697 50.5157 67.925 50.9351C67.5803 51.3545 67.1554 51.7009 66.6752 51.954C66.195 52.2071 65.669 52.3618 65.1282 52.4091C64.5875 52.4564 64.0427 52.3953 63.5258 52.2294C63.0089 52.0635 62.5303 51.7962 62.1181 51.443C61.7058 51.0898 61.3682 50.6579 61.125 50.1725C60.8817 49.6872 60.7378 49.1582 60.7016 48.6166C60.6304 47.5513 60.9796 46.5005 61.6742 45.6897C62.3689 44.8789 63.3536 44.3727 64.4173 44.2797C65.4809 44.1867 66.5386 44.5142 67.3634 45.1922C68.1883 45.8701 68.7146 46.8443 68.8294 47.9058Z" stroke="black" stroke-width="1.175" stroke-linecap="round" stroke-linejoin="round"/>
<path d="M182.628 105.527C184.916 105.327 185.317 108.415 183.447 108.704C183.291 108.728 178.849 109.504 176.472 110.125C175.206 105.261 172.847 100.818 169.208 98.0835C170.918 97.195 173.051 96.8395 179.115 95.7452C179.981 95.5897 182.335 95.1186 183.158 94.9678C185.399 94.5562 186.012 97.7398 184.18 98.1887C183.981 98.2378 182.047 98.6564 181.825 98.6996C181.936 98.6774 182.957 98.6306 183.069 98.6108C185.459 98.1946 186.046 101.454 184.091 101.898L182.203 102.187C182.336 102.165 182.758 102.12 182.891 102.098C185.246 101.832 185.75 104.931 183.827 105.341C183.538 105.412 182.939 105.483 182.628 105.527Z" stroke="black" stroke-width="1.175" stroke-linecap="round" stroke-linejoin="round"/>
<path d="M127.184 76.2724L124.341 67.0538C124.158 66.6457 123.844 66.3103 123.449 66.1008C123.054 65.8914 122.6 65.82 122.16 65.8979C121.72 65.9758 121.318 66.1986 121.019 66.5308C120.719 66.8631 120.54 67.2859 120.508 67.7319C120.36 67.4164 120.132 67.1448 119.847 66.9434C119.562 66.7421 119.23 66.6179 118.883 66.583C118.536 66.548 118.186 66.6035 117.867 66.7439C117.548 66.8844 117.27 67.1052 117.062 67.3847C116.783 67.7598 116.643 68.2202 116.665 68.6871C115.582 66.3255 111.989 68.0511 113.056 70.2748C112.916 70.0205 112.721 69.8009 112.485 69.6321C112.249 69.4633 111.978 69.3496 111.692 69.2994C111.406 69.2491 111.113 69.2636 110.833 69.3418C110.554 69.4199 110.296 69.5598 110.077 69.751C109.71 70.0678 109.472 70.5078 109.407 70.9883C109.342 71.4687 109.455 71.9564 109.724 72.3593C111.035 74.825 117.743 87.9531 116.233 92.6845" stroke="black" stroke-width="1.175" stroke-linecap="round" stroke-linejoin="round"/>
<path d="M203.753 53.5256L204.087 57.4352" stroke="black" stroke-width="1.175" stroke-linecap="round" stroke-linejoin="round"/>
<path d="M200.732 61.4336L196.823 61.789" stroke="black" stroke-width="1.175" stroke-linecap="round" stroke-linejoin="round"/>
<path d="M211.995 60.4341L208.085 60.7895" stroke="black" stroke-width="1.175" stroke-linecap="round" stroke-linejoin="round"/>
<path d="M205.064 68.6974L204.731 64.7878" stroke="black" stroke-width="1.175" stroke-linecap="round" stroke-linejoin="round"/>
<path d="M208.085 60.7895C207.358 60.8542 206.628 60.7014 205.987 60.3504C205.347 59.9995 204.826 59.4662 204.489 58.8184C204.265 58.3882 204.129 57.9182 204.087 57.4353C204.129 57.9181 204.076 58.4046 203.931 58.8669C203.785 59.3292 203.55 59.7583 203.238 60.1297C202.927 60.501 202.545 60.8073 202.115 61.0311C201.685 61.2548 201.215 61.3916 200.732 61.4337C201.46 61.3701 202.189 61.5234 202.829 61.8743C203.469 62.2251 203.991 62.7577 204.329 63.4049C204.552 63.8351 204.689 64.3051 204.731 64.7879C204.666 64.0607 204.819 63.3306 205.17 62.6904C205.521 62.0502 206.054 61.5285 206.702 61.1917C207.132 60.9684 207.602 60.8316 208.085 60.7895Z" stroke="black" stroke-width="1.175" stroke-linecap="round" stroke-linejoin="round"/>
<path d="M133.381 165.393L120.921 161.07" stroke="black" stroke-width="1.175" stroke-linecap="round" stroke-linejoin="round"/>
<path d="M136.869 132.428L166.768 124.431C168.817 123.883 170.976 123.893 173.02 124.46C175.064 125.027 176.919 126.129 178.394 127.654C179.869 129.178 180.909 131.069 181.408 133.131C181.906 135.193 181.844 137.35 181.229 139.38L166.457 187.899C163.133 188.428 159.738 188.332 156.449 187.614C152.834 186.901 149.436 185.347 146.532 183.079L153.313 154.646C145.696 158.548 134.969 162.632 125.982 161.984C115.704 161.243 108.123 154.637 109.908 142.343C110.325 139.598 111.094 136.917 112.196 134.368" stroke="black" stroke-width="1.175" stroke-linecap="round" stroke-linejoin="round"/>
<path d="M146.043 111.725L147.22 113.413" stroke="black" stroke-width="1.175" stroke-linecap="round" stroke-linejoin="round"/>
<path d="M157.083 18.0508L161.321 6.59692L169.389 15.8073L183.273 92.1547L170.989 94.3982L157.083 18.0508Z" stroke="#87ED82" stroke-linejoin="round"/>
<path d="M161.329 6.60547L177.104 93.1687" stroke="#87ED82" stroke-linecap="round"/>
<path d="M179.208 116.323L183.317 115.568L182.118 108.992C180.918 109.259 179.497 109.46 178.026 109.77L179.208 116.323Z" stroke="black" stroke-width="1.175" stroke-linejoin="round"/>
<path d="M179.674 95.6644L179.163 92.9099L175.054 93.6652L175.565 96.4196C176.307 96.2863 179.237 95.7544 179.674 95.6644Z" stroke="black" stroke-width="1.175" stroke-linejoin="round"/>
</svg>
