<svg width="204" height="252" viewBox="0 0 204 252" fill="none" xmlns="http://www.w3.org/2000/svg">
<path d="M157.964 250.366C162.371 238.411 165.648 228.76 166.42 224.184C170.559 199.673 159.704 167.427 159.704 167.427L133.542 165.356L130.537 170.454L94.3743 169.862C93.7975 170.957 87.1908 208.597 89.0801 250.59L157.964 250.364V250.366Z" fill="white"/>
<path d="M89.0781 251.014C88.852 251.014 88.6681 250.836 88.6566 250.611C86.8075 209.503 93.2457 171.098 93.9987 169.667C94.0734 169.527 94.2248 169.435 94.3781 169.441L130.296 170.027L133.176 165.139C133.258 165.001 133.411 164.921 133.572 164.932L159.735 167.004C159.903 167.017 160.047 167.13 160.101 167.289C160.21 167.613 170.942 199.917 166.834 224.249C166.14 228.356 163.446 236.698 158.357 250.508C158.296 250.673 158.139 250.784 157.962 250.784L89.0781 251.01V251.014ZM94.677 170.29C93.832 173.649 87.7081 209.626 89.4805 250.169L157.667 249.945C162.672 236.35 165.322 228.139 166.002 224.113C169.879 201.154 160.405 170.96 159.39 167.826L133.77 165.798L130.899 170.671C130.823 170.801 130.681 170.872 130.529 170.878L94.6789 170.292L94.677 170.29Z" fill="black"/>
<path d="M114.081 248.923C114.043 248.923 114.003 248.918 113.965 248.906C113.74 248.841 113.612 248.607 113.677 248.383L122.087 219.271C122.152 219.047 122.386 218.919 122.61 218.984C122.834 219.049 122.963 219.283 122.897 219.507L114.488 248.619C114.434 248.803 114.265 248.923 114.083 248.923H114.081Z" fill="black"/>
<path d="M24.7407 48.3136L18.5229 42.3353C18.5229 42.3353 15.6008 44.6366 20.0749 50.0419C18.8544 50.0841 17.5821 50.1665 15.5414 50.3083C13.8993 50.4233 12.2668 49.996 11.0174 48.8884C9.56503 47.6008 7.75431 46.0334 7.08367 45.61C5.89376 44.8589 4.33788 43.6689 2.73792 43.69C2.36045 43.6958 1.98296 43.7686 1.62848 43.8797C0.476897 44.2361 0.0496048 45.6464 0.779645 46.6044L5.16946 52.3585C7.48413 55.3937 10.6783 57.5819 14.2806 58.6089L20.0289 60.2453C23.3093 61.1784 25.7179 64.0698 26.1241 67.561L32.0564 114.993C32.683 120.003 37.5652 123.326 42.4571 122.073L91.2874 110.775L89.3981 81.1827L56.096 97.8088C51.9284 99.7326 47.0098 97.6632 45.473 93.3366C42.1773 84.0626 36.6762 68.931 32.6466 59.6589C30.7918 55.3898 28.0958 51.5403 24.7407 48.3155V48.3136Z" fill="white"/>
<path d="M40.3762 122.759C38.6268 122.759 36.8946 122.235 35.4192 121.231C33.3306 119.81 31.951 117.554 31.6387 115.046L25.7064 67.6146C25.3174 64.2749 23.043 61.5425 19.914 60.6515L14.1676 59.0151C10.4503 57.9574 7.22356 55.7443 4.83608 52.6153L0.446269 46.8612C0.0151435 46.2959 -0.113232 45.5525 0.103289 44.8742C0.31981 44.1959 0.831403 43.6881 1.50588 43.4793C1.93317 43.347 2.34706 43.2762 2.73411 43.2704C4.24976 43.2512 5.66001 44.1786 6.8001 44.924C6.97639 45.039 7.14693 45.152 7.31171 45.2555C7.87122 45.6081 9.21249 46.7252 11.3011 48.5742C12.3875 49.5361 13.8821 50.0036 15.5146 49.8887C17.1184 49.7756 18.2431 49.7028 19.2319 49.6549C17.7066 47.6372 17.0207 45.8131 17.1893 44.2265C17.3483 42.7396 18.2259 42.0326 18.2623 42.0019C18.429 41.8716 18.6628 41.8831 18.8161 42.0288L25.0358 48.007C28.4675 51.3066 31.1578 55.1676 33.0356 59.4865C37.1456 68.9444 42.8422 84.6642 45.8735 93.191C46.5672 95.1416 48.0579 96.7204 49.9644 97.5233C51.871 98.3261 54.0419 98.2897 55.9216 97.4198L89.2122 80.8014C89.3387 80.7381 89.4882 80.7439 89.6108 80.8129C89.7334 80.8838 89.812 81.0102 89.8216 81.152L91.7108 110.744C91.7243 110.95 91.5863 111.135 91.3851 111.181L42.5548 122.479C41.8382 122.663 41.1062 122.753 40.38 122.753L40.3762 122.759ZM2.7801 44.1135C2.7686 44.1135 2.75519 44.1135 2.74369 44.1135C2.43903 44.1173 2.10563 44.1748 1.75306 44.284C1.34493 44.4105 1.03644 44.719 0.904224 45.1309C0.770096 45.5544 0.84482 45.999 1.11499 46.3496L5.50481 52.1037C7.78115 55.0871 10.8565 57.1967 14.3975 58.2027L20.1439 59.8391C23.6025 60.8239 26.1145 63.8361 26.5418 67.5112L32.4741 114.939C32.7577 117.208 34.0032 119.246 35.8925 120.532C37.7818 121.818 40.1348 122.232 42.3498 121.663L90.8409 110.444L89.0149 81.8418L56.2819 98.1824C54.178 99.1558 51.7579 99.198 49.631 98.3012C47.5061 97.4064 45.8448 95.6474 45.0726 93.4745C42.047 84.9574 36.3562 69.2587 32.2557 59.8218C30.4239 55.6064 27.795 51.8354 24.4456 48.6145L18.5363 42.9332C18.3409 43.1976 18.0879 43.6594 18.0209 44.3434C17.8752 45.8399 18.6973 47.7158 20.3969 49.7699C20.5003 49.8944 20.5233 50.0649 20.4563 50.2125C20.3911 50.36 20.2474 50.4558 20.0865 50.4616C18.887 50.5037 17.6242 50.5842 15.5682 50.7279C13.7058 50.8582 11.9928 50.3179 10.7358 49.2027C8.1778 46.9359 7.21399 46.1925 6.8576 45.9664C6.69089 45.861 6.5146 45.746 6.33449 45.6272C5.3017 44.9508 4.01791 44.1116 2.7801 44.1116V44.1135Z" fill="black"/>
<path d="M163.37 97.8931C161.339 86.7835 157.152 79.2512 142.886 73.1982C135.074 69.8833 125.546 69.1782 111.15 70.5636C100.613 71.5772 73.7146 80.9547 63.0054 90.9817C62.3176 91.6255 76.5715 117.803 76.5715 117.803L85.2151 116.677L83.3316 171.355C83.2224 174.524 85.081 177.437 88.0108 178.652C94.8647 181.493 110.653 184.007 145.099 175.454C145.099 175.454 160.463 169.307 165.757 193.122C165.757 193.122 176.742 191.777 176.62 179.832C176.53 170.981 167.857 122.448 163.37 97.8893V97.8931Z" fill="black"/>
<path d="M152.452 120.76H148.721C148.545 120.76 148.387 120.651 148.326 120.486L142.553 104.971C142.472 104.753 142.584 104.509 142.802 104.429C143.02 104.347 143.262 104.458 143.344 104.678L149.014 119.917H152.452C152.685 119.917 152.873 120.105 152.873 120.338C152.873 120.572 152.685 120.76 152.452 120.76Z" fill="white"/>
<path d="M156.34 119.733C156.34 119.733 181.799 119.628 181.807 119.354C181.835 118.443 172.335 80.8301 137.033 71.3588L156.34 119.733Z" fill="#87ED82"/>
<path d="M154.224 119.599C154.224 119.599 170.344 159.738 171.651 162.512C171.651 162.512 178.279 176.967 176.729 183.639C175.75 187.855 176.102 195.994 181.661 201.448C182.822 202.588 184.775 201.459 184.361 199.884C184.355 199.859 184.347 199.834 184.34 199.809C183.704 197.575 182.395 194.667 182.395 194.667C182.395 194.667 185.827 195.27 188.952 198.704C192.075 202.137 198.866 208.487 200.732 207.043C203.93 204.565 204.376 191.913 191.795 181.708C188.687 179.186 187.58 177.391 186.846 173.948C186.846 173.948 183.088 150.224 179.896 135.217C179.055 131.26 178.151 127.146 177.239 119.219L154.222 119.599H154.224Z" fill="white"/>
<path d="M200.073 207.66C196.578 207.66 188.728 199.083 188.641 198.987C186.553 196.692 184.305 195.699 183.134 195.307C183.571 196.336 184.309 198.156 184.746 199.693L184.769 199.775C185.006 200.681 184.633 201.574 183.817 202.047C182.998 202.523 182.036 202.406 181.368 201.749C175.391 195.887 175.453 187.276 176.321 183.544C177.819 177.088 171.335 162.832 171.27 162.689C169.976 159.939 154.494 121.396 153.835 119.758C153.783 119.63 153.799 119.482 153.875 119.367C153.952 119.252 154.08 119.181 154.22 119.179L177.239 118.8H177.246C177.461 118.8 177.641 118.961 177.666 119.174C178.541 126.796 179.398 130.816 180.226 134.704L180.316 135.131C183.474 149.977 187.231 173.645 187.269 173.883C187.99 177.259 189.067 178.947 192.069 181.38C202.388 189.75 203.095 198.815 203.066 201.394C203.035 204.161 202.261 206.397 200.998 207.376C200.745 207.572 200.435 207.66 200.079 207.66H200.073ZM182.397 194.245C182.422 194.245 182.445 194.247 182.47 194.251C182.615 194.276 186.081 194.92 189.264 198.42C193.548 203.128 199.205 207.696 200.475 206.709C201.521 205.899 202.188 203.858 202.217 201.384C202.246 198.901 201.558 190.168 191.533 182.036C188.39 179.487 187.2 177.617 186.436 174.036C186.394 173.777 182.64 150.128 179.486 135.305L179.396 134.878C178.578 131.036 177.733 127.064 176.867 119.647L154.845 120.009C156.817 124.914 170.833 159.778 172.032 162.33C172.308 162.93 178.704 176.996 177.141 183.731C176.311 187.305 176.248 195.542 181.958 201.143C182.433 201.609 183.029 201.528 183.393 201.316C183.774 201.095 184.123 200.63 183.955 199.99L183.935 199.921C183.316 197.742 182.025 194.868 182.013 194.839C181.95 194.697 181.969 194.531 182.065 194.408C182.146 194.304 182.268 194.245 182.399 194.245H182.397Z" fill="black"/>
<path d="M126.818 15.0518C132.148 18.8878 129.439 22.6626 136.559 31.8178C141.79 38.5414 145.952 39.9766 146.13 44.6021C146.289 48.7697 143.08 51.9907 140.961 54.1195C131.338 63.7786 117.163 63.7901 108.461 63.7958C101.42 63.8016 91.7664 63.8093 90.1492 59.5095C88.553 55.2634 96.6352 51.7109 96.7847 43.1075C96.9035 36.1865 91.7395 34.6038 92.4485 28.4282C93.3663 20.438 102.855 15.7473 104.376 14.9943C110.483 11.9764 120.253 10.3247 126.818 15.0499V15.0518Z" fill="#87ED82"/>
<path d="M120.941 14.7203C120.941 14.7203 116.664 1.88618 127.713 0.144432C138.761 -1.59732 134.799 12.9019 128.117 17.378C121.436 21.854 120.941 14.7184 120.941 14.7184V14.7203Z" fill="#87ED82"/>
<path d="M127.765 69.8776L119.192 47.6143C119.192 47.6143 118.724 46.3515 119.205 45.8668C120.46 44.604 122.486 42.046 121.924 39.1105C121.643 37.6332 120.596 35.4795 119.161 35.4163C118.153 35.3722 117 36.3647 116.268 38.0835C115.879 38.9956 114.624 39.1125 114.078 38.2866C114.072 38.277 114.066 38.2694 114.06 38.2617C113.518 37.4416 112.993 36.518 112.767 35.7401C112.62 35.2266 112.146 34.8702 111.614 34.8587C100.636 34.6537 106.26 21.465 99.1665 23.3543C98.8983 23.4252 98.5476 23.6762 98.3943 23.9062C97.4286 25.3567 96.7254 26.0139 95.9551 27.4721C94.3398 30.5283 94.3954 37.7252 91.2434 40.8829C90.8793 41.247 90.726 41.7874 90.9234 42.2625C91.4273 43.4735 92.5425 43.6326 93.4642 44.1269C93.8359 44.3262 94.0601 44.7209 94.0716 45.1425C94.1175 46.8823 94.6962 50.9176 94.9147 54.016C95.0507 55.9513 96.6679 57.4439 98.6089 57.442C100.151 57.442 101.771 57.26 103.464 56.8787C103.8 56.804 104.148 56.8595 104.434 57.0492C105.729 57.9038 107.063 67.5476 107.701 72.8054C107.967 75.007 109.667 76.768 111.861 77.0918C112.568 77.1952 115.634 77.7662 118.391 77.8448C127.079 78.0958 128.977 73.0277 127.765 69.8757V69.8776Z" fill="white"/>
<path d="M119.019 78.2778C118.81 78.2778 118.598 78.274 118.379 78.2683C116.009 78.1993 113.386 77.7681 112.265 77.5842C112.062 77.5516 111.905 77.5248 111.799 77.5095C109.429 77.1607 107.572 75.2465 107.281 72.8571C105.976 62.0982 104.834 57.8195 104.2 57.4018C104.014 57.2791 103.784 57.2389 103.554 57.2906C101.874 57.67 100.209 57.8635 98.607 57.8655H98.6031C96.4475 57.8655 94.6425 56.1889 94.4912 54.0466C94.3877 52.5712 94.198 50.8448 94.0294 49.3215C93.8378 47.5817 93.673 46.0794 93.6481 45.1559C93.6404 44.8761 93.4928 44.6251 93.2629 44.5006C93.0579 44.3894 92.8376 44.2974 92.6076 44.1978C91.845 43.8721 90.9808 43.5042 90.5344 42.4254C90.2795 41.8122 90.4405 41.0899 90.9444 40.5859C92.7954 38.7311 93.512 35.3089 94.1424 32.2891C94.5486 30.3424 94.9338 28.5048 95.5833 27.2747C96.0719 26.3473 96.5433 25.7265 97.0415 25.0673C97.3557 24.6515 97.6815 24.2204 98.0456 23.6724C98.2544 23.3562 98.6913 23.0439 99.0611 22.9462C100.243 22.6319 101.178 22.6875 101.92 23.1186C103.19 23.8563 103.643 25.5674 104.122 27.382C104.982 30.6394 105.957 34.3298 111.623 34.4352C112.338 34.4486 112.976 34.9353 113.175 35.6213C113.357 36.2478 113.773 37.0564 114.415 38.026C114.601 38.3077 114.886 38.4437 115.195 38.415C115.505 38.3862 115.762 38.2004 115.883 37.9168C116.663 36.0869 117.965 34.9391 119.182 34.9947C120.935 35.0713 122.051 37.5106 122.34 39.03C122.936 42.1533 120.821 44.8397 119.506 46.1618C119.336 46.3324 119.414 46.9858 119.59 47.4648L128.161 69.7224C128.826 71.4488 128.569 73.4052 127.471 74.9515C126.385 76.4863 124.04 78.274 119.021 78.274L119.019 78.2778ZM103.754 56.4265C104.077 56.4265 104.392 56.5184 104.666 56.6985C105.07 56.9649 106.302 57.7773 108.119 72.7575C108.362 74.7713 109.925 76.3828 111.922 76.676C112.031 76.6913 112.192 76.7181 112.401 76.7526C113.505 76.9346 116.09 77.3581 118.404 77.4252C122.363 77.5401 125.35 76.4901 126.782 74.4686C127.715 73.1522 127.935 71.491 127.372 70.029L118.799 47.7656C118.703 47.5069 118.268 46.2116 118.906 45.5697C120.104 44.3645 122.033 41.933 121.51 39.1891C121.248 37.8171 120.28 35.8876 119.144 35.8378C118.276 35.7937 117.287 36.769 116.657 38.2483C116.415 38.8135 115.885 39.2006 115.269 39.2561C114.645 39.3136 114.07 39.0377 113.727 38.5184C113.725 38.5146 113.706 38.4859 113.704 38.482C113.022 37.4512 112.57 36.564 112.365 35.857C112.269 35.5235 111.957 35.2879 111.608 35.2802C105.304 35.1633 104.196 30.9689 103.305 27.5985C102.853 25.8893 102.464 24.412 101.496 23.8506C100.958 23.5382 100.232 23.5095 99.2795 23.7624C99.109 23.8084 98.8446 23.9943 98.7488 24.1399C98.3694 24.7109 98.036 25.1516 97.714 25.577C97.2159 26.2342 96.7867 26.8033 96.3287 27.6694C95.7347 28.7941 95.363 30.5761 94.9683 32.4616C94.313 35.5964 93.5695 39.1508 91.5422 41.1818C91.2797 41.4443 91.1897 41.8046 91.3142 42.1016C91.6304 42.8623 92.2378 43.1209 92.941 43.4218C93.1786 43.5233 93.4258 43.6287 93.6653 43.7571C94.1616 44.0234 94.4797 44.5504 94.495 45.1329C94.518 46.0219 94.6904 47.5798 94.8705 49.2295C95.0392 50.7605 95.2308 52.4965 95.3342 53.9872C95.455 55.6887 96.8901 57.0205 98.605 57.0205H98.607C100.148 57.0205 101.749 56.8327 103.37 56.4667C103.499 56.438 103.627 56.4226 103.756 56.4226L103.754 56.4265Z" fill="black"/>
<path d="M103.462 57.3022C103.267 57.3022 103.091 57.1642 103.05 56.965C103.004 56.7369 103.15 56.5147 103.378 56.4668C108.561 55.4033 111.799 51.4772 111.832 51.437C111.978 51.2569 112.244 51.2281 112.426 51.3757C112.606 51.5232 112.635 51.7876 112.487 51.9696C112.349 52.1402 109.023 56.1717 103.549 57.2945C103.52 57.3003 103.491 57.3041 103.464 57.3041L103.462 57.3022Z" fill="black"/>
</svg>
