<svg width="210" height="223" viewBox="0 0 210 223" fill="none" xmlns="http://www.w3.org/2000/svg">
<path d="M85.2114 52.9053V67.4357C85.2114 88.2595 101.653 105.139 121.936 105.139C142.219 105.139 158.661 122.02 158.661 142.842C158.661 144.698 157.158 146.202 155.304 146.202H58.0907C27.685 146.202 3.03583 120.895 3.03583 89.6794V51.0109C3.03583 38.5947 12.8394 28.5291 24.9332 28.5291H61.4691C74.5815 28.5291 85.2114 39.4429 85.2114 52.9053Z" fill="white"/>
<path d="M155.302 146.605H58.0907C27.511 146.605 2.63275 121.067 2.63275 89.6793V51.0108C2.63275 38.3931 12.6361 28.126 24.9332 28.126H61.4691C74.783 28.126 85.6145 39.2414 85.6145 52.9053V67.4357C85.6145 88.003 101.907 104.736 121.936 104.736C141.965 104.736 159.064 121.829 159.064 142.842C159.064 144.917 157.376 146.605 155.304 146.605H155.302ZM24.9332 28.9321C13.0813 28.9321 3.43888 38.8365 3.43888 51.0108V89.6793C3.43888 120.624 27.9562 145.799 58.0907 145.799H155.302C156.931 145.799 158.256 144.472 158.256 142.842C158.256 122.274 141.963 105.542 121.934 105.542C101.906 105.542 84.8065 88.4463 84.8065 67.4357V52.9053C84.8065 39.6866 74.336 28.9339 61.4673 28.9339H24.9313L24.9332 28.9321Z" fill="black"/>
<path d="M82.8059 135.328H73.9971V220.299H82.8059V135.328Z" fill="black"/>
<path d="M119.69 218.891L80.7044 215.468H77.1281L37.3274 218.891V221.606H119.69V218.891Z" fill="black"/>
<path d="M107.873 101.082H188.286V102.499C188.286 104.1 186.987 105.399 185.386 105.399H110.775C109.173 105.399 107.875 104.1 107.875 102.499V101.082H107.873Z" fill="white"/>
<path d="M185.386 105.804H110.775C108.954 105.804 107.47 104.322 107.47 102.499V101.082C107.47 100.859 107.649 100.679 107.873 100.679H188.286C188.509 100.679 188.689 100.859 188.689 101.082V102.499C188.689 104.32 187.207 105.804 185.386 105.804ZM108.276 101.487V102.5C108.276 103.878 109.397 104.998 110.773 104.998H185.384C186.761 104.998 187.881 103.876 187.881 102.5V101.487H108.274H108.276Z" fill="black"/>
<path d="M188.288 101.161H142.276L155.889 61.1406C156.763 59.794 158.287 58.9769 159.927 58.9769H198.822C200.587 58.9769 201.723 60.69 201.147 62.2014C200.918 62.8024 188.288 101.161 188.288 101.161Z" fill="white"/>
<path d="M188.288 101.564H142.276C142.146 101.564 142.023 101.502 141.948 101.396C141.873 101.289 141.853 101.154 141.895 101.031L155.508 61.0106C155.519 60.9794 155.533 60.9483 155.551 60.9208C156.506 59.4514 158.142 58.5739 159.927 58.5739H198.822C199.795 58.5739 200.665 59.0246 201.206 59.8105C201.724 60.5617 201.843 61.5089 201.525 62.3462C201.336 62.8463 193.035 88.0378 188.672 101.288C188.617 101.453 188.463 101.564 188.289 101.564H188.288ZM142.838 100.758H187.996C189.227 97.0206 200.548 62.6411 200.77 62.0585C200.993 61.4704 200.907 60.8017 200.541 60.2686C200.152 59.7043 199.526 59.3818 198.82 59.3818H159.925C158.43 59.3818 157.061 60.1055 156.253 61.3202L142.838 100.76V100.758Z" fill="black"/>
<path d="M175.938 82.7256C176.484 80.9054 175.643 79.0451 174.06 78.5706C172.478 78.096 170.752 79.1869 170.207 81.0071C169.661 82.8273 170.501 84.6876 172.084 85.1621C173.667 85.6366 175.392 84.5458 175.938 82.7256Z" fill="#87ED82"/>
<path d="M54.879 141.07L44.447 148.05L49.7308 154.292L61.7439 148.428L54.879 141.07Z" fill="white"/>
<path d="M49.7308 154.695C49.6154 154.695 49.5018 154.646 49.423 154.552L44.1392 148.311C44.0659 148.223 44.0311 148.107 44.0476 147.994C44.0641 147.88 44.1264 147.777 44.2235 147.715L54.6555 140.735C54.8186 140.625 55.0403 140.65 55.174 140.795L62.0408 148.153C62.1269 148.246 62.1653 148.376 62.1415 148.501C62.1177 148.627 62.0371 148.734 61.9217 148.791L49.9085 154.655C49.8517 154.683 49.7913 154.695 49.7326 154.695H49.7308ZM45.0461 148.135L49.8371 153.794L61.0789 148.305L54.8186 141.596L45.0461 148.135Z" fill="black"/>
<path d="M46.2389 144.903C44.667 145.868 41.7869 147.708 39.4198 149.619C37.9358 150.819 37.606 152.949 38.6247 154.564C41.5029 159.129 48.6518 168.971 55.9583 176.349C56.4584 176.855 57.653 177.491 59.2377 176.633C64.6718 173.693 58.8677 164.481 54.9708 152.647L52.175 152.336C50.6891 152.171 49.4469 151.128 49.0237 149.694L47.7852 145.496C47.591 144.839 46.827 144.542 46.2408 144.901L46.2389 144.903Z" fill="#87ED82"/>
<path d="M57.7097 177.456C56.8339 177.456 56.1157 177.082 55.6723 176.633C48.3787 169.268 41.2775 159.529 38.2838 154.778C37.1497 152.981 37.529 150.626 39.1669 149.304C41.5669 147.365 44.4965 145.498 46.0281 144.558C46.4147 144.322 46.8782 144.28 47.2996 144.441C47.7228 144.604 48.0398 144.947 48.1699 145.383L49.4084 149.578C49.7876 150.861 50.8905 151.786 52.2188 151.934L55.0146 152.246C55.1722 152.264 55.3041 152.371 55.3536 152.521C56.3246 155.472 57.4403 158.321 58.4242 160.835C61.4362 168.532 63.8161 174.612 59.4282 176.987C58.8144 177.318 58.2336 177.452 57.7078 177.452L57.7097 177.456ZM46.4495 145.247C44.9325 146.178 42.0378 148.023 39.6725 149.934C38.3534 150.998 38.0493 152.898 38.9653 154.349C41.9407 159.069 48.9961 168.748 56.244 176.067C56.4308 176.256 57.4385 177.152 59.0453 176.281C62.8047 174.246 60.652 168.746 57.673 161.134C56.713 158.68 55.6284 155.908 54.6683 153.025L52.129 152.741C50.4765 152.556 49.1061 151.407 48.6352 149.811L47.3967 145.616C47.3399 145.421 47.1988 145.269 47.012 145.198C46.8269 145.126 46.6217 145.145 46.4513 145.249L46.4495 145.247Z" fill="black"/>
<path d="M39.777 149.335C39.777 149.335 39.5352 149.527 39.4198 149.621C37.9357 150.821 37.606 152.951 38.6246 154.565C41.5029 159.131 48.6518 168.973 55.9582 176.351C56.4584 176.857 57.6529 177.492 59.2377 176.635C59.7232 176.373 60.434 175.699 60.434 175.699L59.9394 175.156C52.8894 167.425 46.4166 159.188 40.5685 150.509L39.777 149.335Z" fill="white"/>
<path d="M57.7097 177.456C56.834 177.456 56.1158 177.082 55.6724 176.633C48.3788 169.268 41.2775 159.529 38.2839 154.778C37.1498 152.981 37.529 150.626 39.1669 149.304C39.2824 149.21 39.526 149.016 39.526 149.016C39.614 148.946 39.7276 148.917 39.8375 148.933C39.9492 148.95 40.0482 149.014 40.1105 149.107L40.9019 150.282C46.7189 158.917 53.2247 167.192 60.2362 174.882L60.7309 175.424C60.8793 175.587 60.8701 175.838 60.7107 175.988C60.6796 176.017 59.954 176.701 59.4282 176.987C58.8145 177.318 58.2337 177.452 57.7079 177.452L57.7097 177.456ZM39.6873 149.921C39.6873 149.921 39.6781 149.928 39.6744 149.932C38.3553 150.998 38.0512 152.896 38.9654 154.349C41.9408 159.069 48.9962 168.748 56.244 176.067C56.4309 176.256 57.4386 177.152 59.0453 176.281C59.2835 176.153 59.6133 175.887 59.8624 175.671L59.6408 175.428C52.6036 167.709 46.074 159.402 40.2351 150.734L39.6873 149.921Z" fill="black"/>
<path d="M56.867 159.845C56.856 159.845 56.845 159.845 56.8358 159.845L51.5319 159.428C51.3102 159.409 51.1435 159.215 51.1618 158.994C51.1783 158.772 51.3798 158.605 51.596 158.623L56.8999 159.041C57.1216 159.059 57.2883 159.254 57.27 159.475C57.2535 159.686 57.0758 159.847 56.8688 159.847L56.867 159.845Z" fill="black"/>
<path d="M53.4794 163.511C53.2577 163.511 53.0763 163.332 53.0763 163.11C53.0763 162.887 53.2558 162.707 53.4775 162.705L58.6569 162.691C58.8786 162.691 59.06 162.87 59.06 163.092C59.06 163.315 58.8804 163.495 58.6587 163.497L53.4794 163.511Z" fill="black"/>
<path d="M129.33 95.1903C133.612 95.2068 148.137 97.6106 148.562 110.864C148.707 115.382 152.336 123.714 125.168 129C92.7743 135.304 68.6839 147.567 63.2554 150.485C62.4639 150.91 61.5387 151.004 60.6794 150.742C57.9606 149.91 52.2279 147.59 51.5079 142.682C51.3467 141.581 51.8377 140.486 52.7391 139.833L59.4245 134.987L53.0835 131.605C45.8449 127.745 40.1232 121.393 37.5234 113.609C35.1985 106.647 34.0479 94.7305 34.0479 94.7305L129.329 95.1903H129.33Z" fill="black"/>
<path d="M202.41 221.899L174.943 127.054L147.476 221.899H140.893L171.071 114.876L178.812 114.865L208.994 221.899H202.41Z" fill="white"/>
<path d="M208.994 222.302H202.41C202.23 222.302 202.072 222.183 202.023 222.011L174.944 128.502L147.864 222.011C147.815 222.183 147.657 222.302 147.477 222.302H140.895C140.768 222.302 140.649 222.243 140.574 222.143C140.497 222.042 140.473 221.912 140.506 221.789L170.685 114.766C170.734 114.592 170.892 114.473 171.071 114.473L178.812 114.462C178.992 114.462 179.151 114.583 179.2 114.755L209.383 221.789C209.417 221.91 209.392 222.042 209.315 222.143C209.24 222.243 209.121 222.302 208.994 222.302ZM202.714 221.496H208.461L178.508 115.268L171.377 115.279L141.426 221.496H147.173L174.556 126.941C174.605 126.769 174.763 126.649 174.943 126.649C175.122 126.649 175.28 126.769 175.329 126.941L202.712 221.496H202.714Z" fill="black"/>
<path d="M134.182 197.922C135.219 201.81 135.481 205.863 134.951 209.851L150.544 207.257C146.688 205.813 143.735 202.64 142.569 198.69L141.679 195.674L134.18 197.922H134.182Z" fill="white"/>
<path d="M134.951 210.252C134.847 210.252 134.746 210.212 134.671 210.139C134.58 210.049 134.536 209.923 134.552 209.796C135.076 205.841 134.82 201.881 133.792 198.025C133.735 197.814 133.856 197.598 134.065 197.534L141.564 195.288C141.666 195.256 141.778 195.269 141.871 195.319C141.965 195.37 142.036 195.456 142.066 195.559L142.954 198.574C144.077 202.382 146.968 205.485 150.686 206.878C150.856 206.942 150.964 207.112 150.946 207.293C150.927 207.475 150.79 207.621 150.61 207.653L135.017 210.247C134.995 210.25 134.973 210.252 134.951 210.252ZM134.669 198.197C135.598 201.861 135.849 205.612 135.419 209.364L149.136 207.083C145.799 205.421 143.247 202.409 142.183 198.805L141.408 196.178L134.669 198.197Z" fill="black"/>
<path d="M134.38 204.857C133.878 206.795 132.844 212.249 132.432 215.525C132.174 217.581 133.52 219.494 135.53 219.988C141.214 221.388 154.727 221.045 165.987 221.305C166.759 221.324 168.171 220.921 168.765 219.057C170.798 212.667 158.65 210.998 146.703 204.688C146.703 204.688 146.014 205.269 144.988 205.824C143.271 206.753 140.45 206.671 138.753 205.705L136.034 204.159C135.387 203.791 134.567 204.135 134.38 204.855V204.857Z" fill="#87ED82"/>
<path d="M166.039 221.71C166.018 221.71 165.998 221.71 165.978 221.71C163.096 221.643 160.024 221.615 157.054 221.589C148.133 221.509 139.708 221.434 135.433 220.38C133.211 219.832 131.749 217.724 132.031 215.474C132.44 212.216 133.466 206.766 133.988 204.754C134.109 204.289 134.431 203.915 134.874 203.728C135.318 203.541 135.812 203.569 136.232 203.809L138.951 205.355C140.552 206.266 143.227 206.317 144.793 205.471C145.766 204.943 146.435 204.386 146.441 204.38C146.565 204.276 146.743 204.256 146.888 204.333C150.583 206.284 154.32 207.799 157.62 209.135C165.192 212.204 170.661 214.42 169.148 219.18C168.552 221.051 167.114 221.71 166.037 221.71H166.039ZM135.474 204.413C135.378 204.413 135.281 204.434 135.19 204.472C134.981 204.56 134.827 204.738 134.77 204.958C134.253 206.947 133.238 212.345 132.833 215.575C132.603 217.418 133.803 219.147 135.627 219.596C139.81 220.626 148.19 220.701 157.061 220.781C160.035 220.809 163.109 220.836 165.996 220.902C166.293 220.921 167.772 220.846 168.38 218.935C169.668 214.886 164.489 212.786 157.32 209.882C154.073 208.567 150.402 207.079 146.748 205.168C146.461 205.388 145.902 205.789 145.18 206.18C143.37 207.16 140.396 207.105 138.555 206.057L135.836 204.51C135.725 204.446 135.6 204.413 135.475 204.413H135.474Z" fill="black"/>
<path d="M132.123 217.011C132.113 217.068 132.106 217.108 132.104 217.126C131.846 219.182 133.836 220.402 135.73 221.236C141.465 223.762 164.708 221.687 164.708 221.687C164.708 221.687 167.825 221.719 168.653 219.849C168.774 219.574 168.833 219.167 168.86 218.827C168.889 218.462 168.855 218.094 168.767 217.738L168.56 216.901C165.396 218.158 151.158 219.116 140.825 217.835C136.49 217.299 133.98 215.428 132.533 214.715C132.533 214.715 132.331 215.837 132.124 217.011H132.123Z" fill="white"/>
<path d="M147.608 222.897C142.568 222.897 137.806 222.591 135.565 221.604C133.762 220.811 131.401 219.477 131.703 217.075C131.707 217.053 131.714 217.007 131.725 216.941C131.932 215.767 132.134 214.646 132.134 214.646C132.156 214.521 132.236 214.415 132.348 214.356C132.462 214.299 132.595 214.298 132.709 214.356C132.995 214.497 133.31 214.675 133.674 214.882C135.173 215.73 137.439 217.013 140.871 217.438C151.123 218.707 165.286 217.769 168.408 216.527C168.516 216.485 168.638 216.491 168.741 216.544C168.845 216.597 168.921 216.692 168.948 216.806L169.155 217.643C169.256 218.053 169.291 218.464 169.26 218.861C169.219 219.358 169.139 219.746 169.02 220.014C168.094 222.102 164.853 222.095 164.703 222.091C164.144 222.143 155.533 222.899 147.609 222.899L147.608 222.897ZM132.52 217.08L132.504 217.179C132.322 218.618 133.368 219.755 135.891 220.867C141.466 223.324 164.439 221.307 164.67 221.285C164.738 221.285 167.572 221.289 168.281 219.686C168.362 219.506 168.422 219.189 168.455 218.794C168.481 218.482 168.452 218.16 168.373 217.833L168.272 217.423C164.373 218.618 150.722 219.466 140.774 218.235C137.183 217.79 134.834 216.459 133.279 215.58C133.119 215.49 132.971 215.406 132.832 215.329C132.753 215.765 132.637 216.414 132.52 217.079V217.08Z" fill="black"/>
<path d="M148 210.353C147.881 210.353 147.761 210.3 147.683 210.199C147.545 210.023 147.575 209.77 147.751 209.633L151.109 206.988C151.285 206.85 151.537 206.879 151.675 207.055C151.812 207.231 151.783 207.484 151.607 207.621L148.249 210.267C148.176 210.326 148.088 210.353 148 210.353Z" fill="black"/>
<path d="M152.571 212.103C152.45 212.103 152.331 212.05 152.252 211.947C152.115 211.771 152.148 211.518 152.323 211.381L155.264 209.098C155.442 208.961 155.693 208.994 155.83 209.17C155.968 209.345 155.935 209.598 155.759 209.736L152.818 212.018C152.745 212.075 152.657 212.103 152.571 212.103Z" fill="black"/>
<path d="M101.369 115.89C101.369 115.89 113.241 118.502 122.075 124.592C129.732 129.869 137.804 139.962 145.156 192.851C145.649 196.402 142.608 198.945 140.525 199.428C137.577 200.113 135.153 199.844 132.659 198.234C128.411 195.487 112.372 154.807 102.813 146.174C93.2526 137.541 52.8711 135.696 45.0809 124.709C37.2908 113.722 56.4107 113.722 56.4107 113.722L101.367 115.891L101.369 115.89Z" fill="black"/>
<path d="M70.463 147.961C70.3146 147.961 70.1717 147.878 70.1002 147.737C70.0013 147.537 70.0837 147.296 70.2834 147.197C72.7238 145.987 75.0799 144.742 77.359 143.538C87.3843 138.239 96.8527 133.234 114.401 130.174C114.624 130.138 114.829 130.283 114.868 130.502C114.906 130.722 114.76 130.931 114.54 130.97C97.1183 134.007 87.7031 138.983 77.7365 144.251C75.4536 145.458 73.0921 146.706 70.6425 147.92C70.5857 147.948 70.5234 147.962 70.463 147.962V147.961Z" fill="white"/>
<path d="M128.02 52.1687H128.315H135.589L131.842 77.8622H128.315H128.02H124.495L120.749 52.1687H128.02Z" fill="black"/>
<path d="M17.1357 46.4855C19.1437 42.0628 24.4917 39.2066 28.6469 37.5833C31.5196 36.4603 34.5664 35.8502 37.648 35.7292L48.5454 35.3024C52.6622 35.0074 57.5099 35.1979 62.8047 36.1378C69.8364 37.3873 76.148 41.2256 80.633 46.7823C82.6611 49.296 84.4493 51.4726 84.5958 51.5165C90.4879 59.7885 91.2849 61.2469 95.5445 64.334C102.657 69.4895 115.104 65.2848 115.104 65.2848C119.252 64.6637 120.756 67.76 121.511 69.4804C122.42 71.547 121.54 74.068 120.74 75.6875C120.227 76.7245 119.353 77.5325 118.283 77.9685C112.946 80.1432 94.7952 86.922 86.4701 82.2062C79.5319 78.2745 74.8728 70.0685 71.1555 66.0378C70.7799 65.6311 70.1075 65.9316 70.1551 66.483C70.943 75.5391 78.4051 86.2899 80.6769 89.377C81.0837 89.9285 81.6993 90.2858 82.3808 90.3646L98.8075 92.2351C99.0328 92.2516 99.2784 92.3451 99.522 92.4751C100.599 93.0504 101.299 94.146 101.46 95.3571C101.719 97.2899 101.557 100.918 100.962 102.086L100.4 103.195C99.9452 104.089 99.0347 104.659 98.0325 104.675C89.3025 104.818 49.9598 104.831 39.2731 104.77C29.5025 104.715 25.5781 99.897 20.3639 86.2735C18.2918 80.8596 11.775 58.2935 17.1357 46.4892V46.4855Z" fill="white"/>
<path d="M59.2065 105.205C50.7091 105.205 43.1499 105.192 39.2713 105.17C28.8905 105.111 24.9332 99.3363 19.9865 86.4126C17.9162 81.0043 11.3023 58.3502 16.7675 46.3188C18.8341 41.7696 24.2883 38.8529 28.4985 37.2077C31.3749 36.0846 34.4473 35.4507 37.6315 35.3261L48.5289 34.8992C53.0011 34.5768 57.9679 34.8699 62.8743 35.7402C69.9243 36.9915 76.3422 40.8224 80.9463 46.5295C84.0242 50.3421 84.6728 51.0529 84.8065 51.172C84.8523 51.1995 84.8926 51.238 84.9238 51.2819C85.5284 52.1302 86.0798 52.9089 86.5873 53.6234C90.9716 59.8067 92.014 61.2761 95.7809 64.0078C102.64 68.9783 114.851 64.944 114.974 64.9037C114.996 64.8963 115.02 64.8908 115.044 64.8872C119.633 64.202 121.207 67.7892 121.879 69.3209C122.836 71.4974 121.984 74.0825 121.099 75.8688C120.544 76.9901 119.598 77.8695 118.433 78.344C114.382 79.9948 103.093 84.2343 94.1264 84.2343C91.1291 84.2343 88.392 83.7616 86.2704 82.5579C81.2577 79.7181 77.4066 74.6633 74.3104 70.6015C73.0792 68.9856 71.9158 67.4595 70.8587 66.3126C70.7854 66.232 70.7029 66.2503 70.6626 66.2704C70.6187 66.2887 70.549 66.3382 70.5582 66.45C71.335 75.3943 78.7496 86.0774 81.0031 89.1407C81.342 89.6005 81.8605 89.901 82.4284 89.9651L98.8551 91.8357C99.1006 91.854 99.3956 91.9493 99.7144 92.1215C100.876 92.7426 101.678 93.9334 101.863 95.3057C102.116 97.1873 102.001 100.941 101.325 102.271L100.761 103.38C100.237 104.409 99.1941 105.062 98.0398 105.08C92.4849 105.17 74.3562 105.208 59.2065 105.208V105.205ZM17.1357 46.4855L17.5022 46.6522C12.2055 58.3136 18.8194 81.1087 20.7395 86.125C26.1992 100.392 30.184 104.312 39.2749 104.364C50.0679 104.424 89.3611 104.409 98.0252 104.268C98.8808 104.254 99.6521 103.772 100.039 103.01L100.603 101.901C101.143 100.837 101.321 97.3412 101.061 95.4083C100.911 94.2925 100.264 93.327 99.3315 92.8287C99.0585 92.6821 98.8789 92.6418 98.7763 92.6345L82.3332 90.7621C81.5435 90.6723 80.8217 90.2546 80.3508 89.6133C78.0662 86.5079 70.549 75.6691 69.7539 66.5159C69.7173 66.0891 69.9445 65.7006 70.3365 65.5284C70.7249 65.3562 71.1628 65.4478 71.4523 65.7629C72.535 66.9373 73.7094 68.4781 74.9534 70.1105C78.0039 74.1137 81.8019 79.0952 86.6698 81.8544C94.8227 86.4749 112.812 79.7621 118.131 77.5947C119.113 77.1935 119.912 76.4533 120.379 75.5079C121.187 73.8755 121.973 71.5322 121.143 69.6415C120.157 67.3972 118.679 65.1693 115.199 65.6768C114.316 65.97 102.389 69.7899 95.31 64.6582C91.4351 61.8495 90.378 60.3582 85.9314 54.0887C85.4331 53.3852 84.8926 52.623 84.299 51.7894C84.0077 51.5329 83.2144 50.6169 80.3215 47.0351C75.8383 41.482 69.5945 37.7518 62.7369 36.5335C57.8947 35.6742 52.9974 35.3866 48.5766 35.7035L37.6664 36.1322C34.5719 36.2532 31.5874 36.8687 28.7971 37.9589C24.7243 39.5491 19.4607 42.3504 17.5058 46.6522L17.1394 46.4855H17.1357Z" fill="black"/>
<path d="M105.229 104.278H124.296C124.296 101.038 121.67 98.413 118.431 98.413H111.094C107.854 98.413 105.229 101.038 105.229 104.278Z" fill="white"/>
<path d="M124.294 104.681H105.227C105.004 104.681 104.824 104.501 104.824 104.278C104.824 100.822 107.636 98.01 111.092 98.01H118.429C121.885 98.01 124.697 100.822 124.697 104.278C124.697 104.501 124.517 104.681 124.294 104.681ZM105.647 103.875H123.876C123.669 101.051 121.306 98.8161 118.429 98.8161H111.092C108.217 98.8161 105.852 101.051 105.645 103.875H105.647Z" fill="black"/>
<path d="M96.9736 96.1191C97.3107 95.4596 97.8768 94.9374 98.573 94.6883C99.0713 94.5087 99.5642 94.2724 100.031 94.025L106.519 90.5862C107.734 89.9907 109.472 91.3776 110.733 91.7917C114.54 93.0412 122.422 95.9836 121.773 98.7464C121.073 101.727 114.298 100.317 111.892 99.7156C111.343 99.5782 106.365 101.379 104.791 101.498C102.616 101.663 102.114 101.11 101.052 100.553C100.566 100.298 100.028 100.185 99.4414 100.179C98.5455 100.174 97.6936 99.798 97.1329 99.0982L97.1201 99.0817C96.5027 98.3103 96.3946 97.2477 96.8453 96.3683L96.9736 96.1191Z" fill="white"/>
<path d="M104.066 101.931C102.666 101.931 102.037 101.571 101.327 101.165C101.182 101.082 101.032 100.996 100.867 100.91C100.455 100.694 99.9892 100.588 99.4414 100.584C98.3971 100.577 97.4425 100.128 96.8196 99.3528C96.0904 98.4422 95.964 97.2074 96.4862 96.1887L96.6144 95.9396C97.0083 95.1719 97.6551 94.593 98.4374 94.3127C98.8533 94.1643 99.2985 93.9609 99.8444 93.6714L106.332 90.2326C107.376 89.7214 108.602 90.337 109.685 90.8811C110.112 91.0955 110.513 91.297 110.861 91.4106C116.39 93.2244 122.839 95.9854 122.169 98.8416C122.022 99.4609 121.652 99.9574 121.069 100.313C118.93 101.617 114.342 100.745 111.799 100.109H111.786C111.508 100.109 110.124 100.52 109.01 100.851C107.374 101.337 105.685 101.839 104.826 101.903C104.549 101.923 104.298 101.934 104.067 101.934L104.066 101.931ZM97.3326 96.3042L97.2044 96.5533C96.827 97.2898 96.9186 98.1839 97.4352 98.8306C97.9171 99.4316 98.6462 99.7705 99.4469 99.776C100.116 99.7797 100.72 99.9226 101.242 100.196C101.415 100.287 101.574 100.377 101.728 100.465C102.501 100.906 103.058 101.225 104.765 101.097C105.539 101.038 107.261 100.527 108.781 100.076C110.887 99.4517 111.652 99.2392 111.995 99.3253C113.516 99.7046 118.635 100.851 120.65 99.6221C121.047 99.3784 121.289 99.0633 121.385 98.6548C121.78 96.9674 117.653 94.4849 110.612 92.1746C110.207 92.0408 109.778 91.8265 109.324 91.5993C108.41 91.1394 107.373 90.6191 106.7 90.9489L100.224 94.3823C99.6447 94.6901 99.1629 94.9081 98.7122 95.0693C98.1241 95.28 97.6349 95.7197 97.3363 96.3042H97.3326Z" fill="black"/>
<path d="M133.744 60.9371C130.877 60.9664 129.873 59.0299 128.052 59.7719C126.467 60.4168 121.886 65.4698 117.024 66.4866C115.56 66.7925 114.455 68.0017 114.267 69.4876C114.159 70.3413 114.151 71.2555 114.408 71.9957C115.089 73.9616 115.296 76.6914 123.447 72.0745C123.447 72.0745 124.884 70.9478 128.903 68.643C128.903 68.643 129.405 81.0262 137.408 70.0775C138.855 68.0988 139.332 60.8785 133.746 60.9371H133.744Z" fill="white"/>
<path d="M116.883 75.0078C116.486 75.0078 116.137 74.9474 115.833 74.8301C114.765 74.4124 114.439 73.4029 114.151 72.5125C114.109 72.3824 114.069 72.2542 114.025 72.1278C113.781 71.4242 113.728 70.5192 113.866 69.4364C114.078 67.7765 115.313 66.4317 116.94 66.0928C120.161 65.4204 123.35 62.8463 125.461 61.1424C126.551 60.263 127.339 59.6273 127.898 59.4001C129.008 58.9494 129.864 59.347 130.77 59.7684C131.558 60.1329 132.467 60.5507 133.738 60.536C136.23 60.5122 137.458 61.8533 138.04 62.9855C139.314 65.4626 138.707 68.982 137.731 70.3176C135.096 73.9214 132.993 75.4201 131.302 74.9071C129.255 74.2842 128.695 70.7922 128.548 69.3137C125.03 71.3565 123.708 72.3824 123.695 72.3916C123.68 72.4044 123.662 72.4154 123.645 72.4246C120.573 74.1651 118.38 75.006 116.883 75.006V75.0078ZM128.878 60.0084C128.662 60.0084 128.44 60.0505 128.204 60.1458C127.755 60.329 126.927 60.9959 125.968 61.769C123.797 63.5205 120.516 66.1679 117.105 66.8806C115.813 67.1499 114.833 68.218 114.664 69.539C114.542 70.4972 114.582 71.2795 114.785 71.8639C114.831 71.9959 114.873 72.1296 114.917 72.2652C115.172 73.0548 115.412 73.8023 116.125 74.079C117.286 74.5315 119.675 73.7437 123.22 71.7375C123.433 71.5745 124.935 70.4514 128.7 68.2932C128.821 68.2235 128.973 68.2217 129.096 68.2895C129.219 68.3573 129.297 68.4855 129.303 68.6266C129.36 69.986 129.869 73.6264 131.536 74.1339C132.434 74.4069 134.123 73.8829 137.078 69.8395C137.925 68.6816 138.399 65.4479 137.322 63.352C136.635 62.0164 135.453 61.3385 133.808 61.3385C133.788 61.3385 133.766 61.3385 133.746 61.3385C133.722 61.3385 133.7 61.3385 133.678 61.3385C132.245 61.3385 131.239 60.8713 130.43 60.4957C129.845 60.2246 129.373 60.0047 128.876 60.0047L128.878 60.0084Z" fill="black"/>
<path d="M75.3821 90.1685C75.3638 90.1685 75.3455 90.1685 75.329 90.1648C74.3543 90.0329 73.2257 89.9211 71.9176 89.7892C60.5823 88.6533 39.4801 86.5372 32.159 64.2203C32.0894 64.0096 32.2048 63.7806 32.4173 63.711C32.6299 63.6432 32.857 63.7568 32.9267 63.9693C40.0847 85.7879 60.8462 87.8692 72 88.9868C73.3137 89.1187 74.4496 89.2323 75.4371 89.3642C75.6588 89.3935 75.8127 89.5969 75.7834 89.8167C75.7559 90.0201 75.5837 90.1666 75.384 90.1666L75.3821 90.1685Z" fill="black"/>
<path d="M124.911 52.4545C124.735 52.4545 124.574 52.3391 124.525 52.1632L120.872 39.4282L114.413 36.1139C114.215 36.0132 114.137 35.7695 114.239 35.5716C114.34 35.3738 114.586 35.295 114.782 35.3976L121.395 38.7906C121.494 38.8419 121.568 38.9317 121.599 39.038L125.302 51.9397C125.364 52.1541 125.239 52.3776 125.025 52.438C124.988 52.449 124.95 52.4545 124.913 52.4545H124.911Z" fill="#87ED82"/>
<path d="M135.589 52.1686L133.898 63.7695C133.887 63.7988 133.872 63.8226 133.863 63.8538C133.634 64.5994 132.758 65.1857 132.218 65.7134C131.505 66.4096 130.796 67.1241 130.129 67.8624C129.499 68.5586 128.803 69.3867 128.495 70.2918C128.22 70.8762 128.229 71.5193 128.467 72.0799C128.515 72.4445 128.68 72.789 128.916 73.0931C129.464 74.3921 130.822 75.3356 132.194 75.462L131.844 77.8621H124.495L120.749 52.1686H135.589Z" fill="#87ED82"/>
<path d="M116.667 66.6259C116.667 66.6259 122.013 65.2591 123.424 61.9009C125.096 57.9215 128.757 59.957 128.332 62.7308C127.887 65.6219 126.883 66.3364 125.179 67.5291C123.499 68.7035 122.81 68.6357 122.81 68.6357L116.667 66.6259Z" fill="white"/>
<path d="M122.167 69.4583C121.989 69.4583 121.826 69.3392 121.779 69.1578C121.722 68.9435 121.85 68.7218 122.064 68.665C122.077 68.6613 123.356 68.3132 124.948 67.1993C126.603 66.0432 127.513 65.4057 127.934 62.6703C128.129 61.4043 127.337 60.3912 126.46 60.142C125.421 59.8489 124.426 60.5652 123.798 62.0584C122.325 65.5614 116.995 66.9593 116.768 67.0179C116.553 67.0747 116.334 66.9428 116.277 66.7266C116.222 66.5104 116.352 66.2924 116.568 66.2356C116.619 66.2228 121.738 64.878 123.054 61.7451C123.995 59.5026 125.544 59.0482 126.678 59.3652C128.065 59.7573 128.966 61.2614 128.731 62.7912C128.259 65.8673 127.126 66.6588 125.412 67.8589C123.693 69.0607 122.328 69.4271 122.271 69.4436C122.237 69.4528 122.204 69.4564 122.169 69.4564L122.167 69.4583Z" fill="black"/>
<path d="M129.068 70.8708C128.88 70.8708 128.711 70.7371 128.673 70.5447C128.077 67.4723 132.055 65.1418 132.225 65.0447C132.417 64.933 132.663 64.9989 132.775 65.1931C132.886 65.3855 132.821 65.6328 132.626 65.7446C132.59 65.7666 128.977 67.8863 129.462 70.3926C129.504 70.6107 129.362 70.8232 129.143 70.8653C129.118 70.8708 129.092 70.8727 129.067 70.8727L129.068 70.8708Z" fill="black"/>
<path d="M54.0619 31.8049C54.2268 31.2297 54.7398 30.8229 55.3316 30.7991L59.7836 30.6525C60.3516 30.6287 60.8371 30.2257 60.969 29.6669L62.1709 24.5993L64.1752 23.6905C64.3327 23.6191 64.4042 23.4359 64.3382 23.2765L62.7626 19.4932C62.2936 18.1026 62.3083 15.1199 61.5828 15.1034C61.5828 15.1034 47.983 9.18939 45.0315 15.9535C44.5844 16.9759 44.5606 18.1356 44.9161 19.1927L45.6416 21.3509C46.3671 23.5091 46.3707 25.8836 45.484 27.9868C45.3008 28.4229 44.6101 29.8464 43.476 31.5539C42.5215 32.994 40.5245 34.4853 39.0881 35.4453C38.2765 35.9876 38.2252 37.1639 38.9855 37.7758C40.4585 38.963 42.6809 40.632 44.284 41.2769C48.0691 42.8013 49.9763 43.1952 51.9092 42.9826C53.789 42.7756 54.8552 40.8537 54.2067 39.0784C52.8582 35.3867 54.0638 31.8013 54.0638 31.8013L54.0619 31.8049Z" fill="white"/>
<path d="M50.9437 43.4442C49.1958 43.4442 47.2978 42.9294 44.1319 41.6542C42.505 40.9983 40.2973 39.3549 38.7308 38.0926C38.2673 37.7188 38.0163 37.1637 38.0438 36.5683C38.0713 35.9728 38.3699 35.4434 38.8627 35.1136C40.3119 34.1462 42.2302 32.7044 43.1389 31.3358C44.2546 29.6539 44.9417 28.2377 45.1121 27.8346C45.931 25.8944 45.9823 23.6391 45.2586 21.4845L44.5331 19.3263C44.1374 18.1483 44.1832 16.8951 44.6614 15.7977C47.6697 8.91076 60.5604 14.2349 61.6835 14.7149C62.398 14.8212 62.5629 15.9772 62.7699 17.4246C62.8725 18.1391 62.9788 18.8793 63.1437 19.3721L64.7083 23.1298C64.8604 23.4925 64.6973 23.9029 64.34 24.066L62.5153 24.8923L61.3592 29.7675C61.1852 30.5003 60.5421 31.0316 59.7964 31.0628L55.3426 31.2094C54.9248 31.2258 54.5639 31.5135 54.4467 31.9239C54.4467 31.9294 54.443 31.9349 54.4412 31.9404C54.4302 31.9752 53.2998 35.4434 54.5804 38.95C54.9487 39.9558 54.8442 41.0368 54.2964 41.9199C53.7816 42.748 52.926 43.2866 51.9477 43.3929C51.6124 43.4295 51.2771 43.4497 50.9382 43.4497L50.9437 43.4442ZM51.3064 13.1191C48.7213 13.1191 46.3927 13.8483 45.4015 16.1183C45.004 17.0307 44.9655 18.0786 45.2989 19.068L46.0245 21.2262C46.8104 23.5658 46.7518 26.0245 45.8559 28.1461C45.6342 28.6719 44.9215 30.1083 43.8113 31.7792C42.8293 33.2595 40.8213 34.7728 39.3116 35.7823C39.0331 35.9692 38.8646 36.2678 38.8499 36.6031C38.8353 36.9402 38.9763 37.2535 39.2383 37.4642C40.7608 38.6935 42.9007 40.2875 44.4342 40.9067C48.0728 42.3724 49.9488 42.7956 51.8652 42.5868C52.6054 42.5062 53.2283 42.1159 53.6167 41.4893C54.0326 40.8188 54.1096 39.9925 53.8274 39.2212C52.4662 35.4947 53.5966 31.9331 53.6772 31.6875C53.8934 30.9474 54.5511 30.4307 55.3169 30.3977L59.7708 30.2512C60.1537 30.2347 60.4871 29.958 60.5787 29.5751L61.7788 24.5093C61.8081 24.3884 61.8905 24.2858 62.0041 24.2345L63.9352 23.3588L62.3925 19.6506C62.1928 19.0625 62.0829 18.2857 61.9748 17.5345C61.8777 16.8548 61.7165 15.7299 61.5204 15.5045C61.4875 15.499 61.4563 15.4899 61.4252 15.477C61.3409 15.4404 55.9178 13.1191 51.3083 13.1191H51.3064Z" fill="black"/>
<path d="M65.3624 4.40564C62.1709 3.25141 65.258 7.82069 54.2946 0.730429C49.9287 -2.09285 50.6854 4.22976 49.5513 3.50058C45.3613 0.807377 45.5078 0.893483 43.095 0.818367C41.4974 0.7689 39.7202 3.22393 39.3904 5.3565C38.9562 8.17062 41.4827 14.9403 43.4577 20.127C44.4745 22.7982 48.1955 24.1594 49.8463 21.0192C50.3025 20.1508 48.3513 17.4008 49.8628 16.274C52.6384 14.2038 52.7025 18.5074 54.8516 17.9138C56.9146 17.344 57.8453 16.853 60.1775 15.7519C63.0008 14.4199 65.76 18.6741 68.4165 14.5482C69.8016 12.3973 69.7302 5.98675 65.3606 4.40747L65.3624 4.40564Z" fill="black"/>
<path d="M61.982 221.135L34.515 126.274L7.04804 221.135H0.46344L30.6419 114.096L38.3844 114.085L68.5648 221.135H61.982Z" fill="white"/>
<path d="M68.5648 221.538H61.982C61.8025 221.538 61.6449 221.419 61.5954 221.247L34.515 127.725L7.43464 221.247C7.38517 221.419 7.22761 221.538 7.04807 221.538H0.463467C0.337052 221.538 0.217965 221.479 0.142848 221.379C0.0658997 221.278 0.0420823 221.148 0.0750602 221.025L30.2536 113.988C30.303 113.814 30.4606 113.695 30.642 113.695L38.3845 113.684C38.564 113.684 38.7234 113.805 38.7729 113.977L68.9532 221.025C68.988 221.146 68.9624 221.278 68.8854 221.379C68.8103 221.479 68.6912 221.538 68.5648 221.538ZM62.2843 220.732H68.0316L38.0785 114.49L30.9479 114.501L0.996611 220.732H6.74394L34.1266 126.162C34.1761 125.99 34.3337 125.871 34.5132 125.871C34.6928 125.871 34.8503 125.99 34.8998 126.162L62.2825 220.732H62.2843Z" fill="black"/>
<path d="M0.403046 115.701L209.597 115.701V105.393L0.403046 105.393V115.701Z" fill="white"/>
<path d="M209.597 116.104H0.403064C0.179547 116.104 0 115.924 0 115.701V105.393C0 105.17 0.179547 104.99 0.403064 104.99H209.597C209.82 104.99 210 105.17 210 105.393V115.701C210 115.924 209.82 116.104 209.597 116.104ZM0.806128 115.298H209.194V105.796H0.806128V115.298Z" fill="black"/>
<path d="M61.7714 113.682C61.5478 113.682 61.3683 113.502 61.3683 113.279V107.539C61.3683 107.315 61.5478 107.136 61.7714 107.136C61.9949 107.136 62.1744 107.315 62.1744 107.539V113.279C62.1744 113.502 61.9949 113.682 61.7714 113.682Z" fill="black"/>
</svg>
