<svg width="211" height="237" viewBox="0 0 211 237" fill="none" xmlns="http://www.w3.org/2000/svg">
<path d="M84.5507 71.3222C80.9454 72.4432 79.1087 67.281 72.4383 66.4773C65.9421 65.6948 64.4096 70.1997 57.4204 70.3526C49.4534 70.5283 40.5103 64.9171 39.98 59.2099C39.5179 54.2381 45.6449 51.3927 44.3027 48.0152C43.0662 44.9013 37.6503 46.7901 32.2115 42.757C27.5439 39.2966 24.3129 32.5515 25.93 27.7196C27.16 24.0444 30.2007 24.4381 31.743 20.2098C33.378 15.7277 30.583 13.86 31.8747 9.28836C33.2055 4.5801 38.044 0.0459206 42.7213 0.000367224C47.2555 -0.0451861 47.9974 4.16198 53.0587 4.46621C58.8569 4.816 61.1997 -0.507228 64.6861 0.833342C68.4459 2.27803 66.8646 8.90604 71.8575 11.7385C73.9367 12.918 74.5273 11.9858 78.7361 13.1881C80.882 13.8014 84.9997 14.9777 87.5295 17.6832C92.3761 22.8681 87.8728 29.9159 92.0604 33.2933C95.1792 35.8102 98.5859 32.6279 103.203 35.4734C106.057 37.2305 109.031 41.0797 108.393 44.4425C107.388 49.7332 98.5144 48.1242 92.3028 55.5787C86.6119 62.4084 88.8815 69.9768 84.5523 71.3239L84.5507 71.3222Z" fill="black"/>
<path d="M24.2169 129.439C24.2056 129.439 24.1925 129.439 24.1811 129.437C23.981 129.418 23.8362 129.24 23.8558 129.04L24.8986 118.446C24.9181 118.246 25.0922 118.104 25.2956 118.12C25.4957 118.14 25.6405 118.317 25.621 118.517L24.5781 129.112C24.5602 129.299 24.4008 129.44 24.2169 129.44V129.439Z" fill="black"/>
<path d="M209.889 33.021C208.269 31.4852 206.373 31.4381 204.158 31.713L203.377 31.2249C201.663 30.1544 199.591 29.8226 197.63 30.3041L182.18 34.0981C181.532 34.2575 180.945 33.6816 181.091 33.0308C181.386 31.7342 181.828 29.7884 182.17 28.251C182.52 26.6777 181.898 25.752 181.374 25.277C181.075 25.0053 180.613 25.0346 180.348 25.3388C178.638 27.2992 172.322 34.8009 172.522 38.5118C172.753 42.802 175.696 55.2934 175.696 55.2934H188.829L186.253 46.8823C186.073 46.2933 186.388 45.6654 186.971 45.4604L205.721 38.8291C206.058 38.7103 206.17 38.2906 205.937 38.0173C205.521 37.5292 204.862 36.8329 204.144 36.3481L209.476 34.2412C209.961 34.0493 210.159 33.4701 209.892 33.021H209.889Z" fill="white"/>
<path d="M188.825 55.6566H175.693C175.524 55.6566 175.377 55.5411 175.34 55.3768C175.22 54.8659 172.387 42.8057 172.156 38.5318C171.951 34.7216 178.163 27.2883 180.071 25.1017C180.265 24.8788 180.535 24.747 180.828 24.7308C181.117 24.708 181.4 24.8121 181.617 25.009C182.128 25.4743 182.925 26.5236 182.523 28.3311C182.181 29.8685 181.739 31.8159 181.444 33.1126C181.402 33.2964 181.456 33.477 181.589 33.6088C181.724 33.7406 181.906 33.791 182.09 33.7454L197.541 29.9515C199.584 29.4488 201.782 29.8018 203.567 30.9162L204.24 31.336C206.593 31.0578 208.503 31.2058 210.138 32.7563C210.162 32.7791 210.183 32.8051 210.2 32.8344C210.38 33.1402 210.419 33.5079 210.304 33.843C210.188 34.1798 209.935 34.4466 209.604 34.5768L204.875 36.4461C205.407 36.887 205.877 37.3913 206.207 37.7785C206.394 37.9982 206.463 38.2943 206.388 38.5725C206.313 38.849 206.108 39.0719 205.836 39.1679L187.086 45.7992C186.688 45.9407 186.471 46.367 186.595 46.7721L189.17 55.1832C189.205 55.2938 189.183 55.4126 189.115 55.5053C189.047 55.598 188.938 55.6533 188.822 55.6533L188.825 55.6566ZM175.983 54.9294H188.334L185.904 46.9884C185.666 46.2108 186.079 45.3892 186.847 45.1175L205.597 38.4862C205.659 38.4635 205.682 38.4146 205.688 38.387C205.696 38.3593 205.701 38.3057 205.657 38.2536C205.249 37.7753 204.618 37.1082 203.938 36.6495C203.826 36.5746 203.765 36.4428 203.78 36.3094C203.795 36.176 203.882 36.0605 204.008 36.0117L209.339 33.9049C209.471 33.8528 209.573 33.7454 209.619 33.612C209.66 33.4916 209.651 33.3615 209.598 33.2476C208.143 31.8973 206.453 31.7964 204.203 32.0746C204.12 32.0844 204.037 32.0665 203.965 32.0225L203.185 31.5345C201.564 30.5225 199.573 30.2037 197.716 30.6576L182.266 34.4515C181.838 34.5573 181.395 34.4352 181.081 34.1261C180.769 33.8186 180.639 33.3794 180.736 32.9515C181.031 31.6549 181.473 29.7107 181.815 28.1733C182.121 26.7969 181.612 25.9851 181.13 25.5458C181.059 25.4824 180.968 25.4482 180.872 25.4547C180.774 25.4596 180.684 25.5052 180.621 25.5784C176.781 29.9775 172.734 35.6815 172.885 38.4927C173.092 42.3469 175.55 53.0568 175.984 54.9294H175.983Z" fill="black"/>
<path d="M188.105 40.6226C187.942 40.6226 187.794 40.5119 187.753 40.3476C187.705 40.1524 187.823 39.9555 188.017 39.9067L201.34 36.5716C201.535 36.5211 201.732 36.6415 201.781 36.8351C201.829 37.0303 201.711 37.2272 201.517 37.276L188.194 40.6112C188.165 40.6193 188.136 40.6226 188.106 40.6226H188.105Z" fill="black"/>
<path d="M186.748 36.7195C186.585 36.7195 186.437 36.6089 186.396 36.4446C186.348 36.2494 186.466 36.0525 186.66 36.0037L199.983 32.6686C200.178 32.6198 200.375 32.7385 200.424 32.9321C200.472 33.1273 200.354 33.3242 200.16 33.373L186.837 36.7082C186.808 36.7163 186.779 36.7195 186.749 36.7195H186.748Z" fill="black"/>
<path d="M11.1514 91.1716C14.8819 91.3961 21.1341 91.7035 24.9362 91.8874C26.6981 91.972 28.0192 93.5241 27.8256 95.2779L25.2583 118.481C25.2583 118.481 31.1249 115.842 37.5512 108.189C43.9758 100.536 49.7644 84.8038 63.9949 84.2474C73.0486 83.8928 95.7651 85.3423 111.094 86.4438C118.966 87.0099 126.601 89.4226 133.324 93.5598C138.208 96.5647 145.46 99.2507 154.633 97.5815C171.471 94.5181 179.077 80.1053 172.067 56.826C171.424 54.6947 173.012 52.5439 175.239 52.5439H189.52C191.071 52.5439 192.434 53.5656 192.87 55.0543C196.124 66.1514 206.997 110.873 175.693 124.954C157.22 133.264 137.803 132.306 137.803 132.306L145.472 202.379C146.292 209.867 142.609 217.14 136.075 220.886C129.216 224.818 118.495 228.43 102.544 227.901C89.2282 227.461 78.8794 225.102 71.2395 222.419C60.7866 218.747 53.2541 209.563 51.6516 198.601C49.9254 186.796 47.9292 168.487 47.6006 145.497C47.6006 145.497 36.78 157.349 16.1916 153.513C-9.23532 148.774 3.07383 105.879 7.01094 93.9796C7.595 92.2128 9.29349 91.0642 11.1514 91.1764V91.1716Z" fill="white"/>
<path d="M105.673 228.315C104.64 228.315 103.594 228.297 102.533 228.263C90.9949 227.88 80.4265 226.029 71.119 222.759C60.5197 219.035 52.9221 209.797 51.2919 198.65C49.6455 187.393 47.6184 169.229 47.2491 146.34C44.6525 148.722 33.9491 157.187 16.1248 153.866C10.7153 152.857 6.622 150.059 3.95713 145.549C-4.60364 131.052 3.86603 102.322 6.66593 93.8625C7.30042 91.9427 9.16161 90.6868 11.1741 90.8104C14.9599 91.0382 21.4333 91.3554 24.9556 91.5246C25.9073 91.5702 26.7729 91.9948 27.3911 92.7188C28.0109 93.4444 28.294 94.3668 28.1883 95.3169L25.6942 117.851C27.326 116.974 32.1416 114.067 37.2729 107.955C38.8233 106.108 40.3461 103.77 41.9584 101.296C46.8895 93.7291 53.0278 84.3109 63.9802 83.8831C72.8435 83.5365 94.5074 84.8869 111.12 86.0794C119.077 86.6504 126.823 89.1298 133.514 93.2475C137.98 95.9954 145.257 98.9157 154.568 97.222C161.845 95.8977 167.429 92.3592 170.715 86.9888C175.124 79.7833 175.47 69.389 171.719 56.9301C171.379 55.7994 171.587 54.6085 172.29 53.6617C172.989 52.7197 174.065 52.1796 175.239 52.1796H189.52C191.219 52.1796 192.74 53.32 193.22 54.9518C194.803 60.3499 198.4 74.4649 197.604 88.9053C196.609 106.998 189.288 119.237 175.843 125.285C159.003 132.859 141.167 132.757 138.209 132.682L145.833 202.338C146.669 209.981 142.909 217.384 136.255 221.2C128.012 225.926 117.735 228.316 105.671 228.316L105.673 228.315ZM47.6005 145.131C47.6444 145.131 47.6867 145.139 47.729 145.156C47.8689 145.208 47.9617 145.341 47.9633 145.489C48.2952 168.736 50.3483 187.174 52.011 198.546C53.6021 209.425 61.0159 218.439 71.3598 222.074C80.5974 225.32 91.0925 227.158 102.557 227.537C115.844 227.975 127.063 225.634 135.894 220.569C142.298 216.897 145.916 209.771 145.112 202.416L137.443 132.344C137.432 132.238 137.467 132.132 137.539 132.056C137.612 131.978 137.715 131.937 137.822 131.942C138.016 131.953 157.369 132.798 175.547 124.621C188.723 118.694 195.901 106.663 196.88 88.8646C197.668 74.5365 194.097 60.5174 192.524 55.1552C192.135 53.8309 190.902 52.9052 189.522 52.9052H175.241C174.299 52.9052 173.437 53.3396 172.875 54.0944C172.311 54.8542 172.143 55.8108 172.417 56.7186C176.23 69.3825 175.858 79.9801 171.336 87.3663C167.938 92.9189 162.185 96.5745 154.7 97.9363C145.163 99.6722 137.71 96.6803 133.135 93.8657C126.541 89.8082 118.911 87.3663 111.069 86.8033C94.4749 85.6108 72.8419 84.2637 64.0111 84.6087C53.4346 85.0219 47.6623 93.8788 42.5701 101.693C40.9448 104.185 39.4106 106.541 37.8309 108.422C31.4258 116.052 25.6519 118.702 25.4095 118.811C25.2907 118.865 25.1524 118.85 25.0467 118.774C24.941 118.697 24.8856 118.57 24.8987 118.44L27.4659 95.2372C27.5489 94.4889 27.326 93.7632 26.8379 93.1906C26.3515 92.6195 25.6698 92.286 24.9214 92.2502C21.3976 92.081 14.9208 91.7622 11.1318 91.5344C9.43167 91.4254 7.88936 92.4829 7.35737 94.0903C4.58187 102.477 -3.82109 130.946 4.58512 145.18C7.13774 149.501 11.0651 152.184 16.2598 153.152C36.4155 156.91 47.2279 145.365 47.3337 145.25C47.4036 145.173 47.5012 145.131 47.6021 145.131H47.6005Z" fill="black"/>
<path d="M24.7718 76.5189L23.1026 74.6692V62.2152C23.1026 61.0032 22.12 60.0205 20.9079 60.0205C19.6959 60.0205 18.7132 61.0032 18.7132 62.2152V75.6258L7.03369 78.167V85.013C7.03369 87.9951 8.76634 90.7056 11.4719 91.9583L12.0527 92.2267C15.5554 93.8487 19.6471 93.5461 22.8732 91.4263C24.4302 90.4029 25.46 88.7484 25.691 86.9002L26.3581 81.5656C26.5875 79.7321 26.0067 77.8888 24.7686 76.5173L24.7718 76.5189Z" fill="white"/>
<path d="M16.756 93.6335C15.1112 93.6335 13.4582 93.2772 11.9013 92.5565L11.3205 92.2881C8.49617 90.9816 6.67078 88.1248 6.67078 85.0125V78.1665C6.67078 77.9957 6.78954 77.8476 6.95711 77.8118L18.3503 75.3324V62.2147C18.3503 60.8042 19.4973 59.6572 20.9078 59.6572C22.3183 59.6572 23.4653 60.8042 23.4653 62.2147V74.5304L25.0402 76.2761C26.3498 77.7272 26.9632 79.673 26.7208 81.6139L26.0537 86.9485C25.8097 88.9057 24.7229 90.6498 23.0732 91.7333C21.1519 92.9958 18.9604 93.6351 16.7543 93.6351L16.756 93.6335ZM7.39801 78.4594V85.0125C7.39801 87.8433 9.05745 90.4399 11.6263 91.6291L12.2071 91.8976C15.6204 93.4773 19.5331 93.1877 22.6763 91.1232C24.147 90.1568 25.115 88.6015 25.3346 86.8558L26.0017 81.5212C26.218 79.7902 25.6714 78.0559 24.5033 76.7609L22.8341 74.9111C22.7739 74.8444 22.7397 74.7581 22.7397 74.667V62.2131C22.7397 61.2028 21.9181 60.3812 20.9078 60.3812C19.8975 60.3812 19.0759 61.2028 19.0759 62.2131V75.6237C19.0759 75.7945 18.9572 75.9425 18.7896 75.9783L7.39638 78.4577L7.39801 78.4594Z" fill="black"/>
<path d="M15.4772 70.8823H16.4712C17.6117 70.8823 18.5374 71.808 18.5374 72.9485V77.5185C18.5374 78.4181 17.8069 79.1486 16.9072 79.1486H15.4788C14.5791 79.1486 13.8486 78.4181 13.8486 77.5185V72.5141C13.8486 71.6144 14.5791 70.8839 15.4788 70.8839L15.4772 70.8823Z" fill="white"/>
<path d="M16.9057 79.5134H15.4772C14.3775 79.5134 13.4827 78.6186 13.4827 77.5188V72.5145C13.4827 71.4147 14.3775 70.5199 15.4772 70.5199H16.4713C17.8102 70.5199 18.9003 71.6099 18.9003 72.9489V77.5188C18.9003 78.6186 18.0055 79.5134 16.9057 79.5134ZM15.4772 71.2471C14.7777 71.2471 14.2099 71.8149 14.2099 72.5145V77.5188C14.2099 78.2184 14.7793 78.7862 15.4772 78.7862H16.9057C17.6052 78.7862 18.173 78.2184 18.173 77.5188V72.9489C18.173 72.0101 17.41 71.2471 16.4697 71.2471H15.4756H15.4772Z" fill="black"/>
<path d="M12.2152 72.038H11.9273C11.027 72.038 10.2971 72.7678 10.2971 73.6681V78.5472C10.2971 79.4475 11.027 80.1774 11.9273 80.1774H12.2152C13.1155 80.1774 13.8454 79.4475 13.8454 78.5472V73.6681C13.8454 72.7678 13.1155 72.038 12.2152 72.038Z" fill="white"/>
<path d="M12.2154 80.5419H11.9274C10.8277 80.5419 9.93286 79.6471 9.93286 78.5473V73.6699C9.93286 72.5701 10.8277 71.6753 11.9274 71.6753H12.2154C13.3152 71.6753 14.21 72.5701 14.21 73.6699V78.5473C14.21 79.6471 13.3152 80.5419 12.2154 80.5419ZM11.9274 72.4009C11.2279 72.4009 10.6601 72.9687 10.6601 73.6683V78.5457C10.6601 79.2453 11.2279 79.8131 11.9274 79.8131H12.2154C12.915 79.8131 13.4828 79.2453 13.4828 78.5457V73.6683C13.4828 72.9687 12.915 72.4009 12.2154 72.4009H11.9274Z" fill="black"/>
<path d="M8.66543 81.4631C7.76412 81.4631 7.03528 80.7326 7.03528 79.8329V75.0059C7.03528 74.1046 7.76575 73.3757 8.66543 73.3757C9.56511 73.3757 10.2956 74.1062 10.2956 75.0059V79.8329C10.2956 80.7342 9.56511 81.4631 8.66543 81.4631Z" fill="white"/>
<path d="M8.66536 81.8255C7.56558 81.8255 6.67078 80.9307 6.67078 79.8309V75.0039C6.67078 73.9041 7.56558 73.0093 8.66536 73.0093C9.76515 73.0093 10.66 73.9041 10.66 75.0039V79.8309C10.66 80.9307 9.76515 81.8255 8.66536 81.8255ZM8.66536 73.7381C7.96579 73.7381 7.39801 74.3059 7.39801 75.0055V79.8325C7.39801 80.5321 7.96742 81.0999 8.66536 81.0999C9.36331 81.0999 9.93273 80.5321 9.93273 79.8325V75.0055C9.93273 74.3076 9.36331 73.7381 8.66536 73.7381Z" fill="black"/>
<path d="M24.217 79.5136C24.1438 79.5136 24.069 79.4908 24.0055 79.4453L19.0175 75.8563C18.8548 75.7392 18.8173 75.5114 18.9345 75.3487C19.0516 75.1861 19.2794 75.1486 19.4421 75.2658L24.4302 78.8547C24.5929 78.9719 24.6303 79.1996 24.5131 79.3623C24.4416 79.4616 24.3309 79.5136 24.2187 79.5136H24.217Z" fill="black"/>
<path d="M15.3536 87.951C15.16 87.951 14.9989 87.798 14.9908 87.6044C14.8086 83.5307 17.41 81.868 18.5781 81.3295L16.647 79.4081C16.5054 79.2666 16.5038 79.0355 16.647 78.894C16.7885 78.7525 17.0179 78.7508 17.1611 78.894L19.4843 81.2075C19.5754 81.2986 19.6128 81.432 19.5787 81.5572C19.5461 81.6825 19.4485 81.7801 19.3249 81.8159C19.1703 81.8598 15.5098 82.9499 15.7164 87.5735C15.7245 87.7736 15.57 87.9445 15.3699 87.9526C15.365 87.9526 15.3585 87.9526 15.3536 87.9526V87.951Z" fill="black"/>
<path d="M69.6777 236.496C69.6739 236.443 69.6698 236.386 69.6655 236.324C69.6359 235.907 69.5942 235.291 69.5457 234.501C69.4486 232.92 69.3244 230.641 69.2156 227.85C68.9979 222.266 68.8424 214.634 69.0904 206.441C69.3384 198.245 69.9898 189.499 71.3829 181.682C72.758 173.967 74.8457 167.218 77.9354 162.79L119.6 161.038C119.603 161.042 119.606 161.046 119.609 161.05C119.716 161.199 119.875 161.428 120.079 161.741C120.485 162.366 121.069 163.329 121.766 164.663C123.161 167.333 125.011 171.492 126.812 177.426C130.394 189.226 133.784 208.049 133.008 236.132L69.6777 236.496Z" fill="white" stroke="black"/>
<path d="M66.2545 84.1508L60.8287 160.723C60.5831 164.181 62.9941 167.269 66.4123 167.858C77.2654 169.729 101.288 172.606 125.633 167.086C128.381 166.462 130.14 163.778 129.574 161.019L114.351 86.7864C114.351 86.7864 86.8982 82.9062 66.2545 84.1508Z" fill="#87ED82"/>
<path d="M95.1287 170.676C83.2051 170.676 72.9719 169.356 66.352 168.216C62.7371 167.593 60.2088 164.36 60.4675 160.696L65.8932 84.1244C65.9063 83.9422 66.051 83.799 66.2333 83.7876C86.6753 82.5512 114.126 86.3874 114.401 86.4265C114.552 86.4476 114.674 86.5631 114.705 86.7128L129.928 160.945C130.537 163.913 128.685 166.766 125.713 167.44C115.099 169.846 104.581 170.676 95.1271 170.676H95.1287ZM66.5945 84.4937L61.1915 160.747C60.9588 164.038 63.23 166.94 66.4741 167.5C78.2903 169.537 101.679 172.145 125.552 166.73C128.135 166.145 129.744 163.667 129.217 161.092L114.045 87.1114C111.237 86.7291 85.8749 83.3858 66.5928 84.4953L66.5945 84.4937Z" fill="black"/>
<path d="M81.7037 159.109C81.5492 159.109 81.4044 159.01 81.3572 158.853C81.2986 158.661 81.406 158.458 81.5963 158.399C102.806 151.841 112.869 127.508 112.968 127.264C113.043 127.078 113.256 126.989 113.441 127.064C113.627 127.139 113.718 127.35 113.641 127.537C113.541 127.786 103.346 152.437 81.8111 159.096C81.7753 159.107 81.7395 159.112 81.7037 159.112V159.109Z" fill="black"/>
<path d="M101.708 57.7849C100.452 56.2768 99.6046 54.4693 99.2434 52.5414C98.6008 49.1054 97.9012 46.0647 97.9012 46.0647C92.7683 50.3191 86.9847 47.3923 86.9847 47.3923C82.1544 51.1472 83.0281 56.433 83.0281 56.433C83.0281 56.433 78.5345 55.94 78.8485 58.8408C79.1609 61.7188 83.4933 62.4411 83.5584 62.4509L78.2824 83.7568C77.9521 85.0893 78.7835 86.4412 80.1257 86.7341C88.2488 88.5074 93.341 87.842 95.9148 87.1554C96.6664 86.9553 96.8958 86.0247 96.341 85.4781C93.5086 82.6798 93.0303 74.6836 93.04 69.4336C95.661 70.0176 98.0785 69.497 99.2792 67.0859C100.137 65.363 100.366 63.5507 100.265 60.8289C100.247 60.3505 102.019 58.3397 101.707 57.7866L101.708 57.7849Z" fill="white"/>
<path d="M89.7226 88.2374C87.1261 88.2374 83.9259 87.9332 80.049 87.0872C79.3072 86.9245 78.6759 86.4788 78.2741 85.8313C77.869 85.1805 77.747 84.411 77.9308 83.6675L83.1157 62.7308C81.9834 62.4754 78.7735 61.5188 78.4888 58.8783C78.4059 58.1169 78.6076 57.4873 79.0859 57.009C80.0246 56.0719 81.7931 56.0117 82.6212 56.041C82.5187 54.6467 82.587 50.3485 86.7633 47.1028C86.8739 47.0166 87.0252 47.0019 87.1505 47.0654C87.2058 47.0947 92.7893 49.8311 97.6717 45.7834C97.7693 45.702 97.901 45.6776 98.0198 45.7183C98.1386 45.759 98.2297 45.8582 98.2574 45.9819C98.2639 46.0128 98.965 49.0697 99.6028 52.4732C99.9526 54.3376 100.777 56.0947 101.989 57.5524C102.004 57.5687 102.015 57.5866 102.027 57.6061C102.299 58.0877 101.893 58.7807 101.191 59.8642C100.965 60.2124 100.655 60.6907 100.631 60.8339C100.74 63.7444 100.454 65.547 99.6093 67.2455C98.503 69.4678 96.3099 70.3919 93.4092 69.8746C93.4254 74.6447 93.8859 82.5368 96.6012 85.2179C96.9591 85.5726 97.0974 86.0704 96.9705 86.5504C96.8452 87.0205 96.4873 87.3784 96.0138 87.5037C94.5334 87.8991 92.4656 88.2374 89.7259 88.2374H89.7226ZM82.3072 56.7634C81.5198 56.7634 80.2491 56.874 79.6 57.5231C79.2811 57.8436 79.1542 58.2601 79.2128 58.8002C79.4943 61.3952 83.5778 62.085 83.6201 62.0915C83.7209 62.1077 83.8088 62.1647 83.8657 62.2493C83.9211 62.3339 83.9406 62.438 83.9162 62.5372L78.6401 83.8432C78.5035 84.3947 78.5946 84.9657 78.8939 85.4489C79.1917 85.9289 79.6586 86.2591 80.2068 86.3779C88.4422 88.1756 93.5263 87.4159 95.8251 86.8025C96.048 86.7423 96.2091 86.5829 96.2676 86.3633C96.3278 86.1371 96.2611 85.9028 96.0903 85.7336C93.2514 82.9289 92.6689 75.3198 92.6819 69.4288C92.6819 69.3182 92.7324 69.2141 92.8186 69.1457C92.9048 69.0774 93.0171 69.0514 93.1245 69.0758C95.08 69.5118 97.6798 69.4923 98.9602 66.9217C99.746 65.342 100.011 63.637 99.907 60.8404C99.8957 60.5427 100.132 60.1652 100.582 59.4689C100.865 59.0313 101.386 58.2276 101.388 57.9608C100.12 56.4201 99.2579 54.5703 98.8902 52.6066C98.4168 50.0768 97.9076 47.7389 97.6782 46.7042C93.1066 50.1077 88.1282 48.2791 87.0431 47.8121C82.626 51.3832 83.3842 56.3225 83.3923 56.3713C83.4102 56.4835 83.376 56.5974 83.298 56.6804C83.2199 56.7634 83.1076 56.8057 82.9953 56.7926C82.9872 56.7926 82.7123 56.7634 82.3121 56.7634H82.3072Z" fill="black"/>
<path d="M93.0431 69.7949C93.022 69.7949 92.9992 69.7932 92.9764 69.7884C90.9021 69.4044 88.0534 67.4733 87.933 67.3919C87.767 67.278 87.7248 67.0519 87.837 66.8876C87.9509 66.7216 88.1754 66.6793 88.3413 66.7916C88.369 66.8111 91.1836 68.7178 93.1066 69.0741C93.3034 69.1099 93.4336 69.3003 93.3978 69.4971C93.3652 69.6728 93.2123 69.7949 93.0415 69.7949H93.0431Z" fill="black"/>
</svg>
