<svg width="151" height="261" viewBox="0 0 151 261" fill="none" xmlns="http://www.w3.org/2000/svg">
<path d="M93.9014 191.514C91.9142 184.952 92.2479 180.809 94.0545 176.494L97.0921 170.45L87.958 166.785L85.1593 173.665C84.256 175.882 82.9516 177.912 81.3104 179.651L79.8008 181.253L93.9014 191.514Z" fill="white"/>
<path d="M93.9045 192.19C93.7636 192.19 93.6258 192.147 93.5064 192.062L79.4058 181.801C79.2496 181.687 79.1485 181.51 79.1302 181.317C79.1118 181.124 79.1792 180.931 79.3108 180.79L80.8204 179.189C82.4096 177.502 83.6589 175.56 84.5347 173.411L87.3334 166.53C87.4742 166.188 87.8661 166.019 88.2122 166.157L97.3462 169.822C97.5207 169.893 97.6585 170.033 97.7259 170.211C97.7932 170.389 97.784 170.585 97.6983 170.753L94.6608 176.797C93.0991 180.536 92.4714 184.459 94.5505 191.318C94.6363 191.596 94.5322 191.896 94.2964 192.065C94.18 192.147 94.0422 192.19 93.9045 192.19ZM80.8204 181.158L92.7286 189.823C91.3844 184.526 91.611 180.588 93.4329 176.234L96.1612 170.805L88.3346 167.663L85.787 173.919C84.85 176.222 83.5089 178.307 81.8064 180.114L80.8235 181.155L80.8204 181.158Z" fill="black"/>
<path d="M83.9345 177.894C83.7079 177.18 82.771 177.006 82.2596 177.551C80.8143 179.088 78.2851 181.66 76.3652 182.989C74.577 184.226 74.0166 186.611 75.0302 188.522C77.8962 193.923 85.1502 205.648 92.7961 214.595C93.3197 215.207 94.6179 216.025 96.4919 215.183C102.778 212.357 96.8012 199.576 93.3931 186.271C93.2584 185.748 92.8359 185.35 92.3061 185.252L90.4077 184.903C86.8986 184.204 85.4227 182.551 83.9345 177.894Z" fill="black"/>
<path d="M76.7939 182.695C76.7939 182.695 76.503 182.891 76.3622 182.989C74.5739 184.226 74.0136 186.611 75.0271 188.522C77.8932 193.923 85.1471 205.648 92.793 214.595C93.3166 215.207 94.6149 216.025 96.4888 215.183C97.0614 214.926 97.928 214.221 97.928 214.221L97.4136 213.566C90.0892 204.242 83.463 194.389 77.587 184.091L76.7908 182.695H76.7939Z" fill="white"/>
<path d="M94.9425 216.218C93.7575 216.218 92.8205 215.667 92.2816 215.036C84.6418 206.095 77.4216 194.471 74.4331 188.84C73.2511 186.614 73.9186 183.859 75.9824 182.432L76.4173 182.135C76.5734 182.03 76.7694 181.994 76.9501 182.037C77.1338 182.079 77.2899 182.196 77.3848 182.361L78.181 183.757C84.0203 193.991 90.671 203.881 97.9525 213.153L98.4669 213.808C98.6935 214.099 98.6476 214.519 98.3628 214.751C98.2679 214.828 97.4105 215.52 96.7736 215.805C96.1183 216.099 95.5059 216.221 94.9456 216.221L94.9425 216.218ZM76.5734 183.675C75.2139 184.743 74.8005 186.651 75.6272 188.207C78.5882 193.786 85.7411 205.299 93.3104 214.157C93.488 214.365 94.4587 215.358 96.2163 214.568C96.4276 214.473 96.7185 214.283 96.9757 214.099L96.8869 213.986C89.5656 204.662 82.8751 194.716 77.0051 184.425L76.5765 183.672L76.5734 183.675Z" fill="black"/>
<path d="M95.9958 196.897C95.959 196.897 95.9223 196.897 95.8825 196.887L89.5839 195.831C89.2165 195.77 88.9684 195.421 89.0297 195.053C89.0909 194.686 89.44 194.435 89.8074 194.499L96.106 195.555C96.4735 195.617 96.7215 195.966 96.6603 196.333C96.6051 196.664 96.3173 196.897 95.9927 196.897H95.9958Z" fill="white"/>
<path d="M97.0155 200.485C96.9819 200.485 96.9482 200.485 96.9145 200.479L91.7672 199.717C91.3967 199.662 91.1426 199.319 91.1977 198.948C91.2528 198.578 91.5958 198.327 91.9663 198.379L97.1135 199.141C97.484 199.196 97.7382 199.539 97.683 199.91C97.6341 200.246 97.3432 200.485 97.0155 200.485Z" fill="white"/>
<path d="M42.4348 96.2322C42.4348 96.2322 105.837 82.3275 125.158 93.3355C128.07 94.9951 130.829 98.4705 131.439 101.765C133.294 111.796 127.709 133.653 97.1624 174.746C96.7306 175.324 95.9621 175.551 95.2884 175.297L85.5971 171.622C84.8102 171.325 84.3845 170.474 84.6142 169.666L97.5513 124.381C97.8881 123.202 96.9143 122.063 95.6957 122.21L35.2758 129.636L42.4317 96.2322H42.4348Z" fill="white"/>
<path d="M95.8579 176.071C95.5854 176.071 95.3129 176.022 95.0495 175.924L85.3582 172.25C84.2528 171.83 83.6404 170.612 83.965 169.476L96.9021 124.191C97.0001 123.852 96.9235 123.502 96.6938 123.233C96.4642 122.964 96.1304 122.832 95.7814 122.878L35.3614 130.303C35.144 130.331 34.9267 130.251 34.7797 130.089C34.6327 129.927 34.5715 129.706 34.6174 129.492L41.7734 96.0912C41.8285 95.8309 42.0305 95.6288 42.2908 95.5737C44.8905 95.0042 106.168 81.7425 125.495 92.7505C128.71 94.5816 131.494 98.3234 132.106 101.643C133.613 109.788 131.148 130.165 97.7074 175.15C97.2665 175.744 96.5714 176.074 95.8579 176.074V176.071ZM95.91 121.518C96.602 121.518 97.2664 121.818 97.7227 122.354C98.2432 122.964 98.4239 123.79 98.2034 124.562L85.2664 169.846C85.1317 170.312 85.3827 170.814 85.8359 170.985L95.5272 174.66C95.9161 174.807 96.3693 174.678 96.6204 174.338C129.755 129.767 132.241 109.812 130.774 101.885C130.226 98.9205 127.724 95.5737 124.822 93.9202C106.762 83.6318 48.5711 95.6166 43.0012 96.7985L36.1362 128.843L95.6129 121.534C95.7109 121.521 95.8089 121.515 95.9069 121.515L95.91 121.518Z" fill="black"/>
<path d="M61.1559 215.623L62.3991 221.527C64.0588 230.119 57.7816 234.516 57.7816 234.516L76.3467 236.776C76.3467 236.776 72.2926 234.311 73.1193 222.375L74.1818 212.39L61.159 215.623H61.1559Z" fill="white"/>
<path d="M76.3467 237.453C76.3191 237.453 76.2916 237.453 76.264 237.447L57.6989 235.187C57.4203 235.153 57.1937 234.951 57.1233 234.679C57.0559 234.406 57.1631 234.121 57.3927 233.962C57.6346 233.794 63.2871 229.694 61.7347 221.656L60.4946 215.765C60.4211 215.409 60.6385 215.057 60.9937 214.969L74.0165 211.735C74.2339 211.683 74.4574 211.735 74.6228 211.882C74.7881 212.026 74.8739 212.243 74.8494 212.464L73.7868 222.449C73.0121 233.665 76.6651 236.182 76.7019 236.204C76.9652 236.375 77.0816 236.709 76.9713 237.003C76.8733 237.272 76.6192 237.45 76.3406 237.45L76.3467 237.453ZM59.3463 234.027L74.6473 235.888C73.4286 234.042 71.9068 230.119 72.4457 222.33L73.4071 213.281L61.9552 216.126L63.0636 221.39C64.3252 227.912 61.1682 232.183 59.3494 234.027H59.3463Z" fill="black"/>
<path d="M60.7702 226.57C59.2392 228.331 56.465 231.641 54.3369 234.844C52.9988 236.853 53.801 239.171 55.231 241.097C58.1552 245.025 62.1665 248.047 66.879 251.159C70.9974 253.875 75.5996 256.741 81.1388 259.273C82.6423 259.962 86.0319 260.902 88.2978 259.772C95.1415 256.358 83.7293 245.665 74.7545 233.347C74.4024 232.863 73.8052 232.627 73.2173 232.743L71.1168 233.163C69.0132 233.582 66.8728 232.698 65.6817 230.919L62.8554 226.696C62.3747 225.976 61.3428 225.915 60.7733 226.573L60.7702 226.57Z" fill="black"/>
<path d="M55.4392 233.355C55.4392 233.355 54.4409 234.687 54.3368 234.844C54.0031 235.346 53.804 235.934 53.6968 236.534C53.3447 238.469 54.0184 240.45 55.3749 241.871C55.7025 242.214 56.1495 242.652 56.667 243.148C62.0531 248.274 68.1098 252.643 74.635 256.21C77.945 258.02 85.2908 261.737 88.2947 259.772C89.2225 259.165 89.7889 257.319 89.7889 257.319C89.7889 257.319 88.0344 258.372 82.7524 255.748C73.8297 251.314 67.7853 246.335 60.4211 240.386C58.9727 239.216 57.9715 238.141 56.9396 236.865C56.1251 235.857 55.6014 234.642 55.4361 233.359L55.4392 233.355Z" fill="white"/>
<path d="M86.0503 261C83.3588 261 79.4271 259.598 74.3135 256.802C67.6475 253.161 61.5541 248.73 56.2017 243.638C55.6719 243.136 55.2187 242.689 54.885 242.34C53.3417 240.726 52.6497 238.509 53.0294 236.415C53.1672 235.662 53.4152 235.006 53.7734 234.471C53.8837 234.305 54.7288 233.175 54.9003 232.952C55.0656 232.731 55.3473 232.633 55.6137 232.704C55.8801 232.774 56.0761 232.998 56.1128 233.27C56.2629 234.428 56.7314 235.524 57.4724 236.439C58.6145 237.854 59.5944 238.843 60.8529 239.86L61.5633 240.432C68.5018 246.039 74.4942 250.883 83.0617 255.142C87.7956 257.494 89.4583 256.735 89.4736 256.725C89.7186 256.606 90.0187 256.637 90.2238 256.811C90.429 256.986 90.5239 257.261 90.4443 257.518C90.3769 257.73 89.7707 259.619 88.6714 260.339C87.9947 260.78 87.122 261 86.0533 261H86.0503ZM55.1146 234.924C55.0013 235.077 54.9217 235.187 54.9003 235.218C54.6461 235.597 54.4655 236.081 54.3614 236.654C54.0582 238.326 54.6217 240.102 55.8648 241.406C56.1863 241.743 56.6242 242.172 57.1356 242.658C62.4023 247.671 68.4008 252.031 74.9627 255.617C83.714 260.397 86.8434 259.916 87.9304 259.206C88.206 259.025 88.4785 258.627 88.6989 258.198C87.4956 258.226 85.5328 257.883 82.4555 256.352C73.7532 252.025 67.7087 247.141 60.7089 241.483L59.9986 240.91C58.6605 239.829 57.6224 238.779 56.416 237.288C55.8434 236.577 55.4024 235.778 55.1116 234.924H55.1146Z" fill="black"/>
<path d="M73.0766 242.6C72.7642 242.6 72.4856 242.383 72.4152 242.067C72.3355 241.703 72.5683 241.342 72.9327 241.265L79.859 239.768C80.2233 239.691 80.5847 239.921 80.6612 240.285C80.7408 240.65 80.5081 241.011 80.1437 241.088L73.2174 242.585C73.1684 242.594 73.1225 242.6 73.0735 242.6H73.0766Z" fill="white"/>
<path d="M76.9101 245.708C76.6039 245.708 76.3253 245.5 76.2518 245.188C76.166 244.824 76.3926 244.459 76.754 244.373L82.3728 243.048C82.7341 242.959 83.0985 243.185 83.1873 243.55C83.273 243.914 83.0464 244.279 82.6851 244.364L77.0663 245.69C77.0142 245.702 76.9622 245.708 76.9101 245.708Z" fill="white"/>
<path d="M83.4568 114.357C64.9836 98.5598 5.54351 98.0637 5.54351 98.0637C5.54351 98.0637 -1.87882 106.916 1.66395 124.725C2.83364 130.598 6.98573 135.867 13.5477 135.867L50.0134 136.177C52.6865 136.198 54.8085 138.427 54.7044 141.097C54.0246 158.726 53.4214 195.17 58.4615 220.003C58.6666 221.01 59.426 221.809 60.4151 222.079C62.7453 222.71 67.3076 223.732 72.2559 223.665C73.7991 223.644 75.0913 222.483 75.2965 220.952L87.3915 130.641C87.7559 127.918 87.7651 125.153 87.3088 122.444C86.822 119.55 85.7533 116.323 83.4568 114.357Z" fill="white"/>
<path d="M71.7935 224.341C66.9279 224.341 62.491 223.34 60.2374 222.728C58.9881 222.388 58.0542 221.396 57.797 220.134C52.815 195.586 53.2958 160.06 54.0276 141.067C54.0705 139.958 53.6724 138.908 52.9069 138.106C52.1414 137.306 51.1126 136.859 50.0041 136.85L13.5384 136.544C5.99974 136.544 2.07113 130.248 0.996361 124.859C-2.56784 106.94 4.71061 98.0022 5.02293 97.6317C5.15154 97.4755 5.35974 97.4051 5.54653 97.3898C7.9839 97.4112 65.4489 98.0695 83.8946 113.848C85.9523 115.609 87.3241 118.463 87.9732 122.336C88.4203 124.997 88.4479 127.82 88.059 130.732L75.964 221.044C75.716 222.899 74.1237 224.317 72.262 224.341C72.1027 224.341 71.9466 224.341 71.7904 224.341H71.7935ZM5.87419 98.7432C4.76573 100.28 -0.785711 108.949 2.32531 124.59C3.29903 129.48 6.82033 135.187 13.5445 135.187L50.0164 135.494C51.4923 135.506 52.8671 136.1 53.8867 137.169C54.9064 138.237 55.4361 139.64 55.3779 141.116C54.6492 160.048 54.1685 195.451 59.1228 219.862C59.2759 220.618 59.8393 221.215 60.5926 221.42C62.8493 222.033 67.3689 223.052 72.2497 222.982C73.447 222.967 74.4697 222.051 74.6289 220.857L86.7239 130.545C87.0944 127.768 87.0699 125.08 86.6443 122.55C86.0472 118.998 84.8285 116.414 83.0189 114.868C65.6602 100.023 10.7244 98.8167 5.87419 98.7401V98.7432Z" fill="black"/>
<path d="M70.8781 56.3402L75.7682 65.7223C80.5144 74.2623 88.148 79.9239 96.5992 84.8201L100.026 86.8074C102.221 88.0812 104.778 88.5895 107.295 88.2526L107.681 88.2006C111.524 87.6862 115.421 88.6048 118.637 90.7758L110.118 94.0399C104.925 96.0302 99.1437 95.9475 94.0516 93.7092C89.1738 91.5627 78.1811 88.9385 72.9971 82.9002C62.133 70.251 62.5586 67.4401 62.5586 67.4401L70.8843 56.3402H70.8781Z" fill="white"/>
<path d="M102.438 96.1496C99.4774 96.1496 96.5378 95.5403 93.7759 94.3247C92.6429 93.8255 91.1793 93.3019 89.4829 92.6987C84.0264 90.7513 76.552 88.0812 72.4795 83.3381C61.9461 71.0747 61.8053 67.8565 61.8849 67.3359C61.9032 67.2257 61.9461 67.1216 62.0135 67.0297L70.3392 55.9299C70.4769 55.7431 70.7035 55.6421 70.9362 55.6605C71.169 55.6788 71.3741 55.8166 71.4813 56.0218L76.3713 65.4038C81.3594 74.3755 89.5687 79.9546 96.9421 84.2292L100.368 86.2164C102.426 87.4075 104.857 87.8913 107.209 87.576L107.595 87.5239C111.606 86.9881 115.663 87.9434 119.019 90.2093C119.227 90.3501 119.341 90.5951 119.313 90.8462C119.286 91.0973 119.12 91.3116 118.885 91.4004L110.366 94.6645C107.788 95.6536 105.112 96.1466 102.448 96.1466L102.438 96.1496ZM63.2383 67.6544C63.3516 68.3005 64.3559 71.8034 73.5053 82.4593C77.3451 86.9299 84.6235 89.5295 89.9361 91.428C91.6539 92.0435 93.139 92.5732 94.3179 93.0907C99.2385 95.2555 104.759 95.3657 109.87 93.4091L117.109 90.6349C114.273 89.0641 111.006 88.4394 107.763 88.8712L107.38 88.9232C104.732 89.2754 101.997 88.7334 99.6825 87.3922L96.2561 85.405C88.7235 81.0385 80.3275 75.3248 75.171 66.0499L70.7709 57.6048L63.2322 67.6544H63.2383Z" fill="black"/>
<path d="M46.1062 101.634C46.1062 101.634 46.7278 102.901 30.2387 105.284C18.352 107.001 7.56138 106.242 2.46004 105.685C0.797363 105.504 -0.323342 103.903 0.0839075 102.283C1.42201 96.9334 2.3988 91.9668 7.54913 78.3837C11.1225 68.9557 5.69356 51.7594 16.7934 41.5414C35.5238 24.296 61.3673 46.2998 61.3673 46.2998L69.4939 58.2355C60.1823 69.1517 52.8671 81.6233 47.8852 95.0809L46.1093 101.637L46.1062 101.634Z" fill="black"/>
<path d="M39.1646 68.7752C38.8247 68.7752 38.5308 68.518 38.4941 68.172L37.1008 55.1829C37.061 54.8124 37.3305 54.4786 37.701 54.4388C38.0684 54.399 38.4053 54.6685 38.4451 55.039L39.8383 68.0281C39.8781 68.3986 39.6086 68.7324 39.2381 68.7722C39.2136 68.7722 39.1891 68.7752 39.1646 68.7752Z" fill="white"/>
<path d="M21.9898 75.9097C21.7448 75.9097 21.5121 75.7781 21.3896 75.5484C18.3551 69.7551 14.5215 54.5797 14.4419 51.3339C14.4327 50.9604 14.7266 50.6511 15.1002 50.6419C15.4891 50.6235 15.783 50.9267 15.7922 51.3002C15.8688 54.3745 19.6902 69.3938 22.5868 74.9207C22.7614 75.2514 22.6328 75.6587 22.3021 75.8332C22.201 75.8852 22.0939 75.9097 21.9898 75.9097Z" fill="white"/>
<path d="M126.984 91.961L82.9609 95.3169L107.148 51.5943C108.048 49.9469 109.754 48.8599 111.664 48.716L147.392 45.9938C149.661 45.8223 151.226 48.1464 150.154 50.1031L126.984 91.964V91.961Z" fill="#87ED82"/>
<path d="M121.261 71.3258C120.397 72.9027 118.391 74.2806 116.778 74.4031C115.164 74.5256 114.555 73.3467 115.418 71.7698C116.282 70.1928 118.287 68.8149 119.901 68.6925C121.515 68.57 122.124 69.7488 121.261 71.3258Z" fill="white"/>
<path d="M124.837 94.7964L55.7762 100.06C54.3493 100.167 53.1061 99.0985 52.9959 97.6716L52.8795 97.2828L127.106 91.6272L127.222 92.0161C127.33 93.443 126.261 94.6892 124.834 94.7995L124.837 94.7964Z" fill="#87ED82"/>
<path d="M89.5962 86.8352L80.6061 83.7241C79.271 83.2618 77.789 83.5282 76.702 84.4315L72.5315 87.8793C71.7354 88.5376 70.7188 88.8622 69.6869 88.7948C65.1888 88.4978 44.2353 82.7688 42.6308 78.9627C41.2804 75.7598 40.224 71.9292 40.224 71.9292L23.9708 77.6123C23.9708 77.6123 24.2341 82.6341 30.842 89.3736C36.4669 95.1088 50.9718 97.0378 70.9239 95.8344C70.9239 95.8344 75.0944 95.3629 78.5913 91.1894C80.8235 88.5223 86.2647 89.8972 89.4921 89.1041C90.6373 88.8224 90.7107 87.221 89.5962 86.8352Z" fill="white"/>
<path d="M60.3539 96.8482C45.1601 96.8482 34.887 94.469 30.3583 89.8484C23.6494 83.0048 23.3065 77.8667 23.2942 77.6493C23.2789 77.3493 23.4626 77.0737 23.7474 76.9757L40.0006 71.2926C40.1782 71.2313 40.3711 71.2436 40.5365 71.3324C40.7018 71.4181 40.8243 71.5712 40.8733 71.7519C40.8825 71.7886 41.9358 75.5794 43.2525 78.7027C44.6335 81.976 65.0235 87.8091 69.7329 88.1215C70.5933 88.1827 71.4385 87.9071 72.0999 87.359L76.2703 83.9112C77.535 82.867 79.2803 82.5516 80.8266 83.0875L89.8167 86.1985C90.6006 86.471 91.1028 87.2121 91.066 88.0419C91.0262 88.8717 90.4598 89.5637 89.6514 89.7627C88.448 90.0567 87.0334 90.0689 85.533 90.0842C82.9884 90.1057 80.3582 90.1301 79.1058 91.6244C75.4773 95.9572 71.1782 96.4869 70.9975 96.5084C67.222 96.738 63.667 96.8513 60.3539 96.8513V96.8482ZM24.718 78.0688C24.9814 79.4559 26.1725 83.6479 31.3228 88.9023C36.5589 94.2425 50.24 96.4073 70.8811 95.1611C70.8811 95.1611 74.8067 94.6528 78.0708 90.7548C79.7243 88.7798 82.67 88.7553 85.5238 88.7308C86.9415 88.7186 88.2796 88.7063 89.3299 88.4491C89.6697 88.3664 89.7126 88.0694 89.7157 87.9806C89.7187 87.8918 89.7065 87.5917 89.3758 87.4784L80.3857 84.3674C79.2803 83.9847 78.0341 84.2113 77.1338 84.9553L72.9633 88.4032C72.0325 89.1717 70.8536 89.5514 69.6441 89.4718C65.4767 89.1962 43.8343 83.5621 42.0063 79.2293C40.9835 76.8042 40.1384 74.0637 39.7679 72.8083L24.715 78.0688H24.718Z" fill="black"/>
<path d="M59.1199 45.106C70.2197 51.0524 74.7117 59.7731 80.5265 67.569C76.4295 71.2679 71.5425 76.2896 68.3703 79.8569C65.3848 77.5573 61.6032 75.2302 58.8566 71.9293L59.1199 45.106Z" fill="black"/>
<path d="M45.316 23.4935L45.2916 35.6498C45.3681 37.2359 46.4062 38.6169 47.9096 39.1282L50.2245 40.1234C50.8216 40.3806 48.6782 43.6202 39.1553 42.1596C35.4931 41.5993 32.0115 40.1816 28.9709 38.0688L26.7418 36.5163C28.282 36.2897 32.5137 35.1598 32.9026 33.6502L36.4148 17.8226L45.316 23.4904V23.4935Z" fill="white"/>
<path d="M43.5983 43.204C42.2786 43.204 40.769 43.0907 39.0574 42.8304C35.3462 42.2609 31.7268 40.8064 28.5913 38.6262L26.3622 37.0769C26.1356 36.9176 26.0254 36.6359 26.0897 36.3665C26.154 36.097 26.3744 35.8918 26.65 35.852C28.7016 35.5489 32.027 34.37 32.2535 33.4882L35.7595 17.682C35.8085 17.4676 35.9555 17.287 36.1607 17.2043C36.3628 17.1216 36.5985 17.14 36.7823 17.2594L45.6836 22.9272C45.8796 23.0528 45.9959 23.2671 45.9959 23.4998L45.9714 35.6561C46.0326 36.9421 46.8808 38.0689 48.1301 38.4946L50.494 39.5081C50.8951 39.6796 51.085 40.1205 50.9533 40.5798C50.6165 41.7618 48.3322 43.2101 43.5983 43.2101V43.204ZM28.4015 36.8472L29.3599 37.5147C32.3301 39.5816 35.7534 40.9564 39.2595 41.4923C45.7755 42.4905 48.5741 41.1983 49.3917 40.5002L47.6433 39.7469C45.9132 39.159 44.7068 37.5545 44.618 35.6775L44.6394 23.8611L36.868 18.9129L33.5671 33.7974C33.1599 35.3836 30.2571 36.3695 28.4015 36.8441V36.8472Z" fill="black"/>
<path d="M61.5172 9.79423C58.8808 7.81004 60.4424 12.9236 52.2852 3.217C49.0364 -0.647275 47.9279 5.42166 47.0828 4.42038C43.9595 0.724511 44.0698 0.846993 41.8498 0.0876107C40.38 -0.417624 38.0223 1.3461 37.1067 3.22619C35.8972 5.70643 37.3792 7.54364 35.8298 13.4534C34.7398 17.6024 33.0832 19.4641 34.1059 20.8543C35.1409 22.2628 37.3792 21.0992 38.6255 22.5537C40.2392 24.4338 37.5477 27.6091 38.5275 30.3221C39.146 32.0337 41.7028 34.3394 47.7289 35.1539C48.7057 35.2856 49.6427 34.7008 49.955 33.7638C50.3561 32.5635 50.8521 31.0416 51.2073 29.5474C52.8945 22.4343 51.7279 19.7948 53.4518 18.8088C56.0913 17.2962 59.5055 21.4452 61.456 20.0581C63.483 18.619 65.1304 12.5102 61.5233 9.79423H61.5172Z" fill="black"/>
<path d="M46.5532 11.5397L46.3572 13.5239C46.2654 14.4579 46.1092 15.3856 45.8887 16.3012C45.4754 18.0159 44.7895 20.9708 44.5323 22.6549C44.1526 25.129 51.7096 26.8315 51.7096 26.8315L52.8518 25.9068L53.7428 26.0874C53.9143 26.1211 54.095 26.1211 54.2634 26.066C54.6798 25.9251 54.9401 25.5454 54.937 25.1351C54.9248 22.8968 55.0626 17.9761 56.3609 14.3446C56.3609 14.3446 52.665 10.2169 46.5532 11.5397Z" fill="white"/>
<path d="M51.7127 27.5082C51.6637 27.5082 51.6147 27.5021 51.5626 27.4929C50.197 27.1867 43.4115 25.5026 43.8647 22.5539C44.128 20.8299 44.8354 17.7985 45.2334 16.145C45.4447 15.2662 45.5978 14.3629 45.6866 13.4596L45.8826 11.4754C45.9102 11.1815 46.1245 10.9426 46.4123 10.8814C52.8365 9.49431 56.7038 13.7168 56.8661 13.8944C57.0314 14.0782 57.0835 14.3384 56.9977 14.5742C55.7147 18.1629 55.6014 23.154 55.6137 25.1351C55.6168 25.8517 55.1605 26.4824 54.4777 26.7121C54.2113 26.8009 53.9112 26.8162 53.6081 26.755L53.0294 26.6386L52.1352 27.3612C52.0128 27.4592 51.8627 27.5113 51.7096 27.5113L51.7127 27.5082ZM47.1778 12.1093L47.0309 13.5944C46.9359 14.5589 46.7736 15.5234 46.547 16.4635C46.1551 18.0955 45.457 21.0841 45.1997 22.7621C45.0221 23.9226 48.6721 25.4077 51.5412 26.1027L52.4262 25.3862C52.5823 25.2576 52.7875 25.2086 52.9865 25.2484L53.8776 25.4291C53.9449 25.4413 54.0092 25.4444 54.049 25.4291C54.1776 25.3862 54.2603 25.2729 54.2603 25.1443C54.245 22.6886 54.4042 18.1292 55.5831 14.5283C54.6951 13.6985 51.7066 11.3376 47.1748 12.1123L47.1778 12.1093Z" fill="black"/>
<path d="M44.2445 17.3853C44.2445 17.3853 44.7191 12.6116 42.5022 12.8688C40.2853 13.126 39.8964 18.3958 44.2445 17.3853Z" fill="white"/>
</svg>
